<svg xmlns="http://www.w3.org/2000/svg" width="26.279" height="26.278" viewBox="0 0 26.279 26.278"><defs><style>.a{fill:#151824;}.b{fill:#fff;}</style></defs><path class="a" d="M0,13.139A13.139,13.139,0,1,1,13.139,26.278,13.154,13.154,0,0,1,0,13.139Z"/><g transform="translate(6.756 8.617)"><path class="b" d="M13.727,53.157,12.5,51.93a.871.871,0,0,0-1.227,0L5.357,57.856,2.706,55.2a.835.835,0,0,0-.613-.252.835.835,0,0,0-.613.252L.253,56.422a.871.871,0,0,0,0,1.227l3.265,3.265L4.744,62.14a.871.871,0,0,0,1.227,0L7.2,60.913l6.53-6.53a.871.871,0,0,0,0-1.227Z" transform="translate(0 -51.678)"/></g></svg>