<svg xmlns="http://www.w3.org/2000/svg" width="19.757" height="19.142" viewBox="0 0 19.757 19.142"><defs><style>.a{fill:#182964;}</style></defs><g transform="translate(-18 376)"><path class="a" d="M19.673,7.473a.753.753,0,0,0-.65-.38H.74A.736.736,0,0,0,.1,7.461.72.72,0,0,0,.1,8.2L6.323,18.946V25.5a.738.738,0,0,0,.736.736h4.908A.738.738,0,0,0,12.7,25.5V18.983L19.637,8.222A.742.742,0,0,0,19.673,7.473Zm-8.319,10.9a.784.784,0,0,0-.123.4v5.988H7.8V18.75a.749.749,0,0,0-.1-.368L2.016,8.565H17.673Z" transform="translate(17.999 -383.093)"/></g></svg>