<svg xmlns="http://www.w3.org/2000/svg" width="26.278" height="26.278" viewBox="0 0 26.278 26.278"><defs><style>.a{fill:#151824;}.b{fill:#fff;}</style></defs><g transform="translate(0 0)"><path class="a" d="M0,13.139A13.139,13.139,0,1,1,13.139,26.278,13.154,13.154,0,0,1,0,13.139Z" transform="translate(0 0)"/><g transform="translate(6.029 6.805)"><g transform="translate(0 0)"><path class="b" d="M18.383.736a.555.555,0,0,0-.8,0l-1.149,1.14A6.844,6.844,0,0,0,14.274.493,6.669,6.669,0,0,0,11.764,0,6.525,6.525,0,0,0,7.523,1.474,6.892,6.892,0,0,0,5.137,5.314v.062a.287.287,0,0,0,.283.283H7.178a.265.265,0,0,0,.265-.2,10.684,10.684,0,0,1,.468-1.034,4.507,4.507,0,0,1,3.853-2.156,4.391,4.391,0,0,1,3.084,1.211l-1.22,1.219a.566.566,0,0,0,.4.963h3.959a.573.573,0,0,0,.565-.566V1.134A.543.543,0,0,0,18.383.736Z" transform="translate(-4.978 -0.003)"/><path class="b" d="M13.069,255.8h-1.7a.265.265,0,0,0-.265.2,10.686,10.686,0,0,1-.468,1.034,4.506,4.506,0,0,1-3.853,2.156,4.41,4.41,0,0,1-1.652-.318,4.56,4.56,0,0,1-1.423-.9l1.211-1.211a.566.566,0,0,0-.4-.963H.566a.544.544,0,0,0-.4.168.543.543,0,0,0-.168.4v3.959a.544.544,0,0,0,.168.4.545.545,0,0,0,.4.168.545.545,0,0,0,.4-.168l1.14-1.14a6.745,6.745,0,0,0,2.152,1.387,6.617,6.617,0,0,0,2.5.486,6.478,6.478,0,0,0,4.224-1.471,6.868,6.868,0,0,0,2.368-3.839.152.152,0,0,0,.009-.062.287.287,0,0,0-.283-.283Z" transform="translate(0 -247.884)"/></g></g></g></svg>