<svg width="16" height="16" viewBox="0 0 16 16" fill="none" xmlns="http://www.w3.org/2000/svg">
<g clip-path="url(#clip0_8244_57288)">
<path d="M9.694 15.6501C9.15196 15.6501 8.71066 15.2088 8.71066 14.6667V13.0167H10.6773V14.6667C10.6773 15.2088 10.236 15.6501 9.694 15.6501ZM6.346 15.6501C5.80396 15.6501 5.36266 15.2088 5.36266 14.6667V13.0167H7.32933V14.6667C7.32933 15.2087 6.88748 15.6501 6.346 15.6501Z" stroke="black" stroke-width="0.7"/>
<path d="M13.3333 11.9999C12.598 11.9999 12 11.4019 12 10.6666V6.66659C12 5.93125 12.598 5.33325 13.3333 5.33325C14.0687 5.33325 14.6667 5.93125 14.6667 6.66659V10.6666C14.6667 11.4019 14.0687 11.9999 13.3333 11.9999ZM13.3333 5.99992C12.9653 5.99992 12.6667 6.29925 12.6667 6.66659V10.6666C12.6667 11.0339 12.9653 11.3333 13.3333 11.3333C13.7013 11.3333 14 11.0339 14 10.6666V6.66659C14 6.29925 13.7013 5.99992 13.3333 5.99992ZM2.66668 11.9999C1.93134 11.9999 1.33334 11.4019 1.33334 10.6666V6.66659C1.33334 5.93125 1.93134 5.33325 2.66668 5.33325C3.40201 5.33325 4.00001 5.93125 4.00001 6.66659V10.6666C4.00001 11.4019 3.40201 11.9999 2.66668 11.9999ZM2.66668 5.99992C2.29868 5.99992 2.00001 6.29925 2.00001 6.66659V10.6666C2.00001 11.0339 2.29868 11.3333 2.66668 11.3333C3.03468 11.3333 3.33334 11.0339 3.33334 10.6666V6.66659C3.33334 6.29925 3.03468 5.99992 2.66668 5.99992Z" fill="#110638"/>
<path d="M11 13.3333H5.00001C4.08068 13.3333 3.33334 12.5853 3.33334 11.6666V5.66659C3.33334 5.48259 3.48268 5.33325 3.66668 5.33325H12.3333C12.5173 5.33325 12.6667 5.48259 12.6667 5.66659V11.6666C12.6667 12.5853 11.9193 13.3333 11 13.3333ZM4.00001 5.99992V11.6666C4.00001 12.2179 4.44868 12.6666 5.00001 12.6666H11C11.5513 12.6666 12 12.2179 12 11.6666V5.99992H4.00001Z" fill="#110638"/>
<path d="M12.3333 6.00008C12.1493 6.00008 12 5.85075 12 5.66675V5.33342C12 3.12741 10.206 1.33341 8.00001 1.33341C5.79401 1.33341 4.00001 3.12741 4.00001 5.33342V5.66675C4.00001 5.85075 3.85068 6.00008 3.66668 6.00008C3.48268 6.00008 3.33334 5.85075 3.33334 5.66675V5.33342C3.33334 2.76008 5.42734 0.666748 8.00001 0.666748C10.5727 0.666748 12.6667 2.76008 12.6667 5.33342V5.66675C12.6667 5.85075 12.5173 6.00008 12.3333 6.00008Z" fill="#110638"/>
<path d="M6.36402 4.35126C5.99602 4.35126 5.69735 4.05193 5.69735 3.68459C5.69735 3.31726 5.99602 3.01793 6.36402 3.01793C6.73202 3.01793 7.03069 3.31726 7.03069 3.68459C7.03069 4.05193 6.73202 4.35126 6.36402 4.35126ZM6.36402 3.68393C6.36402 3.68459 6.36402 3.68459 6.36402 3.68393H6.69735H6.36402ZM9.65735 4.35126C9.28935 4.35126 8.99069 4.05193 8.99069 3.68459C8.99069 3.31726 9.28935 3.01793 9.65735 3.01793C10.0254 3.01793 10.324 3.31726 10.324 3.68459C10.324 4.05193 10.0254 4.35126 9.65735 4.35126ZM9.65735 3.68393C9.65735 3.68393 9.65735 3.68459 9.65735 3.68393L9.99069 3.68459L9.65735 3.68393ZM5.69802 1.99592C5.61269 1.99592 5.52735 1.96326 5.46202 1.89859L4.11535 0.551256C3.98535 0.421256 3.98535 0.209922 4.11535 0.079922C4.24535 -0.0500782 4.45669 -0.0500782 4.58669 0.079922L5.93335 1.42659C6.06335 1.55659 6.06335 1.76792 5.93335 1.89792C5.86869 1.96326 5.78335 1.99592 5.69802 1.99592ZM10.326 1.99592C10.2407 1.99592 10.1554 1.96326 10.09 1.89859C9.96002 1.76859 9.96002 1.55726 10.09 1.42726L11.4374 0.079922C11.5674 -0.0500782 11.7787 -0.0500782 11.9087 0.079922C12.0387 0.209922 12.0387 0.421256 11.9087 0.551256L10.5614 1.89859C10.4967 1.96326 10.4114 1.99592 10.326 1.99592Z" fill="#110638"/>
</g>
<defs>
<clipPath id="clip0_8244_57288">
<rect width="16" height="16" fill="white"/>
</clipPath>
</defs>
</svg>
