<svg width="12" height="14" viewBox="0 0 12 14" fill="none" xmlns="http://www.w3.org/2000/svg">
<path d="M11.5508 9.80467C10.5922 9.39679 9.97054 8.45518 9.972 7.41343C9.98291 6.49229 10.4679 5.64183 11.2552 5.16343C11.4117 5.067 11.4605 4.86192 11.3641 4.70534C11.3613 4.70087 11.3584 4.69643 11.3555 4.69212C10.7424 3.80894 9.74947 3.26581 8.67513 3.22597C8.5605 3.21417 8.44519 3.21047 8.33008 3.21491C9.01192 2.40249 9.34761 1.35492 9.26497 0.297548C9.25114 0.120749 9.09753 -0.011982 8.92057 2.1557e-05C7.00769 0.175315 5.47131 1.6522 5.2207 3.5567C4.79923 3.369 4.34472 3.26679 3.88346 3.25588C2.6171 3.29275 1.46252 3.99009 0.840492 5.09377C-0.349612 7.16083 0.395139 10.2813 1.70048 12.168C2.20699 12.9004 2.96806 14 4.03381 14C4.05334 14 4.07287 14 4.0924 13.9993C4.46679 13.9768 4.83301 13.8804 5.16988 13.7155C5.51017 13.5464 5.88436 13.4568 6.26428 13.4531C6.62455 13.457 6.97912 13.5434 7.30074 13.7057C7.66569 13.8827 8.0651 13.9772 8.47066 13.9824C9.57418 13.9628 10.2434 12.985 10.7812 12.1992C11.1971 11.5876 11.5221 10.919 11.7461 10.2141C11.7971 10.0477 11.7123 9.86977 11.5508 9.80467ZM6.70052 1.82945C7.20369 1.26097 7.87475 0.867413 8.61653 0.705751C8.58646 1.47964 8.29842 2.22125 7.79817 2.81252C7.53519 3.12689 7.21566 3.38922 6.85612 3.58596L6.84375 3.59312L6.76367 3.62437C6.54919 3.72492 6.3221 3.79588 6.08854 3.83531C6.01448 3.8323 5.94116 3.8196 5.87044 3.79755C5.92907 3.06952 6.22005 2.37958 6.70052 1.82945ZM10.2305 11.8229C9.63802 12.6888 9.16406 13.3034 8.45833 13.3158C8.14799 13.3093 7.84302 13.2334 7.56575 13.0938C7.16072 12.8943 6.71578 12.7892 6.26432 12.7865C5.79459 12.7893 5.33146 12.8972 4.90885 13.1022C4.64612 13.2336 4.36006 13.312 4.06705 13.3327C4.05534 13.3334 4.04427 13.3334 4.0332 13.3334C3.37304 13.3334 2.81185 12.6035 2.2487 11.7891C1.23047 10.3164 0.299476 7.36985 1.41862 5.42649C1.92317 4.52578 2.86263 3.9551 3.89453 3.92255H3.92252C4.3446 3.95372 4.75744 4.06183 5.14062 4.24156C5.22851 4.27606 5.3151 4.31057 5.40039 4.34247C5.41654 4.35 5.43331 4.3561 5.45052 4.3607C5.65356 4.44383 5.86934 4.4916 6.08854 4.50198C6.40783 4.47064 6.7192 4.38361 7.00846 4.24481C7.512 3.99872 8.0673 3.87726 8.6276 3.89065C9.38289 3.91701 10.0954 4.24791 10.6029 4.80796C9.7852 5.42743 9.30493 6.39419 9.30534 7.41998C9.30131 8.619 9.96073 9.7219 11.0189 10.2859C10.82 10.8286 10.5552 11.3448 10.2305 11.8229Z" fill="black"/>
</svg>
