<svg width="96" height="96" viewBox="0 0 96 96" fill="none" xmlns="http://www.w3.org/2000/svg">
<path opacity="0.12" d="M89.5 47.9097C89.5 70.2041 70.4959 88.3193 47 88.3193C23.5041 88.3193 4.5 70.2041 4.5 47.9097C4.5 25.6152 23.5041 7.5 47 7.5C70.4959 7.5 89.5 25.6152 89.5 47.9097Z" fill="#CED4DA" stroke="#CED4DA"/>
<path opacity="0.164" d="M70.5 47.8333C70.5 60.1445 60.0025 70.1666 47 70.1666C33.9975 70.1666 23.5 60.1445 23.5 47.8333C23.5 35.5221 33.9975 25.5 47 25.5C60.0025 25.5 70.5 35.5221 70.5 47.8333Z" fill="#CED4DA" stroke="#CED4DA"/>
<path d="M48.5803 38.4137L48.5803 38.4137L48.5803 38.4137ZM48.5803 38.4137L48.5804 38.414L48.5803 38.4137ZM48.5704 38.4137L48.5704 38.4137L48.5704 38.4137ZM48.5704 38.4137L48.5703 38.414L48.5704 38.4137ZM48.5022 35.9965C48.5314 35.9292 48.5648 35.8634 48.6022 35.7993L48.6743 35.8708L48.7636 36.012C48.7836 36.0436 48.8021 36.0758 48.8193 36.1086L48.7992 36.1225L48.5022 35.9965Z" fill="#CED4DA" stroke="#CED4DA"/>
<mask id="path-4-inside-1" fill="white">
<path d="M44.7684 44.771C44.7089 44.771 44.6519 44.7487 44.6099 44.7089C44.5678 44.6691 44.5442 44.6152 44.5442 44.5589V38.202C44.5427 38.1733 44.5474 38.1446 44.558 38.1177C44.5686 38.0908 44.5848 38.0661 44.6058 38.0453C44.6267 38.0245 44.6519 38.008 44.6798 37.9967C44.7077 37.9853 44.7378 37.9795 44.7681 37.9795C44.7985 37.9795 44.8285 37.9853 44.8565 37.9967C44.8844 38.008 44.9095 38.0245 44.9305 38.0453C44.9514 38.0661 44.9677 38.0908 44.9783 38.1177C44.9888 38.1446 44.9935 38.1733 44.992 38.202V44.5579C44.9922 44.5858 44.9865 44.6135 44.9753 44.6393C44.9642 44.6651 44.9477 44.6886 44.9269 44.7084C44.9062 44.7282 44.8815 44.7439 44.8543 44.7546C44.8271 44.7654 44.7979 44.771 44.7684 44.771Z"/>
</mask>
<path d="M44.7684 44.771C44.7089 44.771 44.6519 44.7487 44.6099 44.7089C44.5678 44.6691 44.5442 44.6152 44.5442 44.5589V38.202C44.5427 38.1733 44.5474 38.1446 44.558 38.1177C44.5686 38.0908 44.5848 38.0661 44.6058 38.0453C44.6267 38.0245 44.6519 38.008 44.6798 37.9967C44.7077 37.9853 44.7378 37.9795 44.7681 37.9795C44.7985 37.9795 44.8285 37.9853 44.8565 37.9967C44.8844 38.008 44.9095 38.0245 44.9305 38.0453C44.9514 38.0661 44.9677 38.0908 44.9783 38.1177C44.9888 38.1446 44.9935 38.1733 44.992 38.202V44.5579C44.9922 44.5858 44.9865 44.6135 44.9753 44.6393C44.9642 44.6651 44.9477 44.6886 44.9269 44.7084C44.9062 44.7282 44.8815 44.7439 44.8543 44.7546C44.8271 44.7654 44.7979 44.771 44.7684 44.771Z" fill="#CED4DA"/>
<path d="M44.5442 38.202H45.5442V38.1761L45.5429 38.1502L44.5442 38.202ZM44.7681 37.9795V36.9795V37.9795ZM44.992 38.202L43.9934 38.1502L43.992 38.1761V38.202H44.992ZM44.992 44.5579H43.992L43.9921 44.563L44.992 44.5579ZM44.7684 43.771C44.9569 43.771 45.148 43.8414 45.2971 43.9825L43.9226 45.4353C44.1559 45.656 44.461 45.771 44.7684 45.771V43.771ZM45.2971 43.9825C45.4482 44.1254 45.5442 44.3315 45.5442 44.5589H43.5442C43.5442 44.8989 43.6875 45.2129 43.9226 45.4353L45.2971 43.9825ZM45.5442 44.5589V38.202H43.5442V44.5589H45.5442ZM45.5429 38.1502C45.5488 38.265 45.5299 38.3786 45.4887 38.4834L43.6273 37.752C43.5649 37.9107 43.5366 38.0816 43.5456 38.2538L45.5429 38.1502ZM45.4887 38.4834C45.4476 38.5881 45.3859 38.6799 45.3106 38.7547L43.9009 37.336C43.7837 37.4524 43.6896 37.5934 43.6273 37.752L45.4887 38.4834ZM45.3106 38.7547C45.2354 38.8295 45.1481 38.8859 45.0556 38.9233L44.304 37.07C44.1557 37.1301 44.018 37.2196 43.9009 37.336L45.3106 38.7547ZM45.0556 38.9233C44.9633 38.9608 44.8656 38.9795 44.7681 38.9795V36.9795C44.6099 36.9795 44.4522 37.0099 44.304 37.07L45.0556 38.9233ZM44.7681 38.9795C44.6707 38.9795 44.5731 38.9608 44.4806 38.9233L45.2323 37.07C45.084 37.0098 44.9263 36.9795 44.7681 36.9795V38.9795ZM44.4806 38.9233C44.388 38.8858 44.3007 38.8293 44.2256 38.7547L45.6353 37.336C45.5184 37.2198 45.3807 37.1302 45.2323 37.07L44.4806 38.9233ZM44.2256 38.7547C44.1503 38.6799 44.0887 38.5881 44.0475 38.4834L45.909 37.752C45.8467 37.5934 45.7525 37.4524 45.6353 37.336L44.2256 38.7547ZM44.0475 38.4834C44.0063 38.3786 43.9874 38.265 43.9934 38.1502L45.9907 38.2538C45.9996 38.0816 45.9713 37.9107 45.909 37.752L44.0475 38.4834ZM43.992 38.202V44.5579H45.992V38.202H43.992ZM43.9921 44.563C43.9915 44.4517 44.0142 44.3425 44.0575 44.2422L45.8931 45.0363C45.9588 44.8845 45.9929 44.72 45.992 44.5528L43.9921 44.563ZM44.0575 44.2422C44.1009 44.1421 44.1629 44.0551 44.2371 43.9844L45.6168 45.4323C45.7325 45.3221 45.8275 45.1881 45.8931 45.0363L44.0575 44.2422ZM44.2371 43.9844C44.3113 43.9137 44.3966 43.8603 44.4867 43.8246L45.2218 45.6847C45.3664 45.6275 45.5011 45.5426 45.6168 45.4323L44.2371 43.9844ZM44.4867 43.8246C44.5767 43.7891 44.6715 43.7713 44.7661 43.771L44.7707 45.771C44.9242 45.7707 45.0774 45.7417 45.2218 45.6847L44.4867 43.8246Z" fill="#CED4DA" mask="url(#path-4-inside-1)"/>
<mask id="path-6-inside-2" fill="white">
<path d="M44.7681 45.6171C44.7087 45.6171 44.6517 45.5948 44.6096 45.555C44.5676 45.5152 44.5439 45.4613 44.5439 45.405V45.1929C44.5468 45.1385 44.5716 45.0873 44.6133 45.0497C44.655 45.0122 44.7103 44.9912 44.7679 44.9912C44.8254 44.9912 44.8808 45.0122 44.9225 45.0497C44.9642 45.0873 44.989 45.1385 44.9918 45.1929V45.405C44.9918 45.4612 44.9683 45.5151 44.9263 45.5548C44.8844 45.5946 44.8275 45.617 44.7681 45.6171Z"/>
</mask>
<path d="M44.7681 45.6171C44.7087 45.6171 44.6517 45.5948 44.6096 45.555C44.5676 45.5152 44.5439 45.4613 44.5439 45.405V45.1929C44.5468 45.1385 44.5716 45.0873 44.6133 45.0497C44.655 45.0122 44.7103 44.9912 44.7679 44.9912C44.8254 44.9912 44.8808 45.0122 44.9225 45.0497C44.9642 45.0873 44.989 45.1385 44.9918 45.1929V45.405C44.9918 45.4612 44.9683 45.5151 44.9263 45.5548C44.8844 45.5946 44.8275 45.617 44.7681 45.6171Z" fill="#CED4DA"/>
<path d="M44.5439 45.1929L43.5453 45.1411L43.5439 45.167V45.1929H44.5439ZM44.7679 44.9912V43.9912V44.9912ZM44.9918 45.1929H45.9918V45.167L45.9905 45.1411L44.9918 45.1929ZM44.9918 45.405H43.9918V45.405L44.9918 45.405ZM44.7681 44.6171C44.9567 44.6171 45.1477 44.6875 45.2968 44.8285L43.9224 46.2814C44.1556 46.5021 44.4607 46.6171 44.7681 46.6171V44.6171ZM45.2968 44.8285C45.4479 44.9714 45.5439 45.1775 45.5439 45.405H43.5439C43.5439 45.745 43.6873 46.059 43.9224 46.2814L45.2968 44.8285ZM45.5439 45.405V45.1929H43.5439V45.405H45.5439ZM45.5426 45.2447C45.5312 45.4641 45.4314 45.6587 45.2825 45.7927L43.944 44.3067C43.7118 44.5159 43.5623 44.813 43.5453 45.1411L45.5426 45.2447ZM45.2825 45.7927C45.1355 45.9252 44.9506 45.9912 44.7679 45.9912V43.9912C44.4701 43.9912 44.1745 44.0991 43.944 44.3067L45.2825 45.7927ZM44.7679 45.9912C44.5852 45.9912 44.4003 45.9252 44.2532 45.7927L45.5917 44.3067C45.3613 44.0991 45.0657 43.9912 44.7679 43.9912V45.9912ZM44.2532 45.7927C44.1044 45.6587 44.0045 45.4641 43.9932 45.2447L45.9905 45.1411C45.9735 44.813 45.824 44.5159 45.5917 44.3067L44.2532 45.7927ZM43.9918 45.1929V45.405H45.9918V45.1929H43.9918ZM43.9918 45.405C43.9918 45.178 44.0875 44.9722 44.2383 44.8292L45.6144 46.2805C45.849 46.058 45.9918 45.7444 45.9918 45.405L43.9918 45.405ZM44.2383 44.8292C44.3871 44.688 44.5778 44.6176 44.7659 44.6171L44.7704 46.6171C45.0772 46.6164 45.3817 46.5011 45.6144 46.2805L44.2383 44.8292Z" fill="#CED4DA" mask="url(#path-6-inside-2)"/>
<mask id="path-8-inside-3" fill="white">
<path d="M35.9281 31.7561H34.2487V30.8217C34.746 30.4671 35.1491 30.0104 35.4265 29.4871C35.7039 28.9637 35.8483 28.3878 35.8483 27.804V27.1325H36.2482C36.3119 27.1325 36.3729 27.1089 36.4178 27.067C36.4628 27.025 36.4881 26.9681 36.4881 26.9088C36.4881 26.6902 36.257 26.4503 35.8483 26.2337V25.4186C35.8483 24.4099 35.4187 23.4425 34.6538 22.7292C33.889 22.0159 32.8517 21.6152 31.77 21.6152C30.6884 21.6152 29.6511 22.0159 28.8862 22.7292C28.1214 23.4425 27.6917 24.4099 27.6917 25.4186V26.2337C27.2831 26.4513 27.052 26.6923 27.052 26.9088C27.052 26.9681 27.0773 27.025 27.1222 27.067C27.1672 27.1089 27.2282 27.1325 27.2918 27.1325H27.6917V27.804C27.6918 28.3878 27.8362 28.9637 28.1136 29.4871C28.391 30.0104 28.794 30.4671 29.2914 30.8217V31.7561H27.6114C27.1237 31.7565 26.6561 31.9373 26.3112 32.259C25.9663 32.5806 25.7724 33.0167 25.772 33.4715V34.6632C25.772 34.7225 25.7972 34.7794 25.8422 34.8214C25.8872 34.8633 25.9482 34.8869 26.0118 34.8869C26.0754 34.8869 26.1364 34.8633 26.1814 34.8214C26.2264 34.7794 26.2516 34.7225 26.2516 34.6632V33.4705C26.2523 33.1346 26.3958 32.8127 26.6506 32.5753C26.9054 32.3379 27.2507 32.2043 27.6109 32.2039H29.4574L30.3567 32.7643L30.3676 32.77L30.3818 32.7776L30.4026 32.7863L30.4162 32.7914L30.4403 32.797H30.4529C30.4644 32.7986 30.4761 32.7994 30.4878 32.7995C30.501 32.7993 30.5142 32.7981 30.5271 32.7959L30.5457 32.7929L31.7673 32.5081L32.9889 32.7929L33.008 32.7964C33.0208 32.7984 33.0338 32.7995 33.0468 32.7995C33.0585 32.7994 33.0702 32.7986 33.0818 32.797H33.0943C33.1024 32.7955 33.1105 32.7936 33.1184 32.7914L33.132 32.7863L33.1528 32.7776L33.167 32.77L33.1779 32.7643L34.0772 32.2039H35.9237C36.2841 32.2043 36.6296 32.338 36.8844 32.5756C37.1392 32.8133 37.2826 33.1355 37.283 33.4715V36.4398H26.2472V35.5594C26.2472 35.5001 26.222 35.4432 26.177 35.4012C26.132 35.3593 26.071 35.3357 26.0074 35.3357C25.9438 35.3357 25.8828 35.3593 25.8378 35.4012C25.7928 35.4432 25.7676 35.5001 25.7676 35.5594V36.6609C25.7677 36.7202 25.793 36.777 25.838 36.8189C25.8829 36.8608 25.9439 36.8844 26.0074 36.8846H37.5277C37.5913 36.8846 37.6524 36.861 37.6973 36.8191C37.7423 36.7771 37.7676 36.7202 37.7676 36.6609V33.4715C37.767 33.0167 37.573 32.5807 37.2282 32.2591C36.8833 31.9375 36.4158 31.7566 35.9281 31.7561ZM28.1709 25.417C28.1709 24.527 28.55 23.6734 29.2249 23.044C29.8997 22.4146 30.8151 22.061 31.7695 22.061C32.7239 22.061 33.6392 22.4146 34.3141 23.044C34.989 23.6734 35.3681 24.527 35.3681 25.417V26.0187L35.2949 25.9917C34.1626 25.625 32.9675 25.4556 31.7695 25.4919C30.5714 25.4556 29.3764 25.625 28.2441 25.9917L28.1709 26.0187V25.417ZM28.532 26.3688C29.5769 26.0542 30.6719 25.909 31.7695 25.9393C32.867 25.909 33.962 26.0542 35.007 26.3688C35.2557 26.449 35.494 26.5551 35.7172 26.6851H27.8218C28.0452 26.5551 28.2836 26.449 28.5325 26.3688H28.532ZM31.5297 32.1035L30.5348 32.3354L29.7699 31.86V31.1177C30.3091 31.4018 30.9109 31.5669 31.5291 31.6002L31.5297 32.1035ZM33.7696 31.86L33.0047 32.3354L32.0099 32.1035V31.5997C32.6281 31.5664 33.2299 31.4013 33.769 31.1172V31.8595L33.7696 31.86ZM31.8192 31.159C31.7871 31.1528 31.754 31.1528 31.722 31.159C30.7762 31.1464 29.8737 30.7874 29.2093 30.1596C28.5449 29.5318 28.1719 28.6855 28.1709 27.8035V27.1325H35.3681V27.804C35.3669 28.6858 34.994 29.5318 34.3299 30.1595C33.6657 30.7871 32.7636 31.1461 31.8181 31.159H31.8192Z"/>
</mask>
<path d="M35.9281 31.7561H34.2487V30.8217C34.746 30.4671 35.1491 30.0104 35.4265 29.4871C35.7039 28.9637 35.8483 28.3878 35.8483 27.804V27.1325H36.2482C36.3119 27.1325 36.3729 27.1089 36.4178 27.067C36.4628 27.025 36.4881 26.9681 36.4881 26.9088C36.4881 26.6902 36.257 26.4503 35.8483 26.2337V25.4186C35.8483 24.4099 35.4187 23.4425 34.6538 22.7292C33.889 22.0159 32.8517 21.6152 31.77 21.6152C30.6884 21.6152 29.6511 22.0159 28.8862 22.7292C28.1214 23.4425 27.6917 24.4099 27.6917 25.4186V26.2337C27.2831 26.4513 27.052 26.6923 27.052 26.9088C27.052 26.9681 27.0773 27.025 27.1222 27.067C27.1672 27.1089 27.2282 27.1325 27.2918 27.1325H27.6917V27.804C27.6918 28.3878 27.8362 28.9637 28.1136 29.4871C28.391 30.0104 28.794 30.4671 29.2914 30.8217V31.7561H27.6114C27.1237 31.7565 26.6561 31.9373 26.3112 32.259C25.9663 32.5806 25.7724 33.0167 25.772 33.4715V34.6632C25.772 34.7225 25.7972 34.7794 25.8422 34.8214C25.8872 34.8633 25.9482 34.8869 26.0118 34.8869C26.0754 34.8869 26.1364 34.8633 26.1814 34.8214C26.2264 34.7794 26.2516 34.7225 26.2516 34.6632V33.4705C26.2523 33.1346 26.3958 32.8127 26.6506 32.5753C26.9054 32.3379 27.2507 32.2043 27.6109 32.2039H29.4574L30.3567 32.7643L30.3676 32.77L30.3818 32.7776L30.4026 32.7863L30.4162 32.7914L30.4403 32.797H30.4529C30.4644 32.7986 30.4761 32.7994 30.4878 32.7995C30.501 32.7993 30.5142 32.7981 30.5271 32.7959L30.5457 32.7929L31.7673 32.5081L32.9889 32.7929L33.008 32.7964C33.0208 32.7984 33.0338 32.7995 33.0468 32.7995C33.0585 32.7994 33.0702 32.7986 33.0818 32.797H33.0943C33.1024 32.7955 33.1105 32.7936 33.1184 32.7914L33.132 32.7863L33.1528 32.7776L33.167 32.77L33.1779 32.7643L34.0772 32.2039H35.9237C36.2841 32.2043 36.6296 32.338 36.8844 32.5756C37.1392 32.8133 37.2826 33.1355 37.283 33.4715V36.4398H26.2472V35.5594C26.2472 35.5001 26.222 35.4432 26.177 35.4012C26.132 35.3593 26.071 35.3357 26.0074 35.3357C25.9438 35.3357 25.8828 35.3593 25.8378 35.4012C25.7928 35.4432 25.7676 35.5001 25.7676 35.5594V36.6609C25.7677 36.7202 25.793 36.777 25.838 36.8189C25.8829 36.8608 25.9439 36.8844 26.0074 36.8846H37.5277C37.5913 36.8846 37.6524 36.861 37.6973 36.8191C37.7423 36.7771 37.7676 36.7202 37.7676 36.6609V33.4715C37.767 33.0167 37.573 32.5807 37.2282 32.2591C36.8833 31.9375 36.4158 31.7566 35.9281 31.7561ZM28.1709 25.417C28.1709 24.527 28.55 23.6734 29.2249 23.044C29.8997 22.4146 30.8151 22.061 31.7695 22.061C32.7239 22.061 33.6392 22.4146 34.3141 23.044C34.989 23.6734 35.3681 24.527 35.3681 25.417V26.0187L35.2949 25.9917C34.1626 25.625 32.9675 25.4556 31.7695 25.4919C30.5714 25.4556 29.3764 25.625 28.2441 25.9917L28.1709 26.0187V25.417ZM28.532 26.3688C29.5769 26.0542 30.6719 25.909 31.7695 25.9393C32.867 25.909 33.962 26.0542 35.007 26.3688C35.2557 26.449 35.494 26.5551 35.7172 26.6851H27.8218C28.0452 26.5551 28.2836 26.449 28.5325 26.3688H28.532ZM31.5297 32.1035L30.5348 32.3354L29.7699 31.86V31.1177C30.3091 31.4018 30.9109 31.5669 31.5291 31.6002L31.5297 32.1035ZM33.7696 31.86L33.0047 32.3354L32.0099 32.1035V31.5997C32.6281 31.5664 33.2299 31.4013 33.769 31.1172V31.8595L33.7696 31.86ZM31.8192 31.159C31.7871 31.1528 31.754 31.1528 31.722 31.159C30.7762 31.1464 29.8737 30.7874 29.2093 30.1596C28.5449 29.5318 28.1719 28.6855 28.1709 27.8035V27.1325H35.3681V27.804C35.3669 28.6858 34.994 29.5318 34.3299 30.1595C33.6657 30.7871 32.7636 31.1461 31.8181 31.159H31.8192Z" fill="#CED4DA" stroke="#CED4DA" stroke-width="2" mask="url(#path-8-inside-3)"/>
<mask id="path-9-inside-4" fill="white">
<path d="M31.7692 23.1055C31.5953 23.1055 31.4252 23.1536 31.2806 23.2437C31.1359 23.3338 31.0232 23.462 30.9566 23.6118C30.89 23.7617 30.8726 23.9267 30.9066 24.0858C30.9405 24.2449 31.0243 24.391 31.1473 24.5058C31.2703 24.6205 31.427 24.6986 31.5976 24.7303C31.7683 24.7619 31.9451 24.7457 32.1058 24.6836C32.2666 24.6215 32.4039 24.5164 32.5006 24.3815C32.5972 24.2466 32.6488 24.088 32.6488 23.9257C32.6485 23.7083 32.5558 23.4998 32.3909 23.346C32.226 23.1922 32.0024 23.1057 31.7692 23.1055ZM31.7692 24.2987C31.6901 24.2987 31.6128 24.2768 31.547 24.2358C31.4813 24.1949 31.43 24.1366 31.3998 24.0685C31.3695 24.0003 31.3616 23.9253 31.377 23.853C31.3924 23.7806 31.4305 23.7142 31.4865 23.662C31.5424 23.6099 31.6136 23.5744 31.6912 23.56C31.7688 23.5456 31.8492 23.553 31.9223 23.5812C31.9953 23.6094 32.0578 23.6572 32.1017 23.7185C32.1457 23.7799 32.1691 23.852 32.1691 23.9257C32.1688 24.0245 32.1266 24.1192 32.0517 24.189C31.9767 24.2588 31.8751 24.298 31.7692 24.2982V24.2987Z"/>
</mask>
<path d="M31.7692 23.1055C31.5953 23.1055 31.4252 23.1536 31.2806 23.2437C31.1359 23.3338 31.0232 23.462 30.9566 23.6118C30.89 23.7617 30.8726 23.9267 30.9066 24.0858C30.9405 24.2449 31.0243 24.391 31.1473 24.5058C31.2703 24.6205 31.427 24.6986 31.5976 24.7303C31.7683 24.7619 31.9451 24.7457 32.1058 24.6836C32.2666 24.6215 32.4039 24.5164 32.5006 24.3815C32.5972 24.2466 32.6488 24.088 32.6488 23.9257C32.6485 23.7083 32.5558 23.4998 32.3909 23.346C32.226 23.1922 32.0024 23.1057 31.7692 23.1055ZM31.7692 24.2987C31.6901 24.2987 31.6128 24.2768 31.547 24.2358C31.4813 24.1949 31.43 24.1366 31.3998 24.0685C31.3695 24.0003 31.3616 23.9253 31.377 23.853C31.3924 23.7806 31.4305 23.7142 31.4865 23.662C31.5424 23.6099 31.6136 23.5744 31.6912 23.56C31.7688 23.5456 31.8492 23.553 31.9223 23.5812C31.9953 23.6094 32.0578 23.6572 32.1017 23.7185C32.1457 23.7799 32.1691 23.852 32.1691 23.9257C32.1688 24.0245 32.1266 24.1192 32.0517 24.189C31.9767 24.2588 31.8751 24.298 31.7692 24.2982V24.2987Z" fill="#CED4DA"/>
<path d="M31.7692 23.1055L31.7704 22.1055H31.7692V23.1055ZM32.6488 23.9257H33.6488L33.6488 23.9244L32.6488 23.9257ZM31.7692 24.2987V25.2987H32.7692V24.2987H31.7692ZM32.1691 23.9257L33.1691 23.9287V23.9257H32.1691ZM31.7692 24.2982L31.768 23.2982L30.7692 23.2994V24.2982H31.7692ZM31.7692 22.1055C31.4124 22.1055 31.0585 22.2039 30.7517 22.395L31.8094 24.0924C31.792 24.1033 31.7781 24.1055 31.7692 24.1055V22.1055ZM30.7517 22.395C30.4444 22.5865 30.1938 22.8658 30.0427 23.2059L31.8705 24.0178C31.8526 24.0581 31.8275 24.0812 31.8094 24.0924L30.7517 22.395ZM30.0427 23.2059C29.8912 23.5471 29.8502 23.927 29.9285 24.2944L31.8846 23.8772C31.895 23.9263 31.8889 23.9764 31.8705 24.0178L30.0427 23.2059ZM29.9285 24.2944C30.0068 24.6611 30.1977 24.9876 30.4653 25.2371L31.8293 23.7744C31.8508 23.7945 31.8742 23.8287 31.8846 23.8772L29.9285 24.2944ZM30.4653 25.2371C30.732 25.4859 31.0638 25.6483 31.4152 25.7135L31.78 23.747C31.7903 23.7489 31.8085 23.7551 31.8293 23.7744L30.4653 25.2371ZM31.4152 25.7135C31.7666 25.7787 32.1314 25.7457 32.4662 25.6164L31.7455 23.7508C31.7527 23.748 31.7589 23.7467 31.764 23.7463C31.7691 23.7458 31.7744 23.746 31.78 23.747L31.4152 25.7135ZM32.4662 25.6164C32.8013 25.4869 33.0988 25.2634 33.3135 24.9639L31.6877 23.799C31.709 23.7693 31.7318 23.7561 31.7455 23.7508L32.4662 25.6164ZM33.3135 24.9639C33.5288 24.6633 33.6488 24.302 33.6488 23.9257H31.6488C31.6488 23.874 31.6656 23.8298 31.6877 23.799L33.3135 24.9639ZM33.6488 23.9244C33.6481 23.4188 33.4319 22.9495 33.0729 22.6147L31.7088 24.0774C31.6797 24.0501 31.6489 23.9977 31.6488 23.9271L33.6488 23.9244ZM33.0729 22.6147C32.7163 22.2821 32.2467 22.106 31.7704 22.1055L31.7681 24.1055C31.7617 24.1055 31.7539 24.1043 31.7448 24.1008C31.7357 24.0973 31.7228 24.0904 31.7088 24.0774L33.0729 22.6147ZM31.7692 23.2987C31.873 23.2987 31.9796 23.3271 32.0759 23.3871L31.0182 25.0845C31.2461 25.2265 31.5073 25.2987 31.7692 25.2987V23.2987ZM32.0759 23.3871C32.1729 23.4475 32.2595 23.5405 32.3137 23.6625L30.4859 24.4744C30.6006 24.7327 30.7897 24.9422 31.0182 25.0845L32.0759 23.3871ZM32.3137 23.6625C32.3684 23.7857 32.384 23.9257 32.355 24.0616L30.399 23.6444C30.3392 23.925 30.3706 24.215 30.4859 24.4744L32.3137 23.6625ZM32.355 24.0616C32.3262 24.1968 32.257 24.3108 32.1685 24.3934L30.8044 22.9307C30.604 23.1176 30.4587 23.3645 30.399 23.6444L32.355 24.0616ZM32.1685 24.3934C32.0806 24.4753 31.9769 24.524 31.8736 24.5432L31.5088 22.5767C31.2504 22.6247 31.0041 22.7445 30.8044 22.9307L32.1685 24.3934ZM31.8736 24.5432C31.7705 24.5623 31.6629 24.553 31.5619 24.514L32.2826 22.6484C32.0355 22.5529 31.7671 22.5288 31.5088 22.5767L31.8736 24.5432ZM31.5619 24.514C31.4606 24.4749 31.3629 24.4043 31.2889 24.301L32.9146 23.1361C32.7527 22.9101 32.5301 22.744 32.2826 22.6484L31.5619 24.514ZM31.2889 24.301C31.2141 24.1966 31.1691 24.066 31.1691 23.9257H33.1691C33.1691 23.638 33.0773 23.3631 32.9146 23.1361L31.2889 24.301ZM31.1691 23.9228C31.1697 23.7338 31.2511 23.568 31.3701 23.4572L32.7332 24.9208C33.0021 24.6703 33.168 24.3153 33.1691 23.9287L31.1691 23.9228ZM31.3701 23.4572C31.4868 23.3485 31.631 23.2984 31.768 23.2982L31.7705 25.2982C32.1193 25.2977 32.4666 25.169 32.7332 24.9208L31.3701 23.4572ZM30.7692 24.2982V24.2987H32.7692V24.2982H30.7692Z" fill="#CED4DA" mask="url(#path-9-inside-4)"/>
<mask id="path-11-inside-5" fill="white">
<path d="M71.3461 50.7038H69.6667V49.7694C70.164 49.4148 70.567 48.9582 70.8444 48.4348C71.1219 47.9115 71.2662 47.3355 71.2663 46.7517V46.0802H71.6662C71.7298 46.0802 71.7908 46.0567 71.8358 46.0147C71.8808 45.9728 71.9061 45.9159 71.9061 45.8566C71.9061 45.638 71.675 45.398 71.2663 45.1815V44.3663C71.2663 43.3576 70.8366 42.3902 70.0718 41.677C69.307 40.9637 68.2696 40.563 67.188 40.563C66.1064 40.563 65.069 40.9637 64.3042 41.677C63.5394 42.3902 63.1097 43.3576 63.1097 44.3663V45.1815C62.7011 45.399 62.47 45.64 62.47 45.8566C62.47 45.9159 62.4952 45.9728 62.5402 46.0147C62.5852 46.0567 62.6462 46.0802 62.7098 46.0802H63.1097V46.7517C63.1098 47.3355 63.2542 47.9115 63.5316 48.4348C63.809 48.9582 64.212 49.4148 64.7093 49.7694V50.7038H63.0294C62.5417 50.7042 62.074 50.8851 61.7292 51.2067C61.3843 51.5283 61.1904 51.9644 61.1899 52.4193V53.6109C61.1899 53.6703 61.2152 53.7272 61.2602 53.7691C61.3051 53.811 61.3661 53.8346 61.4298 53.8346C61.4934 53.8346 61.5544 53.811 61.5993 53.7691C61.6443 53.7272 61.6696 53.6703 61.6696 53.6109V52.4182C61.6703 52.0823 61.8138 51.7604 62.0686 51.523C62.3234 51.2856 62.6687 51.1521 63.0288 51.1517H64.8754L65.7747 51.7121L65.7856 51.7177L65.7998 51.7253L65.8206 51.734L65.8342 51.7391L65.8583 51.7447H65.8708C65.8824 51.7463 65.8941 51.7472 65.9058 51.7472C65.919 51.7471 65.9321 51.7459 65.9451 51.7437L65.9637 51.7406L67.1853 51.4558L68.4069 51.7406L68.426 51.7442C68.4388 51.7462 68.4518 51.7472 68.4648 51.7472C68.4765 51.7472 68.4882 51.7463 68.4997 51.7447H68.5123C68.5204 51.7432 68.5284 51.7413 68.5363 51.7391L68.55 51.734L68.5707 51.7253L68.585 51.7177L68.5959 51.7121L69.4951 51.1517H71.3417C71.7021 51.1521 72.0475 51.2857 72.3024 51.5234C72.5572 51.761 72.7005 52.0832 72.701 52.4193V55.3875H61.6652V54.5071C61.6652 54.4478 61.64 54.3909 61.595 54.349C61.55 54.307 61.489 54.2835 61.4254 54.2835C61.3618 54.2835 61.3008 54.307 61.2558 54.349C61.2108 54.3909 61.1855 54.4478 61.1855 54.5071V55.6086C61.1857 55.6679 61.211 55.7247 61.256 55.7666C61.3009 55.8086 61.3618 55.8322 61.4254 55.8323H72.9457C73.0093 55.8323 73.0703 55.8087 73.1153 55.7668C73.1603 55.7249 73.1855 55.668 73.1855 55.6086V52.4193C73.185 51.9645 72.991 51.5284 72.6461 51.2068C72.3013 50.8853 71.8338 50.7044 71.3461 50.7038ZM63.5888 44.3648C63.5888 43.4747 63.968 42.6211 64.6428 41.9917C65.3177 41.3624 66.233 41.0088 67.1875 41.0088C68.1419 41.0088 69.0572 41.3624 69.7321 41.9917C70.407 42.6211 70.7861 43.4747 70.7861 44.3648V44.9665L70.7129 44.9395C69.5805 44.5728 68.3855 44.4034 67.1875 44.4397C65.9894 44.4034 64.7944 44.5728 63.662 44.9395L63.5888 44.9665V44.3648ZM63.9499 45.3165C64.9949 45.002 66.0899 44.8567 67.1875 44.887C68.285 44.8567 69.38 45.002 70.425 45.3165C70.6737 45.3967 70.912 45.5029 71.1352 45.6329H63.2397C63.4631 45.5029 63.7016 45.3967 63.9505 45.3165H63.9499ZM66.9476 51.0513L65.9528 51.2831L65.1879 50.8077V50.0654C65.727 50.3496 66.3288 50.5146 66.9471 50.5479L66.9476 51.0513ZM69.1876 50.8077L68.4227 51.2831L67.4278 51.0513V50.5474C68.0461 50.5141 68.6479 50.3491 69.187 50.0649V50.8072L69.1876 50.8077ZM67.2372 50.1067C67.2051 50.1006 67.172 50.1006 67.1399 50.1067C66.1942 50.0941 65.2917 49.7352 64.6273 49.1074C63.9629 48.4796 63.5899 47.6333 63.5888 46.7512V46.0802H70.7861V46.7517C70.7849 47.6335 70.412 48.4795 69.7478 49.1072C69.0837 49.7349 68.1815 50.0939 67.2361 50.1067H67.2372Z"/>
</mask>
<path d="M71.3461 50.7038H69.6667V49.7694C70.164 49.4148 70.567 48.9582 70.8444 48.4348C71.1219 47.9115 71.2662 47.3355 71.2663 46.7517V46.0802H71.6662C71.7298 46.0802 71.7908 46.0567 71.8358 46.0147C71.8808 45.9728 71.9061 45.9159 71.9061 45.8566C71.9061 45.638 71.675 45.398 71.2663 45.1815V44.3663C71.2663 43.3576 70.8366 42.3902 70.0718 41.677C69.307 40.9637 68.2696 40.563 67.188 40.563C66.1064 40.563 65.069 40.9637 64.3042 41.677C63.5394 42.3902 63.1097 43.3576 63.1097 44.3663V45.1815C62.7011 45.399 62.47 45.64 62.47 45.8566C62.47 45.9159 62.4952 45.9728 62.5402 46.0147C62.5852 46.0567 62.6462 46.0802 62.7098 46.0802H63.1097V46.7517C63.1098 47.3355 63.2542 47.9115 63.5316 48.4348C63.809 48.9582 64.212 49.4148 64.7093 49.7694V50.7038H63.0294C62.5417 50.7042 62.074 50.8851 61.7292 51.2067C61.3843 51.5283 61.1904 51.9644 61.1899 52.4193V53.6109C61.1899 53.6703 61.2152 53.7272 61.2602 53.7691C61.3051 53.811 61.3661 53.8346 61.4298 53.8346C61.4934 53.8346 61.5544 53.811 61.5993 53.7691C61.6443 53.7272 61.6696 53.6703 61.6696 53.6109V52.4182C61.6703 52.0823 61.8138 51.7604 62.0686 51.523C62.3234 51.2856 62.6687 51.1521 63.0288 51.1517H64.8754L65.7747 51.7121L65.7856 51.7177L65.7998 51.7253L65.8206 51.734L65.8342 51.7391L65.8583 51.7447H65.8708C65.8824 51.7463 65.8941 51.7472 65.9058 51.7472C65.919 51.7471 65.9321 51.7459 65.9451 51.7437L65.9637 51.7406L67.1853 51.4558L68.4069 51.7406L68.426 51.7442C68.4388 51.7462 68.4518 51.7472 68.4648 51.7472C68.4765 51.7472 68.4882 51.7463 68.4997 51.7447H68.5123C68.5204 51.7432 68.5284 51.7413 68.5363 51.7391L68.55 51.734L68.5707 51.7253L68.585 51.7177L68.5959 51.7121L69.4951 51.1517H71.3417C71.7021 51.1521 72.0475 51.2857 72.3024 51.5234C72.5572 51.761 72.7005 52.0832 72.701 52.4193V55.3875H61.6652V54.5071C61.6652 54.4478 61.64 54.3909 61.595 54.349C61.55 54.307 61.489 54.2835 61.4254 54.2835C61.3618 54.2835 61.3008 54.307 61.2558 54.349C61.2108 54.3909 61.1855 54.4478 61.1855 54.5071V55.6086C61.1857 55.6679 61.211 55.7247 61.256 55.7666C61.3009 55.8086 61.3618 55.8322 61.4254 55.8323H72.9457C73.0093 55.8323 73.0703 55.8087 73.1153 55.7668C73.1603 55.7249 73.1855 55.668 73.1855 55.6086V52.4193C73.185 51.9645 72.991 51.5284 72.6461 51.2068C72.3013 50.8853 71.8338 50.7044 71.3461 50.7038ZM63.5888 44.3648C63.5888 43.4747 63.968 42.6211 64.6428 41.9917C65.3177 41.3624 66.233 41.0088 67.1875 41.0088C68.1419 41.0088 69.0572 41.3624 69.7321 41.9917C70.407 42.6211 70.7861 43.4747 70.7861 44.3648V44.9665L70.7129 44.9395C69.5805 44.5728 68.3855 44.4034 67.1875 44.4397C65.9894 44.4034 64.7944 44.5728 63.662 44.9395L63.5888 44.9665V44.3648ZM63.9499 45.3165C64.9949 45.002 66.0899 44.8567 67.1875 44.887C68.285 44.8567 69.38 45.002 70.425 45.3165C70.6737 45.3967 70.912 45.5029 71.1352 45.6329H63.2397C63.4631 45.5029 63.7016 45.3967 63.9505 45.3165H63.9499ZM66.9476 51.0513L65.9528 51.2831L65.1879 50.8077V50.0654C65.727 50.3496 66.3288 50.5146 66.9471 50.5479L66.9476 51.0513ZM69.1876 50.8077L68.4227 51.2831L67.4278 51.0513V50.5474C68.0461 50.5141 68.6479 50.3491 69.187 50.0649V50.8072L69.1876 50.8077ZM67.2372 50.1067C67.2051 50.1006 67.172 50.1006 67.1399 50.1067C66.1942 50.0941 65.2917 49.7352 64.6273 49.1074C63.9629 48.4796 63.5899 47.6333 63.5888 46.7512V46.0802H70.7861V46.7517C70.7849 47.6335 70.412 48.4795 69.7478 49.1072C69.0837 49.7349 68.1815 50.0939 67.2361 50.1067H67.2372Z" fill="#CED4DA" stroke="#CED4DA" stroke-width="2" mask="url(#path-11-inside-5)"/>
<mask id="path-12-inside-6" fill="white">
<path d="M67.1872 42.0532C67.0132 42.0532 66.8432 42.1013 66.6985 42.1915C66.5539 42.2816 66.4411 42.4097 66.3746 42.5596C66.308 42.7095 66.2906 42.8744 66.3245 43.0335C66.3585 43.1927 66.4422 43.3388 66.5652 43.4535C66.6883 43.5683 66.845 43.6464 67.0156 43.678C67.1862 43.7097 67.3631 43.6934 67.5238 43.6313C67.6845 43.5693 67.8219 43.4641 67.9185 43.3292C68.0152 43.1943 68.0668 43.0357 68.0668 42.8735C68.0665 42.656 67.9737 42.4475 67.8088 42.2938C67.6439 42.14 67.4204 42.0535 67.1872 42.0532ZM67.1872 43.2465C67.1081 43.2465 67.0308 43.2246 66.965 43.1836C66.8993 43.1426 66.848 43.0844 66.8177 43.0162C66.7875 42.9481 66.7795 42.8731 66.795 42.8007C66.8104 42.7284 66.8485 42.6619 66.9044 42.6098C66.9603 42.5576 67.0316 42.5221 67.1092 42.5077C67.1868 42.4933 67.2672 42.5007 67.3402 42.5289C67.4133 42.5572 67.4758 42.605 67.5197 42.6663C67.5637 42.7276 67.5871 42.7997 67.5871 42.8735C67.5868 42.9723 67.5446 43.0669 67.4696 43.1367C67.3947 43.2065 67.2931 43.2458 67.1872 43.2459V43.2465Z"/>
</mask>
<path d="M67.1872 42.0532C67.0132 42.0532 66.8432 42.1013 66.6985 42.1915C66.5539 42.2816 66.4411 42.4097 66.3746 42.5596C66.308 42.7095 66.2906 42.8744 66.3245 43.0335C66.3585 43.1927 66.4422 43.3388 66.5652 43.4535C66.6883 43.5683 66.845 43.6464 67.0156 43.678C67.1862 43.7097 67.3631 43.6934 67.5238 43.6313C67.6845 43.5693 67.8219 43.4641 67.9185 43.3292C68.0152 43.1943 68.0668 43.0357 68.0668 42.8735C68.0665 42.656 67.9737 42.4475 67.8088 42.2938C67.6439 42.14 67.4204 42.0535 67.1872 42.0532ZM67.1872 43.2465C67.1081 43.2465 67.0308 43.2246 66.965 43.1836C66.8993 43.1426 66.848 43.0844 66.8177 43.0162C66.7875 42.9481 66.7795 42.8731 66.795 42.8007C66.8104 42.7284 66.8485 42.6619 66.9044 42.6098C66.9603 42.5576 67.0316 42.5221 67.1092 42.5077C67.1868 42.4933 67.2672 42.5007 67.3402 42.5289C67.4133 42.5572 67.4758 42.605 67.5197 42.6663C67.5637 42.7276 67.5871 42.7997 67.5871 42.8735C67.5868 42.9723 67.5446 43.0669 67.4696 43.1367C67.3947 43.2065 67.2931 43.2458 67.1872 43.2459V43.2465Z" fill="#CED4DA"/>
<path d="M67.1872 42.0532L67.1883 41.0532H67.1872V42.0532ZM68.0668 42.8735H69.0668L69.0668 42.8722L68.0668 42.8735ZM67.1872 43.2465V44.2465H68.1872V43.2465H67.1872ZM67.5871 42.8735L68.5871 42.8764V42.8735H67.5871ZM67.1872 43.2459L67.1859 42.2459L66.1872 42.2472V43.2459H67.1872ZM67.1872 41.0532C66.8303 41.0532 66.4764 41.1516 66.1697 41.3428L67.2274 43.0402C67.2099 43.0511 67.1961 43.0532 67.1872 43.0532V41.0532ZM66.1697 41.3428C65.8623 41.5343 65.6117 41.8136 65.4607 42.1537L67.2885 42.9655C67.2706 43.0059 67.2454 43.0289 67.2274 43.0402L66.1697 41.3428ZM65.4607 42.1537C65.3091 42.4948 65.2682 42.8748 65.3465 43.2421L67.3025 42.8249C67.313 42.8741 67.3069 42.9241 67.2885 42.9655L65.4607 42.1537ZM65.3465 43.2421C65.4247 43.6088 65.6157 43.9354 65.8832 44.1849L67.2473 42.7222C67.2688 42.7422 67.2922 42.7765 67.3025 42.8249L65.3465 43.2421ZM65.8832 44.1849C66.15 44.4336 66.4817 44.596 66.8332 44.6613L67.198 42.6948C67.2082 42.6967 67.2265 42.7029 67.2473 42.7222L65.8832 44.1849ZM66.8332 44.6613C67.1845 44.7264 67.5494 44.6935 67.8841 44.5642L67.1635 42.6985C67.1706 42.6958 67.1768 42.6945 67.1819 42.694C67.1871 42.6936 67.1924 42.6938 67.198 42.6948L66.8332 44.6613ZM67.8841 44.5642C68.2193 44.4347 68.5168 44.2112 68.7314 43.9116L67.1056 42.7468C67.127 42.717 67.1497 42.7038 67.1635 42.6985L67.8841 44.5642ZM68.7314 43.9116C68.9468 43.6111 69.0668 43.2497 69.0668 42.8735H67.0668C67.0668 42.8218 67.0836 42.7776 67.1056 42.7468L68.7314 43.9116ZM69.0668 42.8722C69.0661 42.3666 68.8498 41.8972 68.4909 41.5624L67.1268 43.0251C67.0976 42.9979 67.0669 42.9455 67.0668 42.8748L69.0668 42.8722ZM68.4909 41.5624C68.1342 41.2299 67.6647 41.0538 67.1883 41.0532L67.186 43.0532C67.1796 43.0532 67.1719 43.0521 67.1627 43.0485C67.1536 43.045 67.1408 43.0381 67.1268 43.0251L68.4909 41.5624ZM67.1872 42.2465C67.291 42.2465 67.3975 42.2748 67.4939 42.3349L66.4362 44.0323C66.664 44.1743 66.9252 44.2465 67.1872 44.2465V42.2465ZM67.4939 42.3349C67.5908 42.3953 67.6774 42.4883 67.7316 42.6103L65.9038 43.4221C66.0186 43.6805 66.2077 43.8899 66.4362 44.0323L67.4939 42.3349ZM67.7316 42.6103C67.7863 42.7334 67.802 42.8734 67.773 43.0093L65.817 42.5921C65.7571 42.8727 65.7886 43.1627 65.9038 43.4221L67.7316 42.6103ZM67.773 43.0093C67.7441 43.1446 67.675 43.2585 67.5864 43.3411L66.2224 41.8785C66.022 42.0654 65.8767 42.3122 65.817 42.5921L67.773 43.0093ZM67.5864 43.3411C67.4986 43.423 67.3949 43.4718 67.2916 43.4909L66.9268 41.5245C66.6684 41.5724 66.4221 41.6922 66.2224 41.8785L67.5864 43.3411ZM67.2916 43.4909C67.1885 43.5101 67.0809 43.5008 66.9799 43.4618L67.7006 41.5961C67.4534 41.5007 67.1851 41.4766 66.9268 41.5245L67.2916 43.4909ZM66.9799 43.4618C66.8785 43.4226 66.7809 43.3521 66.7068 43.2487L68.3326 42.0839C68.1707 41.8579 67.9481 41.6917 67.7006 41.5961L66.9799 43.4618ZM66.7068 43.2487C66.6321 43.1444 66.5871 43.0137 66.5871 42.8735H68.5871C68.5871 42.5858 68.4952 42.3109 68.3326 42.0839L66.7068 43.2487ZM66.5871 42.8706C66.5877 42.6815 66.6691 42.5158 66.7881 42.4049L68.1512 43.8685C68.4201 43.6181 68.586 43.263 68.5871 42.8764L66.5871 42.8706ZM66.7881 42.4049C66.9048 42.2963 67.0489 42.2461 67.1859 42.2459L67.1885 44.2459C67.5373 44.2455 67.8846 44.1168 68.1512 43.8685L66.7881 42.4049ZM66.1872 43.2459V43.2465H68.1872V43.2459H66.1872Z" fill="#CED4DA" mask="url(#path-12-inside-6)"/>
<mask id="path-14-inside-7" fill="white">
<path d="M81.5355 21.1272H79.8561V20.1928C80.3535 19.8382 80.7565 19.3815 81.0339 18.8582C81.3113 18.3348 81.4557 17.7589 81.4558 17.1751V16.5036H81.8557C81.9193 16.5036 81.9803 16.48 82.0253 16.4381C82.0702 16.3961 82.0955 16.3392 82.0955 16.2799C82.0955 16.0613 81.8644 15.8214 81.4558 15.6048V14.7897C81.4558 13.7809 81.0261 12.8136 80.2613 12.1003C79.4964 11.387 78.4591 10.9863 77.3775 10.9863C76.2958 10.9863 75.2585 11.387 74.4937 12.1003C73.7288 12.8136 73.2992 13.7809 73.2992 14.7897V15.6048C72.8905 15.8224 72.6594 16.0634 72.6594 16.2799C72.6594 16.3392 72.6847 16.3961 72.7297 16.4381C72.7746 16.48 72.8356 16.5036 72.8992 16.5036H73.2992V17.1751C73.2992 17.7589 73.4436 18.3348 73.721 18.8582C73.9984 19.3815 74.4015 19.8382 74.8988 20.1928V21.1272H73.2188C72.7311 21.1276 72.2635 21.3084 71.9186 21.6301C71.5737 21.9517 71.3798 22.3878 71.3794 22.8426V24.0343C71.3794 24.0936 71.4046 24.1505 71.4496 24.1925C71.4946 24.2344 71.5556 24.258 71.6192 24.258C71.6828 24.258 71.7438 24.2344 71.7888 24.1925C71.8338 24.1505 71.859 24.0936 71.859 24.0343V22.8416C71.8598 22.5057 72.0032 22.1838 72.258 21.9464C72.5128 21.7089 72.8581 21.5754 73.2183 21.575H75.0649L75.9641 22.1354L75.975 22.141L75.9892 22.1487L76.01 22.1573L76.0237 22.1624L76.0477 22.168H76.0603C76.0718 22.1697 76.0835 22.1705 76.0952 22.1706C76.1084 22.1704 76.1216 22.1692 76.1346 22.167L76.1531 22.164L77.3747 21.8792L78.5963 22.164L78.6154 22.1675C78.6282 22.1695 78.6412 22.1705 78.6542 22.1706C78.6659 22.1705 78.6776 22.1697 78.6892 22.168H78.7017C78.7099 22.1666 78.7179 22.1647 78.7258 22.1624L78.7394 22.1573L78.7602 22.1487L78.7744 22.141L78.7853 22.1354L79.6846 21.575H81.5312C81.8915 21.5754 82.237 21.7091 82.4918 21.9467C82.7466 22.1844 82.89 22.5065 82.8904 22.8426V25.8109H71.8547V24.9305C71.8547 24.8712 71.8294 24.8143 71.7844 24.7723C71.7394 24.7304 71.6784 24.7068 71.6148 24.7068C71.5512 24.7068 71.4902 24.7304 71.4452 24.7723C71.4003 24.8143 71.375 24.8712 71.375 24.9305V26.032C71.3751 26.0913 71.4005 26.1481 71.4454 26.19C71.4904 26.2319 71.5513 26.2555 71.6148 26.2557H83.1352C83.1988 26.2557 83.2598 26.2321 83.3048 26.1902C83.3497 26.1482 83.375 26.0913 83.375 26.032V22.8426C83.3744 22.3878 83.1804 21.9518 82.8356 21.6302C82.4907 21.3086 82.0232 21.1277 81.5355 21.1272ZM73.7783 14.7881C73.7783 13.8981 74.1574 13.0444 74.8323 12.4151C75.5072 11.7857 76.4225 11.4321 77.3769 11.4321C78.3313 11.4321 79.2467 11.7857 79.9215 12.4151C80.5964 13.0444 80.9755 13.8981 80.9755 14.7881V15.3898L80.9023 15.3628C79.77 14.9961 78.575 14.8267 77.3769 14.863C76.1789 14.8267 74.9838 14.9961 73.8515 15.3628L73.7783 15.3898V14.7881ZM74.1394 15.7398C75.1844 15.4253 76.2794 15.2801 77.3769 15.3103C78.4745 15.2801 79.5695 15.4253 80.6144 15.7398C80.8632 15.8201 81.1014 15.9262 81.3246 16.0562H73.4292C73.6526 15.9262 73.891 15.8201 74.1399 15.7398H74.1394ZM77.1371 21.4746L76.1422 21.7065L75.3774 21.2311V20.4888C75.9165 20.7729 76.5183 20.938 77.1365 20.9713L77.1371 21.4746ZM79.377 21.2311L78.6121 21.7065L77.6173 21.4746V20.9707C78.2355 20.9375 78.8373 20.7724 79.3765 20.4883V21.2306L79.377 21.2311ZM77.4266 20.53C77.3945 20.5239 77.3615 20.5239 77.3294 20.53C76.3836 20.5175 75.4811 20.1585 74.8167 19.5307C74.1523 18.9029 73.7793 18.0566 73.7783 17.1746V16.5036H80.9755V17.1751C80.9744 18.0569 80.6014 18.9029 79.9373 19.5306C79.2731 20.1582 78.371 20.5172 77.4255 20.53H77.4266Z"/>
</mask>
<path d="M81.5355 21.1272H79.8561V20.1928C80.3535 19.8382 80.7565 19.3815 81.0339 18.8582C81.3113 18.3348 81.4557 17.7589 81.4558 17.1751V16.5036H81.8557C81.9193 16.5036 81.9803 16.48 82.0253 16.4381C82.0702 16.3961 82.0955 16.3392 82.0955 16.2799C82.0955 16.0613 81.8644 15.8214 81.4558 15.6048V14.7897C81.4558 13.7809 81.0261 12.8136 80.2613 12.1003C79.4964 11.387 78.4591 10.9863 77.3775 10.9863C76.2958 10.9863 75.2585 11.387 74.4937 12.1003C73.7288 12.8136 73.2992 13.7809 73.2992 14.7897V15.6048C72.8905 15.8224 72.6594 16.0634 72.6594 16.2799C72.6594 16.3392 72.6847 16.3961 72.7297 16.4381C72.7746 16.48 72.8356 16.5036 72.8992 16.5036H73.2992V17.1751C73.2992 17.7589 73.4436 18.3348 73.721 18.8582C73.9984 19.3815 74.4015 19.8382 74.8988 20.1928V21.1272H73.2188C72.7311 21.1276 72.2635 21.3084 71.9186 21.6301C71.5737 21.9517 71.3798 22.3878 71.3794 22.8426V24.0343C71.3794 24.0936 71.4046 24.1505 71.4496 24.1925C71.4946 24.2344 71.5556 24.258 71.6192 24.258C71.6828 24.258 71.7438 24.2344 71.7888 24.1925C71.8338 24.1505 71.859 24.0936 71.859 24.0343V22.8416C71.8598 22.5057 72.0032 22.1838 72.258 21.9464C72.5128 21.7089 72.8581 21.5754 73.2183 21.575H75.0649L75.9641 22.1354L75.975 22.141L75.9892 22.1487L76.01 22.1573L76.0237 22.1624L76.0477 22.168H76.0603C76.0718 22.1697 76.0835 22.1705 76.0952 22.1706C76.1084 22.1704 76.1216 22.1692 76.1346 22.167L76.1531 22.164L77.3747 21.8792L78.5963 22.164L78.6154 22.1675C78.6282 22.1695 78.6412 22.1705 78.6542 22.1706C78.6659 22.1705 78.6776 22.1697 78.6892 22.168H78.7017C78.7099 22.1666 78.7179 22.1647 78.7258 22.1624L78.7394 22.1573L78.7602 22.1487L78.7744 22.141L78.7853 22.1354L79.6846 21.575H81.5312C81.8915 21.5754 82.237 21.7091 82.4918 21.9467C82.7466 22.1844 82.89 22.5065 82.8904 22.8426V25.8109H71.8547V24.9305C71.8547 24.8712 71.8294 24.8143 71.7844 24.7723C71.7394 24.7304 71.6784 24.7068 71.6148 24.7068C71.5512 24.7068 71.4902 24.7304 71.4452 24.7723C71.4003 24.8143 71.375 24.8712 71.375 24.9305V26.032C71.3751 26.0913 71.4005 26.1481 71.4454 26.19C71.4904 26.2319 71.5513 26.2555 71.6148 26.2557H83.1352C83.1988 26.2557 83.2598 26.2321 83.3048 26.1902C83.3497 26.1482 83.375 26.0913 83.375 26.032V22.8426C83.3744 22.3878 83.1804 21.9518 82.8356 21.6302C82.4907 21.3086 82.0232 21.1277 81.5355 21.1272ZM73.7783 14.7881C73.7783 13.8981 74.1574 13.0444 74.8323 12.4151C75.5072 11.7857 76.4225 11.4321 77.3769 11.4321C78.3313 11.4321 79.2467 11.7857 79.9215 12.4151C80.5964 13.0444 80.9755 13.8981 80.9755 14.7881V15.3898L80.9023 15.3628C79.77 14.9961 78.575 14.8267 77.3769 14.863C76.1789 14.8267 74.9838 14.9961 73.8515 15.3628L73.7783 15.3898V14.7881ZM74.1394 15.7398C75.1844 15.4253 76.2794 15.2801 77.3769 15.3103C78.4745 15.2801 79.5695 15.4253 80.6144 15.7398C80.8632 15.8201 81.1014 15.9262 81.3246 16.0562H73.4292C73.6526 15.9262 73.891 15.8201 74.1399 15.7398H74.1394ZM77.1371 21.4746L76.1422 21.7065L75.3774 21.2311V20.4888C75.9165 20.7729 76.5183 20.938 77.1365 20.9713L77.1371 21.4746ZM79.377 21.2311L78.6121 21.7065L77.6173 21.4746V20.9707C78.2355 20.9375 78.8373 20.7724 79.3765 20.4883V21.2306L79.377 21.2311ZM77.4266 20.53C77.3945 20.5239 77.3615 20.5239 77.3294 20.53C76.3836 20.5175 75.4811 20.1585 74.8167 19.5307C74.1523 18.9029 73.7793 18.0566 73.7783 17.1746V16.5036H80.9755V17.1751C80.9744 18.0569 80.6014 18.9029 79.9373 19.5306C79.2731 20.1582 78.371 20.5172 77.4255 20.53H77.4266Z" fill="#CED4DA" stroke="#CED4DA" stroke-width="2" mask="url(#path-14-inside-7)"/>
<mask id="path-15-inside-8" fill="white">
<path d="M77.3766 12.4766C77.2027 12.4766 77.0326 12.5247 76.888 12.6148C76.7433 12.7049 76.6306 12.833 76.564 12.9829C76.4974 13.1328 76.48 13.2978 76.514 13.4569C76.5479 13.616 76.6317 13.7621 76.7547 13.8769C76.8777 13.9916 77.0344 14.0697 77.2051 14.1014C77.3757 14.133 77.5525 14.1168 77.7133 14.0547C77.874 13.9926 78.0113 13.8875 78.108 13.7526C78.2046 13.6177 78.2562 13.4591 78.2562 13.2968C78.2559 13.0794 78.1632 12.8709 77.9983 12.7171C77.8334 12.5633 77.6098 12.4768 77.3766 12.4766ZM77.3766 13.6698C77.2976 13.6698 77.2202 13.6479 77.1545 13.6069C77.0887 13.566 77.0375 13.5077 77.0072 13.4396C76.9769 13.3714 76.969 13.2964 76.9844 13.2241C76.9999 13.1517 77.0379 13.0853 77.0939 13.0331C77.1498 12.981 77.2211 12.9455 77.2986 12.9311C77.3762 12.9167 77.4566 12.9241 77.5297 12.9523C77.6028 12.9805 77.6652 13.0283 77.7092 13.0896C77.7531 13.151 77.7766 13.2231 77.7766 13.2968C77.7763 13.3956 77.734 13.4903 77.6591 13.5601C77.5841 13.6299 77.4826 13.6691 77.3766 13.6693V13.6698Z"/>
</mask>
<path d="M77.3766 12.4766C77.2027 12.4766 77.0326 12.5247 76.888 12.6148C76.7433 12.7049 76.6306 12.833 76.564 12.9829C76.4974 13.1328 76.48 13.2978 76.514 13.4569C76.5479 13.616 76.6317 13.7621 76.7547 13.8769C76.8777 13.9916 77.0344 14.0697 77.2051 14.1014C77.3757 14.133 77.5525 14.1168 77.7133 14.0547C77.874 13.9926 78.0113 13.8875 78.108 13.7526C78.2046 13.6177 78.2562 13.4591 78.2562 13.2968C78.2559 13.0794 78.1632 12.8709 77.9983 12.7171C77.8334 12.5633 77.6098 12.4768 77.3766 12.4766ZM77.3766 13.6698C77.2976 13.6698 77.2202 13.6479 77.1545 13.6069C77.0887 13.566 77.0375 13.5077 77.0072 13.4396C76.9769 13.3714 76.969 13.2964 76.9844 13.2241C76.9999 13.1517 77.0379 13.0853 77.0939 13.0331C77.1498 12.981 77.2211 12.9455 77.2986 12.9311C77.3762 12.9167 77.4566 12.9241 77.5297 12.9523C77.6028 12.9805 77.6652 13.0283 77.7092 13.0896C77.7531 13.151 77.7766 13.2231 77.7766 13.2968C77.7763 13.3956 77.734 13.4903 77.6591 13.5601C77.5841 13.6299 77.4826 13.6691 77.3766 13.6693V13.6698Z" fill="#CED4DA"/>
<path d="M77.3766 12.4766L77.3778 11.4766H77.3766V12.4766ZM78.2562 13.2968H79.2562L79.2562 13.2955L78.2562 13.2968ZM77.3766 13.6698V14.6698H78.3766V13.6698H77.3766ZM77.7766 13.2968L78.7766 13.2998V13.2968H77.7766ZM77.3766 13.6693L77.3754 12.6693L76.3766 12.6705V13.6693H77.3766ZM77.3766 11.4766C77.0198 11.4766 76.6659 11.5749 76.3591 11.7661L77.4168 13.4635C77.3994 13.4744 77.3856 13.4766 77.3766 13.4766V11.4766ZM76.3591 11.7661C76.0518 11.9576 75.8012 12.2369 75.6501 12.577L77.4779 13.3889C77.46 13.4292 77.4349 13.4523 77.4168 13.4635L76.3591 11.7661ZM75.6501 12.577C75.4986 12.9182 75.4576 13.2981 75.536 13.6655L77.492 13.2483C77.5025 13.2974 77.4963 13.3475 77.4779 13.3889L75.6501 12.577ZM75.536 13.6655C75.6142 14.0322 75.8052 14.3587 76.0727 14.6082L77.4367 13.1455C77.4582 13.1656 77.4816 13.1998 77.492 13.2483L75.536 13.6655ZM76.0727 14.6082C76.3394 14.857 76.6712 15.0194 77.0227 15.0846L77.3874 13.1181C77.3977 13.12 77.416 13.1262 77.4367 13.1455L76.0727 14.6082ZM77.0227 15.0846C77.374 15.1498 77.7388 15.1168 78.0736 14.9875L77.3529 13.1219C77.3601 13.1191 77.3663 13.1178 77.3714 13.1174C77.3765 13.1169 77.3818 13.1171 77.3874 13.1181L77.0227 15.0846ZM78.0736 14.9875C78.4087 14.858 78.7062 14.6345 78.9209 14.335L77.2951 13.1701C77.3164 13.1404 77.3392 13.1272 77.3529 13.1219L78.0736 14.9875ZM78.9209 14.335C79.1362 14.0344 79.2562 13.673 79.2562 13.2968H77.2562C77.2562 13.2451 77.273 13.2009 77.2951 13.1701L78.9209 14.335ZM79.2562 13.2955C79.2556 12.7899 79.0393 12.3206 78.6803 11.9858L77.3163 13.4484C77.2871 13.4212 77.2563 13.3688 77.2562 13.2982L79.2562 13.2955ZM78.6803 11.9858C78.3237 11.6532 77.8542 11.4771 77.3778 11.4766L77.3755 13.4766C77.3691 13.4766 77.3613 13.4754 77.3522 13.4719C77.3431 13.4684 77.3302 13.4615 77.3163 13.4484L78.6803 11.9858ZM77.3766 12.6698C77.4804 12.6698 77.587 12.6982 77.6833 12.7582L76.6256 14.4556C76.8535 14.5976 77.1147 14.6698 77.3766 14.6698V12.6698ZM77.6833 12.7582C77.7803 12.8186 77.8669 12.9116 77.9211 13.0336L76.0933 13.8455C76.208 14.1038 76.3971 14.3133 76.6256 14.4556L77.6833 12.7582ZM77.9211 13.0336C77.9758 13.1568 77.9914 13.2968 77.9624 13.4327L76.0064 13.0155C75.9466 13.2961 75.9781 13.5861 76.0933 13.8455L77.9211 13.0336ZM77.9624 13.4327C77.9336 13.5679 77.8645 13.6819 77.7759 13.7645L76.4118 12.3018C76.2114 12.4887 76.0661 12.7356 76.0064 13.0155L77.9624 13.4327ZM77.7759 13.7645C77.6881 13.8464 77.5843 13.8951 77.481 13.9143L77.1162 11.9478C76.8578 11.9958 76.6115 12.1156 76.4118 12.3018L77.7759 13.7645ZM77.481 13.9143C77.3779 13.9334 77.2703 13.9241 77.1694 13.8851L77.89 12.0195C77.6429 11.924 77.3745 11.8999 77.1162 11.9478L77.481 13.9143ZM77.1694 13.8851C77.068 13.8459 76.9703 13.7754 76.8963 13.6721L78.522 12.5072C78.3601 12.2812 78.1375 12.1151 77.89 12.0195L77.1694 13.8851ZM76.8963 13.6721C76.8215 13.5677 76.7766 13.4371 76.7766 13.2968H78.7766C78.7766 13.0091 78.6847 12.7342 78.522 12.5072L76.8963 13.6721ZM76.7766 13.2939C76.7771 13.1049 76.8585 12.9391 76.9776 12.8283L78.3406 14.2919C78.6095 14.0414 78.7754 13.6864 78.7766 13.2998L76.7766 13.2939ZM76.9776 12.8283C77.0942 12.7196 77.2384 12.6695 77.3754 12.6693L77.3779 14.6693C77.7268 14.6688 78.074 14.5401 78.3406 14.2919L76.9776 12.8283ZM76.3766 13.6693V13.6698H78.3766V13.6693H76.3766Z" fill="#CED4DA" mask="url(#path-15-inside-8)"/>
<mask id="path-17-inside-9" fill="white">
<path d="M20.8871 65.9538H19.2077V65.0194C19.705 64.6649 20.108 64.2082 20.3855 63.6848C20.6629 63.1615 20.8072 62.5855 20.8073 62.0017V61.3302H21.2072C21.2708 61.3302 21.3318 61.3067 21.3768 61.2647C21.4218 61.2228 21.4471 61.1659 21.4471 61.1066C21.4471 60.888 21.216 60.648 20.8073 60.4315V59.6163C20.8073 58.6076 20.3776 57.6402 19.6128 56.927C18.848 56.2137 17.8107 55.813 16.729 55.813C15.6474 55.813 14.6101 56.2137 13.8452 56.927C13.0804 57.6402 12.6507 58.6076 12.6507 59.6163V60.4315C12.2421 60.649 12.011 60.89 12.011 61.1066C12.011 61.1659 12.0362 61.2228 12.0812 61.2647C12.1262 61.3067 12.1872 61.3302 12.2508 61.3302H12.6507V62.0017C12.6508 62.5855 12.7952 63.1615 13.0726 63.6848C13.35 64.2082 13.753 64.6649 14.2503 65.0194V65.9538H12.5704C12.0827 65.9542 11.6151 66.1351 11.2702 66.4567C10.9253 66.7783 10.7314 67.2144 10.7309 67.6693V68.861C10.7309 68.9203 10.7562 68.9772 10.8012 69.0191C10.8462 69.0611 10.9072 69.0846 10.9708 69.0846C11.0344 69.0846 11.0954 69.0611 11.1404 69.0191C11.1853 68.9772 11.2106 68.9203 11.2106 68.861V67.6682C11.2113 67.3324 11.3548 67.0104 11.6096 66.773C11.8644 66.5356 12.2097 66.4021 12.5699 66.4017H14.4164L15.3157 66.9621L15.3266 66.9677L15.3408 66.9753L15.3616 66.984L15.3752 66.9891L15.3993 66.9947H15.4118C15.4234 66.9963 15.4351 66.9972 15.4468 66.9973C15.46 66.9971 15.4731 66.9959 15.4861 66.9937L15.5047 66.9906L16.7263 66.7058L17.9479 66.9906L17.967 66.9942C17.9798 66.9962 17.9928 66.9972 18.0058 66.9973C18.0175 66.9972 18.0292 66.9963 18.0407 66.9947H18.0533C18.0614 66.9932 18.0694 66.9914 18.0773 66.9891L18.091 66.984L18.1118 66.9753L18.126 66.9677L18.1369 66.9621L19.0361 66.4017H20.8827C21.2431 66.4021 21.5886 66.5357 21.8434 66.7734C22.0982 67.011 22.2415 67.3332 22.242 67.6693V70.6375H11.2062V69.7571C11.2062 69.6978 11.181 69.6409 11.136 69.599C11.091 69.557 11.03 69.5335 10.9664 69.5335C10.9028 69.5335 10.8418 69.557 10.7968 69.599C10.7518 69.6409 10.7266 69.6978 10.7266 69.7571V70.8587C10.7267 70.9179 10.752 70.9747 10.797 71.0167C10.8419 71.0586 10.9028 71.0822 10.9664 71.0823H22.4867C22.5503 71.0823 22.6113 71.0588 22.6563 71.0168C22.7013 70.9749 22.7266 70.918 22.7266 70.8587V67.6693C22.726 67.2145 22.532 66.7785 22.1872 66.4569C21.8423 66.1353 21.3748 65.9544 20.8871 65.9538ZM13.1298 59.6148C13.1298 58.7247 13.509 57.8711 14.1839 57.2417C14.8587 56.6124 15.7741 56.2588 16.7285 56.2588C17.6829 56.2588 18.5982 56.6124 19.2731 57.2417C19.948 57.8711 20.3271 58.7247 20.3271 59.6148V60.2165L20.2539 60.1895C19.1215 59.8228 17.9265 59.6534 16.7285 59.6897C15.5304 59.6534 14.3354 59.8228 13.203 60.1895L13.1298 60.2165V59.6148ZM13.491 60.5665C14.5359 60.252 15.6309 60.1067 16.7285 60.137C17.826 60.1067 18.921 60.252 19.966 60.5665C20.2147 60.6467 20.453 60.7529 20.6762 60.8829H12.7807C13.0042 60.7529 13.2426 60.6467 13.4915 60.5665H13.491ZM16.4886 66.3013L15.4938 66.5331L14.7289 66.0578V65.3154C15.2681 65.5996 15.8699 65.7646 16.4881 65.7979L16.4886 66.3013ZM18.7286 66.0578L17.9637 66.5331L16.9689 66.3013V65.7974C17.5871 65.7641 18.1889 65.5991 18.728 65.3149V66.0572L18.7286 66.0578ZM16.7782 65.3567C16.7461 65.3506 16.713 65.3506 16.6809 65.3567C15.7352 65.3441 14.8327 64.9852 14.1683 64.3574C13.5039 63.7296 13.1309 62.8833 13.1298 62.0012V61.3302H20.3271V62.0017C20.3259 62.8835 19.953 63.7296 19.2889 64.3572C18.6247 64.9849 17.7226 65.3439 16.7771 65.3567H16.7782Z"/>
</mask>
<path d="M20.8871 65.9538H19.2077V65.0194C19.705 64.6649 20.108 64.2082 20.3855 63.6848C20.6629 63.1615 20.8072 62.5855 20.8073 62.0017V61.3302H21.2072C21.2708 61.3302 21.3318 61.3067 21.3768 61.2647C21.4218 61.2228 21.4471 61.1659 21.4471 61.1066C21.4471 60.888 21.216 60.648 20.8073 60.4315V59.6163C20.8073 58.6076 20.3776 57.6402 19.6128 56.927C18.848 56.2137 17.8107 55.813 16.729 55.813C15.6474 55.813 14.6101 56.2137 13.8452 56.927C13.0804 57.6402 12.6507 58.6076 12.6507 59.6163V60.4315C12.2421 60.649 12.011 60.89 12.011 61.1066C12.011 61.1659 12.0362 61.2228 12.0812 61.2647C12.1262 61.3067 12.1872 61.3302 12.2508 61.3302H12.6507V62.0017C12.6508 62.5855 12.7952 63.1615 13.0726 63.6848C13.35 64.2082 13.753 64.6649 14.2503 65.0194V65.9538H12.5704C12.0827 65.9542 11.6151 66.1351 11.2702 66.4567C10.9253 66.7783 10.7314 67.2144 10.7309 67.6693V68.861C10.7309 68.9203 10.7562 68.9772 10.8012 69.0191C10.8462 69.0611 10.9072 69.0846 10.9708 69.0846C11.0344 69.0846 11.0954 69.0611 11.1404 69.0191C11.1853 68.9772 11.2106 68.9203 11.2106 68.861V67.6682C11.2113 67.3324 11.3548 67.0104 11.6096 66.773C11.8644 66.5356 12.2097 66.4021 12.5699 66.4017H14.4164L15.3157 66.9621L15.3266 66.9677L15.3408 66.9753L15.3616 66.984L15.3752 66.9891L15.3993 66.9947H15.4118C15.4234 66.9963 15.4351 66.9972 15.4468 66.9973C15.46 66.9971 15.4731 66.9959 15.4861 66.9937L15.5047 66.9906L16.7263 66.7058L17.9479 66.9906L17.967 66.9942C17.9798 66.9962 17.9928 66.9972 18.0058 66.9973C18.0175 66.9972 18.0292 66.9963 18.0407 66.9947H18.0533C18.0614 66.9932 18.0694 66.9914 18.0773 66.9891L18.091 66.984L18.1118 66.9753L18.126 66.9677L18.1369 66.9621L19.0361 66.4017H20.8827C21.2431 66.4021 21.5886 66.5357 21.8434 66.7734C22.0982 67.011 22.2415 67.3332 22.242 67.6693V70.6375H11.2062V69.7571C11.2062 69.6978 11.181 69.6409 11.136 69.599C11.091 69.557 11.03 69.5335 10.9664 69.5335C10.9028 69.5335 10.8418 69.557 10.7968 69.599C10.7518 69.6409 10.7266 69.6978 10.7266 69.7571V70.8587C10.7267 70.9179 10.752 70.9747 10.797 71.0167C10.8419 71.0586 10.9028 71.0822 10.9664 71.0823H22.4867C22.5503 71.0823 22.6113 71.0588 22.6563 71.0168C22.7013 70.9749 22.7266 70.918 22.7266 70.8587V67.6693C22.726 67.2145 22.532 66.7785 22.1872 66.4569C21.8423 66.1353 21.3748 65.9544 20.8871 65.9538ZM13.1298 59.6148C13.1298 58.7247 13.509 57.8711 14.1839 57.2417C14.8587 56.6124 15.7741 56.2588 16.7285 56.2588C17.6829 56.2588 18.5982 56.6124 19.2731 57.2417C19.948 57.8711 20.3271 58.7247 20.3271 59.6148V60.2165L20.2539 60.1895C19.1215 59.8228 17.9265 59.6534 16.7285 59.6897C15.5304 59.6534 14.3354 59.8228 13.203 60.1895L13.1298 60.2165V59.6148ZM13.491 60.5665C14.5359 60.252 15.6309 60.1067 16.7285 60.137C17.826 60.1067 18.921 60.252 19.966 60.5665C20.2147 60.6467 20.453 60.7529 20.6762 60.8829H12.7807C13.0042 60.7529 13.2426 60.6467 13.4915 60.5665H13.491ZM16.4886 66.3013L15.4938 66.5331L14.7289 66.0578V65.3154C15.2681 65.5996 15.8699 65.7646 16.4881 65.7979L16.4886 66.3013ZM18.7286 66.0578L17.9637 66.5331L16.9689 66.3013V65.7974C17.5871 65.7641 18.1889 65.5991 18.728 65.3149V66.0572L18.7286 66.0578ZM16.7782 65.3567C16.7461 65.3506 16.713 65.3506 16.6809 65.3567C15.7352 65.3441 14.8327 64.9852 14.1683 64.3574C13.5039 63.7296 13.1309 62.8833 13.1298 62.0012V61.3302H20.3271V62.0017C20.3259 62.8835 19.953 63.7296 19.2889 64.3572C18.6247 64.9849 17.7226 65.3439 16.7771 65.3567H16.7782Z" fill="#CED4DA" stroke="#CED4DA" stroke-width="2" mask="url(#path-17-inside-9)"/>
<mask id="path-18-inside-10" fill="white">
<path d="M16.7282 57.3037C16.5542 57.3037 16.3842 57.3518 16.2395 57.442C16.0949 57.5321 15.9822 57.6602 15.9156 57.8101C15.849 57.96 15.8316 58.1249 15.8655 58.284C15.8995 58.4431 15.9832 58.5893 16.1063 58.704C16.2293 58.8187 16.386 58.8968 16.5566 58.9285C16.7272 58.9601 16.9041 58.9439 17.0648 58.8818C17.2255 58.8197 17.3629 58.7146 17.4596 58.5797C17.5562 58.4448 17.6078 58.2862 17.6078 58.124C17.6075 57.9065 17.5147 57.698 17.3498 57.5443C17.185 57.3905 16.9614 57.304 16.7282 57.3037ZM16.7282 58.4969C16.6491 58.4969 16.5718 58.475 16.506 58.4341C16.4403 58.3931 16.389 58.3348 16.3587 58.2667C16.3285 58.1986 16.3206 58.1236 16.336 58.0512C16.3514 57.9789 16.3895 57.9124 16.4454 57.8603C16.5014 57.8081 16.5726 57.7726 16.6502 57.7582C16.7278 57.7438 16.8082 57.7512 16.8813 57.7794C16.9543 57.8077 17.0168 57.8555 17.0607 57.9168C17.1047 57.9781 17.1281 58.0502 17.1281 58.124C17.1278 58.2228 17.0856 58.3174 17.0106 58.3872C16.9357 58.457 16.8341 58.4963 16.7282 58.4964V58.4969Z"/>
</mask>
<path d="M16.7282 57.3037C16.5542 57.3037 16.3842 57.3518 16.2395 57.442C16.0949 57.5321 15.9822 57.6602 15.9156 57.8101C15.849 57.96 15.8316 58.1249 15.8655 58.284C15.8995 58.4431 15.9832 58.5893 16.1063 58.704C16.2293 58.8187 16.386 58.8968 16.5566 58.9285C16.7272 58.9601 16.9041 58.9439 17.0648 58.8818C17.2255 58.8197 17.3629 58.7146 17.4596 58.5797C17.5562 58.4448 17.6078 58.2862 17.6078 58.124C17.6075 57.9065 17.5147 57.698 17.3498 57.5443C17.185 57.3905 16.9614 57.304 16.7282 57.3037ZM16.7282 58.4969C16.6491 58.4969 16.5718 58.475 16.506 58.4341C16.4403 58.3931 16.389 58.3348 16.3587 58.2667C16.3285 58.1986 16.3206 58.1236 16.336 58.0512C16.3514 57.9789 16.3895 57.9124 16.4454 57.8603C16.5014 57.8081 16.5726 57.7726 16.6502 57.7582C16.7278 57.7438 16.8082 57.7512 16.8813 57.7794C16.9543 57.8077 17.0168 57.8555 17.0607 57.9168C17.1047 57.9781 17.1281 58.0502 17.1281 58.124C17.1278 58.2228 17.0856 58.3174 17.0106 58.3872C16.9357 58.457 16.8341 58.4963 16.7282 58.4964V58.4969Z" fill="#CED4DA"/>
<path d="M16.7282 57.3037L16.7294 56.3037H16.7282V57.3037ZM17.6078 58.124H18.6078L18.6078 58.1226L17.6078 58.124ZM16.7282 58.4969V59.4969H17.7282V58.4969H16.7282ZM17.1281 58.124L18.1281 58.1269V58.124H17.1281ZM16.7282 58.4964L16.7269 57.4964L15.7282 57.4977V58.4964H16.7282ZM16.7282 56.3037C16.3714 56.3037 16.0174 56.4021 15.7107 56.5932L16.7684 58.2907C16.7509 58.3015 16.7371 58.3037 16.7282 58.3037V56.3037ZM15.7107 56.5932C15.4034 56.7847 15.1527 57.064 15.0017 57.4042L16.8295 58.216C16.8116 58.2564 16.7864 58.2794 16.7684 58.2907L15.7107 56.5932ZM15.0017 57.4042C14.8501 57.7453 14.8092 58.1252 14.8875 58.4926L16.8435 58.0754C16.854 58.1245 16.8479 58.1746 16.8295 58.216L15.0017 57.4042ZM14.8875 58.4926C14.9657 58.8593 15.1567 59.1859 15.4242 59.4353L16.7883 57.9727C16.8098 57.9927 16.8332 58.0269 16.8435 58.0754L14.8875 58.4926ZM15.4242 59.4353C15.691 59.6841 16.0227 59.8465 16.3742 59.9117L16.739 57.9453C16.7492 57.9472 16.7675 57.9533 16.7883 57.9727L15.4242 59.4353ZM16.3742 59.9117C16.7255 59.9769 17.0904 59.9439 17.4251 59.8146L16.7045 57.949C16.7117 57.9462 16.7178 57.945 16.723 57.9445C16.7281 57.944 16.7334 57.9442 16.739 57.9453L16.3742 59.9117ZM17.4251 59.8146C17.7603 59.6852 18.0578 59.4617 18.2724 59.1621L16.6467 57.9973C16.668 57.9675 16.6908 57.9543 16.7045 57.949L17.4251 59.8146ZM18.2724 59.1621C18.4878 58.8616 18.6078 58.5002 18.6078 58.124H16.6078C16.6078 58.0722 16.6246 58.028 16.6467 57.9973L18.2724 59.1621ZM18.6078 58.1226C18.6071 57.617 18.3908 57.1477 18.0319 56.8129L16.6678 58.2756C16.6386 58.2484 16.6079 58.196 16.6078 58.1253L18.6078 58.1226ZM18.0319 56.8129C17.6752 56.4803 17.2057 56.3043 16.7294 56.3037L16.7271 58.3037C16.7206 58.3037 16.7129 58.3026 16.7038 58.299C16.6946 58.2955 16.6818 58.2886 16.6678 58.2756L18.0319 56.8129ZM16.7282 57.4969C16.832 57.4969 16.9385 57.5253 17.0349 57.5854L15.9772 59.2828C16.2051 59.4248 16.4662 59.4969 16.7282 59.4969V57.4969ZM17.0349 57.5854C17.1318 57.6458 17.2184 57.7387 17.2727 57.8608L15.4448 58.6726C15.5596 58.931 15.7487 59.1404 15.9772 59.2828L17.0349 57.5854ZM17.2727 57.8608C17.3273 57.9839 17.343 58.1239 17.314 58.2598L15.358 57.8426C15.2981 58.1232 15.3296 58.4132 15.4448 58.6726L17.2727 57.8608ZM17.314 58.2598C17.2851 58.395 17.216 58.509 17.1275 58.5916L15.7634 57.1289C15.563 57.3158 15.4177 57.5627 15.358 57.8426L17.314 58.2598ZM17.1275 58.5916C17.0396 58.6735 16.9359 58.7223 16.8326 58.7414L16.4678 56.775C16.2094 56.8229 15.9631 56.9427 15.7634 57.1289L17.1275 58.5916ZM16.8326 58.7414C16.7295 58.7606 16.6219 58.7513 16.5209 58.7122L17.2416 56.8466C16.9944 56.7511 16.7261 56.7271 16.4678 56.775L16.8326 58.7414ZM16.5209 58.7122C16.4196 58.6731 16.3219 58.6025 16.2478 58.4992L17.8736 57.3344C17.7117 57.1084 17.4891 56.9422 17.2416 56.8466L16.5209 58.7122ZM16.2478 58.4992C16.1731 58.3949 16.1281 58.2642 16.1281 58.124H18.1281C18.1281 57.8362 18.0362 57.5613 17.8736 57.3344L16.2478 58.4992ZM16.1281 58.1211C16.1287 57.932 16.2101 57.7662 16.3291 57.6554L17.6922 59.119C17.9611 58.8686 18.127 58.5135 18.1281 58.1269L16.1281 58.1211ZM16.3291 57.6554C16.4458 57.5467 16.5899 57.4966 16.7269 57.4964L16.7295 59.4964C17.0783 59.496 17.4256 59.3673 17.6922 59.119L16.3291 57.6554ZM15.7282 58.4964V58.4969H17.7282V58.4964H15.7282Z" fill="#CED4DA" mask="url(#path-18-inside-10)"/>
<path d="M46.7329 33.3537C46.7329 33.3537 47.9129 28.4931 36.7556 28.652" stroke="#CED4DA" stroke-dasharray="2 2"/>
<path d="M65.7277 39.1362C65.7277 39.1362 66.1206 33.8699 53.9695 35.0922" stroke="#CED4DA" stroke-dasharray="2 2"/>
<rect x="0.5" y="0.5" width="95" height="95" rx="7.1" stroke="#E9ECEF"/>
</svg>
