<svg width="32" height="33" viewBox="0 0 32 33" fill="none" xmlns="http://www.w3.org/2000/svg">
<rect x="0.5" y="0.5" width="31" height="32" rx="6.5" fill="white" stroke="#E9ECEF"/>
<g clip-path="url(#clip0_12441_82412)">
<path d="M24.484 11.2655H5.95347C5.51318 11.2655 5.15625 11.6384 5.15625 12.0983V26.153C5.15625 26.613 5.51318 26.9859 5.95347 26.9859H24.484C24.9243 26.9859 25.2812 26.613 25.2812 26.153V12.0983C25.2812 11.6384 24.9243 11.2655 24.484 11.2655Z" fill="#4989F5"/>
<path d="M24.248 11.1475H6.16037C5.60007 11.1475 5.16406 15.6775 5.16406 16.2628L15.0694 26.9859H24.248C24.81 26.9843 25.2653 26.5088 25.2668 25.9216V12.2115C25.2651 11.6245 24.81 11.1491 24.248 11.1475Z" fill="url(#paint0_linear_12441_82412)"/>
<path d="M9.75 13.8982H15.5V6.01428H10.611L9.75 13.8982Z" fill="#3C4BA6"/>
<path d="M21.25 13.8982H15.5V6.01428H20.389L21.25 13.8982ZM25.2798 7.50877L25.2869 7.53564C25.2852 7.52616 25.2817 7.51735 25.2798 7.50877Z" fill="#7BABF7"/>
<path d="M25.2885 7.5354L25.2814 7.50853C25.0991 6.63647 24.3602 6.0146 23.5058 6.01404H20.3906L21.251 13.8982H27.001L25.2885 7.5354Z" fill="#3F51B5"/>
<path d="M5.71807 7.50879L5.71094 7.53566C5.71267 7.52618 5.71613 7.51737 5.71807 7.50879Z" fill="#7BABF7"/>
<path d="M5.71354 7.5354L5.72068 7.50853C5.90297 6.63647 6.64182 6.0146 7.49626 6.01404H10.6116L9.75 13.8982H4L5.71354 7.5354Z" fill="#7BABF7"/>
<path fill-rule="evenodd" clip-rule="evenodd" d="M9.76238 13.8961C9.76238 15.5539 8.47592 16.8979 6.889 16.8979C5.30209 16.8979 4.01562 15.5539 4.01562 13.8961H9.76238Z" fill="#709BE0"/>
<path fill-rule="evenodd" clip-rule="evenodd" d="M15.5046 13.8961C15.5046 15.5539 14.2181 16.8979 12.6312 16.8979C11.0443 16.8979 9.75781 15.5539 9.75781 13.8961H15.5046Z" fill="#3C4BA6"/>
<path fill-rule="evenodd" clip-rule="evenodd" d="M21.2546 13.8961C21.2546 15.5539 19.9681 16.8979 18.3812 16.8979C16.7943 16.8979 15.5078 15.5539 15.5078 13.8961H21.2546Z" fill="#709BE0"/>
<path fill-rule="evenodd" clip-rule="evenodd" d="M26.9968 13.8961C26.9968 15.5539 25.7103 16.8979 24.1234 16.8979C22.5365 16.8979 21.25 15.5539 21.25 13.8961H26.9968Z" fill="#3C4BA6"/>
<path d="M24.128 22.0286C24.1178 21.8857 24.1009 21.7552 24.0769 21.5885H20.9425C20.9425 22.0465 20.9426 22.5462 20.9408 23.0044H22.7566C22.718 23.2179 22.6395 23.4214 22.5254 23.6031C22.4113 23.7848 22.264 23.9412 22.0919 24.0633C22.0919 24.0633 22.0919 24.0554 22.0906 24.0552C21.8684 24.2076 21.618 24.3097 21.3556 24.3548C21.0926 24.4051 20.823 24.4039 20.5604 24.3512C20.2937 24.2936 20.0413 24.1793 19.8187 24.0154C19.4902 23.772 19.2368 23.4338 19.0896 23.0421C19.0783 23.0116 19.068 22.9809 19.0574 22.9498V22.9464L19.0602 22.9441C18.9173 22.5061 18.9169 22.0311 19.0591 21.5928C19.1592 21.2854 19.324 21.0053 19.5414 20.7731C20.0512 20.2221 20.813 20.0148 21.5154 20.2361C21.7847 20.3223 22.0308 20.4737 22.2337 20.6778L22.8463 20.0378C22.9544 19.9237 23.0666 19.8133 23.1706 19.6954C22.8599 19.3928 22.4953 19.1569 22.0975 19.0013C21.3735 18.727 20.5815 18.7198 19.8531 18.9807C19.8277 18.9897 19.8025 18.9992 19.7774 19.0089C18.9915 19.3176 18.345 19.9229 17.9655 20.7053C17.8315 20.9823 17.7339 21.2768 17.6754 21.5811C17.3284 23.3825 18.3806 25.1557 20.0794 25.6323C20.6347 25.7877 21.2251 25.7838 21.7847 25.651C22.2932 25.5311 22.7634 25.2759 23.1496 24.9101C23.5525 24.5228 23.8413 24.0068 23.9926 23.4588C24.1192 22.9943 24.165 22.51 24.128 22.0286Z" fill="white"/>
</g>
<defs>
<linearGradient id="paint0_linear_12441_82412" x1="5.16406" y1="19.0665" x2="25.2666" y2="19.0665" gradientUnits="userSpaceOnUse">
<stop offset="0.03" stop-color="#4079D8"/>
<stop offset="1" stop-color="#4989F5"/>
</linearGradient>
<clipPath id="clip0_12441_82412">
<rect width="23" height="21" fill="white" transform="translate(4 6)"/>
</clipPath>
</defs>
</svg>
