<svg xmlns="http://www.w3.org/2000/svg" width="17.63" height="17.63" viewBox="0 0 17.63 17.63"><defs><style>.a{fill:#1c202e;}</style></defs><path class="a" d="M11.948,1h-.632A.316.316,0,0,0,11,1.316V3.529a.316.316,0,0,0,.316.316h.632a.316.316,0,0,0,.316-.316V1.316A.316.316,0,0,0,11.948,1Z" transform="translate(-7.103 -1)"/><path class="a" d="M33.948,3.845h-.632A.316.316,0,0,1,33,3.529V1.316A.316.316,0,0,1,33.316,1h.632a.316.316,0,0,1,.316.316V3.529A.316.316,0,0,1,33.948,3.845Z" transform="translate(-20.531 -1)"/><path class="a" d="M17.863,5h-2.3V7.338a.387.387,0,0,1-.383.39h-2.3a.387.387,0,0,1-.383-.39V5H7.132V7.338a.387.387,0,0,1-.383.39h-2.3a.387.387,0,0,1-.383-.39V5h-2.3A.773.773,0,0,0,1,5.779V20.586a.773.773,0,0,0,.767.779h16.1a.773.773,0,0,0,.767-.779V5.779A.773.773,0,0,0,17.863,5ZM17.48,20.586H2.15a.387.387,0,0,1-.383-.39V9.676a.387.387,0,0,1,.383-.39H17.48a.387.387,0,0,1,.383.39V20.2A.387.387,0,0,1,17.48,20.586Z" transform="translate(-1 -3.736)"/></svg>