<svg xmlns="http://www.w3.org/2000/svg" width="14.756" height="13.506" viewBox="0 0 14.756 13.506"><defs><style>.a{fill:none;stroke:#000;stroke-linecap:square;stroke-miterlimit:10;}</style></defs><g transform="translate(0.5 0.5)"><path class="a" d="M14.506,13V9.251H3.251A1.251,1.251,0,0,1,2,8v9.379a1.876,1.876,0,0,0,1.876,1.876h10.63V15.5" transform="translate(-2 -6.749)"/><path class="a" d="M12,4.938V4H3.251A1.251,1.251,0,0,0,2,5.251H2A1.251,1.251,0,0,0,3.251,6.5" transform="translate(-2 -4)"/><path class="a" d="M37.064,26.5H34.251A1.251,1.251,0,0,1,33,25.251h0A1.251,1.251,0,0,1,34.251,24h2.814Z" transform="translate(-23.308 -17.747)"/></g></svg>