<svg xmlns="http://www.w3.org/2000/svg" width="12.231" height="14.632" viewBox="0 0 12.231 14.632">
  <g id="deadline" transform="translate(-42 0)">
    <path id="Path_6724" data-name="Path 6724" d="M52.431,4.166,53.54,3.055a.428.428,0,0,0-.606-.6L51.783,3.6a6.075,6.075,0,0,0-3.239-1.212V1.421h.518a.71.71,0,0,0,0-1.421H47.169a.71.71,0,0,0,0,1.421h.518v.971A6.075,6.075,0,0,0,44.448,3.6L43.3,2.45a.428.428,0,1,0-.606.6L43.8,4.166a6.116,6.116,0,1,0,8.631,0Zm-4.316,8.952A4.614,4.614,0,1,1,52.721,8.5,4.615,4.615,0,0,1,48.116,13.118Z" transform="translate(0 0)"/>
    <path id="Path_6725" data-name="Path 6725" d="M128.557,166.082a3.758,3.758,0,1,0,3.749,3.758A3.758,3.758,0,0,0,128.557,166.082Zm1.424,4.186h-1.424a.428.428,0,0,1-.428-.428V167.8a.428.428,0,1,1,.856,0v1.612h1a.428.428,0,0,1,0,.856Z" transform="translate(-80.441 -161.336)"/>
  </g>
</svg>
