<svg id="risk" xmlns="http://www.w3.org/2000/svg" width="19.283" height="19.255" viewBox="0 0 19.283 19.255">
  <g id="Group_5269" data-name="Group 5269">
    <path id="Path_6707" data-name="Path 6707" d="M19.211,18.605h0L10.26.7A.718.718,0,0,0,9.027.7L.073,18.605a.689.689,0,0,0,.613,1H18.594a.689.689,0,0,0,.616-1Zm-8.882-2.447a.689.689,0,1,1-1.378,0v-.689a.689.689,0,0,1,1.378,0Zm0-3.444a.689.689,0,1,1-1.378,0V7.893a.689.689,0,1,1,1.378,0Z" transform="translate(0 -0.347)" fill="#ffbf12"/>
  </g>
</svg>
