<svg id="kwait" xmlns="http://www.w3.org/2000/svg" width="12" height="18.058" viewBox="0 0 12 18.058">
  <path id="Path_6703" data-name="Path 6703" d="M366.429,83.21c0,.179.125-.343-1.676,6.379-.1-.387-.07.45-.07-6.9A.952.952,0,0,1,366.429,83.21Z" transform="translate(-354.431 -79.265)" fill="#0e9b55"/>
  <path id="Path_6704" data-name="Path 6704" d="M290.208,1.107V9.03c-2.12-3.671-1.185-2.053-2.214-3.834V1.107a1.107,1.107,0,1,1,2.214,0Z" transform="translate(-280.538 0)" fill="#0e9b55"/>
  <path id="Path_6705" data-name="Path 6705" d="M158.166,34.692l-.859-.859a4,4,0,0,0-2.9-1.177l-1.963-3.274a1.107,1.107,0,0,1,1.918-1.1C157.352,33.255,155.82,30.628,158.166,34.692Z" transform="translate(-149.776 -26.715)" fill="#0e9b55"/>
  <path id="Path_6706" data-name="Path 6706" d="M93.169,184.742a6.886,6.886,0,0,1-2.014,4.863,3.448,3.448,0,0,1-2.357,1.012c-.142,0,.546,0-1.546,0a4.063,4.063,0,0,1-4.058-4.058v-5.592a.33.33,0,0,1,.33-.33.294.294,0,0,0,.087-.011,1.986,1.986,0,0,1,1.464.825,2.155,2.155,0,0,1,.333,1.38,4.323,4.323,0,0,0,1.476,3.252,1.571,1.571,0,0,0,2.6-1.181c0-1.489.057-1.833-.2-2.421a3.042,3.042,0,0,0-.915-1.108c-.133-.107.031-.076-2.7-.076a2.464,2.464,0,0,0-1.843-1.224,1.1,1.1,0,0,1,.489-.8c.479-.234-.056-.184,3.572-.184a3.415,3.415,0,0,1,2.43,1.007l2.4,2.4.181.314A6.952,6.952,0,0,1,93.169,184.742Z" transform="translate(-83.194 -172.561)" fill="#0e9b55"/>
</svg>
