<svg width="24" height="24" viewBox="0 0 24 24" fill="none" xmlns="http://www.w3.org/2000/svg">
<g clip-path="url(#clip0_8120_81279)">
<path d="M6.75 9C6.94891 9 7.13968 8.92098 7.28033 8.78033C7.42098 8.63968 7.5 8.44891 7.5 8.25C7.5 8.05109 7.42098 7.86032 7.28033 7.71967C7.13968 7.57902 6.94891 7.5 6.75 7.5H6V6C6 5.80109 5.92098 5.61032 5.78033 5.46967C5.63968 5.32902 5.44891 5.25 5.25 5.25C5.05109 5.25 4.86032 5.32902 4.71967 5.46967C4.57902 5.61032 4.5 5.80109 4.5 6V8.25C4.5 8.44891 4.57902 8.63968 4.71967 8.78033C4.86032 8.92098 5.05109 9 5.25 9H6.75Z" fill="#B1BCCC"/>
<path d="M23.7788 13.3462L22.395 11.9625L21.3263 9.11249C21.2728 8.96954 21.1771 8.84628 21.0518 8.75918C20.9265 8.67207 20.7776 8.62526 20.625 8.62499H19.125C18.9261 8.62499 18.7353 8.70401 18.5947 8.84466C18.454 8.98531 18.375 9.17608 18.375 9.37499C18.375 9.5739 18.454 9.76467 18.5947 9.90532C18.7353 10.046 18.9261 10.125 19.125 10.125H20.1038L21.045 12.6375C21.0829 12.7375 21.1417 12.8283 21.2175 12.9037L22.5 14.1862V17.25H20.595C20.233 16.6245 19.6573 16.1508 18.9738 15.9158C18.2904 15.6809 17.5451 15.7006 16.875 15.9712V7.55999C16.875 7.34517 16.7897 7.13914 16.6378 6.98723C16.4859 6.83533 16.2798 6.74999 16.065 6.74999H10.2788C10.0302 5.91026 9.57543 5.14606 8.95601 4.52698C8.33658 3.9079 7.57213 3.45361 6.73227 3.20547C5.8924 2.95734 5.0038 2.92324 4.14739 3.10629C3.29098 3.28934 2.49396 3.68371 1.82892 4.2535C1.16388 4.8233 0.651935 5.5504 0.339713 6.36861C0.0274916 7.18682 -0.0750903 8.07013 0.0413088 8.93812C0.157708 9.8061 0.48939 10.6312 1.00615 11.3382C1.52291 12.0453 2.20834 12.6118 3 12.9862V17.94C3 18.1548 3.08534 18.3608 3.23725 18.5127C3.38915 18.6647 3.59518 18.75 3.81 18.75H4.125C4.125 19.5456 4.44107 20.3087 5.00368 20.8713C5.56629 21.4339 6.32935 21.75 7.125 21.75C7.92065 21.75 8.68371 21.4339 9.24632 20.8713C9.80893 20.3087 10.125 19.5456 10.125 18.75H15C15 19.5456 15.3161 20.3087 15.8787 20.8713C16.4413 21.4339 17.2044 21.75 18 21.75C18.7957 21.75 19.5587 21.4339 20.1213 20.8713C20.6839 20.3087 21 19.5456 21 18.75H23.25C23.4489 18.75 23.6397 18.671 23.7803 18.5303C23.921 18.3897 24 18.1989 24 18V13.875C23.9992 13.6764 23.9196 13.4862 23.7788 13.3462ZM1.5 8.24999C1.5 7.50831 1.71994 6.78329 2.13199 6.1666C2.54405 5.54992 3.12972 5.06927 3.81494 4.78544C4.50016 4.50161 5.25416 4.42735 5.98159 4.57205C6.70902 4.71674 7.37721 5.07389 7.90165 5.59834C8.4261 6.12279 8.78325 6.79097 8.92795 7.5184C9.07264 8.24583 8.99838 8.99983 8.71455 9.68505C8.43072 10.3703 7.95008 10.9559 7.33339 11.368C6.71671 11.7801 5.99168 12 5.25 12C4.25544 12 3.30161 11.6049 2.59835 10.9016C1.89509 10.1984 1.5 9.24455 1.5 8.24999ZM7.125 20.25C6.82833 20.25 6.53832 20.162 6.29165 19.9972C6.04497 19.8324 5.85272 19.5981 5.73918 19.324C5.62565 19.0499 5.59595 18.7483 5.65383 18.4574C5.7117 18.1664 5.85457 17.8991 6.06434 17.6893C6.27412 17.4796 6.5414 17.3367 6.83237 17.2788C7.12334 17.2209 7.42494 17.2506 7.69903 17.3642C7.97312 17.4777 8.20739 17.67 8.37221 17.9166C8.53703 18.1633 8.625 18.4533 8.625 18.75C8.625 19.1478 8.46697 19.5293 8.18566 19.8106C7.90436 20.092 7.52283 20.25 7.125 20.25ZM18 20.25C17.7033 20.25 17.4133 20.162 17.1666 19.9972C16.92 19.8324 16.7277 19.5981 16.6142 19.324C16.5007 19.0499 16.4709 18.7483 16.5288 18.4574C16.5867 18.1664 16.7296 17.8991 16.9393 17.6893C17.1491 17.4796 17.4164 17.3367 17.7074 17.2788C17.9983 17.2209 18.2999 17.2506 18.574 17.3642C18.8481 17.4777 19.0824 17.67 19.2472 17.9166C19.412 18.1633 19.5 18.4533 19.5 18.75C19.5 19.1478 19.342 19.5293 19.0607 19.8106C18.7794 20.092 18.3978 20.25 18 20.25Z" fill="#B1BCCC"/>
</g>
<defs>
<clipPath id="clip0_8120_81279">
<rect width="24" height="24" fill="white"/>
</clipPath>
</defs>
</svg>
