<svg xmlns="http://www.w3.org/2000/svg" width="38.616" height="36.685" viewBox="0 0 38.616 36.685"><defs><style>.a{fill:#343434;}</style></defs><path class="a" d="M52.1,32H41.688a2.522,2.522,0,0,0-2.519,2.519V45.9a24.844,24.844,0,0,1-3.256-.7,1.988,1.988,0,0,0-2.324,1.022.648.648,0,0,0-.051.14l-.145.615a.639.639,0,0,0-.017.148V48.64a2.667,2.667,0,0,0,2.152,2.617A8.984,8.984,0,0,0,33.377,57.1v1.931h-.927a18.169,18.169,0,0,1-2.558-10.525l.231-3.694a3.235,3.235,0,0,0,1.965-1.228h2.576a1.931,1.931,0,1,0,0-3.862H32.089a5.916,5.916,0,0,0-2.248-1.269l-1.393-.018H23.08a.644.644,0,0,0-.644.644v5.149a.644.644,0,0,0,.644.644h2.969L22.61,55.186A7.089,7.089,0,0,0,16,62.25a.644.644,0,0,0,.644.644h2.119a4.505,4.505,0,1,0,8.635,0H43.219a4.505,4.505,0,1,0,8.635,0h2.119a.644.644,0,0,0,.644-.644V59.031a8.962,8.962,0,0,0-.644-3.344v-3.8A1.873,1.873,0,0,0,52.1,50.021H50.409a2.565,2.565,0,0,0,0-2.574h3.564a.644.644,0,0,0,.644-.644V34.519A2.522,2.522,0,0,0,52.1,32ZM30.159,41.01h4.505a.644.644,0,0,1,0,1.287H30.159a.644.644,0,0,1,0-1.287Zm-6.436,2.574V39.723h5.792a1.914,1.914,0,0,1,.319.028,1.93,1.93,0,0,0,0,3.806,1.911,1.911,0,0,1-.319.028ZM23.08,67.4a3.217,3.217,0,0,1-2.949-4.505h5.9A3.217,3.217,0,0,1,23.08,67.4Zm-5.757-5.792a5.793,5.793,0,0,1,11.514,0ZM47.537,67.4a3.217,3.217,0,0,1-2.949-4.505h5.9A3.217,3.217,0,0,1,47.537,67.4ZM41.78,61.606a5.793,5.793,0,0,1,11.514,0Zm5.757-6.436a7.089,7.089,0,0,0-7.05,6.436H30.13a7.093,7.093,0,0,0-6.175-6.382l3.451-10.352h1.425l-.222,3.554a19.455,19.455,0,0,0,2.936,11.59.644.644,0,0,0,.546.3h1.931a.644.644,0,0,0,.644-.644V57.1a7.7,7.7,0,0,1,2.615-5.792h3.69s.095.26,4.173.014a7.723,7.723,0,0,1,8.132,6.784A7.075,7.075,0,0,0,47.537,55.17ZM52.1,51.308a.584.584,0,0,1,.583.583v1.572a9.08,9.08,0,0,0-2.443-2.156Zm1.227-5.149H45.606v1.287H48.18a1.287,1.287,0,1,1,0,2.574H36.046a1.381,1.381,0,0,1-1.381-1.381V47.2l.108-.457a.7.7,0,0,1,.788-.305,26.134,26.134,0,0,0,7.18,1.006h2.866V46.159H42.74q-1.145,0-2.283-.106V34.519a1.233,1.233,0,0,1,1.231-1.231H52.1a1.233,1.233,0,0,1,1.231,1.231Z" transform="translate(-16 -32)"/></svg>