<svg xmlns="http://www.w3.org/2000/svg" width="22.778" height="17.655" viewBox="0 0 22.778 17.655"><defs><style>.a{fill:#959595;}</style></defs><path class="a" d="M75.829,10c-1.99,0-3.589,1.908-3.589,4.217v9.222c0,2.308,1.6,4.217,3.589,4.217h15.6c1.99,0,3.589-1.908,3.589-4.217V14.221c0-2.308-1.6-4.217-3.589-4.217Zm0,1.517h15.6a1.972,1.972,0,0,1,.917.231l-8.717,6.184-8.717-6.184A1.972,1.972,0,0,1,75.829,11.521Zm-1.931,1.3,9.38,6.656a.6.6,0,0,0,.7,0l9.38-6.656a3.113,3.113,0,0,1,.327,1.4v9.222a2.487,2.487,0,0,1-2.259,2.7h-15.6a2.487,2.487,0,0,1-2.259-2.7V14.221A3.113,3.113,0,0,1,73.9,12.819Z" transform="translate(-72.24 -10.004)"/></svg>