<svg width="32" height="32" viewBox="0 0 32 32" fill="none" xmlns="http://www.w3.org/2000/svg">
<g clip-path="url(#clip0_12441_82399)">
<path d="M24.8175 0H7.18254C3.21573 0 0 3.21573 0 7.18254V24.8175C0 28.7843 3.21573 32 7.18254 32H24.8175C28.7843 32 32 28.7843 32 24.8175V7.18254C32 3.21573 28.7843 0 24.8175 0Z" fill="#4C76BE"/>
<path fill-rule="evenodd" clip-rule="evenodd" d="M18.6845 10.2972H20.5134V7.49291C20.2252 7.49291 19.926 7.42641 19.6267 7.40424H17.9752C17.1437 7.39949 16.3309 7.65106 15.6475 8.12471C15.269 8.39876 14.9494 8.74599 14.7076 9.14582C14.4658 9.54565 14.3067 9.98995 14.2398 10.4524C14.1773 10.8484 14.1439 11.2485 14.14 11.6495V13.7666H11.4688V16.8812H14.129V24.7177H17.3766V16.8701H20.0257L20.4358 13.7333H17.3544V11.5165C17.4099 10.5965 17.953 10.3194 18.6845 10.2972Z" fill="white"/>
</g>
<defs>
<clipPath id="clip0_12441_82399">
<rect width="32" height="32" fill="white"/>
</clipPath>
</defs>
</svg>
