<svg xmlns="http://www.w3.org/2000/svg" width="26.74" height="27.547" viewBox="0 0 26.74 27.547">
  <path id="help" d="M27.887,11A11.294,11.294,0,0,0,5.31,10.886a5.691,5.691,0,0,0-2.15,4.271,5.657,5.657,0,0,0,2.05,4.184,7.066,7.066,0,0,0,7.243,6.675h.47a3.639,3.639,0,0,0,2.965,1.531h.82A3.649,3.649,0,0,0,20.35,23.9c0-1.248-.632-2.735-3.643-2.735h-.82c-2.16,0-3.1.765-3.452,1.659a3.853,3.853,0,0,1-3.543-1.939h.038A2.451,2.451,0,0,0,11.481,19a13.215,13.215,0,0,0,.287-3.691v-.3a13.219,13.219,0,0,0-.287-3.691A2.43,2.43,0,0,0,9.218,9.439,7.6,7.6,0,0,1,23.96,9.432a2.476,2.476,0,0,0-2.42,1.884,13.058,13.058,0,0,0-.329,3.691v.3A13.054,13.054,0,0,0,21.542,19a2.487,2.487,0,0,0,2.582,1.89,6.152,6.152,0,0,0,5.776-5.73A5.641,5.641,0,0,0,27.887,11Z" transform="translate(-3.16 0)" fill="#fff"/>
</svg>
