<svg width="95" height="24" viewBox="0 0 95 24" fill="none" xmlns="http://www.w3.org/2000/svg">
<path fill-rule="evenodd" clip-rule="evenodd" d="M11.469 1.71888C11.5387 1.64903 11.6214 1.59362 11.7126 1.55581C11.8037 1.518 11.9014 1.49854 12 1.49854C12.0987 1.49854 12.1963 1.518 12.2875 1.55581C12.3786 1.59362 12.4613 1.64903 12.531 1.71888L21.531 10.7189C21.6006 10.7887 21.6558 10.8715 21.6933 10.9626C21.7309 11.0537 21.7502 11.1513 21.75 11.2499V21.7499C21.75 21.9488 21.671 22.1396 21.5303 22.2802C21.3897 22.4209 21.1989 22.4999 21 22.4999H14.25C14.0511 22.4999 13.8603 22.4209 13.7197 22.2802C13.579 22.1396 13.5 21.9488 13.5 21.7499V15.7499H10.5V21.7499C10.5 21.9488 10.421 22.1396 10.2803 22.2802C10.1397 22.4209 9.94891 22.4999 9.75 22.4999H3C2.80109 22.4999 2.61032 22.4209 2.46967 22.2802C2.32902 22.1396 2.25 21.9488 2.25 21.7499V11.2499C2.24983 11.1513 2.26908 11.0537 2.30665 10.9626C2.34423 10.8715 2.3994 10.7887 2.469 10.7189L11.469 1.71888ZM3.75 11.5604V20.9999H9V14.9999C9 14.801 9.07902 14.6102 9.21967 14.4695C9.36032 14.3289 9.55109 14.2499 9.75 14.2499H14.25C14.4489 14.2499 14.6397 14.3289 14.7803 14.4695C14.921 14.6102 15 14.801 15 14.9999V20.9999H20.25V11.5604L12 3.31038L3.75 11.5604Z" fill="#B1BCCC"/>
<path fill-rule="evenodd" clip-rule="evenodd" d="M19.5 3.75V9L16.5 6V3.75C16.5 3.55109 16.579 3.36032 16.7197 3.21967C16.8603 3.07902 17.0511 3 17.25 3H18.75C18.9489 3 19.1397 3.07902 19.2803 3.21967C19.421 3.36032 19.5 3.55109 19.5 3.75Z" fill="#B1BCCC"/>
<path fill-rule="evenodd" clip-rule="evenodd" d="M82.469 1.71888C82.5387 1.64903 82.6214 1.59362 82.7126 1.55581C82.8037 1.518 82.9014 1.49854 83 1.49854C83.0987 1.49854 83.1963 1.518 83.2875 1.55581C83.3786 1.59362 83.4613 1.64903 83.531 1.71888L92.531 10.7189C92.6006 10.7887 92.6558 10.8715 92.6933 10.9626C92.7309 11.0537 92.7502 11.1513 92.75 11.2499V21.7499C92.75 21.9488 92.671 22.1396 92.5303 22.2802C92.3897 22.4209 92.1989 22.4999 92 22.4999H85.25C85.0511 22.4999 84.8603 22.4209 84.7197 22.2802C84.579 22.1396 84.5 21.9488 84.5 21.7499V15.7499H81.5V21.7499C81.5 21.9488 81.421 22.1396 81.2803 22.2802C81.1397 22.4209 80.9489 22.4999 80.75 22.4999H74C73.8011 22.4999 73.6103 22.4209 73.4697 22.2802C73.329 22.1396 73.25 21.9488 73.25 21.7499V11.2499C73.2498 11.1513 73.2691 11.0537 73.3067 10.9626C73.3442 10.8715 73.3994 10.7887 73.469 10.7189L82.469 1.71888ZM74.75 11.5604V20.9999H80V14.9999C80 14.801 80.079 14.6102 80.2197 14.4695C80.3603 14.3289 80.5511 14.2499 80.75 14.2499H85.25C85.4489 14.2499 85.6397 14.3289 85.7803 14.4695C85.921 14.6102 86 14.801 86 14.9999V20.9999H91.25V11.5604L83 3.31038L74.75 11.5604Z" fill="#B1BCCC"/>
<path fill-rule="evenodd" clip-rule="evenodd" d="M90.5 3.75V9L87.5 6V3.75C87.5 3.55109 87.579 3.36032 87.7197 3.21967C87.8603 3.07902 88.0511 3 88.25 3H89.75C89.9489 3 90.1397 3.07902 90.2803 3.21967C90.421 3.36032 90.5 3.55109 90.5 3.75Z" fill="#B1BCCC"/>
<line x1="26.5" y1="14.5" x2="66.5" y2="14.5" stroke="#B1BCCC" stroke-linecap="round" stroke-dasharray="2 2"/>
</svg>
