<svg width="32" height="32" viewBox="0 0 32 32" fill="none" xmlns="http://www.w3.org/2000/svg">
<g clip-path="url(#clip0_12441_82404)">
<path d="M24.8175 0H7.18254C3.21573 0 0 3.21573 0 7.18254V24.8175C0 28.7843 3.21573 32 7.18254 32H24.8175C28.7843 32 32 28.7843 32 24.8175V7.18254C32 3.21573 28.7843 0 24.8175 0Z" fill="url(#paint0_linear_12441_82404)"/>
<path d="M11.0818 5.54199H21.0576C21.2793 5.65283 21.6118 5.65283 21.8335 5.76368C22.8063 5.92133 23.7158 6.34717 24.4599 6.99333C25.2039 7.63949 25.753 8.48037 26.0455 9.42145C26.2092 9.96377 26.3205 10.5205 26.378 11.0841V20.8381C26.2195 22.0743 25.7631 23.2535 25.0479 24.2742C24.4343 24.9851 23.6651 25.5449 22.8001 25.9102C21.935 26.2754 20.9974 26.4363 20.06 26.3802H11.7469C10.2633 26.4522 8.80465 25.9792 7.64575 25.0501C6.94102 24.4412 6.38488 23.6792 6.01986 22.8224C5.65485 21.9656 5.49062 21.0366 5.53975 20.1066V12.3477C5.52144 11.7912 5.55857 11.2342 5.6506 10.685C5.76252 9.54868 6.22976 8.4765 6.9859 7.62087C7.74203 6.76524 8.74861 6.16969 9.86258 5.91885L11.0818 5.54199ZM7.64575 16.072V20.3948C7.59849 20.9453 7.67213 21.4994 7.86152 22.0184C8.05091 22.5375 8.35147 23.0088 8.74215 23.3995C9.13283 23.7902 9.60419 24.0908 10.1232 24.2801C10.6423 24.4695 11.1964 24.5432 11.7469 24.4959C14.6288 24.6068 17.5107 24.6068 20.3925 24.4959C22.9419 24.4959 24.3828 22.9441 24.4937 20.3948C24.6045 17.5129 24.6045 14.631 24.4937 11.7491C24.5224 11.203 24.436 10.6569 24.24 10.1463C24.0441 9.63576 23.743 9.17207 23.3563 8.78536C22.9696 8.39865 22.5059 8.09756 21.9953 7.90162C21.4847 7.70568 20.9387 7.61926 20.3925 7.64798C17.5107 7.53714 14.6288 7.53714 11.7469 7.64798C11.1964 7.60073 10.6423 7.67437 10.1232 7.86376C9.60419 8.05315 9.13283 8.35371 8.74215 8.74439C8.35147 9.13507 8.05091 9.60643 7.86152 10.1255C7.67213 10.6445 7.59849 11.1986 7.64575 11.7491V16.072Z" fill="white"/>
<path d="M10.6797 16.1162C10.6826 14.6766 11.2558 13.2969 12.2737 12.2789C13.2916 11.261 14.6714 10.6879 16.1109 10.6849C17.5425 10.7133 18.9075 11.2946 19.92 12.3071C20.9325 13.3196 21.5138 14.6846 21.5422 16.1162C21.5392 17.5557 20.9661 18.9355 19.9482 19.9534C18.9302 20.9713 17.5505 21.5445 16.1109 21.5474C14.6794 21.5191 13.3143 20.9377 12.3018 19.9253C11.2894 18.9128 10.708 17.5478 10.6797 16.1162ZM16.1109 12.6801C15.4377 12.6691 14.7765 12.8595 14.2122 13.2267C13.6478 13.5939 13.206 14.1213 12.9432 14.7412C12.6805 15.3612 12.6089 16.0455 12.7376 16.7064C12.8663 17.3673 13.1894 17.9747 13.6655 18.4508C14.1416 18.9269 14.749 19.25 15.4099 19.3787C16.0708 19.5074 16.7551 19.4357 17.375 19.173C17.995 18.9103 18.5224 18.4685 18.8896 17.9041C19.2568 17.3397 19.4471 16.6786 19.4362 16.0053C19.4362 15.1234 19.0858 14.2776 18.4622 13.654C17.8386 13.0304 16.9928 12.6801 16.1109 12.6801Z" fill="white"/>
<path d="M20.3289 10.4633C20.3227 10.287 20.3529 10.1113 20.4175 9.9471C20.4822 9.78292 20.5799 9.63381 20.7047 9.50904C20.8295 9.38427 20.9786 9.28652 21.1428 9.22187C21.307 9.15721 21.4827 9.12705 21.659 9.13324C22.0041 9.15658 22.329 9.30421 22.5736 9.54877C22.8181 9.79334 22.9658 10.1183 22.9891 10.4633C22.9891 10.8161 22.849 11.1544 22.5995 11.4039C22.3501 11.6533 22.0118 11.7934 21.659 11.7934C21.3063 11.7934 20.9679 11.6533 20.7185 11.4039C20.4691 11.1544 20.3289 10.8161 20.3289 10.4633Z" fill="white"/>
</g>
<defs>
<linearGradient id="paint0_linear_12441_82404" x1="-2.03949" y1="33.7735" x2="35.6467" y2="-3.3585" gradientUnits="userSpaceOnUse">
<stop stop-color="#FED576"/>
<stop offset="0.26" stop-color="#F47133"/>
<stop offset="0.61" stop-color="#BC3081"/>
<stop offset="1" stop-color="#4C63D2"/>
</linearGradient>
<clipPath id="clip0_12441_82404">
<rect width="32" height="32" fill="white"/>
</clipPath>
</defs>
</svg>
