<svg width="96" height="96" viewBox="0 0 96 96" fill="none" xmlns="http://www.w3.org/2000/svg">
<path d="M50.2314 46.5727L50.2321 46.573L50.2314 46.5727Z" fill="#CED4DA" stroke="#CED4DA"/>
<path d="M46.4237 53.0204V53.0201V53.02V53.0199M46.4237 53.0204L46.6473 52.8589C46.6385 52.8466 46.6286 52.835 46.6177 52.8242C46.5658 52.7726 46.4959 52.744 46.4237 52.744V53.0193V53.0199M46.4237 53.0204L46.4238 53.0204L46.4237 53.0204ZM46.4237 53.0199L46.4238 53.02L46.4237 53.0199Z" fill="#CED4DA" stroke="#CED4DA"/>
<mask id="path-3-inside-1" fill="white">
<path d="M46.4234 54.134C46.3639 54.134 46.3069 54.1105 46.2649 54.0687C46.2228 54.0269 46.1992 53.9702 46.1992 53.911V53.6881C46.202 53.6309 46.2269 53.577 46.2685 53.5376C46.3102 53.4981 46.3656 53.4761 46.4231 53.4761C46.4807 53.4761 46.536 53.4981 46.5777 53.5376C46.6194 53.577 46.6442 53.6309 46.647 53.6881V53.911C46.647 53.9701 46.6235 54.0267 46.5816 54.0685C46.5396 54.1103 46.4828 54.1338 46.4234 54.134Z"/>
</mask>
<path d="M46.4234 54.134C46.3639 54.134 46.3069 54.1105 46.2649 54.0687C46.2228 54.0269 46.1992 53.9702 46.1992 53.911V53.6881C46.202 53.6309 46.2269 53.577 46.2685 53.5376C46.3102 53.4981 46.3656 53.4761 46.4231 53.4761C46.4807 53.4761 46.536 53.4981 46.5777 53.5376C46.6194 53.577 46.6442 53.6309 46.647 53.6881V53.911C46.647 53.9701 46.6235 54.0267 46.5816 54.0685C46.5396 54.1103 46.4828 54.1338 46.4234 54.134Z" fill="#CED4DA"/>
<path d="M46.1992 53.6881L45.2004 53.6388L45.1992 53.6634V53.6881H46.1992ZM46.4231 53.4761V52.4761V53.4761ZM46.647 53.6881H47.647V53.6634L47.6458 53.6388L46.647 53.6881ZM46.647 53.911H45.647V53.911L46.647 53.911ZM46.4234 53.134C46.6275 53.134 46.8242 53.2146 46.97 53.3596L45.5597 54.7777C45.7896 55.0064 46.1004 55.134 46.4234 55.134V53.134ZM46.97 53.3596C47.1161 53.5048 47.1992 53.7031 47.1992 53.911H45.1992C45.1992 54.2372 45.3296 54.5489 45.5597 54.7777L46.97 53.3596ZM47.1992 53.911V53.6881H45.1992V53.911H47.1992ZM47.198 53.7374C47.1881 53.9383 47.1009 54.1266 46.9561 54.2637L45.581 52.8114C45.3528 53.0275 45.216 53.3236 45.2004 53.6388L47.198 53.7374ZM46.9561 54.2637C46.8116 54.4005 46.6207 54.4761 46.4231 54.4761V52.4761C46.1104 52.4761 45.8088 52.5957 45.581 52.8114L46.9561 54.2637ZM46.4231 54.4761C46.2255 54.4761 46.0347 54.4005 45.8902 54.2637L47.2653 52.8114C47.0374 52.5957 46.7358 52.4761 46.4231 52.4761V54.4761ZM45.8902 54.2637C45.7454 54.1266 45.6582 53.9383 45.6482 53.7374L47.6458 53.6388C47.6303 53.3236 47.4934 53.0275 47.2653 52.8114L45.8902 54.2637ZM45.647 53.6881V53.911H47.647V53.6881H45.647ZM45.647 53.911C45.647 53.7035 45.7298 53.5055 45.8756 53.3603L47.2876 54.7767C47.5171 54.5478 47.647 54.2366 47.647 53.911L45.647 53.911ZM45.8756 53.3603C46.0211 53.2152 46.2174 53.1345 46.421 53.134L46.4258 55.134C46.7481 55.1332 47.0582 55.0054 47.2876 54.7767L45.8756 53.3603Z" fill="#CED4DA" mask="url(#path-3-inside-1)"/>
<path d="M42.7466 51.6743C42.7466 51.6743 31.5242 49.7169 29.5645 64.3633" stroke="#CED4DA" stroke-dasharray="2 2"/>
<mask id="path-6-inside-2" fill="white">
<path d="M24.4828 25.1667H22.8034V24.2323C23.3007 23.8777 23.7037 23.4211 23.9812 22.8977C24.2586 22.3744 24.4029 21.7984 24.403 21.2146V20.5431H24.8029C24.8665 20.5431 24.9276 20.5196 24.9725 20.4776C25.0175 20.4357 25.0428 20.3788 25.0428 20.3195C25.0428 20.1009 24.8117 19.8609 24.403 19.6444V18.8292C24.403 17.8205 23.9733 16.8531 23.2085 16.1398C22.4437 15.4266 21.4064 15.0259 20.3247 15.0259C19.2431 15.0259 18.2058 15.4266 17.4409 16.1398C16.6761 16.8531 16.2464 17.8205 16.2464 18.8292V19.6444C15.8378 19.8619 15.6067 20.1029 15.6067 20.3195C15.6067 20.3788 15.6319 20.4357 15.6769 20.4776C15.7219 20.5196 15.7829 20.5431 15.8465 20.5431H16.2464V21.2146C16.2465 21.7984 16.3909 22.3744 16.6683 22.8977C16.9457 23.4211 17.3487 23.8777 17.8461 24.2323V25.1667H16.1661C15.6784 25.1671 15.2108 25.348 14.8659 25.6696C14.521 25.9912 14.3271 26.4273 14.3266 26.8822V28.0739C14.3266 28.1332 14.3519 28.1901 14.3969 28.232C14.4419 28.274 14.5029 28.2975 14.5665 28.2975C14.6301 28.2975 14.6911 28.274 14.7361 28.232C14.781 28.1901 14.8063 28.1332 14.8063 28.0739V26.8811C14.807 26.5453 14.9505 26.2233 15.2053 25.9859C15.4601 25.7485 15.8054 25.615 16.1656 25.6146H18.0121L18.9114 26.175L18.9223 26.1806L18.9365 26.1882L18.9573 26.1969L18.9709 26.202L18.995 26.2076H19.0075C19.0191 26.2092 19.0308 26.2101 19.0425 26.2101C19.0557 26.21 19.0689 26.2088 19.0818 26.2066L19.1004 26.2035L20.322 25.9187L21.5436 26.2035L21.5627 26.2071C21.5755 26.2091 21.5885 26.2101 21.6015 26.2101C21.6132 26.2101 21.6249 26.2092 21.6364 26.2076H21.649C21.6571 26.2061 21.6651 26.2042 21.6731 26.202L21.6867 26.1969L21.7075 26.1882L21.7217 26.1806L21.7326 26.175L22.6318 25.6146H24.4784C24.8388 25.615 25.1843 25.7486 25.4391 25.9863C25.6939 26.2239 25.8372 26.5461 25.8377 26.8822V29.8504H14.8019V28.97C14.8019 28.9107 14.7767 28.8538 14.7317 28.8119C14.6867 28.7699 14.6257 28.7464 14.5621 28.7464C14.4985 28.7464 14.4375 28.7699 14.3925 28.8119C14.3475 28.8538 14.3223 28.9107 14.3223 28.97V30.0716C14.3224 30.1308 14.3477 30.1876 14.3927 30.2296C14.4376 30.2715 14.4985 30.2951 14.5621 30.2952H26.0824C26.146 30.2952 26.207 30.2717 26.252 30.2297C26.297 30.1878 26.3223 30.1309 26.3223 30.0716V26.8822C26.3217 26.4274 26.1277 25.9913 25.7829 25.6698C25.438 25.3482 24.9705 25.1673 24.4828 25.1667ZM16.7255 18.8277C16.7255 17.9376 17.1047 17.084 17.7796 16.4546C18.4544 15.8253 19.3698 15.4717 20.3242 15.4717C21.2786 15.4717 22.1939 15.8253 22.8688 16.4546C23.5437 17.084 23.9228 17.9376 23.9228 18.8277V19.4294L23.8496 19.4024C22.7172 19.0357 21.5222 18.8663 20.3242 18.9026C19.1261 18.8663 17.9311 19.0357 16.7987 19.4024L16.7255 19.4294V18.8277ZM17.0867 19.7794C18.1316 19.4649 19.2266 19.3196 20.3242 19.3499C21.4217 19.3196 22.5167 19.4649 23.5617 19.7794C23.8104 19.8596 24.0487 19.9658 24.2719 20.0958H16.3764C16.5999 19.9658 16.8383 19.8596 17.0872 19.7794H17.0867ZM20.0843 25.5142L19.0895 25.746L18.3246 25.2707V24.5283C18.8638 24.8125 19.4656 24.9775 20.0838 25.0108L20.0843 25.5142ZM22.3243 25.2707L21.5594 25.746L20.5646 25.5142V25.0103C21.1828 24.977 21.7846 24.812 22.3237 24.5278V25.2701L22.3243 25.2707ZM20.3739 24.5696C20.3418 24.5635 20.3087 24.5635 20.2766 24.5696C19.3309 24.557 18.4284 24.1981 17.764 23.5703C17.0996 22.9425 16.7266 22.0962 16.7255 21.2141V20.5431H23.9228V21.2146C23.9216 22.0964 23.5487 22.9424 22.8846 23.5701C22.2204 24.1978 21.3183 24.5568 20.3728 24.5696H20.3739Z"/>
</mask>
<path d="M24.4828 25.1667H22.8034V24.2323C23.3007 23.8777 23.7037 23.4211 23.9812 22.8977C24.2586 22.3744 24.4029 21.7984 24.403 21.2146V20.5431H24.8029C24.8665 20.5431 24.9276 20.5196 24.9725 20.4776C25.0175 20.4357 25.0428 20.3788 25.0428 20.3195C25.0428 20.1009 24.8117 19.8609 24.403 19.6444V18.8292C24.403 17.8205 23.9733 16.8531 23.2085 16.1398C22.4437 15.4266 21.4064 15.0259 20.3247 15.0259C19.2431 15.0259 18.2058 15.4266 17.4409 16.1398C16.6761 16.8531 16.2464 17.8205 16.2464 18.8292V19.6444C15.8378 19.8619 15.6067 20.1029 15.6067 20.3195C15.6067 20.3788 15.6319 20.4357 15.6769 20.4776C15.7219 20.5196 15.7829 20.5431 15.8465 20.5431H16.2464V21.2146C16.2465 21.7984 16.3909 22.3744 16.6683 22.8977C16.9457 23.4211 17.3487 23.8777 17.8461 24.2323V25.1667H16.1661C15.6784 25.1671 15.2108 25.348 14.8659 25.6696C14.521 25.9912 14.3271 26.4273 14.3266 26.8822V28.0739C14.3266 28.1332 14.3519 28.1901 14.3969 28.232C14.4419 28.274 14.5029 28.2975 14.5665 28.2975C14.6301 28.2975 14.6911 28.274 14.7361 28.232C14.781 28.1901 14.8063 28.1332 14.8063 28.0739V26.8811C14.807 26.5453 14.9505 26.2233 15.2053 25.9859C15.4601 25.7485 15.8054 25.615 16.1656 25.6146H18.0121L18.9114 26.175L18.9223 26.1806L18.9365 26.1882L18.9573 26.1969L18.9709 26.202L18.995 26.2076H19.0075C19.0191 26.2092 19.0308 26.2101 19.0425 26.2101C19.0557 26.21 19.0689 26.2088 19.0818 26.2066L19.1004 26.2035L20.322 25.9187L21.5436 26.2035L21.5627 26.2071C21.5755 26.2091 21.5885 26.2101 21.6015 26.2101C21.6132 26.2101 21.6249 26.2092 21.6364 26.2076H21.649C21.6571 26.2061 21.6651 26.2042 21.6731 26.202L21.6867 26.1969L21.7075 26.1882L21.7217 26.1806L21.7326 26.175L22.6318 25.6146H24.4784C24.8388 25.615 25.1843 25.7486 25.4391 25.9863C25.6939 26.2239 25.8372 26.5461 25.8377 26.8822V29.8504H14.8019V28.97C14.8019 28.9107 14.7767 28.8538 14.7317 28.8119C14.6867 28.7699 14.6257 28.7464 14.5621 28.7464C14.4985 28.7464 14.4375 28.7699 14.3925 28.8119C14.3475 28.8538 14.3223 28.9107 14.3223 28.97V30.0716C14.3224 30.1308 14.3477 30.1876 14.3927 30.2296C14.4376 30.2715 14.4985 30.2951 14.5621 30.2952H26.0824C26.146 30.2952 26.207 30.2717 26.252 30.2297C26.297 30.1878 26.3223 30.1309 26.3223 30.0716V26.8822C26.3217 26.4274 26.1277 25.9913 25.7829 25.6698C25.438 25.3482 24.9705 25.1673 24.4828 25.1667ZM16.7255 18.8277C16.7255 17.9376 17.1047 17.084 17.7796 16.4546C18.4544 15.8253 19.3698 15.4717 20.3242 15.4717C21.2786 15.4717 22.1939 15.8253 22.8688 16.4546C23.5437 17.084 23.9228 17.9376 23.9228 18.8277V19.4294L23.8496 19.4024C22.7172 19.0357 21.5222 18.8663 20.3242 18.9026C19.1261 18.8663 17.9311 19.0357 16.7987 19.4024L16.7255 19.4294V18.8277ZM17.0867 19.7794C18.1316 19.4649 19.2266 19.3196 20.3242 19.3499C21.4217 19.3196 22.5167 19.4649 23.5617 19.7794C23.8104 19.8596 24.0487 19.9658 24.2719 20.0958H16.3764C16.5999 19.9658 16.8383 19.8596 17.0872 19.7794H17.0867ZM20.0843 25.5142L19.0895 25.746L18.3246 25.2707V24.5283C18.8638 24.8125 19.4656 24.9775 20.0838 25.0108L20.0843 25.5142ZM22.3243 25.2707L21.5594 25.746L20.5646 25.5142V25.0103C21.1828 24.977 21.7846 24.812 22.3237 24.5278V25.2701L22.3243 25.2707ZM20.3739 24.5696C20.3418 24.5635 20.3087 24.5635 20.2766 24.5696C19.3309 24.557 18.4284 24.1981 17.764 23.5703C17.0996 22.9425 16.7266 22.0962 16.7255 21.2141V20.5431H23.9228V21.2146C23.9216 22.0964 23.5487 22.9424 22.8846 23.5701C22.2204 24.1978 21.3183 24.5568 20.3728 24.5696H20.3739Z" fill="#CED4DA" stroke="#CED4DA" stroke-width="2" mask="url(#path-6-inside-2)"/>
<mask id="path-7-inside-3" fill="white">
<path d="M20.3239 16.5161C20.1499 16.5161 19.9799 16.5642 19.8353 16.6544C19.6906 16.7445 19.5779 16.8726 19.5113 17.0225C19.4447 17.1724 19.4273 17.3373 19.4612 17.4964C19.4952 17.6555 19.579 17.8017 19.702 17.9164C19.825 18.0311 19.9817 18.1092 20.1523 18.1409C20.3229 18.1726 20.4998 18.1563 20.6605 18.0942C20.8212 18.0321 20.9586 17.927 21.0553 17.7921C21.1519 17.6572 21.2035 17.4986 21.2035 17.3364C21.2032 17.1189 21.1104 16.9104 20.9456 16.7567C20.7807 16.6029 20.5571 16.5164 20.3239 16.5161ZM20.3239 17.7093C20.2448 17.7093 20.1675 17.6875 20.1017 17.6465C20.036 17.6055 19.9847 17.5473 19.9545 17.4791C19.9242 17.411 19.9163 17.336 19.9317 17.2636C19.9471 17.1913 19.9852 17.1248 20.0411 17.0727C20.0971 17.0205 20.1683 16.985 20.2459 16.9706C20.3235 16.9562 20.4039 16.9636 20.477 16.9918C20.55 17.0201 20.6125 17.0679 20.6564 17.1292C20.7004 17.1905 20.7238 17.2626 20.7238 17.3364C20.7235 17.4352 20.6813 17.5298 20.6063 17.5996C20.5314 17.6694 20.4298 17.7087 20.3239 17.7088V17.7093Z"/>
</mask>
<path d="M20.3239 16.5161C20.1499 16.5161 19.9799 16.5642 19.8353 16.6544C19.6906 16.7445 19.5779 16.8726 19.5113 17.0225C19.4447 17.1724 19.4273 17.3373 19.4612 17.4964C19.4952 17.6555 19.579 17.8017 19.702 17.9164C19.825 18.0311 19.9817 18.1092 20.1523 18.1409C20.3229 18.1726 20.4998 18.1563 20.6605 18.0942C20.8212 18.0321 20.9586 17.927 21.0553 17.7921C21.1519 17.6572 21.2035 17.4986 21.2035 17.3364C21.2032 17.1189 21.1104 16.9104 20.9456 16.7567C20.7807 16.6029 20.5571 16.5164 20.3239 16.5161ZM20.3239 17.7093C20.2448 17.7093 20.1675 17.6875 20.1017 17.6465C20.036 17.6055 19.9847 17.5473 19.9545 17.4791C19.9242 17.411 19.9163 17.336 19.9317 17.2636C19.9471 17.1913 19.9852 17.1248 20.0411 17.0727C20.0971 17.0205 20.1683 16.985 20.2459 16.9706C20.3235 16.9562 20.4039 16.9636 20.477 16.9918C20.55 17.0201 20.6125 17.0679 20.6564 17.1292C20.7004 17.1905 20.7238 17.2626 20.7238 17.3364C20.7235 17.4352 20.6813 17.5298 20.6063 17.5996C20.5314 17.6694 20.4298 17.7087 20.3239 17.7088V17.7093Z" fill="#CED4DA"/>
<path d="M20.3239 16.5161L20.3251 15.5161H20.3239V16.5161ZM21.2035 17.3364H22.2035L22.2035 17.3351L21.2035 17.3364ZM20.3239 17.7093V18.7093H21.3239V17.7093H20.3239ZM20.7238 17.3364L21.7238 17.3393V17.3364H20.7238ZM20.3239 17.7088L20.3226 16.7088L19.3239 16.7101V17.7088H20.3239ZM20.3239 15.5161C19.9671 15.5161 19.6131 15.6145 19.3064 15.8056L20.3641 17.5031C20.3466 17.5139 20.3328 17.5161 20.3239 17.5161V15.5161ZM19.3064 15.8056C18.9991 15.9971 18.7485 16.2764 18.5974 16.6166L20.4252 17.4284C20.4073 17.4688 20.3821 17.4918 20.3641 17.5031L19.3064 15.8056ZM18.5974 16.6166C18.4458 16.9577 18.4049 17.3377 18.4832 17.705L20.4392 17.2878C20.4497 17.3369 20.4436 17.387 20.4252 17.4284L18.5974 16.6166ZM18.4832 17.705C18.5614 18.0717 18.7524 18.3983 19.0199 18.6477L20.384 17.1851C20.4055 17.2051 20.4289 17.2394 20.4392 17.2878L18.4832 17.705ZM19.0199 18.6477C19.2867 18.8965 19.6184 19.0589 19.9699 19.1241L20.3347 17.1577C20.345 17.1596 20.3632 17.1657 20.384 17.1851L19.0199 18.6477ZM19.9699 19.1241C20.3213 19.1893 20.6861 19.1564 21.0209 19.027L20.3002 17.1614C20.3074 17.1586 20.3135 17.1574 20.3187 17.1569C20.3238 17.1564 20.3291 17.1566 20.3347 17.1577L19.9699 19.1241ZM21.0209 19.027C21.356 18.8976 21.6535 18.6741 21.8681 18.3745L20.2424 17.2097C20.2637 17.1799 20.2865 17.1667 20.3002 17.1614L21.0209 19.027ZM21.8681 18.3745C22.0835 18.074 22.2035 17.7126 22.2035 17.3364H20.2035C20.2035 17.2847 20.2203 17.2405 20.2424 17.2097L21.8681 18.3745ZM22.2035 17.3351C22.2028 16.8295 21.9865 16.3601 21.6276 16.0253L20.2635 17.488C20.2343 17.4608 20.2036 17.4084 20.2035 17.3377L22.2035 17.3351ZM21.6276 16.0253C21.271 15.6928 20.8014 15.5167 20.3251 15.5161L20.3228 17.5161C20.3163 17.5161 20.3086 17.515 20.2995 17.5114C20.2903 17.5079 20.2775 17.501 20.2635 17.488L21.6276 16.0253ZM20.3239 16.7093C20.4277 16.7093 20.5342 16.7377 20.6306 16.7978L19.5729 18.4952C19.8008 18.6372 20.062 18.7093 20.3239 18.7093V16.7093ZM20.6306 16.7978C20.7276 16.8582 20.8142 16.9511 20.8684 17.0732L19.0405 17.885C19.1553 18.1434 19.3444 18.3528 19.5729 18.4952L20.6306 16.7978ZM20.8684 17.0732C20.923 17.1963 20.9387 17.3363 20.9097 17.4722L18.9537 17.055C18.8938 17.3356 18.9253 17.6256 19.0405 17.885L20.8684 17.0732ZM20.9097 17.4722C20.8809 17.6075 20.8117 17.7214 20.7232 17.804L19.3591 16.3413C19.1587 16.5283 19.0134 16.7751 18.9537 17.055L20.9097 17.4722ZM20.7232 17.804C20.6353 17.8859 20.5316 17.9347 20.4283 17.9538L20.0635 15.9874C19.8051 16.0353 19.5588 16.1551 19.3591 16.3413L20.7232 17.804ZM20.4283 17.9538C20.3252 17.973 20.2176 17.9637 20.1166 17.9247L20.8373 16.059C20.5902 15.9635 20.3218 15.9395 20.0635 15.9874L20.4283 17.9538ZM20.1166 17.9247C20.0153 17.8855 19.9176 17.8149 19.8435 17.7116L21.4693 16.5468C21.3074 16.3208 21.0848 16.1546 20.8373 16.059L20.1166 17.9247ZM19.8435 17.7116C19.7688 17.6073 19.7238 17.4766 19.7238 17.3364H21.7238C21.7238 17.0486 21.6319 16.7738 21.4693 16.5468L19.8435 17.7116ZM19.7238 17.3335C19.7244 17.1444 19.8058 16.9787 19.9248 16.8678L21.2879 18.3314C21.5568 18.081 21.7227 17.7259 21.7238 17.3393L19.7238 17.3335ZM19.9248 16.8678C20.0415 16.7592 20.1856 16.709 20.3226 16.7088L20.3252 18.7088C20.674 18.7084 21.0213 18.5797 21.2879 18.3314L19.9248 16.8678ZM19.3239 17.7088V17.7093H21.3239V17.7088H19.3239Z" fill="#CED4DA" mask="url(#path-7-inside-3)"/>
<mask id="path-9-inside-4" fill="white">
<path d="M85.1312 19.8596H83.4518V18.9252C83.9492 18.5706 84.3522 18.1139 84.6296 17.5906C84.907 17.0672 85.0514 16.4913 85.0515 15.9075V15.236H85.4514C85.515 15.236 85.576 15.2124 85.621 15.1705C85.6659 15.1285 85.6912 15.0716 85.6912 15.0123C85.6912 14.7938 85.4601 14.5538 85.0515 14.3373V13.5221C85.0515 12.5134 84.6218 11.546 83.857 10.8327C83.0921 10.1195 82.0548 9.71875 80.9732 9.71875C79.8915 9.71875 78.8542 10.1195 78.0894 10.8327C77.3245 11.546 76.8949 12.5134 76.8949 13.5221V14.3373C76.4862 14.5548 76.2551 14.7958 76.2551 15.0123C76.2551 15.0716 76.2804 15.1285 76.3254 15.1705C76.3703 15.2124 76.4313 15.236 76.4949 15.236H76.8949V15.9075C76.8949 16.4913 77.0393 17.0672 77.3167 17.5906C77.5941 18.1139 77.9972 18.5706 78.4945 18.9252V19.8596H76.8145C76.3268 19.86 75.8592 20.0409 75.5143 20.3625C75.1694 20.6841 74.9755 21.1202 74.9751 21.575V22.7667C74.9751 22.826 75.0003 22.8829 75.0453 22.9249C75.0903 22.9668 75.1513 22.9904 75.2149 22.9904C75.2785 22.9904 75.3395 22.9668 75.3845 22.9249C75.4295 22.8829 75.4547 22.826 75.4547 22.7667V21.574C75.4555 21.2381 75.5989 20.9162 75.8537 20.6788C76.1085 20.4414 76.4538 20.3078 76.814 20.3074H78.6606L79.5598 20.8679L79.5707 20.8735L79.585 20.8811L79.6057 20.8898L79.6194 20.8949L79.6434 20.9005H79.656C79.6675 20.9021 79.6792 20.903 79.6909 20.903C79.7041 20.9028 79.7173 20.9016 79.7303 20.8995L79.7489 20.8964L80.9704 20.6116L82.192 20.8964L82.2111 20.9C82.2239 20.902 82.2369 20.903 82.2499 20.903C82.2616 20.903 82.2733 20.9021 82.2849 20.9005H82.2975C82.3056 20.899 82.3136 20.8971 82.3215 20.8949L82.3351 20.8898L82.3559 20.8811L82.3701 20.8735L82.381 20.8679L83.2803 20.3074H85.1269C85.4872 20.3078 85.8327 20.4415 86.0875 20.6791C86.3423 20.9168 86.4857 21.239 86.4861 21.575V24.5433H75.4504V23.6629C75.4504 23.6036 75.4251 23.5467 75.3801 23.5048C75.3352 23.4628 75.2741 23.4392 75.2105 23.4392C75.1469 23.4392 75.0859 23.4628 75.0409 23.5048C74.996 23.5467 74.9707 23.6036 74.9707 23.6629V24.7644C74.9708 24.8237 74.9962 24.8805 75.0411 24.9224C75.0861 24.9643 75.147 24.988 75.2105 24.9881H86.7309C86.7945 24.9881 86.8555 24.9645 86.9005 24.9226C86.9454 24.8806 86.9707 24.8237 86.9707 24.7644V21.575C86.9701 21.1202 86.7761 20.6842 86.4313 20.3626C86.0865 20.041 85.6189 19.8601 85.1312 19.8596ZM77.374 13.5205C77.374 12.6305 77.7531 11.7769 78.428 11.1475C79.1029 10.5181 80.0182 10.1646 80.9726 10.1646C81.927 10.1646 82.8424 10.5181 83.5172 11.1475C84.1921 11.7769 84.5712 12.6305 84.5712 13.5205V14.1223L84.498 14.0952C83.3657 13.7286 82.1707 13.5591 80.9726 13.5954C79.7746 13.5591 78.5796 13.7286 77.4472 14.0952L77.374 14.1223V13.5205ZM77.7351 14.4723C78.7801 14.1578 79.8751 14.0125 80.9726 14.0428C82.0702 14.0125 83.1652 14.1578 84.2101 14.4723C84.4589 14.5525 84.6971 14.6586 84.9203 14.7887H77.0249C77.2483 14.6586 77.4867 14.5525 77.7356 14.4723H77.7351ZM80.7328 20.2071L79.7379 20.4389L78.9731 19.9635V19.2212C79.5122 19.5053 80.114 19.6704 80.7322 19.7037L80.7328 20.2071ZM82.9727 19.9635L82.2079 20.4389L81.213 20.2071V19.7032C81.8312 19.6699 82.433 19.5048 82.9722 19.2207V19.963L82.9727 19.9635ZM81.0223 19.2625C80.9902 19.2563 80.9572 19.2563 80.9251 19.2625C79.9793 19.2499 79.0768 18.891 78.4124 18.2632C77.748 17.6354 77.375 16.7891 77.374 15.907V15.236H84.5712V15.9075C84.5701 16.7893 84.1972 17.6353 83.533 18.263C82.8688 18.8906 81.9667 19.2496 81.0212 19.2625H81.0223Z"/>
</mask>
<path d="M85.1312 19.8596H83.4518V18.9252C83.9492 18.5706 84.3522 18.1139 84.6296 17.5906C84.907 17.0672 85.0514 16.4913 85.0515 15.9075V15.236H85.4514C85.515 15.236 85.576 15.2124 85.621 15.1705C85.6659 15.1285 85.6912 15.0716 85.6912 15.0123C85.6912 14.7938 85.4601 14.5538 85.0515 14.3373V13.5221C85.0515 12.5134 84.6218 11.546 83.857 10.8327C83.0921 10.1195 82.0548 9.71875 80.9732 9.71875C79.8915 9.71875 78.8542 10.1195 78.0894 10.8327C77.3245 11.546 76.8949 12.5134 76.8949 13.5221V14.3373C76.4862 14.5548 76.2551 14.7958 76.2551 15.0123C76.2551 15.0716 76.2804 15.1285 76.3254 15.1705C76.3703 15.2124 76.4313 15.236 76.4949 15.236H76.8949V15.9075C76.8949 16.4913 77.0393 17.0672 77.3167 17.5906C77.5941 18.1139 77.9972 18.5706 78.4945 18.9252V19.8596H76.8145C76.3268 19.86 75.8592 20.0409 75.5143 20.3625C75.1694 20.6841 74.9755 21.1202 74.9751 21.575V22.7667C74.9751 22.826 75.0003 22.8829 75.0453 22.9249C75.0903 22.9668 75.1513 22.9904 75.2149 22.9904C75.2785 22.9904 75.3395 22.9668 75.3845 22.9249C75.4295 22.8829 75.4547 22.826 75.4547 22.7667V21.574C75.4555 21.2381 75.5989 20.9162 75.8537 20.6788C76.1085 20.4414 76.4538 20.3078 76.814 20.3074H78.6606L79.5598 20.8679L79.5707 20.8735L79.585 20.8811L79.6057 20.8898L79.6194 20.8949L79.6434 20.9005H79.656C79.6675 20.9021 79.6792 20.903 79.6909 20.903C79.7041 20.9028 79.7173 20.9016 79.7303 20.8995L79.7489 20.8964L80.9704 20.6116L82.192 20.8964L82.2111 20.9C82.2239 20.902 82.2369 20.903 82.2499 20.903C82.2616 20.903 82.2733 20.9021 82.2849 20.9005H82.2975C82.3056 20.899 82.3136 20.8971 82.3215 20.8949L82.3351 20.8898L82.3559 20.8811L82.3701 20.8735L82.381 20.8679L83.2803 20.3074H85.1269C85.4872 20.3078 85.8327 20.4415 86.0875 20.6791C86.3423 20.9168 86.4857 21.239 86.4861 21.575V24.5433H75.4504V23.6629C75.4504 23.6036 75.4251 23.5467 75.3801 23.5048C75.3352 23.4628 75.2741 23.4392 75.2105 23.4392C75.1469 23.4392 75.0859 23.4628 75.0409 23.5048C74.996 23.5467 74.9707 23.6036 74.9707 23.6629V24.7644C74.9708 24.8237 74.9962 24.8805 75.0411 24.9224C75.0861 24.9643 75.147 24.988 75.2105 24.9881H86.7309C86.7945 24.9881 86.8555 24.9645 86.9005 24.9226C86.9454 24.8806 86.9707 24.8237 86.9707 24.7644V21.575C86.9701 21.1202 86.7761 20.6842 86.4313 20.3626C86.0865 20.041 85.6189 19.8601 85.1312 19.8596ZM77.374 13.5205C77.374 12.6305 77.7531 11.7769 78.428 11.1475C79.1029 10.5181 80.0182 10.1646 80.9726 10.1646C81.927 10.1646 82.8424 10.5181 83.5172 11.1475C84.1921 11.7769 84.5712 12.6305 84.5712 13.5205V14.1223L84.498 14.0952C83.3657 13.7286 82.1707 13.5591 80.9726 13.5954C79.7746 13.5591 78.5796 13.7286 77.4472 14.0952L77.374 14.1223V13.5205ZM77.7351 14.4723C78.7801 14.1578 79.8751 14.0125 80.9726 14.0428C82.0702 14.0125 83.1652 14.1578 84.2101 14.4723C84.4589 14.5525 84.6971 14.6586 84.9203 14.7887H77.0249C77.2483 14.6586 77.4867 14.5525 77.7356 14.4723H77.7351ZM80.7328 20.2071L79.7379 20.4389L78.9731 19.9635V19.2212C79.5122 19.5053 80.114 19.6704 80.7322 19.7037L80.7328 20.2071ZM82.9727 19.9635L82.2079 20.4389L81.213 20.2071V19.7032C81.8312 19.6699 82.433 19.5048 82.9722 19.2207V19.963L82.9727 19.9635ZM81.0223 19.2625C80.9902 19.2563 80.9572 19.2563 80.9251 19.2625C79.9793 19.2499 79.0768 18.891 78.4124 18.2632C77.748 17.6354 77.375 16.7891 77.374 15.907V15.236H84.5712V15.9075C84.5701 16.7893 84.1972 17.6353 83.533 18.263C82.8688 18.8906 81.9667 19.2496 81.0212 19.2625H81.0223Z" fill="#CED4DA" stroke="#CED4DA" stroke-width="2" mask="url(#path-9-inside-4)"/>
<mask id="path-10-inside-5" fill="white">
<path d="M80.9723 11.209C80.7984 11.209 80.6283 11.2571 80.4837 11.3472C80.339 11.4374 80.2263 11.5655 80.1597 11.7154C80.0932 11.8652 80.0757 12.0302 80.1097 12.1893C80.1436 12.3484 80.2274 12.4946 80.3504 12.6093C80.4734 12.724 80.6301 12.8021 80.8008 12.8338C80.9714 12.8654 81.1482 12.8492 81.309 12.7871C81.4697 12.725 81.607 12.6199 81.7037 12.485C81.8003 12.3501 81.8519 12.1915 81.8519 12.0293C81.8516 11.8118 81.7589 11.6033 81.594 11.4495C81.4291 11.2958 81.2055 11.2093 80.9723 11.209ZM80.9723 12.4022C80.8933 12.4022 80.8159 12.3803 80.7502 12.3394C80.6844 12.2984 80.6332 12.2401 80.6029 12.172C80.5726 12.1038 80.5647 12.0288 80.5801 11.9565C80.5956 11.8842 80.6336 11.8177 80.6896 11.7655C80.7455 11.7134 80.8168 11.6779 80.8943 11.6635C80.9719 11.6491 81.0523 11.6565 81.1254 11.6847C81.1985 11.7129 81.2609 11.7607 81.3049 11.8221C81.3488 11.8834 81.3723 11.9555 81.3723 12.0293C81.372 12.128 81.3297 12.2227 81.2548 12.2925C81.1798 12.3623 81.0783 12.4016 80.9723 12.4017V12.4022Z"/>
</mask>
<path d="M80.9723 11.209C80.7984 11.209 80.6283 11.2571 80.4837 11.3472C80.339 11.4374 80.2263 11.5655 80.1597 11.7154C80.0932 11.8652 80.0757 12.0302 80.1097 12.1893C80.1436 12.3484 80.2274 12.4946 80.3504 12.6093C80.4734 12.724 80.6301 12.8021 80.8008 12.8338C80.9714 12.8654 81.1482 12.8492 81.309 12.7871C81.4697 12.725 81.607 12.6199 81.7037 12.485C81.8003 12.3501 81.8519 12.1915 81.8519 12.0293C81.8516 11.8118 81.7589 11.6033 81.594 11.4495C81.4291 11.2958 81.2055 11.2093 80.9723 11.209ZM80.9723 12.4022C80.8933 12.4022 80.8159 12.3803 80.7502 12.3394C80.6844 12.2984 80.6332 12.2401 80.6029 12.172C80.5726 12.1038 80.5647 12.0288 80.5801 11.9565C80.5956 11.8842 80.6336 11.8177 80.6896 11.7655C80.7455 11.7134 80.8168 11.6779 80.8943 11.6635C80.9719 11.6491 81.0523 11.6565 81.1254 11.6847C81.1985 11.7129 81.2609 11.7607 81.3049 11.8221C81.3488 11.8834 81.3723 11.9555 81.3723 12.0293C81.372 12.128 81.3297 12.2227 81.2548 12.2925C81.1798 12.3623 81.0783 12.4016 80.9723 12.4017V12.4022Z" fill="#CED4DA"/>
<path d="M80.9723 11.209L80.9735 10.209H80.9723V11.209ZM81.8519 12.0293H82.8519L82.8519 12.0279L81.8519 12.0293ZM80.9723 12.4022V13.4022H81.9723V12.4022H80.9723ZM81.3723 12.0293L82.3723 12.0322V12.0293H81.3723ZM80.9723 12.4017L80.9711 11.4017L79.9723 11.403V12.4017H80.9723ZM80.9723 10.209C80.6155 10.209 80.2616 10.3074 79.9548 10.4985L81.0125 12.1959C80.9951 12.2068 80.9813 12.209 80.9723 12.209V10.209ZM79.9548 10.4985C79.6475 10.69 79.3969 10.9693 79.2458 11.3094L81.0736 12.1213C81.0557 12.1616 81.0306 12.1847 81.0125 12.1959L79.9548 10.4985ZM79.2458 11.3094C79.0943 11.6506 79.0533 12.0305 79.1317 12.3979L81.0877 11.9807C81.0982 12.0298 81.092 12.0799 81.0736 12.1213L79.2458 11.3094ZM79.1317 12.3979C79.2099 12.7646 79.4009 13.0911 79.6684 13.3406L81.0324 11.8779C81.0539 11.898 81.0773 11.9322 81.0877 11.9807L79.1317 12.3979ZM79.6684 13.3406C79.9352 13.5894 80.2669 13.7518 80.6184 13.817L80.9831 11.8505C80.9934 11.8524 81.0117 11.8586 81.0324 11.8779L79.6684 13.3406ZM80.6184 13.817C80.9697 13.8822 81.3345 13.8492 81.6693 13.7199L80.9486 11.8543C80.9558 11.8515 80.962 11.8502 80.9671 11.8498C80.9722 11.8493 80.9775 11.8495 80.9831 11.8505L80.6184 13.817ZM81.6693 13.7199C82.0045 13.5904 82.3019 13.367 82.5166 13.0674L80.8908 11.9026C80.9121 11.8728 80.9349 11.8596 80.9486 11.8543L81.6693 13.7199ZM82.5166 13.0674C82.7319 12.7668 82.8519 12.4055 82.8519 12.0293H80.8519C80.8519 11.9775 80.8688 11.9333 80.8908 11.9026L82.5166 13.0674ZM82.8519 12.0279C82.8513 11.5223 82.635 11.053 82.276 10.7182L80.912 12.1809C80.8828 12.1536 80.852 12.1013 80.8519 12.0306L82.8519 12.0279ZM82.276 10.7182C81.9194 10.3856 81.4499 10.2095 80.9735 10.209L80.9712 12.209C80.9648 12.209 80.957 12.2078 80.9479 12.2043C80.9388 12.2008 80.9259 12.1939 80.912 12.1809L82.276 10.7182ZM80.9723 11.4022C81.0761 11.4022 81.1827 11.4306 81.279 11.4906L80.2213 13.1881C80.4492 13.3301 80.7104 13.4022 80.9723 13.4022V11.4022ZM81.279 11.4906C81.376 11.5511 81.4626 11.644 81.5168 11.7661L79.689 12.5779C79.8037 12.8362 79.9928 13.0457 80.2213 13.1881L81.279 11.4906ZM81.5168 11.7661C81.5715 11.8892 81.5871 12.0292 81.5581 12.1651L79.6021 11.7479C79.5423 12.0285 79.5738 12.3185 79.689 12.5779L81.5168 11.7661ZM81.5581 12.1651C81.5293 12.3003 81.4602 12.4143 81.3716 12.4969L80.0076 11.0342C79.8071 11.2211 79.6618 11.468 79.6021 11.7479L81.5581 12.1651ZM81.3716 12.4969C81.2838 12.5788 81.18 12.6275 81.0767 12.6467L80.7119 10.6803C80.4535 10.7282 80.2073 10.848 80.0076 11.0342L81.3716 12.4969ZM81.0767 12.6467C80.9736 12.6658 80.8661 12.6565 80.7651 12.6175L81.4857 10.7519C81.2386 10.6564 80.9702 10.6323 80.7119 10.6803L81.0767 12.6467ZM80.7651 12.6175C80.6637 12.5784 80.566 12.5078 80.492 12.4045L82.1178 11.2396C81.9558 11.0136 81.7332 10.8475 81.4857 10.7519L80.7651 12.6175ZM80.492 12.4045C80.4172 12.3002 80.3723 12.1695 80.3723 12.0293H82.3723C82.3723 11.7415 82.2804 11.4666 82.1178 11.2396L80.492 12.4045ZM80.3723 12.0263C80.3728 11.8373 80.4542 11.6715 80.5733 11.5607L81.9363 13.0243C82.2052 12.7738 82.3711 12.4188 82.3723 12.0322L80.3723 12.0263ZM80.5733 11.5607C80.6899 11.452 80.8341 11.4019 80.9711 11.4017L80.9736 13.4017C81.3225 13.4013 81.6697 13.2726 81.9363 13.0243L80.5733 11.5607ZM79.9723 12.4017V12.4022H81.9723V12.4017H79.9723Z" fill="#CED4DA" mask="url(#path-10-inside-5)"/>
<mask id="path-12-inside-6" fill="white">
<path d="M27.8793 67.0324H26.1999V66.098C26.6972 65.7435 27.1002 65.2868 27.3776 64.7634C27.6551 64.2401 27.7994 63.6641 27.7995 63.0803V62.4088H28.1994C28.263 62.4088 28.324 62.3853 28.369 62.3433C28.414 62.3014 28.4393 62.2445 28.4393 62.1852C28.4393 61.9666 28.2082 61.7266 27.7995 61.5101V60.6949C27.7995 59.6862 27.3698 58.7188 26.605 58.0056C25.8402 57.2923 24.8028 56.8916 23.7212 56.8916C22.6396 56.8916 21.6022 57.2923 20.8374 58.0056C20.0726 58.7188 19.6429 59.6862 19.6429 60.6949V61.5101C19.2343 61.7277 19.0032 61.9686 19.0032 62.1852C19.0032 62.2445 19.0284 62.3014 19.0734 62.3433C19.1184 62.3853 19.1794 62.4088 19.243 62.4088H19.6429V63.0803C19.643 63.6641 19.7874 64.2401 20.0648 64.7634C20.3422 65.2868 20.7452 65.7435 21.2425 66.098V67.0324H19.5626C19.0749 67.0328 18.6072 67.2137 18.2624 67.5353C17.9175 67.8569 17.7236 68.293 17.7231 68.7479V69.9396C17.7231 69.9989 17.7484 70.0558 17.7934 70.0977C17.8383 70.1397 17.8993 70.1632 17.963 70.1632C18.0266 70.1632 18.0876 70.1397 18.1325 70.0977C18.1775 70.0558 18.2028 69.9989 18.2028 69.9396V68.7469C18.2035 68.411 18.347 68.089 18.6018 67.8516C18.8566 67.6142 19.2019 67.4807 19.562 67.4803H21.4086L22.3079 68.0407L22.3188 68.0463L22.333 68.054L22.3538 68.0626L22.3674 68.0677L22.3915 68.0733H22.404C22.4156 68.075 22.4273 68.0758 22.439 68.0759C22.4522 68.0757 22.4653 68.0745 22.4783 68.0723L22.4969 68.0692L23.7185 67.7844L24.9401 68.0692L24.9592 68.0728C24.972 68.0748 24.985 68.0758 24.998 68.0759C25.0097 68.0758 25.0214 68.075 25.0329 68.0733H25.0455C25.0536 68.0718 25.0616 68.07 25.0695 68.0677L25.0832 68.0626L25.104 68.054L25.1182 68.0463L25.1291 68.0407L26.0283 67.4803H27.8749C28.2353 67.4807 28.5807 67.6144 28.8356 67.852C29.0904 68.0896 29.2337 68.4118 29.2342 68.7479V71.7162H18.1984V70.8358C18.1984 70.7764 18.1732 70.7195 18.1282 70.6776C18.0832 70.6357 18.0222 70.6121 17.9586 70.6121C17.895 70.6121 17.834 70.6357 17.789 70.6776C17.744 70.7195 17.7187 70.7764 17.7188 70.8358V71.9373C17.7189 71.9965 17.7442 72.0534 17.7892 72.0953C17.8341 72.1372 17.895 72.1608 17.9586 72.1609H29.4789C29.5425 72.1609 29.6035 72.1374 29.6485 72.0954C29.6935 72.0535 29.7188 71.9966 29.7188 71.9373V68.7479C29.7182 68.2931 29.5242 67.8571 29.1793 67.5355C28.8345 67.2139 28.367 67.033 27.8793 67.0324ZM20.122 60.6934C20.122 59.8033 20.5012 58.9497 21.176 58.3204C21.8509 57.691 22.7662 57.3374 23.7207 57.3374C24.6751 57.3374 25.5904 57.691 26.2653 58.3204C26.9402 58.9497 27.3193 59.8033 27.3193 60.6934V61.2951L27.2461 61.2681C26.1137 60.9014 24.9187 60.732 23.7207 60.7683C22.5226 60.732 21.3276 60.9014 20.1952 61.2681L20.122 61.2951V60.6934ZM20.4831 61.6451C21.5281 61.3306 22.6231 61.1853 23.7207 61.2156C24.8182 61.1853 25.9132 61.3306 26.9582 61.6451C27.2069 61.7253 27.4452 61.8315 27.6684 61.9615H19.7729C19.9964 61.8315 20.2348 61.7253 20.4837 61.6451H20.4831ZM23.4808 67.3799L22.486 67.6117L21.7211 67.1364V66.394C22.2602 66.6782 22.862 66.8432 23.4803 66.8765L23.4808 67.3799ZM25.7208 67.1364L24.9559 67.6117L23.961 67.3799V66.876C24.5793 66.8427 25.1811 66.6777 25.7202 66.3935V67.1359L25.7208 67.1364ZM23.7704 66.4353C23.7383 66.4292 23.7052 66.4292 23.6731 66.4353C22.7274 66.4227 21.8249 66.0638 21.1605 65.436C20.4961 64.8082 20.1231 63.9619 20.122 63.0798V62.4088H27.3193V63.0803C27.3181 63.9621 26.9452 64.8082 26.281 65.4358C25.6169 66.0635 24.7147 66.4225 23.7693 66.4353H23.7704Z"/>
</mask>
<path d="M27.8793 67.0324H26.1999V66.098C26.6972 65.7435 27.1002 65.2868 27.3776 64.7634C27.6551 64.2401 27.7994 63.6641 27.7995 63.0803V62.4088H28.1994C28.263 62.4088 28.324 62.3853 28.369 62.3433C28.414 62.3014 28.4393 62.2445 28.4393 62.1852C28.4393 61.9666 28.2082 61.7266 27.7995 61.5101V60.6949C27.7995 59.6862 27.3698 58.7188 26.605 58.0056C25.8402 57.2923 24.8028 56.8916 23.7212 56.8916C22.6396 56.8916 21.6022 57.2923 20.8374 58.0056C20.0726 58.7188 19.6429 59.6862 19.6429 60.6949V61.5101C19.2343 61.7277 19.0032 61.9686 19.0032 62.1852C19.0032 62.2445 19.0284 62.3014 19.0734 62.3433C19.1184 62.3853 19.1794 62.4088 19.243 62.4088H19.6429V63.0803C19.643 63.6641 19.7874 64.2401 20.0648 64.7634C20.3422 65.2868 20.7452 65.7435 21.2425 66.098V67.0324H19.5626C19.0749 67.0328 18.6072 67.2137 18.2624 67.5353C17.9175 67.8569 17.7236 68.293 17.7231 68.7479V69.9396C17.7231 69.9989 17.7484 70.0558 17.7934 70.0977C17.8383 70.1397 17.8993 70.1632 17.963 70.1632C18.0266 70.1632 18.0876 70.1397 18.1325 70.0977C18.1775 70.0558 18.2028 69.9989 18.2028 69.9396V68.7469C18.2035 68.411 18.347 68.089 18.6018 67.8516C18.8566 67.6142 19.2019 67.4807 19.562 67.4803H21.4086L22.3079 68.0407L22.3188 68.0463L22.333 68.054L22.3538 68.0626L22.3674 68.0677L22.3915 68.0733H22.404C22.4156 68.075 22.4273 68.0758 22.439 68.0759C22.4522 68.0757 22.4653 68.0745 22.4783 68.0723L22.4969 68.0692L23.7185 67.7844L24.9401 68.0692L24.9592 68.0728C24.972 68.0748 24.985 68.0758 24.998 68.0759C25.0097 68.0758 25.0214 68.075 25.0329 68.0733H25.0455C25.0536 68.0718 25.0616 68.07 25.0695 68.0677L25.0832 68.0626L25.104 68.054L25.1182 68.0463L25.1291 68.0407L26.0283 67.4803H27.8749C28.2353 67.4807 28.5807 67.6144 28.8356 67.852C29.0904 68.0896 29.2337 68.4118 29.2342 68.7479V71.7162H18.1984V70.8358C18.1984 70.7764 18.1732 70.7195 18.1282 70.6776C18.0832 70.6357 18.0222 70.6121 17.9586 70.6121C17.895 70.6121 17.834 70.6357 17.789 70.6776C17.744 70.7195 17.7187 70.7764 17.7188 70.8358V71.9373C17.7189 71.9965 17.7442 72.0534 17.7892 72.0953C17.8341 72.1372 17.895 72.1608 17.9586 72.1609H29.4789C29.5425 72.1609 29.6035 72.1374 29.6485 72.0954C29.6935 72.0535 29.7188 71.9966 29.7188 71.9373V68.7479C29.7182 68.2931 29.5242 67.8571 29.1793 67.5355C28.8345 67.2139 28.367 67.033 27.8793 67.0324ZM20.122 60.6934C20.122 59.8033 20.5012 58.9497 21.176 58.3204C21.8509 57.691 22.7662 57.3374 23.7207 57.3374C24.6751 57.3374 25.5904 57.691 26.2653 58.3204C26.9402 58.9497 27.3193 59.8033 27.3193 60.6934V61.2951L27.2461 61.2681C26.1137 60.9014 24.9187 60.732 23.7207 60.7683C22.5226 60.732 21.3276 60.9014 20.1952 61.2681L20.122 61.2951V60.6934ZM20.4831 61.6451C21.5281 61.3306 22.6231 61.1853 23.7207 61.2156C24.8182 61.1853 25.9132 61.3306 26.9582 61.6451C27.2069 61.7253 27.4452 61.8315 27.6684 61.9615H19.7729C19.9964 61.8315 20.2348 61.7253 20.4837 61.6451H20.4831ZM23.4808 67.3799L22.486 67.6117L21.7211 67.1364V66.394C22.2602 66.6782 22.862 66.8432 23.4803 66.8765L23.4808 67.3799ZM25.7208 67.1364L24.9559 67.6117L23.961 67.3799V66.876C24.5793 66.8427 25.1811 66.6777 25.7202 66.3935V67.1359L25.7208 67.1364ZM23.7704 66.4353C23.7383 66.4292 23.7052 66.4292 23.6731 66.4353C22.7274 66.4227 21.8249 66.0638 21.1605 65.436C20.4961 64.8082 20.1231 63.9619 20.122 63.0798V62.4088H27.3193V63.0803C27.3181 63.9621 26.9452 64.8082 26.281 65.4358C25.6169 66.0635 24.7147 66.4225 23.7693 66.4353H23.7704Z" fill="#CED4DA" stroke="#CED4DA" stroke-width="2" mask="url(#path-12-inside-6)"/>
<mask id="path-13-inside-7" fill="white">
<path d="M23.7204 58.3818C23.5464 58.3818 23.3764 58.4299 23.2317 58.5201C23.0871 58.6102 22.9743 58.7383 22.9078 58.8882C22.8412 59.0381 22.8238 59.203 22.8577 59.3621C22.8917 59.5213 22.9754 59.6674 23.0984 59.7821C23.2215 59.8968 23.3782 59.975 23.5488 60.0066C23.7194 60.0383 23.8963 60.022 24.057 59.9599C24.2177 59.8979 24.3551 59.7927 24.4517 59.6578C24.5484 59.5229 24.6 59.3643 24.6 59.2021C24.5997 58.9846 24.5069 58.7762 24.342 58.6224C24.1771 58.4686 23.9536 58.3821 23.7204 58.3818ZM23.7204 59.5751C23.6413 59.5751 23.564 59.5532 23.4982 59.5122C23.4325 59.4712 23.3812 59.413 23.3509 59.3448C23.3207 59.2767 23.3127 59.2017 23.3282 59.1294C23.3436 59.057 23.3817 58.9906 23.4376 58.9384C23.4936 58.8862 23.5648 58.8507 23.6424 58.8363C23.72 58.8219 23.8004 58.8293 23.8734 58.8576C23.9465 58.8858 24.009 58.9336 24.0529 58.9949C24.0969 59.0562 24.1203 59.1283 24.1203 59.2021C24.12 59.3009 24.0778 59.3955 24.0028 59.4653C23.9279 59.5351 23.8263 59.5744 23.7204 59.5745V59.5751Z"/>
</mask>
<path d="M23.7204 58.3818C23.5464 58.3818 23.3764 58.4299 23.2317 58.5201C23.0871 58.6102 22.9743 58.7383 22.9078 58.8882C22.8412 59.0381 22.8238 59.203 22.8577 59.3621C22.8917 59.5213 22.9754 59.6674 23.0984 59.7821C23.2215 59.8968 23.3782 59.975 23.5488 60.0066C23.7194 60.0383 23.8963 60.022 24.057 59.9599C24.2177 59.8979 24.3551 59.7927 24.4517 59.6578C24.5484 59.5229 24.6 59.3643 24.6 59.2021C24.5997 58.9846 24.5069 58.7762 24.342 58.6224C24.1771 58.4686 23.9536 58.3821 23.7204 58.3818ZM23.7204 59.5751C23.6413 59.5751 23.564 59.5532 23.4982 59.5122C23.4325 59.4712 23.3812 59.413 23.3509 59.3448C23.3207 59.2767 23.3127 59.2017 23.3282 59.1294C23.3436 59.057 23.3817 58.9906 23.4376 58.9384C23.4936 58.8862 23.5648 58.8507 23.6424 58.8363C23.72 58.8219 23.8004 58.8293 23.8734 58.8576C23.9465 58.8858 24.009 58.9336 24.0529 58.9949C24.0969 59.0562 24.1203 59.1283 24.1203 59.2021C24.12 59.3009 24.0778 59.3955 24.0028 59.4653C23.9279 59.5351 23.8263 59.5744 23.7204 59.5745V59.5751Z" fill="#CED4DA"/>
<path d="M23.7204 58.3818L23.7216 57.3818H23.7204V58.3818ZM24.6 59.2021H25.6L25.6 59.2008L24.6 59.2021ZM23.7204 59.5751V60.5751H24.7204V59.5751H23.7204ZM24.1203 59.2021L25.1203 59.205V59.2021H24.1203ZM23.7204 59.5745L23.7191 58.5745L22.7204 58.5758V59.5745H23.7204ZM23.7204 57.3818C23.3636 57.3818 23.0096 57.4802 22.7029 57.6714L23.7606 59.3688C23.7431 59.3797 23.7293 59.3818 23.7204 59.3818V57.3818ZM22.7029 57.6714C22.3956 57.8629 22.1449 58.1422 21.9939 58.4823L23.8217 59.2941C23.8038 59.3345 23.7786 59.3576 23.7606 59.3688L22.7029 57.6714ZM21.9939 58.4823C21.8423 58.8234 21.8014 59.2034 21.8797 59.5707L23.8357 59.1535C23.8462 59.2027 23.8401 59.2527 23.8217 59.2941L21.9939 58.4823ZM21.8797 59.5707C21.9579 59.9374 22.1489 60.264 22.4164 60.5135L23.7805 59.0508C23.802 59.0708 23.8254 59.1051 23.8357 59.1535L21.8797 59.5707ZM22.4164 60.5135C22.6832 60.7622 23.0149 60.9246 23.3664 60.9898L23.7312 59.0234C23.7414 59.0253 23.7597 59.0315 23.7805 59.0508L22.4164 60.5135ZM23.3664 60.9898C23.7177 61.055 24.0826 61.0221 24.4173 60.8928L23.6967 59.0271C23.7038 59.0244 23.71 59.0231 23.7152 59.0226C23.7203 59.0222 23.7256 59.0224 23.7312 59.0234L23.3664 60.9898ZM24.4173 60.8928C24.7525 60.7633 25.05 60.5398 25.2646 60.2403L23.6389 59.0754C23.6602 59.0456 23.683 59.0324 23.6967 59.0271L24.4173 60.8928ZM25.2646 60.2403C25.48 59.9397 25.6 59.5783 25.6 59.2021H23.6C23.6 59.1504 23.6168 59.1062 23.6389 59.0754L25.2646 60.2403ZM25.6 59.2008C25.5993 58.6952 25.383 58.2258 25.0241 57.8911L23.66 59.3537C23.6308 59.3265 23.6001 59.2741 23.6 59.2034L25.6 59.2008ZM25.0241 57.8911C24.6674 57.5585 24.1979 57.3824 23.7216 57.3818L23.7192 59.3818C23.7128 59.3818 23.7051 59.3807 23.6959 59.3772C23.6868 59.3736 23.674 59.3667 23.66 59.3537L25.0241 57.8911ZM23.7204 58.5751C23.8242 58.5751 23.9307 58.6035 24.0271 58.6635L22.9694 60.3609C23.1972 60.5029 23.4584 60.5751 23.7204 60.5751V58.5751ZM24.0271 58.6635C24.124 58.7239 24.2106 58.8169 24.2648 58.9389L22.437 59.7508C22.5518 60.0091 22.7409 60.2185 22.9694 60.3609L24.0271 58.6635ZM24.2648 58.9389C24.3195 59.062 24.3352 59.202 24.3062 59.338L22.3502 58.9208C22.2903 59.2014 22.3218 59.4913 22.437 59.7508L24.2648 58.9389ZM24.3062 59.338C24.2773 59.4732 24.2082 59.5871 24.1196 59.6697L22.7556 58.2071C22.5552 58.394 22.4099 58.6408 22.3502 58.9208L24.3062 59.338ZM24.1196 59.6697C24.0318 59.7517 23.9281 59.8004 23.8248 59.8196L23.46 57.8531C23.2016 57.901 22.9553 58.0208 22.7556 58.2071L24.1196 59.6697ZM23.8248 59.8196C23.7217 59.8387 23.6141 59.8294 23.5131 59.7904L24.2338 57.9247C23.9866 57.8293 23.7183 57.8052 23.46 57.8531L23.8248 59.8196ZM23.5131 59.7904C23.4117 59.7512 23.3141 59.6807 23.24 59.5773L24.8658 58.4125C24.7039 58.1865 24.4813 58.0203 24.2338 57.9247L23.5131 59.7904ZM23.24 59.5773C23.1653 59.473 23.1203 59.3423 23.1203 59.2021H25.1203C25.1203 58.9144 25.0284 58.6395 24.8658 58.4125L23.24 59.5773ZM23.1203 59.1992C23.1209 59.0101 23.2023 58.8444 23.3213 58.7335L24.6844 60.1971C24.9533 59.9467 25.1192 59.5916 25.1203 59.205L23.1203 59.1992ZM23.3213 58.7335C23.438 58.6249 23.5821 58.5747 23.7191 58.5745L23.7217 60.5745C24.0705 60.5741 24.4178 60.4454 24.6844 60.1971L23.3213 58.7335ZM22.7204 59.5745V59.5751H24.7204V59.5745H22.7204Z" fill="#CED4DA" mask="url(#path-13-inside-7)"/>
<mask id="path-15-inside-8" fill="white">
<path d="M77.8529 79.2644H76.1735V78.33C76.6708 77.9754 77.0739 77.5187 77.3513 76.9954C77.6287 76.472 77.7731 75.8961 77.7731 75.3123V74.6408H78.1731C78.2367 74.6408 78.2977 74.6172 78.3426 74.5753C78.3876 74.5333 78.4129 74.4764 78.4129 74.4171C78.4129 74.1985 78.1818 73.9586 77.7731 73.742V72.9269C77.7731 71.9182 77.3435 70.9508 76.5786 70.2375C75.8138 69.5242 74.7765 69.1235 73.6948 69.1235C72.6132 69.1235 71.5759 69.5242 70.811 70.2375C70.0462 70.9508 69.6165 71.9182 69.6165 72.9269V73.742C69.2079 73.9596 68.9768 74.2006 68.9768 74.4171C68.9768 74.4764 69.0021 74.5333 69.047 74.5753C69.092 74.6172 69.153 74.6408 69.2166 74.6408H69.6165V75.3123C69.6166 75.8961 69.761 76.472 70.0384 76.9954C70.3158 77.5187 70.7188 77.9754 71.2162 78.33V79.2644H69.5362C69.0485 79.2648 68.5809 79.4456 68.236 79.7673C67.8911 80.0889 67.6972 80.525 67.6968 80.9798V82.1715C67.6968 82.2308 67.722 82.2877 67.767 82.3297C67.812 82.3716 67.873 82.3952 67.9366 82.3952C68.0002 82.3952 68.0612 82.3716 68.1062 82.3297C68.1512 82.2877 68.1764 82.2308 68.1764 82.1715V80.9788C68.1771 80.6429 68.3206 80.321 68.5754 80.0836C68.8302 79.8462 69.1755 79.7126 69.5357 79.7122H71.3823L72.2815 80.2726L72.2924 80.2782L72.3066 80.2859L72.3274 80.2946L72.3411 80.2996L72.3651 80.3053H72.3777C72.3892 80.3069 72.4009 80.3077 72.4126 80.3078C72.4258 80.3076 72.439 80.3064 72.452 80.3042L72.4705 80.3012L73.6921 80.0164L74.9137 80.3012L74.9328 80.3047C74.9456 80.3067 74.9586 80.3078 74.9716 80.3078C74.9833 80.3077 74.995 80.3069 75.0066 80.3053H75.0191C75.0272 80.3038 75.0353 80.3019 75.0432 80.2996L75.0568 80.2946L75.0776 80.2859L75.0918 80.2782L75.1027 80.2726L76.002 79.7122H77.8485C78.2089 79.7126 78.5544 79.8463 78.8092 80.0839C79.064 80.3216 79.2074 80.6437 79.2078 80.9798V83.9481H68.1721V83.0677C68.1721 83.0084 68.1468 82.9515 68.1018 82.9095C68.0568 82.8676 67.9958 82.844 67.9322 82.844C67.8686 82.844 67.8076 82.8676 67.7626 82.9095C67.7177 82.9515 67.6924 83.0084 67.6924 83.0677V84.1692C67.6925 84.2285 67.7178 84.2853 67.7628 84.3272C67.8077 84.3691 67.8687 84.3927 67.9322 84.3929H79.4525C79.5162 84.3929 79.5772 84.3693 79.6221 84.3274C79.6671 84.2854 79.6924 84.2285 79.6924 84.1692V80.9798C79.6918 80.525 79.4978 80.089 79.153 79.7674C78.8081 79.4458 78.3406 79.2649 77.8529 79.2644ZM70.0957 72.9253C70.0957 72.0353 70.4748 71.1817 71.1497 70.5523C71.8245 69.9229 72.7399 69.5693 73.6943 69.5693C74.6487 69.5693 75.564 69.9229 76.2389 70.5523C76.9138 71.1817 77.2929 72.0353 77.2929 72.9253V73.527L77.2197 73.5C76.0874 73.1333 74.8924 72.9639 73.6943 73.0002C72.4962 72.9639 71.3012 73.1333 70.1689 73.5L70.0957 73.527V72.9253ZM70.4568 73.8771C71.5017 73.5625 72.5967 73.4173 73.6943 73.4476C74.7918 73.4173 75.8869 73.5625 76.9318 73.8771C77.1806 73.9573 77.4188 74.0634 77.642 74.1934H69.7466C69.97 74.0634 70.2084 73.9573 70.4573 73.8771H70.4568ZM73.4545 79.6118L72.4596 79.8437L71.6948 79.3683V78.626C72.2339 78.9101 72.8357 79.0752 73.4539 79.1085L73.4545 79.6118ZM75.6944 79.3683L74.9295 79.8437L73.9347 79.6118V79.108C74.5529 79.0747 75.1547 78.9096 75.6938 78.6255V79.3678L75.6944 79.3683ZM73.744 78.6673C73.7119 78.6611 73.6788 78.6611 73.6468 78.6673C72.701 78.6547 71.7985 78.2957 71.1341 77.6679C70.4697 77.0401 70.0967 76.1938 70.0957 75.3118V74.6408H77.2929V75.3123C77.2917 76.1941 76.9188 77.0401 76.2547 77.6678C75.5905 78.2954 74.6884 78.6544 73.7429 78.6673H73.744Z"/>
</mask>
<path d="M77.8529 79.2644H76.1735V78.33C76.6708 77.9754 77.0739 77.5187 77.3513 76.9954C77.6287 76.472 77.7731 75.8961 77.7731 75.3123V74.6408H78.1731C78.2367 74.6408 78.2977 74.6172 78.3426 74.5753C78.3876 74.5333 78.4129 74.4764 78.4129 74.4171C78.4129 74.1985 78.1818 73.9586 77.7731 73.742V72.9269C77.7731 71.9182 77.3435 70.9508 76.5786 70.2375C75.8138 69.5242 74.7765 69.1235 73.6948 69.1235C72.6132 69.1235 71.5759 69.5242 70.811 70.2375C70.0462 70.9508 69.6165 71.9182 69.6165 72.9269V73.742C69.2079 73.9596 68.9768 74.2006 68.9768 74.4171C68.9768 74.4764 69.0021 74.5333 69.047 74.5753C69.092 74.6172 69.153 74.6408 69.2166 74.6408H69.6165V75.3123C69.6166 75.8961 69.761 76.472 70.0384 76.9954C70.3158 77.5187 70.7188 77.9754 71.2162 78.33V79.2644H69.5362C69.0485 79.2648 68.5809 79.4456 68.236 79.7673C67.8911 80.0889 67.6972 80.525 67.6968 80.9798V82.1715C67.6968 82.2308 67.722 82.2877 67.767 82.3297C67.812 82.3716 67.873 82.3952 67.9366 82.3952C68.0002 82.3952 68.0612 82.3716 68.1062 82.3297C68.1512 82.2877 68.1764 82.2308 68.1764 82.1715V80.9788C68.1771 80.6429 68.3206 80.321 68.5754 80.0836C68.8302 79.8462 69.1755 79.7126 69.5357 79.7122H71.3823L72.2815 80.2726L72.2924 80.2782L72.3066 80.2859L72.3274 80.2946L72.3411 80.2996L72.3651 80.3053H72.3777C72.3892 80.3069 72.4009 80.3077 72.4126 80.3078C72.4258 80.3076 72.439 80.3064 72.452 80.3042L72.4705 80.3012L73.6921 80.0164L74.9137 80.3012L74.9328 80.3047C74.9456 80.3067 74.9586 80.3078 74.9716 80.3078C74.9833 80.3077 74.995 80.3069 75.0066 80.3053H75.0191C75.0272 80.3038 75.0353 80.3019 75.0432 80.2996L75.0568 80.2946L75.0776 80.2859L75.0918 80.2782L75.1027 80.2726L76.002 79.7122H77.8485C78.2089 79.7126 78.5544 79.8463 78.8092 80.0839C79.064 80.3216 79.2074 80.6437 79.2078 80.9798V83.9481H68.1721V83.0677C68.1721 83.0084 68.1468 82.9515 68.1018 82.9095C68.0568 82.8676 67.9958 82.844 67.9322 82.844C67.8686 82.844 67.8076 82.8676 67.7626 82.9095C67.7177 82.9515 67.6924 83.0084 67.6924 83.0677V84.1692C67.6925 84.2285 67.7178 84.2853 67.7628 84.3272C67.8077 84.3691 67.8687 84.3927 67.9322 84.3929H79.4525C79.5162 84.3929 79.5772 84.3693 79.6221 84.3274C79.6671 84.2854 79.6924 84.2285 79.6924 84.1692V80.9798C79.6918 80.525 79.4978 80.089 79.153 79.7674C78.8081 79.4458 78.3406 79.2649 77.8529 79.2644ZM70.0957 72.9253C70.0957 72.0353 70.4748 71.1817 71.1497 70.5523C71.8245 69.9229 72.7399 69.5693 73.6943 69.5693C74.6487 69.5693 75.564 69.9229 76.2389 70.5523C76.9138 71.1817 77.2929 72.0353 77.2929 72.9253V73.527L77.2197 73.5C76.0874 73.1333 74.8924 72.9639 73.6943 73.0002C72.4962 72.9639 71.3012 73.1333 70.1689 73.5L70.0957 73.527V72.9253ZM70.4568 73.8771C71.5017 73.5625 72.5967 73.4173 73.6943 73.4476C74.7918 73.4173 75.8869 73.5625 76.9318 73.8771C77.1806 73.9573 77.4188 74.0634 77.642 74.1934H69.7466C69.97 74.0634 70.2084 73.9573 70.4573 73.8771H70.4568ZM73.4545 79.6118L72.4596 79.8437L71.6948 79.3683V78.626C72.2339 78.9101 72.8357 79.0752 73.4539 79.1085L73.4545 79.6118ZM75.6944 79.3683L74.9295 79.8437L73.9347 79.6118V79.108C74.5529 79.0747 75.1547 78.9096 75.6938 78.6255V79.3678L75.6944 79.3683ZM73.744 78.6673C73.7119 78.6611 73.6788 78.6611 73.6468 78.6673C72.701 78.6547 71.7985 78.2957 71.1341 77.6679C70.4697 77.0401 70.0967 76.1938 70.0957 75.3118V74.6408H77.2929V75.3123C77.2917 76.1941 76.9188 77.0401 76.2547 77.6678C75.5905 78.2954 74.6884 78.6544 73.7429 78.6673H73.744Z" fill="#CED4DA" stroke="#CED4DA" stroke-width="2" mask="url(#path-15-inside-8)"/>
<mask id="path-16-inside-9" fill="white">
<path d="M73.694 70.6138C73.5201 70.6138 73.35 70.6619 73.2054 70.752C73.0607 70.8421 72.948 70.9703 72.8814 71.1201C72.8148 71.27 72.7974 71.435 72.8314 71.5941C72.8653 71.7532 72.9491 71.8994 73.0721 72.0141C73.1951 72.1288 73.3518 72.2069 73.5224 72.2386C73.6931 72.2702 73.8699 72.254 74.0306 72.1919C74.1914 72.1298 74.3287 72.0247 74.4254 71.8898C74.522 71.7549 74.5736 71.5963 74.5736 71.4341C74.5733 71.2166 74.4806 71.0081 74.3157 70.8543C74.1508 70.7005 73.9272 70.614 73.694 70.6138ZM73.694 71.807C73.6149 71.807 73.5376 71.7851 73.4719 71.7441C73.4061 71.7032 73.3548 71.6449 73.3246 71.5768C73.2943 71.5086 73.2864 71.4336 73.3018 71.3613C73.3172 71.2889 73.3553 71.2225 73.4113 71.1703C73.4672 71.1182 73.5384 71.0827 73.616 71.0683C73.6936 71.0539 73.774 71.0613 73.8471 71.0895C73.9201 71.1177 73.9826 71.1655 74.0265 71.2269C74.0705 71.2882 74.0939 71.3603 74.0939 71.4341C74.0937 71.5328 74.0514 71.6275 73.9765 71.6973C73.9015 71.7671 73.8 71.8064 73.694 71.8065V71.807Z"/>
</mask>
<path d="M73.694 70.6138C73.5201 70.6138 73.35 70.6619 73.2054 70.752C73.0607 70.8421 72.948 70.9703 72.8814 71.1201C72.8148 71.27 72.7974 71.435 72.8314 71.5941C72.8653 71.7532 72.9491 71.8994 73.0721 72.0141C73.1951 72.1288 73.3518 72.2069 73.5224 72.2386C73.6931 72.2702 73.8699 72.254 74.0306 72.1919C74.1914 72.1298 74.3287 72.0247 74.4254 71.8898C74.522 71.7549 74.5736 71.5963 74.5736 71.4341C74.5733 71.2166 74.4806 71.0081 74.3157 70.8543C74.1508 70.7005 73.9272 70.614 73.694 70.6138ZM73.694 71.807C73.6149 71.807 73.5376 71.7851 73.4719 71.7441C73.4061 71.7032 73.3548 71.6449 73.3246 71.5768C73.2943 71.5086 73.2864 71.4336 73.3018 71.3613C73.3172 71.2889 73.3553 71.2225 73.4113 71.1703C73.4672 71.1182 73.5384 71.0827 73.616 71.0683C73.6936 71.0539 73.774 71.0613 73.8471 71.0895C73.9201 71.1177 73.9826 71.1655 74.0265 71.2269C74.0705 71.2882 74.0939 71.3603 74.0939 71.4341C74.0937 71.5328 74.0514 71.6275 73.9765 71.6973C73.9015 71.7671 73.8 71.8064 73.694 71.8065V71.807Z" fill="#CED4DA"/>
<path d="M73.694 70.6138L73.6952 69.6138H73.694V70.6138ZM74.5736 71.4341H75.5736L75.5736 71.4327L74.5736 71.4341ZM73.694 71.807V72.807H74.694V71.807H73.694ZM74.0939 71.4341L75.0939 71.437V71.4341H74.0939ZM73.694 71.8065L73.6928 70.8065L72.694 70.8078V71.8065H73.694ZM73.694 69.6138C73.3372 69.6138 72.9833 69.7122 72.6765 69.9033L73.7342 71.6007C73.7168 71.6116 73.7029 71.6138 73.694 71.6138V69.6138ZM72.6765 69.9033C72.3692 70.0948 72.1186 70.3741 71.9675 70.7142L73.7953 71.5261C73.7774 71.5664 73.7523 71.5895 73.7342 71.6007L72.6765 69.9033ZM71.9675 70.7142C71.816 71.0554 71.775 71.4353 71.8534 71.8027L73.8094 71.3855C73.8198 71.4346 73.8137 71.4847 73.7953 71.5261L71.9675 70.7142ZM71.8534 71.8027C71.9316 72.1694 72.1226 72.4959 72.3901 72.7454L73.7541 71.2828C73.7756 71.3028 73.799 71.337 73.8094 71.3855L71.8534 71.8027ZM72.3901 72.7454C72.6568 72.9942 72.9886 73.1566 73.34 73.2218L73.7048 71.2553C73.7151 71.2572 73.7334 71.2634 73.7541 71.2828L72.3901 72.7454ZM73.34 73.2218C73.6914 73.287 74.0562 73.254 74.391 73.1247L73.6703 71.2591C73.6775 71.2563 73.6837 71.255 73.6888 71.2546C73.6939 71.2541 73.6992 71.2543 73.7048 71.2553L73.34 73.2218ZM74.391 73.1247C74.7261 72.9952 75.0236 72.7718 75.2383 72.4722L73.6125 71.3074C73.6338 71.2776 73.6566 71.2644 73.6703 71.2591L74.391 73.1247ZM75.2383 72.4722C75.4536 72.1716 75.5736 71.8103 75.5736 71.4341H73.5736C73.5736 71.3823 73.5904 71.3381 73.6125 71.3074L75.2383 72.4722ZM75.5736 71.4327C75.5729 70.9271 75.3567 70.4578 74.9977 70.123L73.6336 71.5857C73.6045 71.5584 73.5737 71.506 73.5736 71.4354L75.5736 71.4327ZM74.9977 70.123C74.6411 69.7904 74.1716 69.6143 73.6952 69.6138L73.6929 71.6138C73.6865 71.6138 73.6787 71.6126 73.6696 71.6091C73.6605 71.6056 73.6476 71.5987 73.6336 71.5857L74.9977 70.123ZM73.694 70.807C73.7978 70.807 73.9044 70.8354 74.0007 70.8954L72.943 72.5929C73.1709 72.7349 73.4321 72.807 73.694 72.807V70.807ZM74.0007 70.8954C74.0977 70.9559 74.1843 71.0488 74.2385 71.1709L72.4107 71.9827C72.5254 72.241 72.7145 72.4505 72.943 72.5929L74.0007 70.8954ZM74.2385 71.1709C74.2932 71.294 74.3088 71.434 74.2798 71.5699L72.3238 71.1527C72.264 71.4333 72.2954 71.7233 72.4107 71.9827L74.2385 71.1709ZM74.2798 71.5699C74.251 71.7051 74.1818 71.8191 74.0933 71.9017L72.7292 70.439C72.5288 70.6259 72.3835 70.8728 72.3238 71.1527L74.2798 71.5699ZM74.0933 71.9017C74.0054 71.9836 73.9017 72.0323 73.7984 72.0515L73.4336 70.085C73.1752 70.133 72.9289 70.2528 72.7292 70.439L74.0933 71.9017ZM73.7984 72.0515C73.6953 72.0706 73.5877 72.0613 73.4867 72.0223L74.2074 70.1567C73.9603 70.0612 73.6919 70.0371 73.4336 70.085L73.7984 72.0515ZM73.4867 72.0223C73.3854 71.9832 73.2877 71.9126 73.2137 71.8093L74.8394 70.6444C74.6775 70.4184 74.4549 70.2523 74.2074 70.1567L73.4867 72.0223ZM73.2137 71.8093C73.1389 71.7049 73.0939 71.5743 73.0939 71.4341H75.0939C75.0939 71.1463 75.0021 70.8714 74.8394 70.6444L73.2137 71.8093ZM73.0939 71.4311C73.0945 71.2421 73.1759 71.0763 73.2949 70.9655L74.658 72.4291C74.9269 72.1786 75.0928 71.8236 75.0939 71.437L73.0939 71.4311ZM73.2949 70.9655C73.4116 70.8568 73.5558 70.8067 73.6928 70.8065L73.6953 72.8065C74.0441 72.806 74.3914 72.6774 74.658 72.4291L73.2949 70.9655ZM72.694 71.8065V71.807H74.694V71.8065H72.694Z" fill="#CED4DA" mask="url(#path-16-inside-9)"/>
<rect x="0.5" y="0.5" width="95" height="95" rx="7.1" stroke="#E9ECEF"/>
</svg>
