<svg xmlns="http://www.w3.org/2000/svg" width="59" height="58" viewBox="0 0 59 58">
  <g id="Group_5109" data-name="Group 5109" transform="translate(0 0.193)">
    <g id="_1ac879e0d45afd8bcd52d10090e179a2" data-name="1ac879e0d45afd8bcd52d10090e179a2" transform="translate(0 -0.193)" fill="#fff" stroke="#e3e3e3" stroke-width="1">
      <rect width="59" height="58" rx="12" stroke="none"/>
      <rect x="0.5" y="0.5" width="58" height="57" rx="11.5" fill="none"/>
    </g>
    <g id="courier" transform="translate(17.134 11.641)">
      <g id="Group_5106" data-name="Group 5106" transform="translate(0)">
        <g id="Group_5105" data-name="Group 5105" transform="translate(0)">
          <path id="Path_6491" data-name="Path 6491" d="M90.021,23.051h-3.56V20.927a8.635,8.635,0,0,0,3.39-6.859V12.543H90.7a.508.508,0,0,0,.508-.508c0-.5-.49-1.04-1.356-1.535V8.644a8.644,8.644,0,0,0-17.288,0V10.5c-.866.495-1.356,1.038-1.356,1.535a.508.508,0,0,0,.508.508h.847v1.526a8.635,8.635,0,0,0,3.39,6.859v2.124h-3.56a3.9,3.9,0,0,0-3.9,3.9s0,0,0,0v2.708a.508.508,0,1,0,1.017,0V26.947a2.885,2.885,0,0,1,2.881-2.879h3.914l1.906,1.271.023.013.03.017.044.019.029.011a.5.5,0,0,0,.051.013l.026.006a.511.511,0,0,0,.074.006h.005a.511.511,0,0,0,.083-.008l.04-.007h0l2.589-.647,2.589.647h0l.041.008a.512.512,0,0,0,.082.008h.005A.511.511,0,0,0,84,25.418l.026-.006a.511.511,0,0,0,.051-.013l.029-.011.044-.019.03-.017.023-.013,1.906-1.271h3.914A2.885,2.885,0,0,1,92.9,26.95v6.745H89.852V30.067c0-.017,0-.034,0-.051s0-.014,0-.02,0-.019,0-.029,0-.016-.006-.024,0-.016-.006-.024-.005-.016-.008-.023l-.009-.024-.01-.021-.011-.024-.012-.02-.014-.023-.015-.02-.015-.02c-.009-.011-.018-.021-.028-.031l-.005-.006-2.034-2.034-.006-.005-.032-.029-.018-.014-.022-.016L87.57,27.6l-.021-.013-.022-.01-.024-.011-.021-.008-.026-.009-.021-.005-.028-.007-.023,0-.027,0-.038,0H75.1l-.044,0-.025,0-.024,0-.027.007-.021.005-.026.009-.021.008-.024.011-.021.01-.023.014-.02.012-.025.019-.015.011c-.013.011-.026.022-.038.034l-2.033,2.033a.5.5,0,0,0-.034.038l-.012.016-.017.024-.013.021-.013.021-.011.023-.01.022-.008.023c0,.008-.006.016-.008.024s0,.016-.006.024,0,.016-.006.024,0,.019,0,.028,0,.014,0,.021,0,.034,0,.05v3.627H69.512v-2a.508.508,0,1,0-1.017,0v2.5s0,0,0,0a.509.509,0,0,0,.509.509H93.411a.508.508,0,0,0,.508-.508V26.95A3.9,3.9,0,0,0,90.021,23.051ZM73.58,8.644a7.627,7.627,0,1,1,15.254,0v1.367L88.68,9.95a20.732,20.732,0,0,0-7.473-1.136A20.732,20.732,0,0,0,73.735,9.95l-.155.062V8.644Zm.766,2.163a20.382,20.382,0,0,1,6.862-.976,20.382,20.382,0,0,1,6.862.976,7.417,7.417,0,0,1,1.507.719H72.839A7.43,7.43,0,0,1,74.346,10.807ZM80.7,23.841l-2.109.527-1.62-1.08V21.6A8.583,8.583,0,0,0,80.7,22.7Zm4.746-.553-1.62,1.08-2.109-.527V22.7a8.584,8.584,0,0,0,3.729-1.1v1.688ZM81.31,21.694a.514.514,0,0,0-.206,0,7.636,7.636,0,0,1-7.524-7.626V12.543H88.834v1.526A7.636,7.636,0,0,1,81.31,21.694Zm-5.994,6.848H87.1l1.017,1.017H74.3Zm13.518,5.153H73.58V30.576H88.835v3.119Z" transform="translate(-68.495)" fill="#cbcbcb"/>
        </g>
      </g>
      <g id="Group_5108" data-name="Group 5108" transform="translate(10.848 3.39)">
        <g id="Group_5107" data-name="Group 5107">
          <path id="Path_6492" data-name="Path 6492" d="M230.365,50a1.864,1.864,0,1,0,1.864,1.864A1.867,1.867,0,0,0,230.365,50Zm0,2.712a.847.847,0,1,1,.847-.847A.848.848,0,0,1,230.365,52.711Z" transform="translate(-228.501 -49.999)" fill="#cbcbcb"/>
        </g>
      </g>
    </g>
  </g>
</svg>
