<svg width="96" height="96" viewBox="0 0 96 96" fill="none" xmlns="http://www.w3.org/2000/svg">
<path d="M70.0894 74.6666H72.5527V74.0023C72.5523 73.6045 72.6725 73.2156 72.8979 72.8859C73.1232 72.5563 73.4434 72.3009 73.8169 72.1528C74.1905 72.0047 74.6004 71.9707 74.9938 72.0551C75.3871 72.1395 75.7459 72.3385 76.0237 72.6264C76.3015 72.3385 76.6602 72.1395 77.0536 72.0551C77.4469 71.9707 77.8568 72.0047 78.2304 72.1528C78.604 72.3009 78.9241 72.5563 79.1495 72.8859C79.3748 73.2156 79.4951 73.6045 79.4947 74.0023V74.6666H81.286C81.3454 74.6666 81.4024 74.69 81.4445 74.7315C81.4865 74.7731 81.5101 74.8294 81.5101 74.8882V85.5128C81.5101 85.5716 81.4865 85.628 81.4445 85.6695C81.4024 85.7111 81.3454 85.7344 81.286 85.7344H70.0894C70.03 85.7344 69.9729 85.7111 69.9309 85.6695C69.8889 85.628 69.8652 85.5716 69.8652 85.5128V74.8882C69.8652 74.8294 69.8889 74.7731 69.9309 74.7315C69.9729 74.69 70.03 74.6666 70.0894 74.6666ZM70.3136 84.9785L71.7228 83.5855C71.7648 83.544 71.8218 83.5207 71.8812 83.5207C71.9406 83.5207 71.9976 83.544 72.0397 83.5855L73.4489 84.9785V75.1093H70.3131L70.3136 84.9785ZM70.6305 85.2917H73.132L71.8807 84.0554L70.6305 85.2917ZM74.5687 72.4538C74.153 72.4542 73.7546 72.6176 73.4607 72.9081C73.1668 73.1987 73.0015 73.5926 73.001 74.0034V74.6677H75.4643V74.0023C75.4639 73.6437 75.562 73.2916 75.7483 72.9838C75.6014 72.817 75.42 72.6833 75.2163 72.5918C75.0126 72.5002 74.7914 72.453 74.5676 72.4533L74.5687 72.4538ZM76.0237 73.4292C75.9496 73.6117 75.9115 73.8067 75.9116 74.0034V74.6677H76.1358V74.0023C76.1356 73.8058 76.0974 73.611 76.0231 73.4286L76.0237 73.4292ZM79.0469 74.0034C79.0473 73.6878 78.9501 73.3796 78.7684 73.1201C78.5867 72.8606 78.3292 72.6622 78.0302 72.5514C77.7313 72.4406 77.4052 72.4228 77.0957 72.5002C76.7862 72.5777 76.5081 72.7468 76.2985 72.9849C76.4848 73.2927 76.5829 73.6447 76.5825 74.0034V74.6677H79.0458L79.0469 74.0034ZM81.0623 85.2923V75.1093H79.4941V75.7736C79.4913 75.8304 79.4665 75.884 79.4248 75.9232C79.3831 75.9624 79.3278 75.9843 79.2702 75.9843C79.2127 75.9843 79.1573 75.9624 79.1156 75.9232C79.074 75.884 79.0491 75.8304 79.0463 75.7736V75.1093H75.9116V75.7736C75.9131 75.8035 75.9084 75.8335 75.8978 75.8616C75.8872 75.8898 75.871 75.9155 75.85 75.9372C75.8291 75.959 75.8039 75.9763 75.776 75.9881C75.7481 75.9999 75.718 76.006 75.6877 76.006C75.6573 76.006 75.6273 75.9999 75.5994 75.9881C75.5715 75.9763 75.5463 75.959 75.5253 75.9372C75.5044 75.9155 75.4881 75.8898 75.4776 75.8616C75.467 75.8335 75.4623 75.8035 75.4638 75.7736V75.1093H73.8961V85.2917L81.0623 85.2923Z" fill="#2C7BE5"/>
<path d="M71.8807 82.415C71.8212 82.415 71.7642 82.3917 71.7222 82.3501C71.6801 82.3086 71.6565 82.2522 71.6565 82.1934V75.5518C71.655 75.5218 71.6597 75.4919 71.6703 75.4637C71.6809 75.4356 71.6971 75.4099 71.7181 75.3881C71.739 75.3664 71.7642 75.3491 71.7921 75.3373C71.82 75.3254 71.8501 75.3193 71.8804 75.3193C71.9108 75.3193 71.9409 75.3254 71.9688 75.3373C71.9967 75.3491 72.0218 75.3664 72.0428 75.3881C72.0637 75.4099 72.08 75.4356 72.0906 75.4637C72.1011 75.4919 72.1058 75.5218 72.1043 75.5518V82.1924C72.1045 82.2215 72.0988 82.2504 72.0877 82.2774C72.0765 82.3043 72.06 82.3289 72.0393 82.3496C72.0185 82.3702 71.9938 82.3867 71.9666 82.3979C71.9394 82.4091 71.9102 82.415 71.8807 82.415Z" fill="#2C7BE5"/>
<path d="M71.8804 83.299C71.821 83.299 71.764 83.2756 71.7219 83.234C71.6799 83.1925 71.6562 83.1361 71.6562 83.0773V82.8558C71.6591 82.7989 71.6839 82.7454 71.7256 82.7061C71.7673 82.6669 71.8226 82.645 71.8802 82.645C71.9377 82.645 71.9931 82.6669 72.0347 82.7061C72.0764 82.7454 72.1012 82.7989 72.1041 82.8558V83.0773C72.1041 83.136 72.0805 83.1923 72.0386 83.2339C71.9967 83.2754 71.9398 83.2988 71.8804 83.299Z" fill="#2C7BE5"/>
<path d="M31.9896 66.1726H30.3102V65.2382C30.8076 64.8836 31.2106 64.4269 31.488 63.9036C31.7654 63.3802 31.9098 62.8043 31.9099 62.2205V61.549H32.3098C32.3734 61.549 32.4344 61.5254 32.4794 61.4835C32.5243 61.4415 32.5496 61.3846 32.5496 61.3253C32.5496 61.1067 32.3185 60.8668 31.9099 60.6502V59.8351C31.9099 58.8264 31.4802 57.859 30.7154 57.1457C29.9505 56.4324 28.9132 56.0317 27.8316 56.0317C26.7499 56.0317 25.7126 56.4324 24.9478 57.1457C24.1829 57.859 23.7533 58.8264 23.7533 59.8351V60.6502C23.3446 60.8678 23.1135 61.1088 23.1135 61.3253C23.1135 61.3846 23.1388 61.4415 23.1838 61.4835C23.2287 61.5254 23.2897 61.549 23.3533 61.549H23.7533V62.2205C23.7533 62.8043 23.8977 63.3802 24.1751 63.9036C24.4525 64.4269 24.8556 64.8836 25.3529 65.2382V66.1726H23.6729C23.1852 66.173 22.7176 66.3538 22.3727 66.6755C22.0278 66.9971 21.8339 67.4332 21.8335 67.888V69.0797C21.8335 69.139 21.8587 69.1959 21.9037 69.2378C21.9487 69.2798 22.0097 69.3034 22.0733 69.3034C22.1369 69.3034 22.1979 69.2798 22.2429 69.2378C22.2879 69.1959 22.3131 69.139 22.3131 69.0797V67.887C22.3139 67.5511 22.4573 67.2292 22.7121 66.9918C22.9669 66.7543 23.3122 66.6208 23.6724 66.6204H25.519L26.4182 67.1808L26.4291 67.1864L26.4434 67.1941L26.4641 67.2027L26.4778 67.2078L26.5018 67.2134H26.5144C26.5259 67.2151 26.5376 67.2159 26.5493 67.216C26.5625 67.2158 26.5757 67.2146 26.5887 67.2124L26.6072 67.2094L27.8288 66.9246L29.0504 67.2094L29.0695 67.2129C29.0823 67.2149 29.0953 67.2159 29.1083 67.216C29.12 67.2159 29.1317 67.2151 29.1433 67.2134H29.1558C29.164 67.212 29.172 67.2101 29.1799 67.2078L29.1935 67.2027L29.2143 67.1941L29.2285 67.1864L29.2394 67.1808L30.1387 66.6204H31.9853C32.3456 66.6208 32.6911 66.7545 32.9459 66.9921C33.2007 67.2298 33.3441 67.5519 33.3445 67.888V70.8563H22.3088V69.9759C22.3088 69.9166 22.2835 69.8597 22.2385 69.8177C22.1935 69.7758 22.1325 69.7522 22.0689 69.7522C22.0053 69.7522 21.9443 69.7758 21.8993 69.8177C21.8544 69.8597 21.8291 69.9166 21.8291 69.9759V71.0774C21.8292 71.1367 21.8546 71.1935 21.8995 71.2354C21.9445 71.2773 22.0054 71.3009 22.0689 71.3011H33.5893C33.6529 71.3011 33.7139 71.2775 33.7589 71.2355C33.8038 71.1936 33.8291 71.1367 33.8291 71.0774V67.888C33.8285 67.4332 33.6345 66.9972 33.2897 66.6756C32.9448 66.354 32.4773 66.1731 31.9896 66.1726ZM24.2324 59.8335C24.2324 58.9435 24.6115 58.0899 25.2864 57.4605C25.9613 56.8311 26.8766 56.4775 27.831 56.4775C28.7854 56.4775 29.7008 56.8311 30.3756 57.4605C31.0505 58.0899 31.4296 58.9435 31.4296 59.8335V60.4352L31.3564 60.4082C30.2241 60.0415 29.0291 59.8721 27.831 59.9084C26.633 59.8721 25.4379 60.0415 24.3056 60.4082L24.2324 60.4352V59.8335ZM24.5935 60.7852C25.6385 60.4707 26.7335 60.3255 27.831 60.3558C28.9286 60.3255 30.0236 60.4707 31.0685 60.7852C31.3173 60.8655 31.5555 60.9716 31.7787 61.1016H23.8833C24.1067 60.9716 24.3451 60.8655 24.594 60.7852H24.5935ZM27.5912 66.52L26.5963 66.7518L25.8315 66.2765V65.5342C26.3706 65.8183 26.9724 65.9834 27.5906 66.0167L27.5912 66.52ZM29.8311 66.2765L29.0663 66.7518L28.0714 66.52V66.0161C28.6896 65.9829 29.2914 65.8178 29.8306 65.5337V66.276L29.8311 66.2765ZM27.8807 65.5754C27.8486 65.5693 27.8156 65.5693 27.7835 65.5754C26.8377 65.5629 25.9352 65.2039 25.2708 64.5761C24.6064 63.9483 24.2334 63.102 24.2324 62.22V61.549H31.4296V62.2205C31.4285 63.1023 31.0555 63.9483 30.3914 64.576C29.7272 65.2036 28.8251 65.5626 27.8796 65.5754H27.8807Z" fill="#2C7BE5"/>
<path d="M27.8307 57.522C27.6568 57.522 27.4867 57.5701 27.3421 57.6602C27.1974 57.7503 27.0847 57.8785 27.0181 58.0283C26.9516 58.1782 26.9341 58.3432 26.9681 58.5023C27.002 58.6614 27.0858 58.8076 27.2088 58.9223C27.3318 59.037 27.4885 59.1151 27.6592 59.1468C27.8298 59.1784 28.0066 59.1622 28.1674 59.1001C28.3281 59.038 28.4654 58.9329 28.5621 58.798C28.6587 58.6631 28.7103 58.5045 28.7103 58.3423C28.71 58.1248 28.6173 57.9163 28.4524 57.7625C28.2875 57.6088 28.0639 57.5222 27.8307 57.522ZM27.8307 58.7152C27.7517 58.7152 27.6743 58.6933 27.6086 58.6523C27.5428 58.6114 27.4916 58.5531 27.4613 58.485C27.431 58.4168 27.4231 58.3418 27.4385 58.2695C27.454 58.1972 27.492 58.1307 27.548 58.0785C27.6039 58.0264 27.6752 57.9909 27.7527 57.9765C27.8303 57.9621 27.9107 57.9695 27.9838 57.9977C28.0569 58.0259 28.1193 58.0737 28.1633 58.1351C28.2072 58.1964 28.2307 58.2685 28.2307 58.3423C28.2304 58.441 28.1881 58.5357 28.1132 58.6055C28.0382 58.6753 27.9367 58.7146 27.8307 58.7147V58.7152Z" fill="#2C7BE5"/>
<path d="M88.7553 35.7546H87.0759V34.8202C87.5732 34.4656 87.9762 34.0089 88.2536 33.4856C88.531 32.9623 88.6754 32.3863 88.6755 31.8025V31.131H89.0754C89.139 31.131 89.2 31.1074 89.245 31.0655C89.29 31.0236 89.3152 30.9667 89.3152 30.9073C89.3152 30.6888 89.0841 30.4488 88.6755 30.2323V29.4171C88.6755 28.4084 88.2458 27.441 87.481 26.7277C86.7161 26.0145 85.6788 25.6138 84.5972 25.6138C83.5155 25.6138 82.4782 26.0145 81.7134 26.7277C80.9486 27.441 80.5189 28.4084 80.5189 29.4171V30.2323C80.1102 30.4498 79.8791 30.6908 79.8791 30.9073C79.8791 30.9667 79.9044 31.0236 79.9494 31.0655C79.9944 31.1074 80.0554 31.131 80.119 31.131H80.5189V31.8025C80.519 32.3863 80.6633 32.9623 80.9408 33.4856C81.2182 34.0089 81.6212 34.4656 82.1185 34.8202V35.7546H80.4386C79.9508 35.755 79.4832 35.9359 79.1383 36.2575C78.7935 36.5791 78.5995 37.0152 78.5991 37.4701V38.6617C78.5991 38.7211 78.6244 38.778 78.6693 38.8199C78.7143 38.8618 78.7753 38.8854 78.8389 38.8854C78.9025 38.8854 78.9635 38.8618 79.0085 38.8199C79.0535 38.778 79.0788 38.7211 79.0788 38.6617V37.469C79.0795 37.1331 79.223 36.8112 79.4778 36.5738C79.7325 36.3364 80.0778 36.2029 80.438 36.2024H82.2846L83.1838 36.7629L83.1948 36.7685L83.209 36.7761L83.2297 36.7848L83.2434 36.7899L83.2674 36.7955H83.28C83.2916 36.7971 83.3033 36.798 83.315 36.798C83.3282 36.7979 83.3413 36.7967 83.3543 36.7945L83.3729 36.7914L84.5945 36.5066L85.816 36.7914L85.8352 36.795C85.848 36.797 85.8609 36.798 85.8739 36.798C85.8856 36.798 85.8973 36.7971 85.9089 36.7955H85.9215C85.9296 36.794 85.9376 36.7921 85.9455 36.7899L85.9592 36.7848L85.9799 36.7761L85.9941 36.7685L86.0051 36.7629L86.9043 36.2024H88.7509C89.1112 36.2029 89.4567 36.3365 89.7115 36.5742C89.9664 36.8118 90.1097 37.134 90.1101 37.4701V40.4383H79.0744V39.5579C79.0744 39.4986 79.0491 39.4417 79.0042 39.3998C78.9592 39.3578 78.8982 39.3343 78.8346 39.3343C78.771 39.3343 78.7099 39.3578 78.665 39.3998C78.62 39.4417 78.5947 39.4986 78.5947 39.5579V40.6594C78.5949 40.7187 78.6202 40.7755 78.6651 40.8175C78.7101 40.8594 78.771 40.883 78.8346 40.8831H90.3549C90.4185 40.8831 90.4795 40.8595 90.5245 40.8176C90.5695 40.7757 90.5947 40.7188 90.5947 40.6594V37.4701C90.5941 37.0153 90.4002 36.5792 90.0553 36.2576C89.7105 35.9361 89.2429 35.7551 88.7553 35.7546ZM80.998 29.4156C80.998 28.5255 81.3771 27.6719 82.052 27.0425C82.7269 26.4131 83.6422 26.0596 84.5966 26.0596C85.5511 26.0596 86.4664 26.4131 87.1413 27.0425C87.8161 27.6719 88.1953 28.5255 88.1953 29.4156V30.0173L88.1221 29.9903C86.9897 29.6236 85.7947 29.4542 84.5966 29.4905C83.3986 29.4542 82.2036 29.6236 81.0712 29.9903L80.998 30.0173V29.4156ZM81.3591 30.3673C82.4041 30.0528 83.4991 29.9075 84.5966 29.9378C85.6942 29.9075 86.7892 30.0528 87.8342 30.3673C88.0829 30.4475 88.3211 30.5536 88.5444 30.6837H80.6489C80.8723 30.5536 81.1108 30.4475 81.3597 30.3673H81.3591ZM84.3568 36.1021L83.3619 36.3339L82.5971 35.8585V35.1162C83.1362 35.4004 83.738 35.5654 84.3563 35.5987L84.3568 36.1021ZM86.5967 35.8585L85.8319 36.3339L84.837 36.1021V35.5982C85.4553 35.5649 86.0571 35.3999 86.5962 35.1157V35.858L86.5967 35.8585ZM84.6464 35.1575C84.6143 35.1514 84.5812 35.1514 84.5491 35.1575C83.6034 35.1449 82.7009 34.786 82.0365 34.1582C81.372 33.5304 80.9991 32.6841 80.998 31.802V31.131H88.1953V31.8025C88.1941 32.6843 87.8212 33.5303 87.157 34.158C86.4929 34.7857 85.5907 35.1447 84.6453 35.1575H84.6464Z" fill="#2C7BE5"/>
<path d="M84.5964 27.104C84.4224 27.104 84.2524 27.1521 84.1077 27.2422C83.9631 27.3324 83.8503 27.4605 83.7838 27.6104C83.7172 27.7603 83.6998 27.9252 83.7337 28.0843C83.7676 28.2434 83.8514 28.3896 83.9744 28.5043C84.0974 28.619 84.2542 28.6971 84.4248 28.7288C84.5954 28.7604 84.7723 28.7442 84.933 28.6821C85.0938 28.62 85.2311 28.5149 85.3278 28.38C85.4244 28.2451 85.476 28.0865 85.476 27.9243C85.4757 27.7068 85.383 27.4983 85.2181 27.3446C85.0532 27.1908 84.8296 27.1043 84.5964 27.104ZM84.5964 28.2972C84.5173 28.2972 84.44 28.2754 84.3742 28.2344C84.3085 28.1934 84.2572 28.1351 84.2269 28.067C84.1967 27.9989 84.1887 27.9239 84.2042 27.8515C84.2196 27.7792 84.2577 27.7127 84.3136 27.6606C84.3696 27.6084 84.4408 27.5729 84.5184 27.5585C84.596 27.5441 84.6764 27.5515 84.7495 27.5797C84.8225 27.608 84.885 27.6558 84.9289 27.7171C84.9729 27.7784 84.9963 27.8505 84.9963 27.9243C84.996 28.0231 84.9538 28.1177 84.8788 28.1875C84.8039 28.2573 84.7023 28.2966 84.5964 28.2967V28.2972Z" fill="#2C7BE5"/>
<path d="M17.434 23.1233H15.7546V22.1889C16.2519 21.8343 16.6549 21.3776 16.9323 20.8543C17.2098 20.3309 17.3541 19.755 17.3542 19.1712V18.4997H17.7541C17.8177 18.4997 17.8787 18.4761 17.9237 18.4342C17.9687 18.3922 17.9939 18.3353 17.9939 18.276C17.9939 18.0574 17.7629 17.8175 17.3542 17.6009V16.7857C17.3542 15.777 16.9245 14.8097 16.1597 14.0964C15.3949 13.3831 14.3575 12.9824 13.2759 12.9824C12.1943 12.9824 11.1569 13.3831 10.3921 14.0964C9.62727 14.8097 9.19759 15.777 9.19759 16.7857V17.6009C8.78894 17.8185 8.55784 18.0595 8.55784 18.276C8.55784 18.3353 8.58311 18.3922 8.62809 18.4342C8.67307 18.4761 8.73407 18.4997 8.79768 18.4997H9.19759V19.1712C9.19768 19.755 9.34204 20.3309 9.61946 20.8543C9.89688 21.3776 10.2999 21.8343 10.7972 22.1889V23.1233H9.11728C8.62955 23.1237 8.16193 23.3045 7.81706 23.6262C7.47218 23.9478 7.27824 24.3839 7.27781 24.8387V26.0304C7.27781 26.0897 7.30308 26.1466 7.34806 26.1886C7.39303 26.2305 7.45403 26.2541 7.51764 26.2541C7.58125 26.2541 7.64226 26.2305 7.68724 26.1886C7.73221 26.1466 7.75748 26.0897 7.75748 26.0304V24.8377C7.7582 24.5018 7.90168 24.1799 8.15646 23.9425C8.41125 23.705 8.75656 23.5715 9.11673 23.5711H10.9633L11.8626 24.1315L11.8735 24.1371L11.8877 24.1448L11.9084 24.1534L11.9221 24.1585L11.9461 24.1641H11.9587C11.9703 24.1658 11.982 24.1666 11.9937 24.1667C12.0069 24.1665 12.02 24.1653 12.033 24.1631L12.0516 24.1601L13.2732 23.8753L14.4947 24.1601L14.5139 24.1636C14.5267 24.1656 14.5397 24.1666 14.5527 24.1667C14.5644 24.1666 14.576 24.1658 14.5876 24.1641H14.6002C14.6083 24.1627 14.6163 24.1608 14.6242 24.1585L14.6379 24.1534L14.6586 24.1448L14.6728 24.1371L14.6838 24.1315L15.583 23.5711H17.4296C17.79 23.5715 18.1354 23.7052 18.3903 23.9428C18.6451 24.1805 18.7884 24.5026 18.7888 24.8387V27.807H7.75311V26.9266C7.75311 26.8673 7.72784 26.8104 7.68286 26.7684C7.63789 26.7265 7.57688 26.7029 7.51328 26.7029C7.44967 26.7029 7.38866 26.7265 7.34368 26.7684C7.2987 26.8104 7.27344 26.8673 7.27344 26.9266V28.0281C7.27358 28.0874 7.2989 28.1442 7.34385 28.1861C7.38879 28.228 7.44971 28.2516 7.51328 28.2518H19.0336C19.0972 28.2518 19.1582 28.2282 19.2032 28.1863C19.2482 28.1443 19.2734 28.0874 19.2734 28.0281V24.8387C19.2729 24.3839 19.0789 23.9479 18.734 23.6263C18.3892 23.3047 17.9216 23.1238 17.434 23.1233ZM9.67672 16.7842C9.67672 15.8942 10.0559 15.0405 10.7307 14.4112C11.4056 13.7818 12.3209 13.4282 13.2753 13.4282C14.2298 13.4282 15.1451 13.7818 15.82 14.4112C16.4948 15.0405 16.874 15.8942 16.874 16.7842V17.3859L16.8008 17.3589C15.6684 16.9922 14.4734 16.8228 13.2753 16.8591C12.0773 16.8228 10.8823 16.9922 9.74992 17.3589L9.67672 17.3859V16.7842ZM10.0378 17.7359C11.0828 17.4214 12.1778 17.2762 13.2753 17.3064C14.3729 17.2762 15.4679 17.4214 16.5129 17.7359C16.7616 17.8162 16.9999 17.9223 17.2231 18.0523H9.32762C9.55104 17.9223 9.78946 17.8162 10.0384 17.7359H10.0378ZM13.0355 23.4707L12.0407 23.7025L11.2758 23.2272V22.4849C11.8149 22.769 12.4167 22.9341 13.035 22.9674L13.0355 23.4707ZM15.2754 23.2272L14.5106 23.7025L13.5157 23.4707V22.9668C14.134 22.9336 14.7358 22.7685 15.2749 22.4844V23.2267L15.2754 23.2272ZM13.3251 22.5261C13.293 22.52 13.2599 22.52 13.2278 22.5261C12.2821 22.5136 11.3796 22.1546 10.7152 21.5268C10.0508 20.899 9.67777 20.0527 9.67672 19.1707V18.4997H16.874V19.1712C16.8728 20.053 16.4999 20.899 15.8357 21.5267C15.1716 22.1543 14.2694 22.5133 13.324 22.5261H13.3251Z" fill="#2C7BE5"/>
<path d="M13.2751 14.4722C13.1011 14.4722 12.9311 14.5203 12.7864 14.6104C12.6418 14.7005 12.529 14.8287 12.4625 14.9785C12.3959 15.1284 12.3785 15.2933 12.4124 15.4525C12.4463 15.6116 12.5301 15.7577 12.6531 15.8725C12.7761 15.9872 12.9329 16.0653 13.1035 16.0969C13.2741 16.1286 13.451 16.1124 13.6117 16.0503C13.7724 15.9882 13.9098 15.883 14.0064 15.7482C14.1031 15.6133 14.1547 15.4547 14.1547 15.2924C14.1544 15.075 14.0616 14.8665 13.8967 14.7127C13.7318 14.5589 13.5083 14.4724 13.2751 14.4722ZM13.2751 15.6654C13.196 15.6654 13.1187 15.6435 13.0529 15.6025C12.9871 15.5615 12.9359 15.5033 12.9056 15.4352C12.8754 15.367 12.8674 15.292 12.8829 15.2197C12.8983 15.1473 12.9364 15.0809 12.9923 15.0287C13.0482 14.9766 13.1195 14.9411 13.1971 14.9267C13.2746 14.9123 13.3551 14.9197 13.4281 14.9479C13.5012 14.9761 13.5637 15.0239 13.6076 15.0852C13.6515 15.1466 13.675 15.2187 13.675 15.2924C13.6747 15.3912 13.6325 15.4859 13.5575 15.5557C13.4826 15.6255 13.381 15.6647 13.2751 15.6649V15.6654Z" fill="#2C7BE5"/>
<path d="M68.3372 80.5414C68.3372 80.5414 63.4161 65.6196 37.2002 67.1383" stroke="#2C7BE5" stroke-dasharray="2 2"/>
<path d="M29.4346 53.4926C29.4346 53.4926 41.829 33.9368 76.9349 35.9376" stroke="#2C7BE5" stroke-dasharray="2 2"/>
<path d="M75.4849 36.5959C75.4849 36.5959 66.7878 13.9031 20.9062 21.258" stroke="#2C7BE5" stroke-dasharray="2 2"/>
<path d="M35 69.9576C36.6569 69.9576 38 68.6226 38 66.9756C38 65.3287 36.6569 63.9937 35 63.9937C33.3431 63.9937 32 65.3287 32 66.9756C32 68.6226 33.3431 69.9576 35 69.9576Z" fill="#2C7BE5"/>
<path d="M73 38.1495C74.6569 38.1495 76 36.8144 76 35.1675C76 33.5206 74.6569 32.1855 73 32.1855C71.3431 32.1855 70 33.5206 70 35.1675C70 36.8144 71.3431 38.1495 73 38.1495Z" fill="#2C7BE5"/>
<path d="M20 24.234C21.6569 24.234 23 22.8989 23 21.252C23 19.6051 21.6569 18.27 20 18.27C18.3431 18.27 17 19.6051 17 21.252C17 22.8989 18.3431 24.234 20 24.234Z" fill="#2C7BE5"/>
<rect x="0.5" y="0.5" width="95" height="94.4238" rx="7.1" stroke="#2C7BE5"/>
</svg>
