<svg xmlns="http://www.w3.org/2000/svg" width="32.223" height="33.297" viewBox="0 0 32.223 33.297">
  <g id="food-delivery_5_" data-name="food-delivery (5)" transform="translate(-16 -8)">
    <path id="Path_6483" data-name="Path 6483" d="M172.3,262.955v-6.418a.537.537,0,0,0-.537-.537c-3.28,0-3.74,5.628-3.758,5.867a.537.537,0,0,0,.3.521l.777.389v.179l-.416,4.163a1.611,1.611,0,0,0,1.6,1.771h.849a1.611,1.611,0,0,0,1.6-1.771Zm-3.185-1.361a11.791,11.791,0,0,1,.494-2.217,3.294,3.294,0,0,1,1.617-2.205v5.273h-1.074a.537.537,0,0,0-.3-.48Zm2.4,6.044a.531.531,0,0,1-.4.177h-.849a.537.537,0,0,1-.534-.591l.371-3.706h1.176l.371,3.706a.531.531,0,0,1-.136.414Z" transform="translate(-141.796 -231.352)"/>
    <path id="Path_6484" data-name="Path 6484" d="M47.686,8h-4.3a.537.537,0,0,0-.537.537v.537H31.64a2.91,2.91,0,0,0-1.39.354L24.993,12.3H18.685c-.9,0-1.611.944-1.611,2.148a1.993,1.993,0,0,0,1.433,2.135l-2.421,8.2-.006.022a2.69,2.69,0,0,0-.08.651V40.76a.537.537,0,0,0,.537.537H40.7a.537.537,0,0,0,.537-.537V25.495a2.682,2.682,0,0,0-.109-.758l-2.237-7.607a2.905,2.905,0,0,0,2.876-2.685h1.082v1.074a.537.537,0,0,0,.537.537h4.3a.537.537,0,0,0,.537-.537V8.537A.537.537,0,0,0,47.686,8ZM18.148,14.445c0-.656.318-1.074.537-1.074H34.037l-2.148,2.148h-13.2C18.466,15.519,18.148,15.1,18.148,14.445ZM34.877,24.8a2.69,2.69,0,0,0-.08.651V40.223H17.074V25.45a1.616,1.616,0,0,1,.046-.38l2.5-8.477H30.917A2.366,2.366,0,0,0,34.4,19.669l2.584-2.01-2.1,7.117Zm3.142,14.035,1.389,1.389H36.63ZM40.1,25.04a1.608,1.608,0,0,1,.065.454V39.463l-1.611-1.611V26.26a.537.537,0,0,0-1.074,0V37.852l-1.611,1.611V25.45a1.616,1.616,0,0,1,.046-.38l2.1-7.114Zm2.751-11.67H41.562a.858.858,0,0,0-.857.857,1.83,1.83,0,0,1-1.828,1.828h-1.32a.757.757,0,0,0-.463.159l-3.352,2.607a1.291,1.291,0,0,1-1.705-1.931l3.677-3.677a.537.537,0,0,0-.38-.917h-8.1l3.529-1.925a1.833,1.833,0,0,1,.875-.223H42.852Zm4.3,1.611H43.926V9.074h3.222Z"/>
    <path id="Path_6485" data-name="Path 6485" d="M85.37,256.537a.537.537,0,1,0-1.074,0v1.611H83.222v-1.611a.537.537,0,1,0-1.074,0v1.611H81.074v-1.611a.537.537,0,1,0-1.074,0v2.148h0a.535.535,0,0,0,.056.24l1.008,2.017-.444,6.221a1.611,1.611,0,0,0,1.607,1.726h.915a1.611,1.611,0,0,0,1.607-1.726l-.444-6.221,1.008-2.017a.535.535,0,0,0,.056-.24h0Zm-1.406,2.685-.537,1.074H81.943l-.537-1.074Zm-.429,8.422a.532.532,0,0,1-.393.171h-.915a.537.537,0,0,1-.536-.575l.419-5.869h1.148l.419,5.869A.532.532,0,0,1,83.536,267.644Z" transform="translate(-59.704 -231.352)"/>
  </g>
</svg>
