<svg width="24" height="24" viewBox="0 0 24 24" fill="none" xmlns="http://www.w3.org/2000/svg">
<g clip-path="url(#clip0_8120_81284)">
<path d="M12.3234 4.4953V5.1703H3.51093V4.4953C3.51093 4.00311 3.90937 3.60468 4.40156 3.60468H11.4328C11.9203 3.60468 12.3234 4.00311 12.3234 4.4953ZM14.0625 6.1828V22.739C14.0625 23.2969 13.6125 23.7469 13.0547 23.7469H2.77499C2.21718 23.7469 1.76718 23.2969 1.76718 22.739V6.1828C1.76718 5.62499 2.21718 5.17499 2.77499 5.17499H13.0547C13.6125 5.1703 14.0625 5.62499 14.0625 6.1828Z" fill="#B1BCCC"/>
<path d="M12.5484 7.19064V10.8609C12.5484 11.1422 12.3234 11.3672 12.0422 11.3672H3.7828C3.50624 11.3672 3.27655 11.1422 3.27655 10.8609V7.19064C3.27655 6.90939 3.50155 6.68439 3.7828 6.68439H12.0422C12.2062 6.68439 12.3516 6.76407 12.4453 6.88126C12.5109 6.97032 12.5484 7.07345 12.5484 7.19064Z" fill="white"/>
<path d="M11.175 0.253113V5.1703H4.65469V0.253113L5.47032 1.13436L6.28594 0.253113L7.09688 1.13436L7.91251 0.253113L8.72813 1.13436L9.54376 0.253113L10.3594 1.13436L11.175 0.253113Z" fill="white"/>
<path d="M5.46094 13.3828C5.46094 13.6594 5.23594 13.8844 4.95938 13.8844H3.78281C3.50625 13.8844 3.28125 13.6594 3.28125 13.3828C3.28125 13.1062 3.50625 12.8812 3.78281 12.8812H4.95938C5.23594 12.8812 5.46094 13.1062 5.46094 13.3828ZM9.00469 13.3828C9.00469 13.6594 8.77969 13.8844 8.50312 13.8844H7.32656C7.05 13.8844 6.825 13.6594 6.825 13.3828C6.825 13.1062 7.05 12.8812 7.32656 12.8812H8.50312C8.77969 12.8812 9.00469 13.1062 9.00469 13.3828ZM12.5484 13.3828C12.5484 13.6594 12.3234 13.8844 12.0469 13.8844H10.8703C10.5937 13.8844 10.3687 13.6594 10.3687 13.3828C10.3687 13.1062 10.5937 12.8812 10.8703 12.8812H12.0469C12.3234 12.8812 12.5484 13.1062 12.5484 13.3828ZM5.46094 15.4687C5.46094 15.7453 5.23594 15.9703 4.95938 15.9703H3.78281C3.50625 15.9703 3.28125 15.7453 3.28125 15.4687C3.28125 15.1922 3.50625 14.9672 3.78281 14.9672H4.95938C5.23594 14.9672 5.46094 15.1922 5.46094 15.4687ZM9.00469 15.4687C9.00469 15.7453 8.77969 15.9703 8.50312 15.9703H7.32656C7.05 15.9703 6.825 15.7453 6.825 15.4687C6.825 15.1922 7.05 14.9672 7.32656 14.9672H8.50312C8.77969 14.9672 9.00469 15.1922 9.00469 15.4687ZM12.5484 15.4687C12.5484 15.7453 12.3234 15.9703 12.0469 15.9703H10.8703C10.5937 15.9703 10.3687 15.7453 10.3687 15.4687C10.3687 15.1922 10.5937 14.9672 10.8703 14.9672H12.0469C12.3234 14.9672 12.5484 15.1922 12.5484 15.4687ZM5.46094 17.5547C5.46094 17.8312 5.23594 18.0562 4.95938 18.0562H3.78281C3.50625 18.0562 3.28125 17.8312 3.28125 17.5547C3.28125 17.2781 3.50625 17.0531 3.78281 17.0531H4.95938C5.23594 17.0531 5.46094 17.2781 5.46094 17.5547ZM9.00469 17.5547C9.00469 17.8312 8.77969 18.0562 8.50312 18.0562H7.32656C7.05 18.0562 6.825 17.8312 6.825 17.5547C6.825 17.2781 7.05 17.0531 7.32656 17.0531H8.50312C8.77969 17.0531 9.00469 17.2781 9.00469 17.5547ZM12.5484 17.5547C12.5484 17.8312 12.3234 18.0562 12.0469 18.0562H10.8703C10.5937 18.0562 10.3687 17.8312 10.3687 17.5547C10.3687 17.2781 10.5937 17.0531 10.8703 17.0531H12.0469C12.3234 17.0531 12.5484 17.2781 12.5484 17.5547ZM5.46094 19.6453C5.46094 19.9219 5.23594 20.1469 4.95938 20.1469H3.78281C3.50625 20.1469 3.28125 19.9219 3.28125 19.6453C3.28125 19.3687 3.50625 19.1437 3.78281 19.1437H4.95938C5.23594 19.1391 5.46094 19.3641 5.46094 19.6453ZM9.00469 19.6453C9.00469 19.9219 8.77969 20.1469 8.50312 20.1469H7.32656C7.05 20.1469 6.825 19.9219 6.825 19.6453C6.825 19.3687 7.05 19.1437 7.32656 19.1437H8.50312C8.77969 19.1391 9.00469 19.3641 9.00469 19.6453ZM12.5484 19.6453C12.5484 19.9219 12.3234 20.1469 12.0469 20.1469H10.8703C10.5937 20.1469 10.3687 19.9219 10.3687 19.6453C10.3687 19.3687 10.5937 19.1437 10.8703 19.1437H12.0469C12.3234 19.1391 12.5484 19.3641 12.5484 19.6453ZM5.46094 21.7312C5.46094 22.0078 5.23594 22.2328 4.95938 22.2328H3.78281C3.50625 22.2328 3.28125 22.0078 3.28125 21.7312C3.28125 21.4547 3.50625 21.2297 3.78281 21.2297H4.95938C5.23594 21.2297 5.46094 21.4547 5.46094 21.7312ZM9.00469 21.7312C9.00469 22.0078 8.77969 22.2328 8.50312 22.2328H7.32656C7.05 22.2328 6.825 22.0078 6.825 21.7312C6.825 21.4547 7.05 21.2297 7.32656 21.2297H8.50312C8.77969 21.2297 9.00469 21.4547 9.00469 21.7312ZM12.5484 21.7312C12.5484 22.0078 12.3234 22.2328 12.0469 22.2328H10.8703C10.5937 22.2328 10.3687 22.0078 10.3687 21.7312C10.3687 21.4547 10.5937 21.2297 10.8703 21.2297H12.0469C12.3234 21.2297 12.5484 21.4547 12.5484 21.7312ZM22.2375 11.0344V17.8875C22.2375 18.3047 21.9 18.6469 21.4781 18.6469H14.0625V10.275H21.4781C21.8953 10.275 22.2375 10.6172 22.2375 11.0344Z" fill="#B1BCCC"/>
<path d="M22.2328 11.9391H14.0625V13.8844H22.2328V11.9391Z" fill="#B1BCCC"/>
<path d="M3.78281 11.6203H12.0422C12.4594 11.6203 12.8016 11.2828 12.8016 10.8609V7.19062C12.8016 6.77343 12.4641 6.43124 12.0422 6.43124H3.78281C3.36562 6.43124 3.02344 6.76874 3.02344 7.19062V10.8609C3.02813 11.2781 3.36562 11.6203 3.78281 11.6203ZM3.52969 7.19062C3.52969 7.04999 3.64219 6.93749 3.78281 6.93749H12.0422C12.1828 6.93749 12.2953 7.04999 12.2953 7.19062V10.8609C12.2953 11.0016 12.1828 11.1141 12.0422 11.1141H3.78281C3.64219 11.1141 3.52969 11.0016 3.52969 10.8609V7.19062ZM4.95938 12.6281H3.78281C3.36562 12.6281 3.02812 12.9656 3.02812 13.3828C3.02812 13.8 3.36562 14.1375 3.78281 14.1375H4.95938C5.37656 14.1375 5.71406 13.8 5.71406 13.3828C5.71406 12.9656 5.37188 12.6281 4.95938 12.6281ZM4.95938 13.6312H3.78281C3.64687 13.6312 3.53438 13.5187 3.53438 13.3828C3.53438 13.2469 3.64687 13.1344 3.78281 13.1344H4.95938C5.09531 13.1344 5.20781 13.2469 5.20781 13.3828C5.20781 13.5187 5.09531 13.6312 4.95938 13.6312ZM8.50313 12.6281H7.32656C6.90938 12.6281 6.57188 12.9656 6.57188 13.3828C6.57188 13.8 6.90938 14.1375 7.32656 14.1375H8.50313C8.92031 14.1375 9.25781 13.8 9.25781 13.3828C9.25781 12.9656 8.92031 12.6281 8.50313 12.6281ZM8.50313 13.6312H7.32656C7.19063 13.6312 7.07813 13.5187 7.07813 13.3828C7.07813 13.2469 7.19063 13.1344 7.32656 13.1344H8.50313C8.63906 13.1344 8.75156 13.2469 8.75156 13.3828C8.75156 13.5187 8.63906 13.6312 8.50313 13.6312ZM12.0469 12.6281H10.8703C10.4531 12.6281 10.1156 12.9656 10.1156 13.3828C10.1156 13.8 10.4531 14.1375 10.8703 14.1375H12.0469C12.4641 14.1375 12.8016 13.8 12.8016 13.3828C12.8016 12.9656 12.4641 12.6281 12.0469 12.6281ZM12.0469 13.6312H10.8703C10.7344 13.6312 10.6219 13.5187 10.6219 13.3828C10.6219 13.2469 10.7344 13.1344 10.8703 13.1344H12.0469C12.1828 13.1344 12.2953 13.2469 12.2953 13.3828C12.2953 13.5187 12.1828 13.6312 12.0469 13.6312ZM4.95938 14.7141H3.78281C3.36562 14.7141 3.02812 15.0516 3.02812 15.4687C3.02812 15.8859 3.36562 16.2234 3.78281 16.2234H4.95938C5.37656 16.2234 5.71406 15.8859 5.71406 15.4687C5.71406 15.0516 5.37188 14.7141 4.95938 14.7141ZM4.95938 15.7219H3.78281C3.64687 15.7219 3.53438 15.6094 3.53438 15.4734C3.53438 15.3375 3.64687 15.225 3.78281 15.225H4.95938C5.09531 15.225 5.20781 15.3375 5.20781 15.4734C5.20781 15.6094 5.09531 15.7219 4.95938 15.7219ZM8.50313 14.7141H7.32656C6.90938 14.7141 6.57188 15.0516 6.57188 15.4687C6.57188 15.8859 6.90938 16.2234 7.32656 16.2234H8.50313C8.92031 16.2234 9.25781 15.8859 9.25781 15.4687C9.25781 15.0516 8.92031 14.7141 8.50313 14.7141ZM8.50313 15.7219H7.32656C7.19063 15.7219 7.07813 15.6094 7.07813 15.4734C7.07813 15.3375 7.19063 15.225 7.32656 15.225H8.50313C8.63906 15.225 8.75156 15.3375 8.75156 15.4734C8.75156 15.6094 8.63906 15.7219 8.50313 15.7219ZM12.0469 14.7141H10.8703C10.4531 14.7141 10.1156 15.0516 10.1156 15.4687C10.1156 15.8859 10.4531 16.2234 10.8703 16.2234H12.0469C12.4641 16.2234 12.8016 15.8859 12.8016 15.4687C12.8016 15.0516 12.4641 14.7141 12.0469 14.7141ZM12.0469 15.7219H10.8703C10.7344 15.7219 10.6219 15.6094 10.6219 15.4734C10.6219 15.3375 10.7344 15.225 10.8703 15.225H12.0469C12.1828 15.225 12.2953 15.3375 12.2953 15.4734C12.2953 15.6094 12.1828 15.7219 12.0469 15.7219ZM4.95938 16.8H3.78281C3.36562 16.8 3.02812 17.1375 3.02812 17.5547C3.02812 17.9719 3.36562 18.3094 3.78281 18.3094H4.95938C5.37656 18.3094 5.71406 17.9719 5.71406 17.5547C5.71406 17.1422 5.37188 16.8 4.95938 16.8ZM4.95938 17.8078H3.78281C3.64687 17.8078 3.53438 17.6953 3.53438 17.5594C3.53438 17.4234 3.64687 17.3109 3.78281 17.3109H4.95938C5.09531 17.3109 5.20781 17.4234 5.20781 17.5594C5.20781 17.6953 5.09531 17.8078 4.95938 17.8078ZM8.50313 16.8H7.32656C6.90938 16.8 6.57188 17.1375 6.57188 17.5547C6.57188 17.9719 6.90938 18.3094 7.32656 18.3094H8.50313C8.92031 18.3094 9.25781 17.9719 9.25781 17.5547C9.25781 17.1422 8.92031 16.8 8.50313 16.8ZM8.50313 17.8078H7.32656C7.19063 17.8078 7.07813 17.6953 7.07813 17.5594C7.07813 17.4234 7.19063 17.3109 7.32656 17.3109H8.50313C8.63906 17.3109 8.75156 17.4234 8.75156 17.5594C8.75156 17.6953 8.63906 17.8078 8.50313 17.8078ZM12.0469 16.8H10.8703C10.4531 16.8 10.1156 17.1375 10.1156 17.5547C10.1156 17.9719 10.4531 18.3094 10.8703 18.3094H12.0469C12.4641 18.3094 12.8016 17.9719 12.8016 17.5547C12.8016 17.1422 12.4641 16.8 12.0469 16.8ZM12.0469 17.8078H10.8703C10.7344 17.8078 10.6219 17.6953 10.6219 17.5594C10.6219 17.4234 10.7344 17.3109 10.8703 17.3109H12.0469C12.1828 17.3109 12.2953 17.4234 12.2953 17.5594C12.2953 17.6953 12.1828 17.8078 12.0469 17.8078ZM4.95938 18.8906H3.78281C3.36562 18.8906 3.02812 19.2281 3.02812 19.6453C3.02812 20.0625 3.36562 20.4 3.78281 20.4H4.95938C5.37656 20.4 5.71406 20.0625 5.71406 19.6453C5.71406 19.2281 5.37188 18.8906 4.95938 18.8906ZM4.95938 19.8937H3.78281C3.64687 19.8937 3.53438 19.7812 3.53438 19.6453C3.53438 19.5094 3.64687 19.3969 3.78281 19.3969H4.95938C5.09531 19.3969 5.20781 19.5094 5.20781 19.6453C5.20781 19.7812 5.09531 19.8937 4.95938 19.8937ZM8.50313 18.8906H7.32656C6.90938 18.8906 6.57188 19.2281 6.57188 19.6453C6.57188 20.0625 6.90938 20.4 7.32656 20.4H8.50313C8.92031 20.4 9.25781 20.0625 9.25781 19.6453C9.25781 19.2281 8.92031 18.8906 8.50313 18.8906ZM8.50313 19.8937H7.32656C7.19063 19.8937 7.07813 19.7812 7.07813 19.6453C7.07813 19.5094 7.19063 19.3969 7.32656 19.3969H8.50313C8.63906 19.3969 8.75156 19.5094 8.75156 19.6453C8.75156 19.7812 8.63906 19.8937 8.50313 19.8937ZM12.0469 18.8906H10.8703C10.4531 18.8906 10.1156 19.2281 10.1156 19.6453C10.1156 20.0625 10.4531 20.4 10.8703 20.4H12.0469C12.4641 20.4 12.8016 20.0625 12.8016 19.6453C12.8016 19.2281 12.4641 18.8906 12.0469 18.8906ZM12.0469 19.8937H10.8703C10.7344 19.8937 10.6219 19.7812 10.6219 19.6453C10.6219 19.5094 10.7344 19.3969 10.8703 19.3969H12.0469C12.1828 19.3969 12.2953 19.5094 12.2953 19.6453C12.2953 19.7812 12.1828 19.8937 12.0469 19.8937ZM4.95938 20.9766H3.78281C3.36562 20.9766 3.02812 21.3141 3.02812 21.7312C3.02812 22.1484 3.36562 22.4859 3.78281 22.4859H4.95938C5.37656 22.4859 5.71406 22.1484 5.71406 21.7312C5.71406 21.3141 5.37188 20.9766 4.95938 20.9766ZM4.95938 21.9797H3.78281C3.64687 21.9797 3.53438 21.8672 3.53438 21.7312C3.53438 21.5953 3.64687 21.4828 3.78281 21.4828H4.95938C5.09531 21.4828 5.20781 21.5953 5.20781 21.7312C5.20781 21.8672 5.09531 21.9797 4.95938 21.9797ZM8.50313 20.9766H7.32656C6.90938 20.9766 6.57188 21.3141 6.57188 21.7312C6.57188 22.1484 6.90938 22.4859 7.32656 22.4859H8.50313C8.92031 22.4859 9.25781 22.1484 9.25781 21.7312C9.25781 21.3141 8.92031 20.9766 8.50313 20.9766ZM8.50313 21.9797H7.32656C7.19063 21.9797 7.07813 21.8672 7.07813 21.7312C7.07813 21.5953 7.19063 21.4828 7.32656 21.4828H8.50313C8.63906 21.4828 8.75156 21.5953 8.75156 21.7312C8.75156 21.8672 8.63906 21.9797 8.50313 21.9797ZM12.0469 20.9766H10.8703C10.4531 20.9766 10.1156 21.3141 10.1156 21.7312C10.1156 22.1484 10.4531 22.4859 10.8703 22.4859H12.0469C12.4641 22.4859 12.8016 22.1484 12.8016 21.7312C12.8016 21.3141 12.4641 20.9766 12.0469 20.9766ZM12.0469 21.9797H10.8703C10.7344 21.9797 10.6219 21.8672 10.6219 21.7312C10.6219 21.5953 10.7344 21.4828 10.8703 21.4828H12.0469C12.1828 21.4828 12.2953 21.5953 12.2953 21.7312C12.2953 21.8672 12.1828 21.9797 12.0469 21.9797Z" fill="#B1BCCC"/>
<path d="M21.4781 10.0219H14.3156V6.17811C14.3156 5.48436 13.7484 4.91717 13.0547 4.91717H12.5766V4.4953C12.5766 3.86249 12.0656 3.35155 11.4328 3.35155H11.4281V0.253111C11.4281 0.0234235 11.1469 -0.0890765 10.9922 0.0796735L10.3594 0.764048L9.73126 0.0796735C9.63751 -0.0234515 9.45469 -0.0234515 9.36094 0.0796735L8.73282 0.759361L8.10001 0.0796735C8.00157 -0.028139 7.82813 -0.028139 7.72969 0.0796735L7.10157 0.759361L6.46876 0.0796735C6.37501 -0.0234515 6.19219 -0.0234515 6.09844 0.0796735L5.47032 0.759361L4.83751 0.0796735C4.68282 -0.0890765 4.40157 0.0234235 4.40157 0.253111V3.35155H4.39688C3.76407 3.35155 3.25313 3.86249 3.25313 4.4953V4.91717H2.77501C2.08126 4.91717 1.51407 5.48436 1.51407 6.17811V22.7344C1.51407 23.4281 2.08126 23.9953 2.77501 23.9953H13.0547C13.7484 23.9953 14.3156 23.4281 14.3156 22.7344V18.8953H21.4781C22.0359 18.8953 22.4859 18.4406 22.4859 17.8875C22.4859 10.9125 22.4859 17.8594 22.4859 11.0344C22.4859 10.4765 22.0359 10.0219 21.4781 10.0219ZM21.4781 10.5281C21.7547 10.5281 21.9844 10.7531 21.9844 11.0344V11.6859H14.3156V10.5281H21.4781ZM21.9844 13.6312H14.3156V12.1875H21.9844V13.6312ZM11.4281 3.8578C11.7797 3.8578 12.0656 4.14374 12.0656 4.4953V4.91717H11.4234L11.4281 3.8578ZM4.90782 0.899986L5.28282 1.3078C5.37657 1.41092 5.55938 1.41092 5.65313 1.3078L6.28126 0.628111L6.90938 1.3078C7.00313 1.41092 7.18594 1.41092 7.27969 1.3078L7.90782 0.628111L8.53594 1.3078C8.63438 1.41561 8.80782 1.41561 8.90626 1.3078L9.53438 0.628111L10.1719 1.3078C10.2656 1.41092 10.4484 1.41092 10.5422 1.3078L10.9172 0.899986V4.92186H4.90782V0.899986ZM3.75938 4.4953C3.75938 4.14374 4.04532 3.8578 4.39688 3.8578H4.40157V4.91717H3.75938V4.4953ZM13.8094 22.739C13.8094 23.1562 13.4719 23.4984 13.05 23.4984H2.77501C2.35782 23.4984 2.01563 23.1609 2.01563 22.739V6.1828C2.01563 5.76561 2.35313 5.42342 2.77501 5.42342C5.47032 5.42342 11.3344 5.42342 13.0547 5.42342C13.4719 5.42342 13.8141 5.76092 13.8141 6.1828C13.8094 12.4828 13.8094 16.7859 13.8094 22.739ZM21.4781 18.3937H14.3156V14.1375H21.9844V17.8875C21.9844 18.164 21.7547 18.3937 21.4781 18.3937Z" fill="#B1BCCC"/>
<path d="M20.9719 15.7219H17.4984C17.3578 15.7219 17.2453 15.8344 17.2453 15.975C17.2453 16.1156 17.3578 16.2281 17.4984 16.2281H20.9719C21.1125 16.2281 21.225 16.1156 21.225 15.975C21.225 15.8344 21.1125 15.7219 20.9719 15.7219ZM20.9719 17.1281H19.5609C19.4203 17.1281 19.3078 17.2406 19.3078 17.3812C19.3078 17.5219 19.4203 17.6344 19.5609 17.6344H20.9719C21.1125 17.6344 21.225 17.5219 21.225 17.3812C21.225 17.2406 21.1125 17.1281 20.9719 17.1281Z" fill="#B1BCCC"/>
</g>
<defs>
<clipPath id="clip0_8120_81284">
<rect width="24" height="24" fill="white"/>
</clipPath>
</defs>
</svg>
