<svg width="96" height="96" viewBox="0 0 96 96" fill="none" xmlns="http://www.w3.org/2000/svg">
<path opacity="0.12" d="M48 6C71.7484 6 91 24.3162 91 46.9097C91 69.5031 71.7484 87.8193 48 87.8193C24.2516 87.8193 5 69.5031 5 46.9097C5 24.3162 24.2516 6 48 6Z" fill="#CED4DA"/>
<path d="M43.1705 37.3545H45.6337V36.7187C45.6334 36.3379 45.7536 35.9657 45.9789 35.6501C46.2043 35.3346 46.5244 35.0902 46.898 34.9484C47.2716 34.8067 47.6815 34.7741 48.0748 34.8549C48.4682 34.9357 48.8269 35.1262 49.1047 35.4017C49.3826 35.1262 49.7413 34.9357 50.1346 34.8549C50.528 34.7741 50.9379 34.8067 51.3115 34.9484C51.6851 35.0902 52.0052 35.3346 52.2305 35.6501C52.4559 35.9657 52.5761 36.3379 52.5757 36.7187V37.3545H54.367C54.4265 37.3545 54.4835 37.3768 54.5255 37.4166C54.5676 37.4564 54.5912 37.5103 54.5912 37.5666V47.7357C54.5912 47.792 54.5676 47.8459 54.5255 47.8857C54.4835 47.9255 54.4265 47.9478 54.367 47.9478H43.1705C43.111 47.9478 43.054 47.9255 43.012 47.8857C42.9699 47.8459 42.9463 47.792 42.9463 47.7357V37.5666C42.9463 37.5103 42.9699 37.4564 43.012 37.4166C43.054 37.3768 43.111 37.3545 43.1705 37.3545ZM43.3946 47.2243L44.8038 45.891C44.8459 45.8513 44.9029 45.829 44.9623 45.829C45.0217 45.829 45.0787 45.8513 45.1207 45.891L46.5299 47.2243V37.7782H43.3941L43.3946 47.2243ZM43.7115 47.5241H46.213L44.9617 46.3407L43.7115 47.5241ZM47.6497 35.2365C47.2341 35.2369 46.8356 35.3933 46.5417 35.6714C46.2478 35.9494 46.0825 36.3265 46.0821 36.7197V37.3555H48.5454V36.7187C48.5449 36.3754 48.6431 36.0384 48.8294 35.7438C48.6825 35.5841 48.501 35.4562 48.2973 35.3686C48.0936 35.281 47.8724 35.2357 47.6487 35.236L47.6497 35.2365ZM49.1047 36.1701C49.0306 36.3448 48.9926 36.5314 48.9926 36.7197V37.3555H49.2168V36.7187C49.2167 36.5305 49.1784 36.3441 49.1042 36.1696L49.1047 36.1701ZM52.1279 36.7197C52.1283 36.4176 52.0312 36.1227 51.8495 35.8743C51.6678 35.6259 51.4102 35.436 51.1113 35.3299C50.8123 35.2239 50.4863 35.2068 50.1768 35.281C49.8673 35.3551 49.5891 35.517 49.3796 35.7448C49.5658 36.0395 49.664 36.3764 49.6636 36.7197V37.3555H52.1268L52.1279 36.7197ZM54.1434 47.5246V37.7782H52.5752V38.414C52.5724 38.4683 52.5476 38.5196 52.5059 38.5572C52.4642 38.5947 52.4088 38.6157 52.3513 38.6157C52.2937 38.6157 52.2384 38.5947 52.1967 38.5572C52.155 38.5196 52.1302 38.4683 52.1274 38.414V37.7782H48.9926V38.414C48.9941 38.4427 48.9894 38.4713 48.9789 38.4983C48.9683 38.5252 48.952 38.5498 48.9311 38.5706C48.9102 38.5914 48.885 38.608 48.8571 38.6193C48.8292 38.6306 48.7991 38.6365 48.7687 38.6365C48.7384 38.6365 48.7083 38.6306 48.6804 38.6193C48.6525 38.608 48.6273 38.5914 48.6064 38.5706C48.5854 38.5498 48.5692 38.5252 48.5586 38.4983C48.548 38.4713 48.5433 38.4427 48.5448 38.414V37.7782H46.9772V47.5241L54.1434 47.5246Z" fill="#CED4DA"/>
<path d="M44.9617 44.771C44.9023 44.771 44.8453 44.7487 44.8032 44.7089C44.7612 44.6691 44.7376 44.6152 44.7376 44.5589V38.202C44.7361 38.1733 44.7408 38.1446 44.7514 38.1177C44.7619 38.0908 44.7782 38.0661 44.7991 38.0453C44.8201 38.0245 44.8453 38.008 44.8732 37.9967C44.9011 37.9853 44.9311 37.9795 44.9615 37.9795C44.9919 37.9795 45.0219 37.9853 45.0498 37.9967C45.0777 38.008 45.1029 38.0245 45.1238 38.0453C45.1448 38.0661 45.161 38.0908 45.1716 38.1177C45.1822 38.1446 45.1869 38.1733 45.1854 38.202V44.5579C45.1855 44.5858 45.1799 44.6135 45.1687 44.6393C45.1575 44.6651 45.1411 44.6886 45.1203 44.7084C45.0995 44.7282 45.0748 44.7439 45.0476 44.7546C45.0204 44.7654 44.9912 44.771 44.9617 44.771Z" fill="#CED4DA"/>
<path d="M44.9614 45.6171C44.902 45.6171 44.845 45.5948 44.803 45.555C44.7609 45.5152 44.7373 45.4613 44.7373 45.405V45.1929C44.7401 45.1385 44.7649 45.0873 44.8066 45.0497C44.8483 45.0122 44.9036 44.9912 44.9612 44.9912C45.0187 44.9912 45.0741 45.0122 45.1157 45.0497C45.1574 45.0873 45.1822 45.1385 45.1851 45.1929V45.405C45.1851 45.4612 45.1615 45.5151 45.1196 45.5548C45.0777 45.5946 45.0208 45.617 44.9614 45.6171Z" fill="#CED4DA"/>
<path d="M36.1215 31.7561H34.4421V30.8217C34.9394 30.4671 35.3424 30.0104 35.6198 29.4871C35.8973 28.9637 36.0416 28.3878 36.0417 27.804V27.1325H36.4416C36.5052 27.1325 36.5662 27.1089 36.6112 27.067C36.6562 27.025 36.6814 26.9681 36.6814 26.9088C36.6814 26.6902 36.4504 26.4503 36.0417 26.2337V25.4186C36.0417 24.4099 35.612 23.4425 34.8472 22.7292C34.0824 22.0159 33.045 21.6152 31.9634 21.6152C30.8818 21.6152 29.8444 22.0159 29.0796 22.7292C28.3148 23.4425 27.8851 24.4099 27.8851 25.4186V26.2337C27.4764 26.4513 27.2453 26.6923 27.2453 26.9088C27.2453 26.9681 27.2706 27.025 27.3156 27.067C27.3606 27.1089 27.4216 27.1325 27.4852 27.1325H27.8851V27.804C27.8852 28.3878 28.0295 28.9637 28.307 29.4871C28.5844 30.0104 28.9874 30.4671 29.4847 30.8217V31.7561H27.8048C27.3171 31.7565 26.8494 31.9373 26.5046 32.259C26.1597 32.5806 25.9657 33.0167 25.9653 33.4715V34.6632C25.9653 34.7225 25.9906 34.7794 26.0356 34.8214C26.0805 34.8633 26.1415 34.8869 26.2051 34.8869C26.2688 34.8869 26.3298 34.8633 26.3747 34.8214C26.4197 34.7794 26.445 34.7225 26.445 34.6632V33.4705C26.4457 33.1346 26.5892 32.8127 26.844 32.5753C27.0987 32.3379 27.4441 32.2043 27.8042 32.2039H29.6508L30.5501 32.7643L30.561 32.7699L30.5752 32.7776L30.5959 32.7863L30.6096 32.7913L30.6336 32.797H30.6462C30.6578 32.7986 30.6695 32.7994 30.6812 32.7995C30.6944 32.7993 30.7075 32.7981 30.7205 32.7959L30.7391 32.7929L31.9607 32.5081L33.1822 32.7929L33.2014 32.7964C33.2142 32.7984 33.2272 32.7995 33.2402 32.7995C33.2519 32.7994 33.2635 32.7986 33.2751 32.797H33.2877C33.2958 32.7955 33.3038 32.7936 33.3117 32.7913L33.3254 32.7863L33.3461 32.7776L33.3603 32.7699L33.3713 32.7643L34.2705 32.2039H36.1171C36.4775 32.2043 36.8229 32.338 37.0778 32.5756C37.3326 32.8133 37.4759 33.1354 37.4763 33.4715V36.4398H26.4406V35.5594C26.4406 35.5001 26.4153 35.4432 26.3704 35.4012C26.3254 35.3593 26.2644 35.3357 26.2008 35.3357C26.1372 35.3357 26.0762 35.3593 26.0312 35.4012C25.9862 35.4432 25.9609 35.5001 25.9609 35.5594V36.6609C25.9611 36.7202 25.9864 36.777 26.0313 36.8189C26.0763 36.8608 26.1372 36.8844 26.2008 36.8846H37.7211C37.7847 36.8846 37.8457 36.861 37.8907 36.8191C37.9357 36.7771 37.9609 36.7202 37.9609 36.6609V33.4715C37.9604 33.0167 37.7664 32.5807 37.4215 32.2591C37.0767 31.9375 36.6091 31.7566 36.1215 31.7561ZM28.3642 25.417C28.3642 24.527 28.7434 23.6734 29.4182 23.044C30.0931 22.4146 31.0084 22.061 31.9628 22.061C32.9173 22.061 33.8326 22.4146 34.5075 23.044C35.1823 23.6734 35.5615 24.527 35.5615 25.417V26.0187L35.4883 25.9917C34.3559 25.625 33.1609 25.4556 31.9628 25.4919C30.7648 25.4556 29.5698 25.625 28.4374 25.9917L28.3642 26.0187V25.417ZM28.7253 26.3688C29.7703 26.0542 30.8653 25.909 31.9628 25.9393C33.0604 25.909 34.1554 26.0542 35.2004 26.3688C35.4491 26.449 35.6874 26.5551 35.9106 26.6851H28.0151C28.2385 26.5551 28.477 26.449 28.7259 26.3688H28.7253ZM31.723 32.1035L30.7282 32.3354L29.9633 31.86V31.1177C30.5024 31.4018 31.1042 31.5669 31.7225 31.6002L31.723 32.1035ZM33.9629 31.86L33.1981 32.3354L32.2032 32.1035V31.5997C32.8215 31.5664 33.4233 31.4013 33.9624 31.1172V31.8595L33.9629 31.86ZM32.0126 31.1589C31.9805 31.1528 31.9474 31.1528 31.9153 31.1589C30.9696 31.1464 30.0671 30.7874 29.4027 30.1596C28.7383 29.5318 28.3653 28.6855 28.3642 27.8035V27.1325H35.5615V27.804C35.5603 28.6858 35.1874 29.5318 34.5232 30.1595C33.8591 30.7871 32.9569 31.1461 32.0115 31.1589H32.0126Z" fill="#CED4DA"/>
<path d="M31.9626 23.1055C31.7886 23.1055 31.6186 23.1536 31.4739 23.2437C31.3293 23.3338 31.2165 23.462 31.15 23.6118C31.0834 23.7617 31.066 23.9267 31.0999 24.0858C31.1338 24.2449 31.2176 24.391 31.3406 24.5058C31.4636 24.6205 31.6204 24.6986 31.791 24.7303C31.9616 24.7619 32.1385 24.7457 32.2992 24.6836C32.4599 24.6215 32.5973 24.5164 32.6939 24.3815C32.7906 24.2466 32.8422 24.088 32.8422 23.9257C32.8419 23.7083 32.7491 23.4998 32.5842 23.346C32.4193 23.1922 32.1958 23.1057 31.9626 23.1055ZM31.9626 24.2987C31.8835 24.2987 31.8062 24.2768 31.7404 24.2358C31.6746 24.1949 31.6234 24.1366 31.5931 24.0685C31.5629 24.0003 31.5549 23.9253 31.5704 23.853C31.5858 23.7806 31.6239 23.7142 31.6798 23.662C31.7357 23.6099 31.807 23.5744 31.8846 23.56C31.9621 23.5456 32.0426 23.553 32.1156 23.5812C32.1887 23.6094 32.2512 23.6572 32.2951 23.7185C32.339 23.7799 32.3625 23.852 32.3625 23.9257C32.3622 24.0245 32.32 24.1192 32.245 24.189C32.1701 24.2588 32.0685 24.298 31.9626 24.2982V24.2987Z" fill="white"/>
<path d="M74.4506 58.0979H72.7712V57.1635C73.2685 56.8089 73.6715 56.3522 73.9489 55.8289C74.2264 55.3055 74.3707 54.7296 74.3708 54.1458V53.4743H74.7707C74.8343 53.4743 74.8953 53.4507 74.9403 53.4088C74.9853 53.3668 75.0105 53.3099 75.0105 53.2506C75.0105 53.032 74.7795 52.7921 74.3708 52.5755V51.7604C74.3708 50.7517 73.9411 49.7843 73.1763 49.071C72.4115 48.3577 71.3741 47.957 70.2925 47.957C69.2109 47.957 68.1735 48.3577 67.4087 49.071C66.6439 49.7843 66.2142 50.7517 66.2142 51.7604V52.5755C65.8055 52.7931 65.5744 53.0341 65.5744 53.2506C65.5744 53.3099 65.5997 53.3668 65.6447 53.4088C65.6897 53.4507 65.7507 53.4743 65.8143 53.4743H66.2142V54.1458C66.2143 54.7296 66.3586 55.3055 66.6361 55.8289C66.9135 56.3522 67.3165 56.8089 67.8138 57.1635V58.0979H66.1339C65.6462 58.0983 65.1785 58.2791 64.8337 58.6008C64.4888 58.9224 64.2948 59.3585 64.2944 59.8133V61.005C64.2944 61.0643 64.3197 61.1212 64.3647 61.1632C64.4096 61.2051 64.4706 61.2287 64.5342 61.2287C64.5979 61.2287 64.6589 61.2051 64.7038 61.1632C64.7488 61.1212 64.7741 61.0643 64.7741 61.005V59.8123C64.7748 59.4764 64.9183 59.1545 65.1731 58.9171C65.4278 58.6797 65.7732 58.5461 66.1333 58.5457H67.9799L68.8792 59.1062L68.8901 59.1118L68.9043 59.1194L68.925 59.1281L68.9387 59.1332L68.9627 59.1388H68.9753C68.9869 59.1404 68.9986 59.1412 69.0103 59.1413C69.0235 59.1411 69.0366 59.1399 69.0496 59.1377L69.0682 59.1347L70.2898 58.8499L71.5113 59.1347L71.5305 59.1382C71.5433 59.1402 71.5563 59.1413 71.5693 59.1413C71.581 59.1413 71.5926 59.1404 71.6042 59.1388H71.6168C71.6249 59.1373 71.6329 59.1354 71.6408 59.1332L71.6545 59.1281L71.6752 59.1194L71.6894 59.1118L71.7004 59.1062L72.5996 58.5457H74.4462C74.8066 58.5461 75.152 58.6798 75.4069 58.9174C75.6617 59.1551 75.805 59.4773 75.8054 59.8133V62.7816H64.7697V61.9012C64.7697 61.8419 64.7444 61.785 64.6995 61.743C64.6545 61.7011 64.5935 61.6775 64.5299 61.6775C64.4663 61.6775 64.4053 61.7011 64.3603 61.743C64.3153 61.785 64.29 61.8419 64.29 61.9012V63.0027C64.2902 63.062 64.3155 63.1188 64.3604 63.1607C64.4054 63.2026 64.4663 63.2262 64.5299 63.2264H76.0502C76.1138 63.2264 76.1748 63.2028 76.2198 63.1609C76.2648 63.1189 76.29 63.062 76.29 63.0027V59.8133C76.2895 59.3585 76.0955 58.9225 75.7506 58.6009C75.4058 58.2793 74.9382 58.0984 74.4506 58.0979ZM66.6933 51.7588C66.6933 50.8688 67.0725 50.0152 67.7473 49.3858C68.4222 48.7564 69.3375 48.4028 70.292 48.4028C71.2464 48.4028 72.1617 48.7564 72.8366 49.3858C73.5114 50.0152 73.8906 50.8688 73.8906 51.7588V52.3605L73.8174 52.3335C72.685 51.9668 71.49 51.7974 70.292 51.8337C69.0939 51.7974 67.8989 51.9668 66.7665 52.3335L66.6933 52.3605V51.7588ZM67.0544 52.7106C68.0994 52.396 69.1944 52.2508 70.292 52.2811C71.3895 52.2508 72.4845 52.396 73.5295 52.7106C73.7782 52.7908 74.0165 52.8969 74.2397 53.0269H66.3442C66.5676 52.8969 66.8061 52.7908 67.055 52.7106H67.0544ZM70.0521 58.4453L69.0573 58.6772L68.2924 58.2018V57.4595C68.8315 57.7436 69.4333 57.9087 70.0516 57.942L70.0521 58.4453ZM72.292 58.2018L71.5272 58.6772L70.5323 58.4453V57.9415C71.1506 57.9082 71.7524 57.7431 72.2915 57.459V58.2013L72.292 58.2018ZM70.3417 57.5008C70.3096 57.4946 70.2765 57.4946 70.2444 57.5008C69.2987 57.4882 68.3962 57.1292 67.7318 56.5014C67.0674 55.8736 66.6944 55.0273 66.6933 54.1453V53.4743H73.8906V54.1458C73.8894 55.0276 73.5165 55.8736 72.8523 56.5013C72.1882 57.1289 71.286 57.4879 70.3406 57.5008H70.3417Z" fill="#CED4DA"/>
<path d="M70.2917 49.4473C70.1177 49.4473 69.9477 49.4954 69.803 49.5855C69.6584 49.6756 69.5456 49.8037 69.4791 49.9536C69.4125 50.1035 69.3951 50.2684 69.429 50.4276C69.463 50.5867 69.5467 50.7328 69.6697 50.8475C69.7927 50.9623 69.9495 51.0404 70.1201 51.072C70.2907 51.1037 70.4676 51.0874 70.6283 51.0254C70.789 50.9633 70.9264 50.8581 71.023 50.7232C71.1197 50.5884 71.1713 50.4298 71.1713 50.2675C71.171 50.0501 71.0782 49.8416 70.9133 49.6878C70.7484 49.534 70.5249 49.4475 70.2917 49.4473ZM70.2917 50.6405C70.2126 50.6405 70.1353 50.6186 70.0695 50.5776C70.0037 50.5366 69.9525 50.4784 69.9222 50.4103C69.892 50.3421 69.884 50.2671 69.8995 50.1948C69.9149 50.1224 69.953 50.056 70.0089 50.0038C70.0648 49.9517 70.1361 49.9161 70.2137 49.9018C70.2912 49.8874 70.3717 49.8948 70.4447 49.923C70.5178 49.9512 70.5803 49.999 70.6242 50.0603C70.6681 50.1217 70.6916 50.1938 70.6916 50.2675C70.6913 50.3663 70.6491 50.461 70.5741 50.5308C70.4992 50.6006 70.3976 50.6398 70.2917 50.64V50.6405Z" fill="#CED4DA"/>
<path d="M84.1547 16.4431H82.4753V15.5087C82.9726 15.1541 83.3756 14.6974 83.653 14.1741C83.9305 13.6507 84.0748 13.0748 84.0749 12.491V11.8195H84.4748C84.5384 11.8195 84.5994 11.7959 84.6444 11.754C84.6894 11.712 84.7146 11.6551 84.7146 11.5958C84.7146 11.3773 84.4836 11.1373 84.0749 10.9208V10.1056C84.0749 9.09687 83.6452 8.12948 82.8804 7.41621C82.1156 6.70295 81.0782 6.30225 79.9966 6.30225C78.915 6.30225 77.8776 6.70295 77.1128 7.41621C76.348 8.12948 75.9183 9.09687 75.9183 10.1056V10.9208C75.5096 11.1383 75.2785 11.3793 75.2785 11.5958C75.2785 11.6551 75.3038 11.712 75.3488 11.754C75.3938 11.7959 75.4548 11.8195 75.5184 11.8195H75.9183V12.491C75.9184 13.0748 76.0627 13.6507 76.3402 14.1741C76.6176 14.6974 77.0206 15.1541 77.5179 15.5087V16.4431H75.838C75.3503 16.4435 74.8826 16.6244 74.5378 16.946C74.1929 17.2676 73.9989 17.7037 73.9985 18.1585V19.3502C73.9985 19.4095 74.0238 19.4664 74.0688 19.5084C74.1137 19.5503 74.1747 19.5739 74.2383 19.5739C74.302 19.5739 74.363 19.5503 74.4079 19.5084C74.4529 19.4664 74.4782 19.4095 74.4782 19.3502V18.1575C74.4789 17.8216 74.6224 17.4997 74.8772 17.2623C75.1319 17.0249 75.4773 16.8913 75.8374 16.8909H77.684L78.5833 17.4514L78.5942 17.457L78.6084 17.4646L78.6292 17.4733L78.6428 17.4784L78.6668 17.484H78.6794C78.691 17.4856 78.7027 17.4865 78.7144 17.4865C78.7276 17.4863 78.7407 17.4851 78.7537 17.4829L78.7723 17.4799L79.9939 17.1951L81.2154 17.4799L81.2346 17.4835C81.2474 17.4854 81.2604 17.4865 81.2734 17.4865C81.2851 17.4865 81.2967 17.4856 81.3083 17.484H81.3209C81.329 17.4825 81.337 17.4806 81.3449 17.4784L81.3586 17.4733L81.3793 17.4646L81.3935 17.457L81.4045 17.4514L82.3037 16.8909H84.1503C84.5107 16.8913 84.8561 17.025 85.111 17.2626C85.3658 17.5003 85.5091 17.8225 85.5096 18.1585V21.1268H74.4738V20.2464C74.4738 20.1871 74.4485 20.1302 74.4036 20.0883C74.3586 20.0463 74.2976 20.0227 74.234 20.0227C74.1704 20.0227 74.1094 20.0463 74.0644 20.0883C74.0194 20.1302 73.9941 20.1871 73.9941 20.2464V21.3479C73.9943 21.4072 74.0196 21.464 74.0645 21.5059C74.1095 21.5478 74.1704 21.5715 74.234 21.5716H85.7543C85.8179 21.5716 85.8789 21.548 85.9239 21.5061C85.9689 21.4641 85.9941 21.4072 85.9941 21.3479V18.1585C85.9936 17.7037 85.7996 17.2677 85.4547 16.9461C85.1099 16.6245 84.6423 16.4436 84.1547 16.4431ZM76.3974 10.104C76.3974 9.21398 76.7766 8.36037 77.4514 7.731C78.1263 7.10162 79.0416 6.74805 79.9961 6.74805C80.9505 6.74805 81.8658 7.10162 82.5407 7.731C83.2155 8.36037 83.5947 9.21398 83.5947 10.104V10.7057L83.5215 10.6787C82.3891 10.3121 81.1941 10.1426 79.9961 10.1789C78.798 10.1426 77.603 10.3121 76.4706 10.6787L76.3974 10.7057V10.104ZM76.7585 11.0558C77.8035 10.7413 78.8985 10.596 79.9961 10.6263C81.0936 10.596 82.1886 10.7413 83.2336 11.0558C83.4823 11.136 83.7206 11.2421 83.9438 11.3722H76.0483C76.2717 11.2421 76.5102 11.136 76.7591 11.0558H76.7585ZM79.7562 16.7906L78.7614 17.0224L77.9965 16.547V15.8047C78.5356 16.0888 79.1374 16.2539 79.7557 16.2872L79.7562 16.7906ZM81.9961 16.547L81.2313 17.0224L80.2364 16.7906V16.2867C80.8547 16.2534 81.4565 16.0883 81.9956 15.8042V16.5465L81.9961 16.547ZM80.0458 15.846C80.0137 15.8398 79.9806 15.8398 79.9485 15.846C79.0028 15.8334 78.1003 15.4745 77.4359 14.8467C76.7715 14.2188 76.3985 13.3726 76.3974 12.4905V11.8195H83.5947V12.491C83.5935 13.3728 83.2206 14.2188 82.5564 14.8465C81.8923 15.4741 80.9901 15.8331 80.0447 15.846H80.0458Z" fill="#CED4DA"/>
<path d="M79.9958 7.79248C79.8218 7.79248 79.6518 7.84059 79.5071 7.93072C79.3625 8.02086 79.2497 8.14897 79.1832 8.29885C79.1166 8.44874 79.0992 8.61367 79.1331 8.77279C79.1671 8.93191 79.2508 9.07807 79.3738 9.19278C79.4968 9.3075 79.6536 9.38562 79.8242 9.41728C79.9948 9.44893 80.1717 9.43268 80.3324 9.3706C80.4931 9.30851 80.6305 9.20337 80.7271 9.06848C80.8238 8.93359 80.8754 8.77499 80.8754 8.61276C80.8751 8.39529 80.7823 8.18681 80.6174 8.03303C80.4525 7.87926 80.229 7.79275 79.9958 7.79248ZM79.9958 8.9857C79.9167 8.9857 79.8394 8.96383 79.7736 8.92285C79.7078 8.88187 79.6566 8.82363 79.6263 8.75548C79.5961 8.68733 79.5881 8.61234 79.6036 8.54C79.619 8.46766 79.6571 8.4012 79.713 8.34905C79.7689 8.29689 79.8402 8.26137 79.9178 8.24698C79.9954 8.23259 80.0758 8.23997 80.1488 8.2682C80.2219 8.29643 80.2844 8.34423 80.3283 8.40556C80.3722 8.46689 80.3957 8.539 80.3957 8.61276C80.3954 8.71154 80.3532 8.80619 80.2782 8.87599C80.2033 8.94579 80.1017 8.98506 79.9958 8.9852V8.9857Z" fill="#CED4DA"/>
<path d="M21.5658 71.5827H19.8864V70.6483C20.3837 70.2938 20.7867 69.8371 21.0642 69.3137C21.3416 68.7904 21.4859 68.2144 21.486 67.6306V66.9591H21.8859C21.9496 66.9591 22.0106 66.9356 22.0555 66.8936C22.1005 66.8517 22.1258 66.7948 22.1258 66.7355C22.1258 66.5169 21.8947 66.2769 21.486 66.0604V65.2452C21.486 64.2365 21.0564 63.2691 20.2915 62.5559C19.5267 61.8426 18.4894 61.4419 17.4077 61.4419C16.3261 61.4419 15.2888 61.8426 14.5239 62.5559C13.7591 63.2691 13.3294 64.2365 13.3294 65.2452V66.0604C12.9208 66.2779 12.6897 66.5189 12.6897 66.7355C12.6897 66.7948 12.715 66.8517 12.7599 66.8936C12.8049 66.9356 12.8659 66.9591 12.9295 66.9591H13.3294V67.6306C13.3295 68.2144 13.4739 68.7904 13.7513 69.3137C14.0287 69.8371 14.4317 70.2938 14.9291 70.6483V71.5827H13.2491C12.7614 71.5831 12.2938 71.764 11.9489 72.0856C11.604 72.4072 11.4101 72.8433 11.4096 73.2982V74.4899C11.4096 74.5492 11.4349 74.6061 11.4799 74.648C11.5249 74.69 11.5859 74.7135 11.6495 74.7135C11.7131 74.7135 11.7741 74.69 11.8191 74.648C11.864 74.6061 11.8893 74.5492 11.8893 74.4899V73.2972C11.89 72.9613 12.0335 72.6393 12.2883 72.4019C12.5431 72.1645 12.8884 72.031 13.2486 72.0306H15.0951L15.9944 72.591L16.0053 72.5966L16.0195 72.6043L16.0403 72.6129L16.0539 72.618L16.078 72.6236H16.0905C16.1021 72.6252 16.1138 72.6261 16.1255 72.6262C16.1387 72.626 16.1519 72.6248 16.1648 72.6226L16.1834 72.6195L17.405 72.3347L18.6266 72.6195L18.6457 72.6231C18.6585 72.6251 18.6715 72.6261 18.6845 72.6262C18.6962 72.6261 18.7079 72.6253 18.7195 72.6236H18.732C18.7401 72.6221 18.7482 72.6203 18.7561 72.618L18.7697 72.6129L18.7905 72.6043L18.8047 72.5966L18.8156 72.591L19.7149 72.0306H21.5614C21.9218 72.031 22.2673 72.1647 22.5221 72.4023C22.7769 72.6399 22.9202 72.9621 22.9207 73.2982V76.2664H11.8849V75.3861C11.8849 75.3267 11.8597 75.2698 11.8147 75.2279C11.7697 75.186 11.7087 75.1624 11.6451 75.1624C11.5815 75.1624 11.5205 75.186 11.4755 75.2279C11.4305 75.2698 11.4053 75.3267 11.4053 75.3861V76.4876C11.4054 76.5468 11.4307 76.6037 11.4757 76.6456C11.5206 76.6875 11.5815 76.7111 11.6451 76.7112H23.1654C23.229 76.7112 23.29 76.6877 23.335 76.6457C23.38 76.6038 23.4053 76.5469 23.4053 76.4876V73.2982C23.4047 72.8434 23.2107 72.4074 22.8659 72.0858C22.521 71.7642 22.0535 71.5833 21.5658 71.5827ZM13.8086 65.2437C13.8086 64.3536 14.1877 63.5 14.8626 62.8706C15.5374 62.2413 16.4528 61.8877 17.4072 61.8877C18.3616 61.8877 19.2769 62.2413 19.9518 62.8706C20.6267 63.5 21.0058 64.3536 21.0058 65.2437V65.8454L20.9326 65.8184C19.8002 65.4517 18.6052 65.2823 17.4072 65.3186C16.2091 65.2823 15.0141 65.4517 13.8818 65.8184L13.8086 65.8454V65.2437ZM14.1697 66.1954C15.2146 65.8809 16.3096 65.7356 17.4072 65.7659C18.5047 65.7356 19.5997 65.8809 20.6447 66.1954C20.8934 66.2756 21.1317 66.3818 21.3549 66.5118H13.4595C13.6829 66.3818 13.9213 66.2756 14.1702 66.1954H14.1697ZM17.1673 71.9302L16.1725 72.162L15.4076 71.6867V70.9443C15.9468 71.2285 16.5486 71.3935 17.1668 71.4268L17.1673 71.9302ZM19.4073 71.6867L18.6424 72.162L17.6476 71.9302V71.4263C18.2658 71.393 18.8676 71.228 19.4067 70.9438V71.6862L19.4073 71.6867ZM17.4569 70.9856C17.4248 70.9795 17.3917 70.9795 17.3597 70.9856C16.4139 70.973 15.5114 70.6141 14.847 69.9863C14.1826 69.3585 13.8096 68.5122 13.8086 67.6301V66.9591H21.0058V67.6306C21.0046 68.5124 20.6317 69.3585 19.9676 69.9861C19.3034 70.6138 18.4013 70.9728 17.4558 70.9856H17.4569Z" fill="#CED4DA"/>
<path d="M17.4069 62.9321C17.233 62.9321 17.0629 62.9802 16.9183 63.0704C16.7736 63.1605 16.6609 63.2886 16.5943 63.4385C16.5277 63.5884 16.5103 63.7533 16.5442 63.9124C16.5782 64.0716 16.662 64.2177 16.785 64.3324C16.908 64.4472 17.0647 64.5253 17.2353 64.5569C17.4059 64.5886 17.5828 64.5723 17.7435 64.5103C17.9042 64.4482 18.0416 64.343 18.1383 64.2081C18.2349 64.0732 18.2865 63.9146 18.2865 63.7524C18.2862 63.5349 18.1935 63.3265 18.0286 63.1727C17.8637 63.0189 17.6401 62.9324 17.4069 62.9321ZM17.4069 64.1254C17.3278 64.1254 17.2505 64.1035 17.1847 64.0625C17.119 64.0215 17.0677 63.9633 17.0375 63.8951C17.0072 63.827 16.9993 63.752 17.0147 63.6797C17.0301 63.6073 17.0682 63.5409 17.1241 63.4887C17.1801 63.4365 17.2513 63.401 17.3289 63.3866C17.4065 63.3722 17.4869 63.3796 17.56 63.4079C17.633 63.4361 17.6955 63.4839 17.7394 63.5452C17.7834 63.6065 17.8068 63.6786 17.8068 63.7524C17.8065 63.8512 17.7643 63.9458 17.6894 64.0156C17.6144 64.0854 17.5128 64.1247 17.4069 64.1248V64.1254Z" fill="#CED4DA"/>
<path d="M46.9263 33.3537C46.9263 33.3537 48.1062 28.4931 36.949 28.652" stroke="#CED4DA" stroke-dasharray="2 2"/>
<rect x="0.5" y="0.5" width="95" height="95" rx="7.1" stroke="#E9ECEF"/>
</svg>
