<svg width="96" height="96" viewBox="0 0 96 96" fill="none" xmlns="http://www.w3.org/2000/svg">
<path d="M48.8231 44.2119L48.8228 44.2116L48.8231 44.2119ZM48.8231 44.2119L48.8229 44.2119M48.8231 44.2119L48.8229 44.2119M48.8231 44.2119L48.8239 44.2126L48.8231 44.2119ZM48.8229 44.2119L48.8224 44.2121L48.8229 44.2119ZM48.822 44.2116L48.8219 44.2119L48.822 44.2116ZM48.822 44.2116L48.8218 44.2119M48.822 44.2116L48.8218 44.2119M48.822 44.2116L48.8218 44.2119M48.822 44.2116L48.8218 44.2119M48.822 44.2116L48.8222 44.2111L48.822 44.2116ZM48.7432 41.676C48.7754 41.596 48.813 41.518 48.8556 41.4425L48.914 41.5034L49.0048 41.6543C49.0293 41.6949 49.0517 41.7367 49.0721 41.7792L49.0445 41.7975L48.7432 41.676Z" fill="#CED4DA" stroke="#CED4DA"/>
<mask id="path-2-inside-1" fill="white">
<path d="M45.0155 50.8837C44.956 50.8837 44.899 50.8602 44.857 50.8184C44.8149 50.7766 44.7913 50.7199 44.7913 50.6607V43.979C44.7898 43.9488 44.7945 43.9187 44.8051 43.8904C44.8156 43.8621 44.8319 43.8362 44.8528 43.8143C44.8738 43.7925 44.899 43.775 44.9269 43.7632C44.9548 43.7513 44.9848 43.7451 45.0152 43.7451C45.0456 43.7451 45.0756 43.7513 45.1035 43.7632C45.1314 43.775 45.1566 43.7925 45.1776 43.8143C45.1985 43.8362 45.2147 43.8621 45.2253 43.8904C45.2359 43.9187 45.2406 43.9488 45.2391 43.979V50.6597C45.2393 50.689 45.2336 50.718 45.2224 50.7452C45.2112 50.7723 45.1948 50.797 45.174 50.8178C45.1532 50.8386 45.1285 50.8551 45.1013 50.8664C45.0741 50.8777 45.0449 50.8836 45.0155 50.8837Z"/>
</mask>
<path d="M45.0155 50.8837C44.956 50.8837 44.899 50.8602 44.857 50.8184C44.8149 50.7766 44.7913 50.7199 44.7913 50.6607V43.979C44.7898 43.9488 44.7945 43.9187 44.8051 43.8904C44.8156 43.8621 44.8319 43.8362 44.8528 43.8143C44.8738 43.7925 44.899 43.775 44.9269 43.7632C44.9548 43.7513 44.9848 43.7451 45.0152 43.7451C45.0456 43.7451 45.0756 43.7513 45.1035 43.7632C45.1314 43.775 45.1566 43.7925 45.1776 43.8143C45.1985 43.8362 45.2147 43.8621 45.2253 43.8904C45.2359 43.9187 45.2406 43.9488 45.2391 43.979V50.6597C45.2393 50.689 45.2336 50.718 45.2224 50.7452C45.2112 50.7723 45.1948 50.797 45.174 50.8178C45.1532 50.8386 45.1285 50.8551 45.1013 50.8664C45.0741 50.8777 45.0449 50.8836 45.0155 50.8837Z" fill="#CED4DA"/>
<path d="M44.7913 43.979H45.7913V43.9543L45.7901 43.9297L44.7913 43.979ZM45.0152 43.7451V42.7451V43.7451ZM45.2391 43.979L44.2403 43.9297L44.2391 43.9543V43.979H45.2391ZM45.2391 50.6597H44.2391L44.2391 50.6645L45.2391 50.6597ZM45.0155 49.8837C45.2195 49.8837 45.4162 49.9642 45.5621 50.1093L44.1518 51.5274C44.3818 51.7561 44.6925 51.8837 45.0155 51.8837V49.8837ZM45.5621 50.1093C45.7081 50.2545 45.7913 50.4528 45.7913 50.6607H43.7913C43.7913 50.9869 43.9217 51.2986 44.1518 51.5274L45.5621 50.1093ZM45.7913 50.6607V43.979H43.7913V50.6607H45.7913ZM45.7901 43.9297C45.7953 44.0356 45.7788 44.1414 45.7418 44.2405L43.8684 43.5402C43.8102 43.6959 43.7843 43.862 43.7925 44.0283L45.7901 43.9297ZM45.7418 44.2405C45.7047 44.3397 45.6479 44.4299 45.5752 44.5059L44.1305 43.1228C44.0159 43.2425 43.9266 43.3845 43.8684 43.5402L45.7418 44.2405ZM45.5752 44.5059C45.5023 44.582 45.4151 44.6421 45.319 44.6831L44.5348 42.8432C44.3829 42.908 44.2452 43.0029 44.1305 43.1228L45.5752 44.5059ZM45.319 44.6831C45.2229 44.724 45.1196 44.7451 45.0152 44.7451V42.7451C44.8501 42.7451 44.6866 42.7785 44.5348 42.8432L45.319 44.6831ZM45.0152 44.7451C44.9109 44.7451 44.8075 44.724 44.7114 44.6831L45.4957 42.8432C45.3437 42.7785 45.1803 42.7451 45.0152 42.7451V44.7451ZM44.7114 44.6831C44.6151 44.642 44.5279 44.5818 44.4552 44.5059L45.8999 43.1228C45.7853 43.0031 45.6478 42.9081 45.4957 42.8432L44.7114 44.6831ZM44.4552 44.5059C44.3825 44.4299 44.3257 44.3397 44.2886 44.2405L46.162 43.5402C46.1038 43.3845 46.0145 43.2425 45.8999 43.1228L44.4552 44.5059ZM44.2886 44.2405C44.2516 44.1414 44.2351 44.0356 44.2403 43.9297L46.2379 44.0283C46.2461 43.862 46.2202 43.6959 46.162 43.5402L44.2886 44.2405ZM44.2391 43.979V50.6597H46.2391V43.979H44.2391ZM44.2391 50.6645C44.2386 50.5618 44.2585 50.4598 44.2977 50.3646L46.1472 51.1258C46.2087 50.9763 46.2399 50.8162 46.2391 50.6548L44.2391 50.6645ZM44.2977 50.3646C44.3369 50.2693 44.3944 50.1833 44.4663 50.1113L45.8817 51.5243C45.9952 51.4106 46.0856 51.2753 46.1472 51.1258L44.2977 50.3646ZM44.4663 50.1113C44.5384 50.039 44.6239 49.9819 44.7177 49.9429L45.485 51.7899C45.6332 51.7284 45.768 51.6382 45.8817 51.5243L44.4663 50.1113ZM44.7177 49.9429C44.8114 49.904 44.9118 49.8839 45.0131 49.8837L45.0178 51.8837C45.1781 51.8833 45.3369 51.8515 45.485 51.7899L44.7177 49.9429Z" fill="#CED4DA" mask="url(#path-2-inside-1)"/>
<path d="M45.0152 51.2736C45.0346 51.2736 45.0538 51.2757 45.0725 51.2797C45.1109 51.2878 45.1472 51.3042 45.179 51.3277H45.027H45.0152V51.2736ZM45.014 51.2736L45.0141 51.3277H45.0029H44.8509C44.8827 51.3042 44.919 51.2878 44.9573 51.2797C44.9759 51.2757 44.9948 51.2737 45.014 51.2736ZM45.2388 51.5005C45.2286 51.5147 45.217 51.5281 45.2041 51.5403C45.2003 51.5439 45.1965 51.5473 45.1925 51.5507C45.1925 51.5507 45.1925 51.5507 45.1925 51.5507C45.1582 51.5796 45.1178 51.5995 45.0747 51.6091C45.0553 51.6135 45.0353 51.6157 45.0152 51.6157V51.5507V51.5507V51.5494V51.5489V51.3408V51.3402V51.3388L45.0165 51.3389L45.2034 51.3481C45.2054 51.3499 45.2073 51.3518 45.2092 51.3538C45.2201 51.3646 45.23 51.3762 45.2388 51.3885V51.5005ZM45.0148 51.6157C44.9947 51.6157 44.9747 51.6135 44.9553 51.6092C44.9122 51.5996 44.8716 51.5797 44.8373 51.5507C44.8373 51.5507 44.8373 51.5507 44.8373 51.5507C44.8334 51.5473 44.8295 51.5439 44.8257 51.5403C44.8129 51.5281 44.8012 51.5147 44.791 51.5005V51.3885C44.7998 51.3763 44.8096 51.3647 44.8204 51.354C44.8224 51.352 44.8244 51.35 44.8265 51.3481L45.0134 51.3389L45.0141 51.3388L45.0141 51.3397L45.0142 51.3413L45.0146 51.5489L45.0147 51.5495L45.0147 51.5507V51.5507L45.0148 51.6157Z" fill="#CED4DA" stroke="#CED4DA"/>
<path d="M50.6334 40.036C50.6334 40.036 49.8062 19.7522 73.5647 20.6756" stroke="#CED4DA" stroke-dasharray="2 2"/>
<path d="M66.12 79.9162C66.12 79.9162 66.3113 62.5639 50.9961 58.7515" stroke="#CED4DA" stroke-dasharray="2 2"/>
<path d="M42.5249 51.6743C42.5249 51.6743 31.3025 49.7169 29.3428 64.3633" stroke="#CED4DA" stroke-dasharray="2 2"/>
<path d="M44.8847 42.9203C44.8847 42.9203 47.5465 25.1814 27.9688 25.4766" stroke="#CED4DA" stroke-dasharray="2 2"/>
<mask id="path-9-inside-2" fill="white">
<path d="M26.2025 25.6496H24.5231V24.7152C25.0204 24.3607 25.4235 23.904 25.7009 23.3806C25.9783 22.8573 26.1227 22.2813 26.1228 21.6975V21.026H26.5227C26.5863 21.026 26.6473 21.0025 26.6923 20.9605C26.7372 20.9186 26.7625 20.8617 26.7625 20.8024C26.7625 20.5838 26.5314 20.3438 26.1228 20.1273V19.3121C26.1228 18.3034 25.6931 17.336 24.9282 16.6228C24.1634 15.9095 23.1261 15.5088 22.0444 15.5088C20.9628 15.5088 19.9255 15.9095 19.1607 16.6228C18.3958 17.336 17.9661 18.3034 17.9661 19.3121V20.1273C17.5575 20.3448 17.3264 20.5858 17.3264 20.8024C17.3264 20.8617 17.3517 20.9186 17.3966 20.9605C17.4416 21.0025 17.5026 21.026 17.5662 21.026H17.9661V21.6975C17.9662 22.2813 18.1106 22.8573 18.388 23.3806C18.6654 23.904 19.0685 24.3607 19.5658 24.7152V25.6496H17.8858C17.3981 25.65 16.9305 25.8309 16.5856 26.1525C16.2407 26.4741 16.0468 26.9102 16.0464 27.3651V28.5568C16.0464 28.6161 16.0716 28.673 16.1166 28.7149C16.1616 28.7569 16.2226 28.7804 16.2862 28.7804C16.3498 28.7804 16.4108 28.7569 16.4558 28.7149C16.5008 28.673 16.526 28.6161 16.526 28.5568V27.3641C16.5268 27.0282 16.6702 26.7062 16.925 26.4688C17.1798 26.2314 17.5251 26.0979 17.8853 26.0975H19.7319L20.6311 26.6579L20.642 26.6635L20.6562 26.6712L20.677 26.6798L20.6907 26.6849L20.7147 26.6905H20.7273C20.7388 26.6922 20.7505 26.693 20.7622 26.6931C20.7754 26.6929 20.7886 26.6917 20.8016 26.6895L20.8201 26.6864L22.0417 26.4016L23.2633 26.6864L23.2824 26.69C23.2952 26.692 23.3082 26.693 23.3212 26.6931C23.3329 26.693 23.3446 26.6922 23.3562 26.6905H23.3687C23.3769 26.689 23.3849 26.6872 23.3928 26.6849L23.4064 26.6798L23.4272 26.6712L23.4414 26.6635L23.4523 26.6579L24.3516 26.0975H26.1981C26.5585 26.0979 26.904 26.2316 27.1588 26.4692C27.4136 26.7068 27.557 27.029 27.5574 27.3651V30.3333H16.5217V29.453C16.5217 29.3936 16.4964 29.3367 16.4514 29.2948C16.4064 29.2529 16.3454 29.2293 16.2818 29.2293C16.2182 29.2293 16.1572 29.2529 16.1122 29.2948C16.0673 29.3367 16.042 29.3936 16.042 29.453V30.5545C16.0421 30.6137 16.0675 30.6706 16.1124 30.7125C16.1573 30.7544 16.2183 30.778 16.2818 30.7781H27.8022C27.8658 30.7781 27.9268 30.7546 27.9717 30.7126C28.0167 30.6707 28.042 30.6138 28.042 30.5545V27.3651C28.0414 26.9103 27.8474 26.4743 27.5026 26.1527C27.1577 25.8311 26.6902 25.6502 26.2025 25.6496ZM18.4453 19.3106C18.4453 18.4205 18.8244 17.5669 19.4993 16.9375C20.1742 16.3082 21.0895 15.9546 22.0439 15.9546C22.9983 15.9546 23.9136 16.3082 24.5885 16.9375C25.2634 17.5669 25.6425 18.4205 25.6425 19.3106V19.9123L25.5693 19.8853C24.437 19.5186 23.242 19.3492 22.0439 19.3855C20.8458 19.3492 19.6508 19.5186 18.5185 19.8853L18.4453 19.9123V19.3106ZM18.8064 20.2623C19.8513 19.9478 20.9464 19.8025 22.0439 19.8328C23.1415 19.8025 24.2365 19.9478 25.2814 20.2623C25.5302 20.3425 25.7684 20.4487 25.9916 20.5787H18.0962C18.3196 20.4487 18.558 20.3425 18.8069 20.2623H18.8064ZM21.8041 25.9971L20.8092 26.2289L20.0444 25.7536V25.0112C20.5835 25.2954 21.1853 25.4604 21.8035 25.4937L21.8041 25.9971ZM24.044 25.7536L23.2791 26.2289L22.2843 25.9971V25.4932C22.9025 25.4599 23.5043 25.2949 24.0434 25.0107V25.7531L24.044 25.7536ZM22.0936 25.0525C22.0615 25.0464 22.0285 25.0464 21.9964 25.0525C21.0506 25.0399 20.1481 24.681 19.4837 24.0532C18.8193 23.4254 18.4463 22.5791 18.4453 21.697V21.026H25.6425V21.6975C25.6413 22.5793 25.2684 23.4254 24.6043 24.053C23.9401 24.6807 23.038 25.0397 22.0925 25.0525H22.0936Z"/>
</mask>
<path d="M26.2025 25.6496H24.5231V24.7152C25.0204 24.3607 25.4235 23.904 25.7009 23.3806C25.9783 22.8573 26.1227 22.2813 26.1228 21.6975V21.026H26.5227C26.5863 21.026 26.6473 21.0025 26.6923 20.9605C26.7372 20.9186 26.7625 20.8617 26.7625 20.8024C26.7625 20.5838 26.5314 20.3438 26.1228 20.1273V19.3121C26.1228 18.3034 25.6931 17.336 24.9282 16.6228C24.1634 15.9095 23.1261 15.5088 22.0444 15.5088C20.9628 15.5088 19.9255 15.9095 19.1607 16.6228C18.3958 17.336 17.9661 18.3034 17.9661 19.3121V20.1273C17.5575 20.3448 17.3264 20.5858 17.3264 20.8024C17.3264 20.8617 17.3517 20.9186 17.3966 20.9605C17.4416 21.0025 17.5026 21.026 17.5662 21.026H17.9661V21.6975C17.9662 22.2813 18.1106 22.8573 18.388 23.3806C18.6654 23.904 19.0685 24.3607 19.5658 24.7152V25.6496H17.8858C17.3981 25.65 16.9305 25.8309 16.5856 26.1525C16.2407 26.4741 16.0468 26.9102 16.0464 27.3651V28.5568C16.0464 28.6161 16.0716 28.673 16.1166 28.7149C16.1616 28.7569 16.2226 28.7804 16.2862 28.7804C16.3498 28.7804 16.4108 28.7569 16.4558 28.7149C16.5008 28.673 16.526 28.6161 16.526 28.5568V27.3641C16.5268 27.0282 16.6702 26.7062 16.925 26.4688C17.1798 26.2314 17.5251 26.0979 17.8853 26.0975H19.7319L20.6311 26.6579L20.642 26.6635L20.6562 26.6712L20.677 26.6798L20.6907 26.6849L20.7147 26.6905H20.7273C20.7388 26.6922 20.7505 26.693 20.7622 26.6931C20.7754 26.6929 20.7886 26.6917 20.8016 26.6895L20.8201 26.6864L22.0417 26.4016L23.2633 26.6864L23.2824 26.69C23.2952 26.692 23.3082 26.693 23.3212 26.6931C23.3329 26.693 23.3446 26.6922 23.3562 26.6905H23.3687C23.3769 26.689 23.3849 26.6872 23.3928 26.6849L23.4064 26.6798L23.4272 26.6712L23.4414 26.6635L23.4523 26.6579L24.3516 26.0975H26.1981C26.5585 26.0979 26.904 26.2316 27.1588 26.4692C27.4136 26.7068 27.557 27.029 27.5574 27.3651V30.3333H16.5217V29.453C16.5217 29.3936 16.4964 29.3367 16.4514 29.2948C16.4064 29.2529 16.3454 29.2293 16.2818 29.2293C16.2182 29.2293 16.1572 29.2529 16.1122 29.2948C16.0673 29.3367 16.042 29.3936 16.042 29.453V30.5545C16.0421 30.6137 16.0675 30.6706 16.1124 30.7125C16.1573 30.7544 16.2183 30.778 16.2818 30.7781H27.8022C27.8658 30.7781 27.9268 30.7546 27.9717 30.7126C28.0167 30.6707 28.042 30.6138 28.042 30.5545V27.3651C28.0414 26.9103 27.8474 26.4743 27.5026 26.1527C27.1577 25.8311 26.6902 25.6502 26.2025 25.6496ZM18.4453 19.3106C18.4453 18.4205 18.8244 17.5669 19.4993 16.9375C20.1742 16.3082 21.0895 15.9546 22.0439 15.9546C22.9983 15.9546 23.9136 16.3082 24.5885 16.9375C25.2634 17.5669 25.6425 18.4205 25.6425 19.3106V19.9123L25.5693 19.8853C24.437 19.5186 23.242 19.3492 22.0439 19.3855C20.8458 19.3492 19.6508 19.5186 18.5185 19.8853L18.4453 19.9123V19.3106ZM18.8064 20.2623C19.8513 19.9478 20.9464 19.8025 22.0439 19.8328C23.1415 19.8025 24.2365 19.9478 25.2814 20.2623C25.5302 20.3425 25.7684 20.4487 25.9916 20.5787H18.0962C18.3196 20.4487 18.558 20.3425 18.8069 20.2623H18.8064ZM21.8041 25.9971L20.8092 26.2289L20.0444 25.7536V25.0112C20.5835 25.2954 21.1853 25.4604 21.8035 25.4937L21.8041 25.9971ZM24.044 25.7536L23.2791 26.2289L22.2843 25.9971V25.4932C22.9025 25.4599 23.5043 25.2949 24.0434 25.0107V25.7531L24.044 25.7536ZM22.0936 25.0525C22.0615 25.0464 22.0285 25.0464 21.9964 25.0525C21.0506 25.0399 20.1481 24.681 19.4837 24.0532C18.8193 23.4254 18.4463 22.5791 18.4453 21.697V21.026H25.6425V21.6975C25.6413 22.5793 25.2684 23.4254 24.6043 24.053C23.9401 24.6807 23.038 25.0397 22.0925 25.0525H22.0936Z" fill="#CED4DA" stroke="#CED4DA" stroke-width="2" mask="url(#path-9-inside-2)"/>
<mask id="path-10-inside-3" fill="white">
<path d="M22.0436 16.999C21.8697 16.999 21.6996 17.0471 21.555 17.1373C21.4103 17.2274 21.2976 17.3555 21.231 17.5054C21.1644 17.6553 21.147 17.8202 21.181 17.9793C21.2149 18.1384 21.2987 18.2846 21.4217 18.3993C21.5447 18.514 21.7014 18.5922 21.872 18.6238C22.0427 18.6555 22.2195 18.6392 22.3802 18.5771C22.541 18.515 22.6783 18.4099 22.775 18.275C22.8716 18.1401 22.9232 17.9815 22.9232 17.8193C22.9229 17.6018 22.8302 17.3933 22.6653 17.2396C22.5004 17.0858 22.2768 16.9993 22.0436 16.999ZM22.0436 18.1922C21.9645 18.1922 21.8872 18.1704 21.8215 18.1294C21.7557 18.0884 21.7044 18.0302 21.6742 17.962C21.6439 17.8939 21.636 17.8189 21.6514 17.7465C21.6668 17.6742 21.7049 17.6077 21.7609 17.5556C21.8168 17.5034 21.8881 17.4679 21.9656 17.4535C22.0432 17.4391 22.1236 17.4465 22.1967 17.4747C22.2698 17.503 22.3322 17.5508 22.3762 17.6121C22.4201 17.6734 22.4436 17.7455 22.4436 17.8193C22.4433 17.9181 22.401 18.0127 22.3261 18.0825C22.2511 18.1523 22.1496 18.1916 22.0436 18.1917V18.1922Z"/>
</mask>
<path d="M22.0436 16.999C21.8697 16.999 21.6996 17.0471 21.555 17.1373C21.4103 17.2274 21.2976 17.3555 21.231 17.5054C21.1644 17.6553 21.147 17.8202 21.181 17.9793C21.2149 18.1384 21.2987 18.2846 21.4217 18.3993C21.5447 18.514 21.7014 18.5922 21.872 18.6238C22.0427 18.6555 22.2195 18.6392 22.3802 18.5771C22.541 18.515 22.6783 18.4099 22.775 18.275C22.8716 18.1401 22.9232 17.9815 22.9232 17.8193C22.9229 17.6018 22.8302 17.3933 22.6653 17.2396C22.5004 17.0858 22.2768 16.9993 22.0436 16.999ZM22.0436 18.1922C21.9645 18.1922 21.8872 18.1704 21.8215 18.1294C21.7557 18.0884 21.7044 18.0302 21.6742 17.962C21.6439 17.8939 21.636 17.8189 21.6514 17.7465C21.6668 17.6742 21.7049 17.6077 21.7609 17.5556C21.8168 17.5034 21.8881 17.4679 21.9656 17.4535C22.0432 17.4391 22.1236 17.4465 22.1967 17.4747C22.2698 17.503 22.3322 17.5508 22.3762 17.6121C22.4201 17.6734 22.4436 17.7455 22.4436 17.8193C22.4433 17.9181 22.401 18.0127 22.3261 18.0825C22.2511 18.1523 22.1496 18.1916 22.0436 18.1917V18.1922Z" fill="#CED4DA"/>
<path d="M22.0436 16.999L22.0448 15.999H22.0436V16.999ZM22.9232 17.8193H23.9232L23.9232 17.818L22.9232 17.8193ZM22.0436 18.1922V19.1922H23.0436V18.1922H22.0436ZM22.4436 17.8193L23.4436 17.8222V17.8193H22.4436ZM22.0436 18.1917L22.0424 17.1917L21.0436 17.193V18.1917H22.0436ZM22.0436 15.999C21.6868 15.999 21.3329 16.0974 21.0261 16.2886L22.0838 17.986C22.0664 17.9969 22.0526 17.999 22.0436 17.999V15.999ZM21.0261 16.2886C20.7188 16.4801 20.4682 16.7593 20.3171 17.0995L22.1449 17.9113C22.127 17.9517 22.1019 17.9747 22.0838 17.986L21.0261 16.2886ZM20.3171 17.0995C20.1656 17.4406 20.1246 17.8206 20.203 18.1879L22.159 17.7707C22.1694 17.8198 22.1633 17.8699 22.1449 17.9113L20.3171 17.0995ZM20.203 18.1879C20.2812 18.5546 20.4722 18.8812 20.7397 19.1307L22.1037 17.668C22.1252 17.688 22.1486 17.7223 22.159 17.7707L20.203 18.1879ZM20.7397 19.1307C21.0064 19.3794 21.3382 19.5418 21.6897 19.607L22.0544 17.6406C22.0647 17.6425 22.083 17.6486 22.1037 17.668L20.7397 19.1307ZM21.6897 19.607C22.041 19.6722 22.4058 19.6393 22.7406 19.51L22.0199 17.6443C22.0271 17.6415 22.0333 17.6403 22.0384 17.6398C22.0435 17.6393 22.0488 17.6395 22.0544 17.6406L21.6897 19.607ZM22.7406 19.51C23.0757 19.3805 23.3732 19.157 23.5879 18.8574L21.9621 17.6926C21.9834 17.6628 22.0062 17.6496 22.0199 17.6443L22.7406 19.51ZM23.5879 18.8574C23.8032 18.5569 23.9232 18.1955 23.9232 17.8193H21.9232C21.9232 17.7676 21.94 17.7234 21.9621 17.6926L23.5879 18.8574ZM23.9232 17.818C23.9225 17.3124 23.7063 16.843 23.3473 16.5082L21.9833 17.9709C21.9541 17.9437 21.9233 17.8913 21.9232 17.8206L23.9232 17.818ZM23.3473 16.5082C22.9907 16.1757 22.5212 15.9996 22.0448 15.999L22.0425 17.999C22.0361 17.999 22.0283 17.9979 22.0192 17.9943C22.0101 17.9908 21.9972 17.9839 21.9833 17.9709L23.3473 16.5082ZM22.0436 17.1922C22.1474 17.1922 22.254 17.2206 22.3503 17.2807L21.2926 18.9781C21.5205 19.1201 21.7817 19.1922 22.0436 19.1922V17.1922ZM22.3503 17.2807C22.4473 17.3411 22.5339 17.4341 22.5881 17.5561L20.7603 18.3679C20.875 18.6263 21.0641 18.8357 21.2926 18.9781L22.3503 17.2807ZM22.5881 17.5561C22.6428 17.6792 22.6584 17.8192 22.6294 17.9551L20.6734 17.5379C20.6136 17.8185 20.645 18.1085 20.7603 18.3679L22.5881 17.5561ZM22.6294 17.9551C22.6006 18.0904 22.5315 18.2043 22.4429 18.2869L21.0788 16.8243C20.8784 17.0112 20.7331 17.258 20.6734 17.5379L22.6294 17.9551ZM22.4429 18.2869C22.355 18.3688 22.2513 18.4176 22.148 18.4367L21.7832 16.4703C21.5248 16.5182 21.2785 16.638 21.0788 16.8243L22.4429 18.2869ZM22.148 18.4367C22.0449 18.4559 21.9373 18.4466 21.8363 18.4076L22.557 16.5419C22.3099 16.4465 22.0415 16.4224 21.7832 16.4703L22.148 18.4367ZM21.8363 18.4076C21.735 18.3684 21.6373 18.2979 21.5633 18.1945L23.189 17.0297C23.0271 16.8037 22.8045 16.6375 22.557 16.5419L21.8363 18.4076ZM21.5633 18.1945C21.4885 18.0902 21.4436 17.9595 21.4436 17.8193H23.4436C23.4436 17.5315 23.3517 17.2567 23.189 17.0297L21.5633 18.1945ZM21.4436 17.8164C21.4441 17.6273 21.5255 17.4616 21.6445 17.3507L23.0076 18.8143C23.2765 18.5639 23.4424 18.2088 23.4435 17.8222L21.4436 17.8164ZM21.6445 17.3507C21.7612 17.2421 21.9054 17.1919 22.0424 17.1917L22.0449 19.1917C22.3938 19.1913 22.741 19.0626 23.0076 18.8143L21.6445 17.3507ZM21.0436 18.1917V18.1922H23.0436V18.1917H21.0436Z" fill="#CED4DA" mask="url(#path-10-inside-3)"/>
<mask id="path-12-inside-4" fill="white">
<path d="M82.4828 22.2717H80.8034V21.3373C81.3007 20.9827 81.7037 20.526 81.9812 20.0027C82.2586 19.4793 82.4029 18.9034 82.403 18.3196V17.6481H82.8029C82.8665 17.6481 82.9276 17.6245 82.9725 17.5826C83.0175 17.5406 83.0428 17.4838 83.0428 17.4244C83.0428 17.2059 82.8117 16.9659 82.403 16.7494V15.9342C82.403 14.9255 81.9733 13.9581 81.2085 13.2448C80.4437 12.5316 79.4064 12.1309 78.3247 12.1309C77.2431 12.1309 76.2058 12.5316 75.4409 13.2448C74.6761 13.9581 74.2464 14.9255 74.2464 15.9342V16.7494C73.8378 16.9669 73.6067 17.2079 73.6067 17.4244C73.6067 17.4838 73.6319 17.5406 73.6769 17.5826C73.7219 17.6245 73.7829 17.6481 73.8465 17.6481H74.2464V18.3196C74.2465 18.9034 74.3909 19.4793 74.6683 20.0027C74.9457 20.526 75.3487 20.9827 75.8461 21.3373V22.2717H74.1661C73.6784 22.2721 73.2108 22.453 72.8659 22.7746C72.521 23.0962 72.3271 23.5323 72.3266 23.9871V25.1788C72.3266 25.2381 72.3519 25.295 72.3969 25.337C72.4419 25.3789 72.5029 25.4025 72.5665 25.4025C72.6301 25.4025 72.6911 25.3789 72.7361 25.337C72.781 25.295 72.8063 25.2381 72.8063 25.1788V23.9861C72.807 23.6502 72.9505 23.3283 73.2053 23.0909C73.4601 22.8535 73.8054 22.7199 74.1656 22.7195H76.0121L76.9114 23.28L76.9223 23.2856L76.9365 23.2932L76.9573 23.3019L76.9709 23.307L76.995 23.3126H77.0075C77.0191 23.3142 77.0308 23.3151 77.0425 23.3151C77.0557 23.3149 77.0689 23.3137 77.0818 23.3116L77.1004 23.3085L78.322 23.0237L79.5436 23.3085L79.5627 23.3121C79.5755 23.3141 79.5885 23.3151 79.6015 23.3151C79.6132 23.3151 79.6249 23.3142 79.6364 23.3126H79.649C79.6571 23.3111 79.6651 23.3092 79.6731 23.307L79.6867 23.3019L79.7075 23.2932L79.7217 23.2856L79.7326 23.28L80.6318 22.7195H82.4784C82.8388 22.7199 83.1843 22.8536 83.4391 23.0913C83.6939 23.3289 83.8372 23.6511 83.8377 23.9871V26.9554H72.8019V26.075C72.8019 26.0157 72.7767 25.9588 72.7317 25.9169C72.6867 25.8749 72.6257 25.8514 72.5621 25.8514C72.4985 25.8514 72.4375 25.8749 72.3925 25.9169C72.3475 25.9588 72.3223 26.0157 72.3223 26.075V27.1765C72.3224 27.2358 72.3477 27.2926 72.3927 27.3345C72.4376 27.3765 72.4985 27.4001 72.5621 27.4002H84.0824C84.146 27.4002 84.207 27.3766 84.252 27.3347C84.297 27.2927 84.3223 27.2358 84.3223 27.1765V23.9871C84.3217 23.5323 84.1277 23.0963 83.7829 22.7747C83.438 22.4531 82.9705 22.2722 82.4828 22.2717ZM74.7255 15.9327C74.7255 15.0426 75.1047 14.189 75.7796 13.5596C76.4544 12.9302 77.3698 12.5767 78.3242 12.5767C79.2786 12.5767 80.1939 12.9302 80.8688 13.5596C81.5437 14.189 81.9228 15.0426 81.9228 15.9327V16.5344L81.8496 16.5074C80.7172 16.1407 79.5222 15.9712 78.3242 16.0075C77.1261 15.9712 75.9311 16.1407 74.7987 16.5074L74.7255 16.5344V15.9327ZM75.0867 16.8844C76.1316 16.5699 77.2266 16.4246 78.3242 16.4549C79.4217 16.4246 80.5167 16.5699 81.5617 16.8844C81.8104 16.9646 82.0487 17.0707 82.2719 17.2008H74.3764C74.5999 17.0707 74.8383 16.9646 75.0872 16.8844H75.0867ZM78.0843 22.6192L77.0895 22.851L76.3246 22.3756V21.6333C76.8638 21.9174 77.4656 22.0825 78.0838 22.1158L78.0843 22.6192ZM80.3243 22.3756L79.5594 22.851L78.5646 22.6192V22.1153C79.1828 22.082 79.7846 21.9169 80.3237 21.6328V22.3751L80.3243 22.3756ZM78.3739 21.6746C78.3418 21.6685 78.3087 21.6685 78.2766 21.6746C77.3309 21.662 76.4284 21.3031 75.764 20.6753C75.0996 20.0475 74.7266 19.2012 74.7255 18.3191V17.6481H81.9228V18.3196C81.9216 19.2014 81.5487 20.0474 80.8846 20.6751C80.2204 21.3028 79.3183 21.6617 78.3728 21.6746H78.3739Z"/>
</mask>
<path d="M82.4828 22.2717H80.8034V21.3373C81.3007 20.9827 81.7037 20.526 81.9812 20.0027C82.2586 19.4793 82.4029 18.9034 82.403 18.3196V17.6481H82.8029C82.8665 17.6481 82.9276 17.6245 82.9725 17.5826C83.0175 17.5406 83.0428 17.4838 83.0428 17.4244C83.0428 17.2059 82.8117 16.9659 82.403 16.7494V15.9342C82.403 14.9255 81.9733 13.9581 81.2085 13.2448C80.4437 12.5316 79.4064 12.1309 78.3247 12.1309C77.2431 12.1309 76.2058 12.5316 75.4409 13.2448C74.6761 13.9581 74.2464 14.9255 74.2464 15.9342V16.7494C73.8378 16.9669 73.6067 17.2079 73.6067 17.4244C73.6067 17.4838 73.6319 17.5406 73.6769 17.5826C73.7219 17.6245 73.7829 17.6481 73.8465 17.6481H74.2464V18.3196C74.2465 18.9034 74.3909 19.4793 74.6683 20.0027C74.9457 20.526 75.3487 20.9827 75.8461 21.3373V22.2717H74.1661C73.6784 22.2721 73.2108 22.453 72.8659 22.7746C72.521 23.0962 72.3271 23.5323 72.3266 23.9871V25.1788C72.3266 25.2381 72.3519 25.295 72.3969 25.337C72.4419 25.3789 72.5029 25.4025 72.5665 25.4025C72.6301 25.4025 72.6911 25.3789 72.7361 25.337C72.781 25.295 72.8063 25.2381 72.8063 25.1788V23.9861C72.807 23.6502 72.9505 23.3283 73.2053 23.0909C73.4601 22.8535 73.8054 22.7199 74.1656 22.7195H76.0121L76.9114 23.28L76.9223 23.2856L76.9365 23.2932L76.9573 23.3019L76.9709 23.307L76.995 23.3126H77.0075C77.0191 23.3142 77.0308 23.3151 77.0425 23.3151C77.0557 23.3149 77.0689 23.3137 77.0818 23.3116L77.1004 23.3085L78.322 23.0237L79.5436 23.3085L79.5627 23.3121C79.5755 23.3141 79.5885 23.3151 79.6015 23.3151C79.6132 23.3151 79.6249 23.3142 79.6364 23.3126H79.649C79.6571 23.3111 79.6651 23.3092 79.6731 23.307L79.6867 23.3019L79.7075 23.2932L79.7217 23.2856L79.7326 23.28L80.6318 22.7195H82.4784C82.8388 22.7199 83.1843 22.8536 83.4391 23.0913C83.6939 23.3289 83.8372 23.6511 83.8377 23.9871V26.9554H72.8019V26.075C72.8019 26.0157 72.7767 25.9588 72.7317 25.9169C72.6867 25.8749 72.6257 25.8514 72.5621 25.8514C72.4985 25.8514 72.4375 25.8749 72.3925 25.9169C72.3475 25.9588 72.3223 26.0157 72.3223 26.075V27.1765C72.3224 27.2358 72.3477 27.2926 72.3927 27.3345C72.4376 27.3765 72.4985 27.4001 72.5621 27.4002H84.0824C84.146 27.4002 84.207 27.3766 84.252 27.3347C84.297 27.2927 84.3223 27.2358 84.3223 27.1765V23.9871C84.3217 23.5323 84.1277 23.0963 83.7829 22.7747C83.438 22.4531 82.9705 22.2722 82.4828 22.2717ZM74.7255 15.9327C74.7255 15.0426 75.1047 14.189 75.7796 13.5596C76.4544 12.9302 77.3698 12.5767 78.3242 12.5767C79.2786 12.5767 80.1939 12.9302 80.8688 13.5596C81.5437 14.189 81.9228 15.0426 81.9228 15.9327V16.5344L81.8496 16.5074C80.7172 16.1407 79.5222 15.9712 78.3242 16.0075C77.1261 15.9712 75.9311 16.1407 74.7987 16.5074L74.7255 16.5344V15.9327ZM75.0867 16.8844C76.1316 16.5699 77.2266 16.4246 78.3242 16.4549C79.4217 16.4246 80.5167 16.5699 81.5617 16.8844C81.8104 16.9646 82.0487 17.0707 82.2719 17.2008H74.3764C74.5999 17.0707 74.8383 16.9646 75.0872 16.8844H75.0867ZM78.0843 22.6192L77.0895 22.851L76.3246 22.3756V21.6333C76.8638 21.9174 77.4656 22.0825 78.0838 22.1158L78.0843 22.6192ZM80.3243 22.3756L79.5594 22.851L78.5646 22.6192V22.1153C79.1828 22.082 79.7846 21.9169 80.3237 21.6328V22.3751L80.3243 22.3756ZM78.3739 21.6746C78.3418 21.6685 78.3087 21.6685 78.2766 21.6746C77.3309 21.662 76.4284 21.3031 75.764 20.6753C75.0996 20.0475 74.7266 19.2012 74.7255 18.3191V17.6481H81.9228V18.3196C81.9216 19.2014 81.5487 20.0474 80.8846 20.6751C80.2204 21.3028 79.3183 21.6617 78.3728 21.6746H78.3739Z" fill="#CED4DA" stroke="#CED4DA" stroke-width="2" mask="url(#path-12-inside-4)"/>
<mask id="path-13-inside-5" fill="white">
<path d="M78.3239 13.6211C78.1499 13.6211 77.9799 13.6692 77.8353 13.7593C77.6906 13.8495 77.5779 13.9776 77.5113 14.1275C77.4447 14.2774 77.4273 14.4423 77.4612 14.6014C77.4952 14.7605 77.579 14.9067 77.702 15.0214C77.825 15.1361 77.9817 15.2142 78.1523 15.2459C78.3229 15.2775 78.4998 15.2613 78.6605 15.1992C78.8212 15.1371 78.9586 15.032 79.0553 14.8971C79.1519 14.7622 79.2035 14.6036 79.2035 14.4414C79.2032 14.2239 79.1104 14.0154 78.9456 13.8616C78.7807 13.7079 78.5571 13.6214 78.3239 13.6211ZM78.3239 14.8143C78.2448 14.8143 78.1675 14.7924 78.1017 14.7515C78.036 14.7105 77.9847 14.6522 77.9545 14.5841C77.9242 14.5159 77.9163 14.441 77.9317 14.3686C77.9471 14.2963 77.9852 14.2298 78.0411 14.1777C78.0971 14.1255 78.1683 14.09 78.2459 14.0756C78.3235 14.0612 78.4039 14.0686 78.477 14.0968C78.55 14.125 78.6125 14.1728 78.6564 14.2342C78.7004 14.2955 78.7238 14.3676 78.7238 14.4414C78.7235 14.5402 78.6813 14.6348 78.6063 14.7046C78.5314 14.7744 78.4298 14.8137 78.3239 14.8138V14.8143Z"/>
</mask>
<path d="M78.3239 13.6211C78.1499 13.6211 77.9799 13.6692 77.8353 13.7593C77.6906 13.8495 77.5779 13.9776 77.5113 14.1275C77.4447 14.2774 77.4273 14.4423 77.4612 14.6014C77.4952 14.7605 77.579 14.9067 77.702 15.0214C77.825 15.1361 77.9817 15.2142 78.1523 15.2459C78.3229 15.2775 78.4998 15.2613 78.6605 15.1992C78.8212 15.1371 78.9586 15.032 79.0553 14.8971C79.1519 14.7622 79.2035 14.6036 79.2035 14.4414C79.2032 14.2239 79.1104 14.0154 78.9456 13.8616C78.7807 13.7079 78.5571 13.6214 78.3239 13.6211ZM78.3239 14.8143C78.2448 14.8143 78.1675 14.7924 78.1017 14.7515C78.036 14.7105 77.9847 14.6522 77.9545 14.5841C77.9242 14.5159 77.9163 14.441 77.9317 14.3686C77.9471 14.2963 77.9852 14.2298 78.0411 14.1777C78.0971 14.1255 78.1683 14.09 78.2459 14.0756C78.3235 14.0612 78.4039 14.0686 78.477 14.0968C78.55 14.125 78.6125 14.1728 78.6564 14.2342C78.7004 14.2955 78.7238 14.3676 78.7238 14.4414C78.7235 14.5402 78.6813 14.6348 78.6063 14.7046C78.5314 14.7744 78.4298 14.8137 78.3239 14.8138V14.8143Z" fill="#CED4DA"/>
<path d="M78.3239 13.6211L78.3251 12.6211H78.3239V13.6211ZM79.2035 14.4414H80.2035L80.2035 14.44L79.2035 14.4414ZM78.3239 14.8143V15.8143H79.3239V14.8143H78.3239ZM78.7238 14.4414L79.7238 14.4443V14.4414H78.7238ZM78.3239 14.8138L78.3226 13.8138L77.3239 13.8151V14.8138H78.3239ZM78.3239 12.6211C77.9671 12.6211 77.6131 12.7195 77.3064 12.9106L78.3641 14.608C78.3466 14.6189 78.3328 14.6211 78.3239 14.6211V12.6211ZM77.3064 12.9106C76.9991 13.1021 76.7484 13.3814 76.5974 13.7215L78.4252 14.5334C78.4073 14.5737 78.3821 14.5968 78.3641 14.608L77.3064 12.9106ZM76.5974 13.7215C76.4458 14.0627 76.4049 14.4426 76.4832 14.81L78.4392 14.3928C78.4497 14.4419 78.4436 14.492 78.4252 14.5334L76.5974 13.7215ZM76.4832 14.81C76.5614 15.1767 76.7524 15.5033 77.0199 15.7527L78.384 14.2901C78.4055 14.3101 78.4289 14.3443 78.4392 14.3928L76.4832 14.81ZM77.0199 15.7527C77.2867 16.0015 77.6184 16.1639 77.9699 16.2291L78.3347 14.2627C78.345 14.2646 78.3632 14.2707 78.384 14.2901L77.0199 15.7527ZM77.9699 16.2291C78.3213 16.2943 78.6861 16.2614 79.0209 16.132L78.3002 14.2664C78.3074 14.2636 78.3135 14.2624 78.3187 14.2619C78.3238 14.2614 78.3291 14.2616 78.3347 14.2627L77.9699 16.2291ZM79.0209 16.132C79.356 16.0026 79.6535 15.7791 79.8681 15.4795L78.2424 14.3147C78.2637 14.2849 78.2865 14.2717 78.3002 14.2664L79.0209 16.132ZM79.8681 15.4795C80.0835 15.1789 80.2035 14.8176 80.2035 14.4414H78.2035C78.2035 14.3896 78.2203 14.3455 78.2424 14.3147L79.8681 15.4795ZM80.2035 14.44C80.2028 13.9344 79.9865 13.4651 79.6276 13.1303L78.2635 14.593C78.2343 14.5658 78.2036 14.5134 78.2035 14.4427L80.2035 14.44ZM79.6276 13.1303C79.271 12.7977 78.8014 12.6216 78.3251 12.6211L78.3228 14.6211C78.3163 14.6211 78.3086 14.6199 78.2995 14.6164C78.2903 14.6129 78.2775 14.606 78.2635 14.593L79.6276 13.1303ZM78.3239 13.8143C78.4277 13.8143 78.5342 13.8427 78.6306 13.9028L77.5729 15.6002C77.8008 15.7422 78.0619 15.8143 78.3239 15.8143V13.8143ZM78.6306 13.9028C78.7276 13.9632 78.8142 14.0561 78.8684 14.1782L77.0405 14.99C77.1553 15.2484 77.3444 15.4578 77.5729 15.6002L78.6306 13.9028ZM78.8684 14.1782C78.923 14.3013 78.9387 14.4413 78.9097 14.5772L76.9537 14.16C76.8938 14.4406 76.9253 14.7306 77.0405 14.99L78.8684 14.1782ZM78.9097 14.5772C78.8809 14.7124 78.8117 14.8264 78.7232 14.909L77.3591 13.4463C77.1587 13.6332 77.0134 13.8801 76.9537 14.16L78.9097 14.5772ZM78.7232 14.909C78.6353 14.9909 78.5316 15.0397 78.4283 15.0588L78.0635 13.0924C77.8051 13.1403 77.5588 13.2601 77.3591 13.4463L78.7232 14.909ZM78.4283 15.0588C78.3252 15.0779 78.2176 15.0686 78.1166 15.0296L78.8373 13.164C78.5902 13.0685 78.3218 13.0445 78.0635 13.0924L78.4283 15.0588ZM78.1166 15.0296C78.0153 14.9905 77.9176 14.9199 77.8435 14.8166L79.4693 13.6518C79.3074 13.4258 79.0848 13.2596 78.8373 13.164L78.1166 15.0296ZM77.8435 14.8166C77.7688 14.7123 77.7238 14.5816 77.7238 14.4414H79.7238C79.7238 14.1536 79.6319 13.8787 79.4693 13.6518L77.8435 14.8166ZM77.7238 14.4384C77.7244 14.2494 77.8058 14.0836 77.9248 13.9728L79.2879 15.4364C79.5568 15.186 79.7227 14.8309 79.7238 14.4443L77.7238 14.4384ZM77.9248 13.9728C78.0415 13.8641 78.1856 13.814 78.3226 13.8138L78.3252 15.8138C78.674 15.8134 79.0213 15.6847 79.2879 15.4364L77.9248 13.9728ZM77.3239 14.8138V14.8143H79.3239V14.8138H77.3239Z" fill="#CED4DA" mask="url(#path-13-inside-5)"/>
<mask id="path-15-inside-6" fill="white">
<path d="M27.6576 67.0324H25.9782V66.098C26.4755 65.7435 26.8785 65.2868 27.156 64.7634C27.4334 64.2401 27.5777 63.6641 27.5778 63.0803V62.4088H27.9777C28.0413 62.4088 28.1024 62.3853 28.1473 62.3433C28.1923 62.3014 28.2176 62.2445 28.2176 62.1852C28.2176 61.9666 27.9865 61.7266 27.5778 61.5101V60.6949C27.5778 59.6862 27.1482 58.7188 26.3833 58.0056C25.6185 57.2923 24.5812 56.8916 23.4995 56.8916C22.4179 56.8916 21.3806 57.2923 20.6157 58.0056C19.8509 58.7188 19.4212 59.6862 19.4212 60.6949V61.5101C19.0126 61.7277 18.7815 61.9686 18.7815 62.1852C18.7815 62.2445 18.8067 62.3014 18.8517 62.3433C18.8967 62.3853 18.9577 62.4088 19.0213 62.4088H19.4212V63.0803C19.4213 63.6641 19.5657 64.2401 19.8431 64.7634C20.1205 65.2868 20.5235 65.7435 21.0209 66.098V67.0324H19.3409C18.8532 67.0328 18.3856 67.2137 18.0407 67.5353C17.6958 67.8569 17.5019 68.293 17.5014 68.7479V69.9396C17.5014 69.9989 17.5267 70.0558 17.5717 70.0977C17.6167 70.1397 17.6777 70.1632 17.7413 70.1632C17.8049 70.1632 17.8659 70.1397 17.9109 70.0977C17.9558 70.0558 17.9811 69.9989 17.9811 69.9396V68.7469C17.9818 68.411 18.1253 68.089 18.3801 67.8516C18.6349 67.6142 18.9802 67.4807 19.3404 67.4803H21.1869L22.0862 68.0407L22.0971 68.0463L22.1113 68.054L22.1321 68.0626L22.1457 68.0677L22.1698 68.0733H22.1823C22.1939 68.075 22.2056 68.0758 22.2173 68.0759C22.2305 68.0757 22.2437 68.0745 22.2566 68.0723L22.2752 68.0692L23.4968 67.7844L24.7184 68.0692L24.7375 68.0728C24.7503 68.0748 24.7633 68.0758 24.7763 68.0759C24.788 68.0758 24.7997 68.075 24.8113 68.0733H24.8238C24.8319 68.0718 24.84 68.07 24.8479 68.0677L24.8615 68.0626L24.8823 68.054L24.8965 68.0463L24.9074 68.0407L25.8067 67.4803H27.6532C28.0136 67.4807 28.3591 67.6144 28.6139 67.852C28.8687 68.0896 29.012 68.4118 29.0125 68.7479V71.7162H17.9767V70.8358C17.9767 70.7764 17.9515 70.7195 17.9065 70.6776C17.8615 70.6357 17.8005 70.6121 17.7369 70.6121C17.6733 70.6121 17.6123 70.6357 17.5673 70.6776C17.5223 70.7195 17.4971 70.7764 17.4971 70.8358V71.9373C17.4972 71.9965 17.5225 72.0534 17.5675 72.0953C17.6124 72.1372 17.6733 72.1608 17.7369 72.1609H29.2572C29.3208 72.1609 29.3818 72.1374 29.4268 72.0954C29.4718 72.0535 29.4971 71.9966 29.4971 71.9373V68.7479C29.4965 68.2931 29.3025 67.8571 28.9577 67.5355C28.6128 67.2139 28.1453 67.033 27.6576 67.0324ZM19.9003 60.6934C19.9003 59.8033 20.2795 58.9497 20.9544 58.3204C21.6292 57.691 22.5446 57.3374 23.499 57.3374C24.4534 57.3374 25.3687 57.691 26.0436 58.3204C26.7185 58.9497 27.0976 59.8033 27.0976 60.6934V61.2951L27.0244 61.2681C25.892 60.9014 24.697 60.732 23.499 60.7683C22.3009 60.732 21.1059 60.9014 19.9736 61.2681L19.9003 61.2951V60.6934ZM20.2615 61.6451C21.3064 61.3306 22.4014 61.1853 23.499 61.2156C24.5965 61.1853 25.6915 61.3306 26.7365 61.6451C26.9852 61.7253 27.2235 61.8315 27.4467 61.9615H19.5512C19.7747 61.8315 20.0131 61.7253 20.262 61.6451H20.2615ZM23.2591 67.3799L22.2643 67.6117L21.4994 67.1364V66.394C22.0386 66.6782 22.6404 66.8432 23.2586 66.8765L23.2591 67.3799ZM25.4991 67.1364L24.7342 67.6117L23.7394 67.3799V66.876C24.3576 66.8427 24.9594 66.6777 25.4985 66.3935V67.1359L25.4991 67.1364ZM23.5487 66.4353C23.5166 66.4292 23.4835 66.4292 23.4515 66.4353C22.5057 66.4227 21.6032 66.0638 20.9388 65.436C20.2744 64.8082 19.9014 63.9619 19.9003 63.0798V62.4088H27.0976V63.0803C27.0964 63.9621 26.7235 64.8082 26.0594 65.4358C25.3952 66.0635 24.4931 66.4225 23.5476 66.4353H23.5487Z"/>
</mask>
<path d="M27.6576 67.0324H25.9782V66.098C26.4755 65.7435 26.8785 65.2868 27.156 64.7634C27.4334 64.2401 27.5777 63.6641 27.5778 63.0803V62.4088H27.9777C28.0413 62.4088 28.1024 62.3853 28.1473 62.3433C28.1923 62.3014 28.2176 62.2445 28.2176 62.1852C28.2176 61.9666 27.9865 61.7266 27.5778 61.5101V60.6949C27.5778 59.6862 27.1482 58.7188 26.3833 58.0056C25.6185 57.2923 24.5812 56.8916 23.4995 56.8916C22.4179 56.8916 21.3806 57.2923 20.6157 58.0056C19.8509 58.7188 19.4212 59.6862 19.4212 60.6949V61.5101C19.0126 61.7277 18.7815 61.9686 18.7815 62.1852C18.7815 62.2445 18.8067 62.3014 18.8517 62.3433C18.8967 62.3853 18.9577 62.4088 19.0213 62.4088H19.4212V63.0803C19.4213 63.6641 19.5657 64.2401 19.8431 64.7634C20.1205 65.2868 20.5235 65.7435 21.0209 66.098V67.0324H19.3409C18.8532 67.0328 18.3856 67.2137 18.0407 67.5353C17.6958 67.8569 17.5019 68.293 17.5014 68.7479V69.9396C17.5014 69.9989 17.5267 70.0558 17.5717 70.0977C17.6167 70.1397 17.6777 70.1632 17.7413 70.1632C17.8049 70.1632 17.8659 70.1397 17.9109 70.0977C17.9558 70.0558 17.9811 69.9989 17.9811 69.9396V68.7469C17.9818 68.411 18.1253 68.089 18.3801 67.8516C18.6349 67.6142 18.9802 67.4807 19.3404 67.4803H21.1869L22.0862 68.0407L22.0971 68.0463L22.1113 68.054L22.1321 68.0626L22.1457 68.0677L22.1698 68.0733H22.1823C22.1939 68.075 22.2056 68.0758 22.2173 68.0759C22.2305 68.0757 22.2437 68.0745 22.2566 68.0723L22.2752 68.0692L23.4968 67.7844L24.7184 68.0692L24.7375 68.0728C24.7503 68.0748 24.7633 68.0758 24.7763 68.0759C24.788 68.0758 24.7997 68.075 24.8113 68.0733H24.8238C24.8319 68.0718 24.84 68.07 24.8479 68.0677L24.8615 68.0626L24.8823 68.054L24.8965 68.0463L24.9074 68.0407L25.8067 67.4803H27.6532C28.0136 67.4807 28.3591 67.6144 28.6139 67.852C28.8687 68.0896 29.012 68.4118 29.0125 68.7479V71.7162H17.9767V70.8358C17.9767 70.7764 17.9515 70.7195 17.9065 70.6776C17.8615 70.6357 17.8005 70.6121 17.7369 70.6121C17.6733 70.6121 17.6123 70.6357 17.5673 70.6776C17.5223 70.7195 17.4971 70.7764 17.4971 70.8358V71.9373C17.4972 71.9965 17.5225 72.0534 17.5675 72.0953C17.6124 72.1372 17.6733 72.1608 17.7369 72.1609H29.2572C29.3208 72.1609 29.3818 72.1374 29.4268 72.0954C29.4718 72.0535 29.4971 71.9966 29.4971 71.9373V68.7479C29.4965 68.2931 29.3025 67.8571 28.9577 67.5355C28.6128 67.2139 28.1453 67.033 27.6576 67.0324ZM19.9003 60.6934C19.9003 59.8033 20.2795 58.9497 20.9544 58.3204C21.6292 57.691 22.5446 57.3374 23.499 57.3374C24.4534 57.3374 25.3687 57.691 26.0436 58.3204C26.7185 58.9497 27.0976 59.8033 27.0976 60.6934V61.2951L27.0244 61.2681C25.892 60.9014 24.697 60.732 23.499 60.7683C22.3009 60.732 21.1059 60.9014 19.9736 61.2681L19.9003 61.2951V60.6934ZM20.2615 61.6451C21.3064 61.3306 22.4014 61.1853 23.499 61.2156C24.5965 61.1853 25.6915 61.3306 26.7365 61.6451C26.9852 61.7253 27.2235 61.8315 27.4467 61.9615H19.5512C19.7747 61.8315 20.0131 61.7253 20.262 61.6451H20.2615ZM23.2591 67.3799L22.2643 67.6117L21.4994 67.1364V66.394C22.0386 66.6782 22.6404 66.8432 23.2586 66.8765L23.2591 67.3799ZM25.4991 67.1364L24.7342 67.6117L23.7394 67.3799V66.876C24.3576 66.8427 24.9594 66.6777 25.4985 66.3935V67.1359L25.4991 67.1364ZM23.5487 66.4353C23.5166 66.4292 23.4835 66.4292 23.4515 66.4353C22.5057 66.4227 21.6032 66.0638 20.9388 65.436C20.2744 64.8082 19.9014 63.9619 19.9003 63.0798V62.4088H27.0976V63.0803C27.0964 63.9621 26.7235 64.8082 26.0594 65.4358C25.3952 66.0635 24.4931 66.4225 23.5476 66.4353H23.5487Z" fill="#CED4DA" stroke="#CED4DA" stroke-width="2" mask="url(#path-15-inside-6)"/>
<mask id="path-16-inside-7" fill="white">
<path d="M23.4987 58.3818C23.3248 58.3818 23.1547 58.4299 23.0101 58.5201C22.8654 58.6102 22.7527 58.7383 22.6861 58.8882C22.6195 59.0381 22.6021 59.203 22.636 59.3621C22.67 59.5213 22.7538 59.6674 22.8768 59.7821C22.9998 59.8968 23.1565 59.975 23.3271 60.0066C23.4977 60.0383 23.6746 60.022 23.8353 59.9599C23.996 59.8979 24.1334 59.7927 24.2301 59.6578C24.3267 59.5229 24.3783 59.3643 24.3783 59.2021C24.378 58.9846 24.2852 58.7762 24.1204 58.6224C23.9555 58.4686 23.7319 58.3821 23.4987 58.3818ZM23.4987 59.5751C23.4196 59.5751 23.3423 59.5532 23.2765 59.5122C23.2108 59.4712 23.1595 59.413 23.1293 59.3448C23.099 59.2767 23.0911 59.2017 23.1065 59.1294C23.1219 59.057 23.16 58.9906 23.2159 58.9384C23.2719 58.8862 23.3431 58.8507 23.4207 58.8363C23.4983 58.8219 23.5787 58.8293 23.6518 58.8576C23.7248 58.8858 23.7873 58.9336 23.8312 58.9949C23.8752 59.0562 23.8986 59.1283 23.8986 59.2021C23.8983 59.3009 23.8561 59.3955 23.7811 59.4653C23.7062 59.5351 23.6046 59.5744 23.4987 59.5745V59.5751Z"/>
</mask>
<path d="M23.4987 58.3818C23.3248 58.3818 23.1547 58.4299 23.0101 58.5201C22.8654 58.6102 22.7527 58.7383 22.6861 58.8882C22.6195 59.0381 22.6021 59.203 22.636 59.3621C22.67 59.5213 22.7538 59.6674 22.8768 59.7821C22.9998 59.8968 23.1565 59.975 23.3271 60.0066C23.4977 60.0383 23.6746 60.022 23.8353 59.9599C23.996 59.8979 24.1334 59.7927 24.2301 59.6578C24.3267 59.5229 24.3783 59.3643 24.3783 59.2021C24.378 58.9846 24.2852 58.7762 24.1204 58.6224C23.9555 58.4686 23.7319 58.3821 23.4987 58.3818ZM23.4987 59.5751C23.4196 59.5751 23.3423 59.5532 23.2765 59.5122C23.2108 59.4712 23.1595 59.413 23.1293 59.3448C23.099 59.2767 23.0911 59.2017 23.1065 59.1294C23.1219 59.057 23.16 58.9906 23.2159 58.9384C23.2719 58.8862 23.3431 58.8507 23.4207 58.8363C23.4983 58.8219 23.5787 58.8293 23.6518 58.8576C23.7248 58.8858 23.7873 58.9336 23.8312 58.9949C23.8752 59.0562 23.8986 59.1283 23.8986 59.2021C23.8983 59.3009 23.8561 59.3955 23.7811 59.4653C23.7062 59.5351 23.6046 59.5744 23.4987 59.5745V59.5751Z" fill="#CED4DA"/>
<path d="M23.4987 58.3818L23.4999 57.3818H23.4987V58.3818ZM24.3783 59.2021H25.3783L25.3783 59.2008L24.3783 59.2021ZM23.4987 59.5751V60.5751H24.4987V59.5751H23.4987ZM23.8986 59.2021L24.8986 59.205V59.2021H23.8986ZM23.4987 59.5745L23.4974 58.5745L22.4987 58.5758V59.5745H23.4987ZM23.4987 57.3818C23.1419 57.3818 22.788 57.4802 22.4812 57.6714L23.5389 59.3688C23.5215 59.3797 23.5076 59.3818 23.4987 59.3818V57.3818ZM22.4812 57.6714C22.1739 57.8629 21.9233 58.1422 21.7722 58.4823L23.6 59.2941C23.5821 59.3345 23.5569 59.3576 23.5389 59.3688L22.4812 57.6714ZM21.7722 58.4823C21.6207 58.8234 21.5797 59.2034 21.658 59.5707L23.614 59.1535C23.6245 59.2027 23.6184 59.2527 23.6 59.2941L21.7722 58.4823ZM21.658 59.5707C21.7363 59.9374 21.9272 60.264 22.1947 60.5135L23.5588 59.0508C23.5803 59.0708 23.6037 59.1051 23.614 59.1535L21.658 59.5707ZM22.1947 60.5135C22.4615 60.7622 22.7932 60.9246 23.1447 60.9898L23.5095 59.0234C23.5198 59.0253 23.538 59.0315 23.5588 59.0508L22.1947 60.5135ZM23.1447 60.9898C23.4961 61.055 23.8609 61.0221 24.1957 60.8928L23.475 59.0271C23.4822 59.0244 23.4883 59.0231 23.4935 59.0226C23.4986 59.0222 23.5039 59.0224 23.5095 59.0234L23.1447 60.9898ZM24.1957 60.8928C24.5308 60.7633 24.8283 60.5398 25.0429 60.2403L23.4172 59.0754C23.4385 59.0456 23.4613 59.0324 23.475 59.0271L24.1957 60.8928ZM25.0429 60.2403C25.2583 59.9397 25.3783 59.5783 25.3783 59.2021H23.3783C23.3783 59.1504 23.3951 59.1062 23.4172 59.0754L25.0429 60.2403ZM25.3783 59.2008C25.3776 58.6952 25.1613 58.2258 24.8024 57.8911L23.4383 59.3537C23.4091 59.3265 23.3784 59.2741 23.3783 59.2034L25.3783 59.2008ZM24.8024 57.8911C24.4458 57.5585 23.9762 57.3824 23.4999 57.3818L23.4976 59.3818C23.4912 59.3818 23.4834 59.3807 23.4743 59.3772C23.4651 59.3736 23.4523 59.3667 23.4383 59.3537L24.8024 57.8911ZM23.4987 58.5751C23.6025 58.5751 23.709 58.6035 23.8054 58.6635L22.7477 60.3609C22.9756 60.5029 23.2368 60.5751 23.4987 60.5751V58.5751ZM23.8054 58.6635C23.9024 58.7239 23.989 58.8169 24.0432 58.9389L22.2153 59.7508C22.3301 60.0091 22.5192 60.2185 22.7477 60.3609L23.8054 58.6635ZM24.0432 58.9389C24.0978 59.062 24.1135 59.202 24.0845 59.338L22.1285 58.9208C22.0686 59.2014 22.1001 59.4913 22.2153 59.7508L24.0432 58.9389ZM24.0845 59.338C24.0557 59.4732 23.9865 59.5871 23.898 59.6697L22.5339 58.2071C22.3335 58.394 22.1882 58.6408 22.1285 58.9208L24.0845 59.338ZM23.898 59.6697C23.8101 59.7517 23.7064 59.8004 23.6031 59.8196L23.2383 57.8531C22.9799 57.901 22.7336 58.0208 22.5339 58.2071L23.898 59.6697ZM23.6031 59.8196C23.5 59.8387 23.3924 59.8294 23.2914 59.7904L24.0121 57.9247C23.765 57.8293 23.4966 57.8052 23.2383 57.8531L23.6031 59.8196ZM23.2914 59.7904C23.1901 59.7512 23.0924 59.6807 23.0183 59.5773L24.6441 58.4125C24.4822 58.1865 24.2596 58.0203 24.0121 57.9247L23.2914 59.7904ZM23.0183 59.5773C22.9436 59.473 22.8986 59.3423 22.8986 59.2021H24.8986C24.8986 58.9144 24.8068 58.6395 24.6441 58.4125L23.0183 59.5773ZM22.8986 59.1992C22.8992 59.0101 22.9806 58.8444 23.0996 58.7335L24.4627 60.1971C24.7316 59.9467 24.8975 59.5916 24.8986 59.205L22.8986 59.1992ZM23.0996 58.7335C23.2163 58.6249 23.3604 58.5747 23.4974 58.5745L23.5 60.5745C23.8488 60.5741 24.1961 60.4454 24.4627 60.1971L23.0996 58.7335ZM22.4987 59.5745V59.5751H24.4987V59.5745H22.4987Z" fill="#CED4DA" mask="url(#path-16-inside-7)"/>
<mask id="path-18-inside-8" fill="white">
<path d="M77.4929 79.7903H75.8364V78.8075C76.327 78.4345 76.7245 77.9541 76.9981 77.4036C77.2718 76.8531 77.4142 76.2473 77.4143 75.6333V74.9269H77.8087C77.8715 74.9269 77.9316 74.9021 77.976 74.858C78.0204 74.8139 78.0453 74.7541 78.0453 74.6917C78.0453 74.4618 77.8173 74.2093 77.4143 73.9816V73.1241C77.4143 72.0631 76.9904 71.0455 76.236 70.2953C75.4816 69.545 74.4584 69.1235 73.3915 69.1235C72.3245 69.1235 71.3013 69.545 70.5469 70.2953C69.7925 71.0455 69.3687 72.0631 69.3687 73.1241V73.9816C68.9656 74.2104 68.7376 74.4639 68.7376 74.6917C68.7376 74.7541 68.7626 74.8139 68.8069 74.858C68.8513 74.9021 68.9115 74.9269 68.9742 74.9269H69.3687V75.6333C69.3688 76.2473 69.5112 76.8531 69.7848 77.4036C70.0584 77.9541 70.456 78.4345 70.9465 78.8075V79.7903H69.2894C68.8084 79.7908 68.3471 79.981 68.0069 80.3193C67.6667 80.6576 67.4754 81.1163 67.475 81.5947V82.8482C67.475 82.9106 67.4999 82.9705 67.5443 83.0146C67.5887 83.0587 67.6488 83.0835 67.7116 83.0835C67.7743 83.0835 67.8345 83.0587 67.8789 83.0146C67.9232 82.9705 67.9482 82.9106 67.9482 82.8482V81.5937C67.9489 81.2404 68.0904 80.9017 68.3417 80.652C68.593 80.4023 68.9336 80.2618 69.2889 80.2614H71.1103L71.9974 80.8509L72.0081 80.8568L72.0221 80.8648L72.0426 80.8739L72.0561 80.8793L72.0798 80.8852H72.0922C72.1036 80.8869 72.1151 80.8878 72.1267 80.8879C72.1397 80.8877 72.1527 80.8864 72.1655 80.8841L72.1838 80.8809L73.3888 80.5813L74.5937 80.8809L74.6126 80.8847C74.6252 80.8868 74.638 80.8878 74.6508 80.8879C74.6624 80.8878 74.6739 80.8869 74.6853 80.8852H74.6977C74.7057 80.8836 74.7136 80.8817 74.7214 80.8793L74.7349 80.8739L74.7554 80.8648L74.7694 80.8568L74.7802 80.8509L75.6672 80.2614H77.4886C77.8441 80.2618 78.1849 80.4024 78.4362 80.6524C78.6876 80.9024 78.829 81.2412 78.8294 81.5947V84.717H67.9438V83.7909C67.9438 83.7285 67.9189 83.6687 67.8746 83.6246C67.8302 83.5804 67.77 83.5556 67.7073 83.5556C67.6445 83.5556 67.5844 83.5804 67.54 83.6246C67.4956 83.6687 67.4707 83.7285 67.4707 83.7909V84.9495C67.4708 85.0119 67.4958 85.0717 67.5402 85.1158C67.5845 85.1598 67.6446 85.1847 67.7073 85.1848H79.0708C79.1335 85.1848 79.1937 85.16 79.2381 85.1159C79.2824 85.0718 79.3074 85.0119 79.3074 84.9495V81.5947C79.3068 81.1164 79.1155 80.6577 78.7753 80.3195C78.4352 79.9812 77.974 79.7909 77.4929 79.7903ZM69.8413 73.1225C69.8413 72.1863 70.2152 71.2884 70.8809 70.6264C71.5466 69.9644 72.4495 69.5925 73.3909 69.5925C74.3323 69.5925 75.2352 69.9644 75.9009 70.6264C76.5666 71.2884 76.9406 72.1863 76.9406 73.1225V73.7554L76.8684 73.727C75.7514 73.3413 74.5727 73.1631 73.3909 73.2013C72.2092 73.1631 71.0304 73.3413 69.9135 73.727L69.8413 73.7554V73.1225ZM70.1975 74.1236C71.2282 73.7928 72.3083 73.64 73.3909 73.6718C74.4735 73.64 75.5536 73.7928 76.5844 74.1236C76.8297 74.208 77.0647 74.3196 77.2849 74.4564H69.4969C69.7173 74.3196 69.9525 74.208 70.198 74.1236H70.1975ZM73.1543 80.1558L72.173 80.3997L71.4186 79.8997V79.1188C71.9504 79.4177 72.544 79.5913 73.1538 79.6263L73.1543 80.1558ZM75.3638 79.8997L74.6093 80.3997L73.628 80.1558V79.6258C74.2379 79.5908 74.8315 79.4172 75.3633 79.1183V79.8991L75.3638 79.8997ZM73.44 79.1622C73.4083 79.1558 73.3757 79.1558 73.344 79.1622C72.4112 79.149 71.5209 78.7715 70.8656 78.1111C70.2102 77.4507 69.8423 76.5605 69.8413 75.6327V74.9269H76.9406V75.6333C76.9394 76.5608 76.5716 77.4507 75.9165 78.1109C75.2613 78.7711 74.3715 79.1487 73.4389 79.1622H73.44Z"/>
</mask>
<path d="M77.4929 79.7903H75.8364V78.8075C76.327 78.4345 76.7245 77.9541 76.9981 77.4036C77.2718 76.8531 77.4142 76.2473 77.4143 75.6333V74.9269H77.8087C77.8715 74.9269 77.9316 74.9021 77.976 74.858C78.0204 74.8139 78.0453 74.7541 78.0453 74.6917C78.0453 74.4618 77.8173 74.2093 77.4143 73.9816V73.1241C77.4143 72.0631 76.9904 71.0455 76.236 70.2953C75.4816 69.545 74.4584 69.1235 73.3915 69.1235C72.3245 69.1235 71.3013 69.545 70.5469 70.2953C69.7925 71.0455 69.3687 72.0631 69.3687 73.1241V73.9816C68.9656 74.2104 68.7376 74.4639 68.7376 74.6917C68.7376 74.7541 68.7626 74.8139 68.8069 74.858C68.8513 74.9021 68.9115 74.9269 68.9742 74.9269H69.3687V75.6333C69.3688 76.2473 69.5112 76.8531 69.7848 77.4036C70.0584 77.9541 70.456 78.4345 70.9465 78.8075V79.7903H69.2894C68.8084 79.7908 68.3471 79.981 68.0069 80.3193C67.6667 80.6576 67.4754 81.1163 67.475 81.5947V82.8482C67.475 82.9106 67.4999 82.9705 67.5443 83.0146C67.5887 83.0587 67.6488 83.0835 67.7116 83.0835C67.7743 83.0835 67.8345 83.0587 67.8789 83.0146C67.9232 82.9705 67.9482 82.9106 67.9482 82.8482V81.5937C67.9489 81.2404 68.0904 80.9017 68.3417 80.652C68.593 80.4023 68.9336 80.2618 69.2889 80.2614H71.1103L71.9974 80.8509L72.0081 80.8568L72.0221 80.8648L72.0426 80.8739L72.0561 80.8793L72.0798 80.8852H72.0922C72.1036 80.8869 72.1151 80.8878 72.1267 80.8879C72.1397 80.8877 72.1527 80.8864 72.1655 80.8841L72.1838 80.8809L73.3888 80.5813L74.5937 80.8809L74.6126 80.8847C74.6252 80.8868 74.638 80.8878 74.6508 80.8879C74.6624 80.8878 74.6739 80.8869 74.6853 80.8852H74.6977C74.7057 80.8836 74.7136 80.8817 74.7214 80.8793L74.7349 80.8739L74.7554 80.8648L74.7694 80.8568L74.7802 80.8509L75.6672 80.2614H77.4886C77.8441 80.2618 78.1849 80.4024 78.4362 80.6524C78.6876 80.9024 78.829 81.2412 78.8294 81.5947V84.717H67.9438V83.7909C67.9438 83.7285 67.9189 83.6687 67.8746 83.6246C67.8302 83.5804 67.77 83.5556 67.7073 83.5556C67.6445 83.5556 67.5844 83.5804 67.54 83.6246C67.4956 83.6687 67.4707 83.7285 67.4707 83.7909V84.9495C67.4708 85.0119 67.4958 85.0717 67.5402 85.1158C67.5845 85.1598 67.6446 85.1847 67.7073 85.1848H79.0708C79.1335 85.1848 79.1937 85.16 79.2381 85.1159C79.2824 85.0718 79.3074 85.0119 79.3074 84.9495V81.5947C79.3068 81.1164 79.1155 80.6577 78.7753 80.3195C78.4352 79.9812 77.974 79.7909 77.4929 79.7903ZM69.8413 73.1225C69.8413 72.1863 70.2152 71.2884 70.8809 70.6264C71.5466 69.9644 72.4495 69.5925 73.3909 69.5925C74.3323 69.5925 75.2352 69.9644 75.9009 70.6264C76.5666 71.2884 76.9406 72.1863 76.9406 73.1225V73.7554L76.8684 73.727C75.7514 73.3413 74.5727 73.1631 73.3909 73.2013C72.2092 73.1631 71.0304 73.3413 69.9135 73.727L69.8413 73.7554V73.1225ZM70.1975 74.1236C71.2282 73.7928 72.3083 73.64 73.3909 73.6718C74.4735 73.64 75.5536 73.7928 76.5844 74.1236C76.8297 74.208 77.0647 74.3196 77.2849 74.4564H69.4969C69.7173 74.3196 69.9525 74.208 70.198 74.1236H70.1975ZM73.1543 80.1558L72.173 80.3997L71.4186 79.8997V79.1188C71.9504 79.4177 72.544 79.5913 73.1538 79.6263L73.1543 80.1558ZM75.3638 79.8997L74.6093 80.3997L73.628 80.1558V79.6258C74.2379 79.5908 74.8315 79.4172 75.3633 79.1183V79.8991L75.3638 79.8997ZM73.44 79.1622C73.4083 79.1558 73.3757 79.1558 73.344 79.1622C72.4112 79.149 71.5209 78.7715 70.8656 78.1111C70.2102 77.4507 69.8423 76.5605 69.8413 75.6327V74.9269H76.9406V75.6333C76.9394 76.5608 76.5716 77.4507 75.9165 78.1109C75.2613 78.7711 74.3715 79.1487 73.4389 79.1622H73.44Z" fill="#CED4DA" stroke="#CED4DA" stroke-width="2" mask="url(#path-18-inside-8)"/>
<mask id="path-19-inside-9" fill="white">
<path d="M73.3911 70.6909C73.2195 70.6909 73.0517 70.7415 72.909 70.8363C72.7664 70.9311 72.6551 71.0659 72.5895 71.2235C72.5238 71.3812 72.5066 71.5547 72.5401 71.7221C72.5736 71.8894 72.6562 72.0432 72.7776 72.1638C72.8989 72.2845 73.0535 72.3667 73.2218 72.4C73.3901 72.4332 73.5645 72.4162 73.7231 72.3509C73.8816 72.2856 74.0171 72.175 74.1124 72.0331C74.2078 71.8912 74.2587 71.7244 74.2587 71.5537C74.2584 71.325 74.1669 71.1057 74.0042 70.9439C73.8416 70.7822 73.6211 70.6912 73.3911 70.6909ZM73.3911 71.946C73.313 71.946 73.2368 71.923 73.1719 71.8799C73.107 71.8368 73.0565 71.7755 73.0266 71.7038C72.9968 71.6322 72.9889 71.5533 73.0042 71.4772C73.0194 71.4011 73.057 71.3312 73.1121 71.2763C73.1673 71.2215 73.2376 71.1841 73.3141 71.169C73.3906 71.1538 73.4699 71.1616 73.542 71.1913C73.6141 71.221 73.6757 71.2713 73.719 71.3358C73.7624 71.4003 73.7855 71.4761 73.7855 71.5537C73.7852 71.6576 73.7436 71.7572 73.6696 71.8306C73.5957 71.904 73.4955 71.9453 73.3911 71.9455V71.946Z"/>
</mask>
<path d="M73.3911 70.6909C73.2195 70.6909 73.0517 70.7415 72.909 70.8363C72.7664 70.9311 72.6551 71.0659 72.5895 71.2235C72.5238 71.3812 72.5066 71.5547 72.5401 71.7221C72.5736 71.8894 72.6562 72.0432 72.7776 72.1638C72.8989 72.2845 73.0535 72.3667 73.2218 72.4C73.3901 72.4332 73.5645 72.4162 73.7231 72.3509C73.8816 72.2856 74.0171 72.175 74.1124 72.0331C74.2078 71.8912 74.2587 71.7244 74.2587 71.5537C74.2584 71.325 74.1669 71.1057 74.0042 70.9439C73.8416 70.7822 73.6211 70.6912 73.3911 70.6909ZM73.3911 71.946C73.313 71.946 73.2368 71.923 73.1719 71.8799C73.107 71.8368 73.0565 71.7755 73.0266 71.7038C72.9968 71.6322 72.9889 71.5533 73.0042 71.4772C73.0194 71.4011 73.057 71.3312 73.1121 71.2763C73.1673 71.2215 73.2376 71.1841 73.3141 71.169C73.3906 71.1538 73.4699 71.1616 73.542 71.1913C73.6141 71.221 73.6757 71.2713 73.719 71.3358C73.7624 71.4003 73.7855 71.4761 73.7855 71.5537C73.7852 71.6576 73.7436 71.7572 73.6696 71.8306C73.5957 71.904 73.4955 71.9453 73.3911 71.9455V71.946Z" fill="#CED4DA"/>
<path d="M73.3911 70.6909L73.3923 69.6909H73.3911V70.6909ZM74.2587 71.5537H75.2587L75.2587 71.5525L74.2587 71.5537ZM73.3911 71.946V72.946H74.3911V71.946H73.3911ZM73.7855 71.5537L74.7855 71.5565V71.5537H73.7855ZM73.3911 71.9455L73.3897 70.9455L72.3911 70.9468V71.9455H73.3911ZM73.3911 69.6909C73.0229 69.6909 72.6626 69.7995 72.3556 70.0034L73.4625 71.6692C73.4409 71.6836 73.416 71.6909 73.3911 71.6909V69.6909ZM72.3556 70.0034C72.0486 70.2075 71.8084 70.498 71.6664 70.839L73.5126 71.608C73.5019 71.6338 73.4841 71.6548 73.4625 71.6692L72.3556 70.0034ZM71.6664 70.839C71.5243 71.1801 71.487 71.5557 71.5595 71.9182L73.5207 71.5259C73.5262 71.5536 73.5233 71.5823 73.5126 71.608L71.6664 70.839ZM71.5595 71.9182C71.632 72.2806 71.8108 72.6127 72.0724 72.8729L73.4827 71.4548C73.5016 71.4736 73.5151 71.4982 73.5207 71.5259L71.5595 71.9182ZM72.0724 72.8729C72.334 73.133 72.6665 73.3095 73.0277 73.3809L73.4158 71.419C73.4405 71.4238 73.4638 71.436 73.4827 71.4548L72.0724 72.8729ZM73.0277 73.3809C73.3889 73.4524 73.7634 73.4158 74.104 73.2755L73.3422 71.4262C73.3657 71.4165 73.3913 71.4141 73.4158 71.419L73.0277 73.3809ZM74.104 73.2755C74.4446 73.1352 74.7366 72.8972 74.9425 72.5908L73.2824 71.4754C73.2976 71.4528 73.3186 71.4359 73.3422 71.4262L74.104 73.2755ZM74.9425 72.5908C75.1484 72.2843 75.2587 71.9234 75.2587 71.5537H73.2587C73.2587 71.5254 73.2672 71.4981 73.2824 71.4754L74.9425 72.5908ZM75.2587 71.5525C75.258 71.0572 75.0599 70.5834 74.7094 70.2349L73.2991 71.653C73.2739 71.6279 73.2587 71.5928 73.2587 71.555L75.2587 71.5525ZM74.7094 70.2349C74.3591 69.8865 73.8853 69.6915 73.3923 69.6909L73.3898 71.6909C73.3568 71.6909 73.3241 71.6779 73.2991 71.653L74.7094 70.2349ZM73.3911 70.946C73.5096 70.946 73.6259 70.9809 73.7253 71.047L72.6185 72.7128C72.8476 72.8651 73.1165 72.946 73.3911 72.946V70.946ZM73.7253 71.047C73.8249 71.1131 73.9032 71.2077 73.9497 71.3193L72.1035 72.0883C72.2097 72.3434 72.3892 72.5604 72.6185 72.7128L73.7253 71.047ZM73.9497 71.3193C73.9963 71.4311 74.0085 71.5543 73.9847 71.6733L72.0236 71.2811C71.9693 71.5522 71.9972 71.8333 72.1035 72.0883L73.9497 71.3193ZM73.9847 71.6733C73.9609 71.7923 73.9024 71.9008 73.8173 71.9854L72.407 70.5673C72.2116 70.7616 72.0778 71.0099 72.0236 71.2811L73.9847 71.6733ZM73.8173 71.9854C73.7322 72.07 73.6245 72.127 73.5082 72.15L73.1201 70.188C72.8506 70.2413 72.6024 70.373 72.407 70.5673L73.8173 71.9854ZM73.5082 72.15C73.3918 72.173 73.2711 72.1612 73.1611 72.1159L73.9229 70.2667C73.6688 70.162 73.3894 70.1347 73.1201 70.188L73.5082 72.15ZM73.1611 72.1159C73.0511 72.0706 72.9562 71.9935 72.889 71.8935L74.5491 70.7781C74.3952 70.5491 74.1771 70.3714 73.9229 70.2667L73.1611 72.1159ZM72.889 71.8935C72.8218 71.7934 72.7855 71.6752 72.7855 71.5537H74.7855C74.7855 71.2771 74.703 71.0072 74.5491 70.7781L72.889 71.8935ZM72.7855 71.551C72.786 71.3886 72.8511 71.2341 72.965 71.1211L74.3743 72.5402C74.636 72.2803 74.7845 71.9267 74.7855 71.5565L72.7855 71.551ZM72.965 71.1211C73.0786 71.0082 73.2315 70.9457 73.3897 70.9455L73.3924 72.9455C73.7596 72.945 74.1128 72.7999 74.3743 72.5402L72.965 71.1211ZM72.3911 71.9455V71.946H74.3911V71.9455H72.3911Z" fill="#CED4DA" mask="url(#path-19-inside-9)"/>
<mask id="path-21-inside-10" fill="white">
<path d="M77.6312 79.2644H75.9518V78.33C76.4492 77.9754 76.8522 77.5187 77.1296 76.9954C77.407 76.472 77.5514 75.8961 77.5515 75.3123V74.6408H77.9514C78.015 74.6408 78.076 74.6172 78.121 74.5753C78.1659 74.5333 78.1912 74.4764 78.1912 74.4171C78.1912 74.1985 77.9601 73.9586 77.5515 73.742V72.9269C77.5515 71.9182 77.1218 70.9508 76.357 70.2375C75.5921 69.5242 74.5548 69.1235 73.4732 69.1235C72.3915 69.1235 71.3542 69.5242 70.5894 70.2375C69.8245 70.9508 69.3949 71.9182 69.3949 72.9269V73.742C68.9862 73.9596 68.7551 74.2006 68.7551 74.4171C68.7551 74.4764 68.7804 74.5333 68.8254 74.5753C68.8703 74.6172 68.9313 74.6408 68.9949 74.6408H69.3949V75.3123C69.3949 75.8961 69.5393 76.472 69.8167 76.9954C70.0941 77.5187 70.4972 77.9754 70.9945 78.33V79.2644H69.3145C68.8268 79.2648 68.3592 79.4456 68.0143 79.7673C67.6694 80.0889 67.4755 80.525 67.4751 80.9798V82.1715C67.4751 82.2308 67.5003 82.2877 67.5453 82.3297C67.5903 82.3716 67.6513 82.3952 67.7149 82.3952C67.7785 82.3952 67.8395 82.3716 67.8845 82.3297C67.9295 82.2877 67.9547 82.2308 67.9547 82.1715V80.9788C67.9555 80.6429 68.0989 80.321 68.3537 80.0836C68.6085 79.8462 68.9538 79.7126 69.314 79.7122H71.1606L72.0598 80.2726L72.0707 80.2782L72.085 80.2859L72.1057 80.2946L72.1194 80.2996L72.1434 80.3053H72.156C72.1675 80.3069 72.1792 80.3077 72.1909 80.3078C72.2041 80.3076 72.2173 80.3064 72.2303 80.3042L72.2489 80.3012L73.4704 80.0164L74.692 80.3012L74.7111 80.3047C74.7239 80.3067 74.7369 80.3078 74.7499 80.3078C74.7616 80.3077 74.7733 80.3069 74.7849 80.3053H74.7975C74.8056 80.3038 74.8136 80.3019 74.8215 80.2996L74.8351 80.2946L74.8559 80.2859L74.8701 80.2782L74.881 80.2726L75.7803 79.7122H77.6269C77.9872 79.7126 78.3327 79.8463 78.5875 80.0839C78.8423 80.3216 78.9857 80.6437 78.9861 80.9798V83.9481H67.9504V83.0677C67.9504 83.0084 67.9251 82.9515 67.8801 82.9095C67.8352 82.8676 67.7741 82.844 67.7105 82.844C67.6469 82.844 67.5859 82.8676 67.5409 82.9095C67.496 82.9515 67.4707 83.0084 67.4707 83.0677V84.1692C67.4708 84.2285 67.4962 84.2853 67.5411 84.3272C67.5861 84.3691 67.647 84.3927 67.7105 84.3929H79.2309C79.2945 84.3929 79.3555 84.3693 79.4005 84.3274C79.4454 84.2854 79.4707 84.2285 79.4707 84.1692V80.9798C79.4701 80.525 79.2761 80.089 78.9313 79.7674C78.5865 79.4458 78.1189 79.2649 77.6312 79.2644ZM69.874 72.9253C69.874 72.0353 70.2531 71.1817 70.928 70.5523C71.6029 69.9229 72.5182 69.5693 73.4726 69.5693C74.427 69.5693 75.3424 69.9229 76.0172 70.5523C76.6921 71.1817 77.0712 72.0353 77.0712 72.9253V73.527L76.998 73.5C75.8657 73.1333 74.6707 72.9639 73.4726 73.0002C72.2746 72.9639 71.0796 73.1333 69.9472 73.5L69.874 73.527V72.9253ZM70.2351 73.8771C71.2801 73.5625 72.3751 73.4173 73.4726 73.4476C74.5702 73.4173 75.6652 73.5625 76.7101 73.8771C76.9589 73.9573 77.1971 74.0634 77.4203 74.1934H69.5249C69.7483 74.0634 69.9867 73.9573 70.2356 73.8771H70.2351ZM73.2328 79.6118L72.2379 79.8437L71.4731 79.3683V78.626C72.0122 78.9101 72.614 79.0752 73.2322 79.1085L73.2328 79.6118ZM75.4727 79.3683L74.7079 79.8437L73.713 79.6118V79.108C74.3312 79.0747 74.933 78.9096 75.4722 78.6255V79.3678L75.4727 79.3683ZM73.5223 78.6673C73.4902 78.6611 73.4572 78.6611 73.4251 78.6673C72.4793 78.6547 71.5768 78.2957 70.9124 77.6679C70.248 77.0401 69.875 76.1938 69.874 75.3118V74.6408H77.0712V75.3123C77.0701 76.1941 76.6972 77.0401 76.033 77.6678C75.3688 78.2954 74.4667 78.6544 73.5212 78.6673H73.5223Z"/>
</mask>
<path d="M77.6312 79.2644H75.9518V78.33C76.4492 77.9754 76.8522 77.5187 77.1296 76.9954C77.407 76.472 77.5514 75.8961 77.5515 75.3123V74.6408H77.9514C78.015 74.6408 78.076 74.6172 78.121 74.5753C78.1659 74.5333 78.1912 74.4764 78.1912 74.4171C78.1912 74.1985 77.9601 73.9586 77.5515 73.742V72.9269C77.5515 71.9182 77.1218 70.9508 76.357 70.2375C75.5921 69.5242 74.5548 69.1235 73.4732 69.1235C72.3915 69.1235 71.3542 69.5242 70.5894 70.2375C69.8245 70.9508 69.3949 71.9182 69.3949 72.9269V73.742C68.9862 73.9596 68.7551 74.2006 68.7551 74.4171C68.7551 74.4764 68.7804 74.5333 68.8254 74.5753C68.8703 74.6172 68.9313 74.6408 68.9949 74.6408H69.3949V75.3123C69.3949 75.8961 69.5393 76.472 69.8167 76.9954C70.0941 77.5187 70.4972 77.9754 70.9945 78.33V79.2644H69.3145C68.8268 79.2648 68.3592 79.4456 68.0143 79.7673C67.6694 80.0889 67.4755 80.525 67.4751 80.9798V82.1715C67.4751 82.2308 67.5003 82.2877 67.5453 82.3297C67.5903 82.3716 67.6513 82.3952 67.7149 82.3952C67.7785 82.3952 67.8395 82.3716 67.8845 82.3297C67.9295 82.2877 67.9547 82.2308 67.9547 82.1715V80.9788C67.9555 80.6429 68.0989 80.321 68.3537 80.0836C68.6085 79.8462 68.9538 79.7126 69.314 79.7122H71.1606L72.0598 80.2726L72.0707 80.2782L72.085 80.2859L72.1057 80.2946L72.1194 80.2996L72.1434 80.3053H72.156C72.1675 80.3069 72.1792 80.3077 72.1909 80.3078C72.2041 80.3076 72.2173 80.3064 72.2303 80.3042L72.2489 80.3012L73.4704 80.0164L74.692 80.3012L74.7111 80.3047C74.7239 80.3067 74.7369 80.3078 74.7499 80.3078C74.7616 80.3077 74.7733 80.3069 74.7849 80.3053H74.7975C74.8056 80.3038 74.8136 80.3019 74.8215 80.2996L74.8351 80.2946L74.8559 80.2859L74.8701 80.2782L74.881 80.2726L75.7803 79.7122H77.6269C77.9872 79.7126 78.3327 79.8463 78.5875 80.0839C78.8423 80.3216 78.9857 80.6437 78.9861 80.9798V83.9481H67.9504V83.0677C67.9504 83.0084 67.9251 82.9515 67.8801 82.9095C67.8352 82.8676 67.7741 82.844 67.7105 82.844C67.6469 82.844 67.5859 82.8676 67.5409 82.9095C67.496 82.9515 67.4707 83.0084 67.4707 83.0677V84.1692C67.4708 84.2285 67.4962 84.2853 67.5411 84.3272C67.5861 84.3691 67.647 84.3927 67.7105 84.3929H79.2309C79.2945 84.3929 79.3555 84.3693 79.4005 84.3274C79.4454 84.2854 79.4707 84.2285 79.4707 84.1692V80.9798C79.4701 80.525 79.2761 80.089 78.9313 79.7674C78.5865 79.4458 78.1189 79.2649 77.6312 79.2644ZM69.874 72.9253C69.874 72.0353 70.2531 71.1817 70.928 70.5523C71.6029 69.9229 72.5182 69.5693 73.4726 69.5693C74.427 69.5693 75.3424 69.9229 76.0172 70.5523C76.6921 71.1817 77.0712 72.0353 77.0712 72.9253V73.527L76.998 73.5C75.8657 73.1333 74.6707 72.9639 73.4726 73.0002C72.2746 72.9639 71.0796 73.1333 69.9472 73.5L69.874 73.527V72.9253ZM70.2351 73.8771C71.2801 73.5625 72.3751 73.4173 73.4726 73.4476C74.5702 73.4173 75.6652 73.5625 76.7101 73.8771C76.9589 73.9573 77.1971 74.0634 77.4203 74.1934H69.5249C69.7483 74.0634 69.9867 73.9573 70.2356 73.8771H70.2351ZM73.2328 79.6118L72.2379 79.8437L71.4731 79.3683V78.626C72.0122 78.9101 72.614 79.0752 73.2322 79.1085L73.2328 79.6118ZM75.4727 79.3683L74.7079 79.8437L73.713 79.6118V79.108C74.3312 79.0747 74.933 78.9096 75.4722 78.6255V79.3678L75.4727 79.3683ZM73.5223 78.6673C73.4902 78.6611 73.4572 78.6611 73.4251 78.6673C72.4793 78.6547 71.5768 78.2957 70.9124 77.6679C70.248 77.0401 69.875 76.1938 69.874 75.3118V74.6408H77.0712V75.3123C77.0701 76.1941 76.6972 77.0401 76.033 77.6678C75.3688 78.2954 74.4667 78.6544 73.5212 78.6673H73.5223Z" fill="#CED4DA" stroke="#CED4DA" stroke-width="2" mask="url(#path-21-inside-10)"/>
<mask id="path-22-inside-11" fill="white">
<path d="M73.4723 70.6138C73.2984 70.6138 73.1283 70.6619 72.9837 70.752C72.839 70.8421 72.7263 70.9703 72.6597 71.1201C72.5932 71.27 72.5757 71.435 72.6097 71.5941C72.6436 71.7532 72.7274 71.8994 72.8504 72.0141C72.9734 72.1288 73.1301 72.2069 73.3008 72.2386C73.4714 72.2702 73.6482 72.254 73.809 72.1919C73.9697 72.1298 74.107 72.0247 74.2037 71.8898C74.3003 71.7549 74.3519 71.5963 74.3519 71.4341C74.3516 71.2166 74.2589 71.0081 74.094 70.8543C73.9291 70.7005 73.7055 70.614 73.4723 70.6138ZM73.4723 71.807C73.3933 71.807 73.3159 71.7851 73.2502 71.7441C73.1844 71.7032 73.1332 71.6449 73.1029 71.5768C73.0726 71.5086 73.0647 71.4336 73.0801 71.3613C73.0956 71.2889 73.1336 71.2225 73.1896 71.1703C73.2455 71.1182 73.3168 71.0827 73.3943 71.0683C73.4719 71.0539 73.5523 71.0613 73.6254 71.0895C73.6985 71.1177 73.7609 71.1655 73.8049 71.2269C73.8488 71.2882 73.8723 71.3603 73.8723 71.4341C73.872 71.5328 73.8297 71.6275 73.7548 71.6973C73.6798 71.7671 73.5783 71.8064 73.4723 71.8065V71.807Z"/>
</mask>
<path d="M73.4723 70.6138C73.2984 70.6138 73.1283 70.6619 72.9837 70.752C72.839 70.8421 72.7263 70.9703 72.6597 71.1201C72.5932 71.27 72.5757 71.435 72.6097 71.5941C72.6436 71.7532 72.7274 71.8994 72.8504 72.0141C72.9734 72.1288 73.1301 72.2069 73.3008 72.2386C73.4714 72.2702 73.6482 72.254 73.809 72.1919C73.9697 72.1298 74.107 72.0247 74.2037 71.8898C74.3003 71.7549 74.3519 71.5963 74.3519 71.4341C74.3516 71.2166 74.2589 71.0081 74.094 70.8543C73.9291 70.7005 73.7055 70.614 73.4723 70.6138ZM73.4723 71.807C73.3933 71.807 73.3159 71.7851 73.2502 71.7441C73.1844 71.7032 73.1332 71.6449 73.1029 71.5768C73.0726 71.5086 73.0647 71.4336 73.0801 71.3613C73.0956 71.2889 73.1336 71.2225 73.1896 71.1703C73.2455 71.1182 73.3168 71.0827 73.3943 71.0683C73.4719 71.0539 73.5523 71.0613 73.6254 71.0895C73.6985 71.1177 73.7609 71.1655 73.8049 71.2269C73.8488 71.2882 73.8723 71.3603 73.8723 71.4341C73.872 71.5328 73.8297 71.6275 73.7548 71.6973C73.6798 71.7671 73.5783 71.8064 73.4723 71.8065V71.807Z" fill="#CED4DA"/>
<path d="M73.4723 70.6138L73.4735 69.6138H73.4723V70.6138ZM74.3519 71.4341H75.3519L75.3519 71.4327L74.3519 71.4341ZM73.4723 71.807V72.807H74.4723V71.807H73.4723ZM73.8723 71.4341L74.8723 71.437V71.4341H73.8723ZM73.4723 71.8065L73.4711 70.8065L72.4723 70.8078V71.8065H73.4723ZM73.4723 69.6138C73.1155 69.6138 72.7616 69.7122 72.4548 69.9033L73.5125 71.6007C73.4951 71.6116 73.4813 71.6138 73.4723 71.6138V69.6138ZM72.4548 69.9033C72.1475 70.0948 71.8969 70.3741 71.7458 70.7142L73.5736 71.5261C73.5557 71.5664 73.5306 71.5895 73.5125 71.6007L72.4548 69.9033ZM71.7458 70.7142C71.5943 71.0554 71.5533 71.4353 71.6317 71.8027L73.5877 71.3855C73.5982 71.4346 73.592 71.4847 73.5736 71.5261L71.7458 70.7142ZM71.6317 71.8027C71.7099 72.1694 71.9009 72.4959 72.1684 72.7454L73.5324 71.2828C73.5539 71.3028 73.5773 71.337 73.5877 71.3855L71.6317 71.8027ZM72.1684 72.7454C72.4351 72.9942 72.7669 73.1566 73.1184 73.2218L73.4831 71.2553C73.4934 71.2572 73.5117 71.2634 73.5324 71.2828L72.1684 72.7454ZM73.1184 73.2218C73.4697 73.287 73.8345 73.254 74.1693 73.1247L73.4486 71.2591C73.4558 71.2563 73.462 71.255 73.4671 71.2546C73.4722 71.2541 73.4775 71.2543 73.4831 71.2553L73.1184 73.2218ZM74.1693 73.1247C74.5045 72.9952 74.802 72.7718 75.0166 72.4722L73.3908 71.3074C73.4121 71.2776 73.4349 71.2644 73.4486 71.2591L74.1693 73.1247ZM75.0166 72.4722C75.2319 72.1716 75.3519 71.8103 75.3519 71.4341H73.3519C73.3519 71.3823 73.3688 71.3381 73.3908 71.3074L75.0166 72.4722ZM75.3519 71.4327C75.3513 70.9271 75.135 70.4578 74.776 70.123L73.412 71.5857C73.3828 71.5584 73.352 71.506 73.3519 71.4354L75.3519 71.4327ZM74.776 70.123C74.4194 69.7904 73.9499 69.6143 73.4735 69.6138L73.4712 71.6138C73.4648 71.6138 73.457 71.6126 73.4479 71.6091C73.4388 71.6056 73.4259 71.5987 73.412 71.5857L74.776 70.123ZM73.4723 70.807C73.5761 70.807 73.6827 70.8354 73.779 70.8954L72.7213 72.5929C72.9492 72.7349 73.2104 72.807 73.4723 72.807V70.807ZM73.779 70.8954C73.876 70.9559 73.9626 71.0488 74.0168 71.1709L72.189 71.9827C72.3037 72.241 72.4928 72.4505 72.7213 72.5929L73.779 70.8954ZM74.0168 71.1709C74.0715 71.294 74.0871 71.434 74.0581 71.5699L72.1021 71.1527C72.0423 71.4333 72.0738 71.7233 72.189 71.9827L74.0168 71.1709ZM74.0581 71.5699C74.0293 71.7051 73.9602 71.8191 73.8716 71.9017L72.5076 70.439C72.3071 70.6259 72.1618 70.8728 72.1021 71.1527L74.0581 71.5699ZM73.8716 71.9017C73.7838 71.9836 73.68 72.0323 73.5767 72.0515L73.2119 70.085C72.9535 70.133 72.7072 70.2528 72.5076 70.439L73.8716 71.9017ZM73.5767 72.0515C73.4736 72.0706 73.366 72.0613 73.2651 72.0223L73.9857 70.1567C73.7386 70.0612 73.4702 70.0371 73.2119 70.085L73.5767 72.0515ZM73.2651 72.0223C73.1637 71.9832 73.066 71.9126 72.992 71.8093L74.6178 70.6444C74.4558 70.4184 74.2332 70.2523 73.9857 70.1567L73.2651 72.0223ZM72.992 71.8093C72.9172 71.7049 72.8723 71.5743 72.8723 71.4341H74.8723C74.8723 71.1463 74.7804 70.8714 74.6178 70.6444L72.992 71.8093ZM72.8723 71.4311C72.8728 71.2421 72.9542 71.0763 73.0733 70.9655L74.4363 72.4291C74.7052 72.1786 74.8711 71.8236 74.8723 71.437L72.8723 71.4311ZM73.0733 70.9655C73.1899 70.8568 73.3341 70.8067 73.4711 70.8065L73.4736 72.8065C73.8225 72.806 74.1697 72.6774 74.4363 72.4291L73.0733 70.9655ZM72.4723 71.8065V71.807H74.4723V71.8065H72.4723Z" fill="#CED4DA" mask="url(#path-22-inside-11)"/>
<rect x="0.5" y="0.5" width="95" height="95" rx="7.1" stroke="#E9ECEF"/>
</svg>
