<svg id="support" xmlns="http://www.w3.org/2000/svg" width="35.073" height="35.06" viewBox="0 0 35.073 35.06">
  <g id="Group_5118" data-name="Group 5118">
    <path id="Path_6481" data-name="Path 6481" d="M33.876,27.346h0l-7.43-7.43a.584.584,0,0,0-.825,0L23.967,21.57,21.9,19.506l2.127-2.125A8.754,8.754,0,0,0,34.212,5.905a.584.584,0,0,0-.963-.218L29.1,9.828,26.011,8.8,24.98,5.7l4.141-4.145A.584.584,0,0,0,28.9.6,8.756,8.756,0,0,0,17.423,10.774L15.3,12.9,7.857,5.455,7.623,2.938a.584.584,0,0,0-.34-.478L2.743.4a.584.584,0,0,0-.654.117L.443,2.163a.584.584,0,0,0-.117.654L2.387,7.358a.584.584,0,0,0,.478.34l2.517.234,7.444,7.441L1.195,27a4.092,4.092,0,0,0,0,5.779l.823.823a4.093,4.093,0,0,0,5.779,0L19.431,21.978,21.5,24.041,19.841,25.7a.584.584,0,0,0,0,.825l7.43,7.429a4.09,4.09,0,0,0,5.779,0l.825-.825A4.086,4.086,0,0,0,33.876,27.346ZM6.055,6.957A.584.584,0,0,0,5.7,6.789L3.308,6.569,1.557,2.7,2.631,1.63,6.5,3.381l.22,2.388a.584.584,0,0,0,.168.359l7.589,7.6-.821.821Zm.918,25.825a2.924,2.924,0,0,1-4.131,0l-.823-.823a2.924,2.924,0,0,1,0-4.131L18.482,11.367a.584.584,0,0,0,.151-.564,7.6,7.6,0,0,1,8.96-9.373l-3.7,3.7a.584.584,0,0,0-.141.6l1.238,3.713a.584.584,0,0,0,.37.369l3.713,1.237a.584.584,0,0,0,.6-.14l3.7-3.7A7.585,7.585,0,0,1,24,16.169a.579.579,0,0,0-.563.151Zm13.283-11.63.663-.663.158-.158L23.144,22.4l-.823.823ZM33.05,32.3v0l-.825.823a2.922,2.922,0,0,1-4.128,0L21.08,26.108l4.953-4.954,7.017,7.017A2.919,2.919,0,0,1,33.05,32.3Z" transform="translate(0 -0.085)" fill="#fff"/>
  </g>
</svg>
