<svg width="92" height="24" viewBox="0 0 92 24" fill="none" xmlns="http://www.w3.org/2000/svg">
<g clip-path="url(#clip0)">
<path fill-rule="evenodd" clip-rule="evenodd" d="M4.455 2.025C4.59583 1.86035 4.77066 1.72817 4.96745 1.63754C5.16425 1.54691 5.37834 1.49999 5.595 1.5H18.405C18.6217 1.49999 18.8358 1.54691 19.0325 1.63754C19.2293 1.72817 19.4042 1.86035 19.545 2.025L23.4585 6.591C23.8079 6.99875 24 7.51802 24 8.055V8.4375C24.0001 9.17996 23.7682 9.9039 23.3367 10.5081C22.9053 11.1124 22.2958 11.5667 21.5935 11.8076C20.8912 12.0485 20.1312 12.064 19.4197 11.8519C18.7082 11.6398 18.0807 11.2107 17.625 10.6245C17.2922 11.0532 16.8657 11.4 16.3783 11.6384C15.8908 11.8768 15.3552 12.0005 14.8125 12C14.2698 12.0006 13.7342 11.877 13.2467 11.6385C12.7592 11.4001 12.3327 11.0532 12 10.6245C11.6673 11.0532 11.2408 11.4001 10.7533 11.6385C10.2658 11.877 9.73019 12.0006 9.1875 12C8.64481 12.0006 8.10919 11.877 7.62168 11.6385C7.13416 11.4001 6.70771 11.0532 6.375 10.6245C5.91929 11.2107 5.29182 11.6398 4.58031 11.8519C3.86879 12.064 3.10877 12.0485 2.40649 11.8076C1.7042 11.5667 1.09473 11.1124 0.663273 10.5081C0.231813 9.9039 -8.18979e-05 9.17996 2.16968e-08 8.4375V8.055C1.89113e-05 7.51802 0.192085 6.99875 0.5415 6.591L4.4565 2.0235L4.455 2.025ZM7.125 8.4375C7.125 8.98451 7.3423 9.50911 7.72909 9.89591C8.11589 10.2827 8.64049 10.5 9.1875 10.5C9.73451 10.5 10.2591 10.2827 10.6459 9.89591C11.0327 9.50911 11.25 8.98451 11.25 8.4375C11.25 8.23859 11.329 8.04782 11.4697 7.90717C11.6103 7.76652 11.8011 7.6875 12 7.6875C12.1989 7.6875 12.3897 7.76652 12.5303 7.90717C12.671 8.04782 12.75 8.23859 12.75 8.4375C12.75 8.98451 12.9673 9.50911 13.3541 9.89591C13.7409 10.2827 14.2655 10.5 14.8125 10.5C15.3595 10.5 15.8841 10.2827 16.2709 9.89591C16.6577 9.50911 16.875 8.98451 16.875 8.4375C16.875 8.23859 16.954 8.04782 17.0947 7.90717C17.2353 7.76652 17.4261 7.6875 17.625 7.6875C17.8239 7.6875 18.0147 7.76652 18.1553 7.90717C18.296 8.04782 18.375 8.23859 18.375 8.4375C18.375 8.98451 18.5923 9.50911 18.9791 9.89591C19.3659 10.2827 19.8905 10.5 20.4375 10.5C20.9845 10.5 21.5091 10.2827 21.8959 9.89591C22.2827 9.50911 22.5 8.98451 22.5 8.4375V8.055C22.5 7.87624 22.4362 7.70336 22.32 7.5675L18.405 3H5.595L1.68 7.5675C1.56382 7.70336 1.49999 7.87624 1.5 8.055V8.4375C1.5 8.98451 1.7173 9.50911 2.10409 9.89591C2.49089 10.2827 3.01549 10.5 3.5625 10.5C4.10951 10.5 4.63411 10.2827 5.02091 9.89591C5.4077 9.50911 5.625 8.98451 5.625 8.4375C5.625 8.23859 5.70402 8.04782 5.84467 7.90717C5.98532 7.76652 6.17609 7.6875 6.375 7.6875C6.57391 7.6875 6.76468 7.76652 6.90533 7.90717C7.04598 8.04782 7.125 8.23859 7.125 8.4375ZM2.25 12.75C2.44891 12.75 2.63968 12.829 2.78033 12.9697C2.92098 13.1103 3 13.3011 3 13.5V22.5H4.5V15C4.5 14.6022 4.65804 14.2206 4.93934 13.9393C5.22064 13.658 5.60218 13.5 6 13.5H10.5C10.8978 13.5 11.2794 13.658 11.5607 13.9393C11.842 14.2206 12 14.6022 12 15V22.5H21V13.5C21 13.3011 21.079 13.1103 21.2197 12.9697C21.3603 12.829 21.5511 12.75 21.75 12.75C21.9489 12.75 22.1397 12.829 22.2803 12.9697C22.421 13.1103 22.5 13.3011 22.5 13.5V22.5H23.25C23.4489 22.5 23.6397 22.579 23.7803 22.7197C23.921 22.8603 24 23.0511 24 23.25C24 23.4489 23.921 23.6397 23.7803 23.7803C23.6397 23.921 23.4489 24 23.25 24H0.75C0.551088 24 0.360322 23.921 0.21967 23.7803C0.0790177 23.6397 2.16968e-08 23.4489 2.16968e-08 23.25C2.16968e-08 23.0511 0.0790177 22.8603 0.21967 22.7197C0.360322 22.579 0.551088 22.5 0.75 22.5H1.5V13.5C1.5 13.3011 1.57902 13.1103 1.71967 12.9697C1.86032 12.829 2.05109 12.75 2.25 12.75ZM6 22.5H10.5V15H6V22.5ZM13.5 15C13.5 14.6022 13.658 14.2206 13.9393 13.9393C14.2206 13.658 14.6022 13.5 15 13.5H18C18.3978 13.5 18.7794 13.658 19.0607 13.9393C19.342 14.2206 19.5 14.6022 19.5 15V19.5C19.5 19.8978 19.342 20.2794 19.0607 20.5607C18.7794 20.842 18.3978 21 18 21H15C14.6022 21 14.2206 20.842 13.9393 20.5607C13.658 20.2794 13.5 19.8978 13.5 19.5V15ZM18 15H15V19.5H18V15Z" fill="#B1BCCC"/>
</g>
<g clip-path="url(#clip1)">
<path fill-rule="evenodd" clip-rule="evenodd" d="M72.455 2.025C72.5958 1.86035 72.7707 1.72817 72.9675 1.63754C73.1642 1.54691 73.3783 1.49999 73.595 1.5H86.405C86.6217 1.49999 86.8358 1.54691 87.0325 1.63754C87.2293 1.72817 87.4042 1.86035 87.545 2.025L91.4585 6.591C91.8079 6.99875 92 7.51802 92 8.055V8.4375C92.0001 9.17996 91.7682 9.9039 91.3367 10.5081C90.9053 11.1124 90.2958 11.5667 89.5935 11.8076C88.8912 12.0485 88.1312 12.064 87.4197 11.8519C86.7082 11.6398 86.0807 11.2107 85.625 10.6245C85.2922 11.0532 84.8657 11.4 84.3783 11.6384C83.8908 11.8768 83.3552 12.0005 82.8125 12C82.2698 12.0006 81.7342 11.877 81.2467 11.6385C80.7592 11.4001 80.3327 11.0532 80 10.6245C79.6673 11.0532 79.2408 11.4001 78.7533 11.6385C78.2658 11.877 77.7302 12.0006 77.1875 12C76.6448 12.0006 76.1092 11.877 75.6217 11.6385C75.1342 11.4001 74.7077 11.0532 74.375 10.6245C73.9193 11.2107 73.2918 11.6398 72.5803 11.8519C71.8688 12.064 71.1088 12.0485 70.4065 11.8076C69.7042 11.5667 69.0947 11.1124 68.6633 10.5081C68.2318 9.9039 67.9999 9.17996 68 8.4375V8.055C68 7.51802 68.1921 6.99875 68.5415 6.591L72.4565 2.0235L72.455 2.025ZM75.125 8.4375C75.125 8.98451 75.3423 9.50911 75.7291 9.89591C76.1159 10.2827 76.6405 10.5 77.1875 10.5C77.7345 10.5 78.2591 10.2827 78.6459 9.89591C79.0327 9.50911 79.25 8.98451 79.25 8.4375C79.25 8.23859 79.329 8.04782 79.4697 7.90717C79.6103 7.76652 79.8011 7.6875 80 7.6875C80.1989 7.6875 80.3897 7.76652 80.5303 7.90717C80.671 8.04782 80.75 8.23859 80.75 8.4375C80.75 8.98451 80.9673 9.50911 81.3541 9.89591C81.7409 10.2827 82.2655 10.5 82.8125 10.5C83.3595 10.5 83.8841 10.2827 84.2709 9.89591C84.6577 9.50911 84.875 8.98451 84.875 8.4375C84.875 8.23859 84.954 8.04782 85.0947 7.90717C85.2353 7.76652 85.4261 7.6875 85.625 7.6875C85.8239 7.6875 86.0147 7.76652 86.1553 7.90717C86.296 8.04782 86.375 8.23859 86.375 8.4375C86.375 8.98451 86.5923 9.50911 86.9791 9.89591C87.3659 10.2827 87.8905 10.5 88.4375 10.5C88.9845 10.5 89.5091 10.2827 89.8959 9.89591C90.2827 9.50911 90.5 8.98451 90.5 8.4375V8.055C90.5 7.87624 90.4362 7.70336 90.32 7.5675L86.405 3H73.595L69.68 7.5675C69.5638 7.70336 69.5 7.87624 69.5 8.055V8.4375C69.5 8.98451 69.7173 9.50911 70.1041 9.89591C70.4909 10.2827 71.0155 10.5 71.5625 10.5C72.1095 10.5 72.6341 10.2827 73.0209 9.89591C73.4077 9.50911 73.625 8.98451 73.625 8.4375C73.625 8.23859 73.704 8.04782 73.8447 7.90717C73.9853 7.76652 74.1761 7.6875 74.375 7.6875C74.5739 7.6875 74.7647 7.76652 74.9053 7.90717C75.046 8.04782 75.125 8.23859 75.125 8.4375ZM70.25 12.75C70.4489 12.75 70.6397 12.829 70.7803 12.9697C70.921 13.1103 71 13.3011 71 13.5V22.5H72.5V15C72.5 14.6022 72.658 14.2206 72.9393 13.9393C73.2206 13.658 73.6022 13.5 74 13.5H78.5C78.8978 13.5 79.2794 13.658 79.5607 13.9393C79.842 14.2206 80 14.6022 80 15V22.5H89V13.5C89 13.3011 89.079 13.1103 89.2197 12.9697C89.3603 12.829 89.5511 12.75 89.75 12.75C89.9489 12.75 90.1397 12.829 90.2803 12.9697C90.421 13.1103 90.5 13.3011 90.5 13.5V22.5H91.25C91.4489 22.5 91.6397 22.579 91.7803 22.7197C91.921 22.8603 92 23.0511 92 23.25C92 23.4489 91.921 23.6397 91.7803 23.7803C91.6397 23.921 91.4489 24 91.25 24H68.75C68.5511 24 68.3603 23.921 68.2197 23.7803C68.079 23.6397 68 23.4489 68 23.25C68 23.0511 68.079 22.8603 68.2197 22.7197C68.3603 22.579 68.5511 22.5 68.75 22.5H69.5V13.5C69.5 13.3011 69.579 13.1103 69.7197 12.9697C69.8603 12.829 70.0511 12.75 70.25 12.75ZM74 22.5H78.5V15H74V22.5ZM81.5 15C81.5 14.6022 81.658 14.2206 81.9393 13.9393C82.2206 13.658 82.6022 13.5 83 13.5H86C86.3978 13.5 86.7794 13.658 87.0607 13.9393C87.342 14.2206 87.5 14.6022 87.5 15V19.5C87.5 19.8978 87.342 20.2794 87.0607 20.5607C86.7794 20.842 86.3978 21 86 21H83C82.6022 21 82.2206 20.842 81.9393 20.5607C81.658 20.2794 81.5 19.8978 81.5 19.5V15ZM86 15H83V19.5H86V15Z" fill="#B1BCCC"/>
</g>
<line x1="26.5" y1="15.5" x2="63.5" y2="15.5" stroke="#B1BCCC" stroke-linecap="round" stroke-dasharray="2 2"/>
<defs>
<clipPath id="clip0">
<rect width="24" height="24" fill="white"/>
</clipPath>
<clipPath id="clip1">
<rect width="24" height="24" fill="white" transform="translate(68)"/>
</clipPath>
</defs>
</svg>
