<svg id="shop" xmlns="http://www.w3.org/2000/svg" width="42.063" height="34.16" viewBox="0 0 42.063 34.16">
  <g id="Group_5111" data-name="Group 5111">
    <g id="Group_5110" data-name="Group 5110">
      <path id="Path_6469" data-name="Path 6469" d="M40.129,81.024h-.7V62.744a5.719,5.719,0,0,0,2.634-4.812.617.617,0,0,0-.081-.306L37.092,49.07a1.938,1.938,0,0,0-1.679-.974H6.649a1.938,1.938,0,0,0-1.679.974L.081,57.626A.617.617,0,0,0,0,57.932a5.719,5.719,0,0,0,2.634,4.812V81.024h-.7a.616.616,0,0,0,0,1.232h38.2a.616.616,0,1,0,0-1.232ZM1.275,58.548H3.25a.616.616,0,0,0,0-1.232H1.678L6.04,49.681a.7.7,0,0,1,.609-.353H35.414a.7.7,0,0,1,.609.353l4.362,7.634H38.812a.616.616,0,0,0,0,1.232h1.976a4.487,4.487,0,0,1-8.889,0h4.28a.616.616,0,0,0,0-1.232H5.885a.616.616,0,0,0,0,1.232h4.279a4.487,4.487,0,0,1-8.889,0Zm29.3,0a4.487,4.487,0,0,1-8.888,0Zm-10.208,0a4.487,4.487,0,0,1-8.888,0ZM34.9,81.024h-6.67v-2.06H34.9Zm0-3.293h-6.67V66.451H34.9ZM38.2,81.024h-2.06V65.835a.616.616,0,0,0-.616-.616h-7.9a.616.616,0,0,0-.616.616V81.024H3.866V63.342a5.714,5.714,0,0,0,6.957-2.829,5.719,5.719,0,0,0,10.208,0,5.719,5.719,0,0,0,10.208,0A5.714,5.714,0,0,0,38.2,63.342Z" transform="translate(0 -48.096)" fill="#fff"/>
    </g>
  </g>
  <g id="Group_5113" data-name="Group 5113" transform="translate(5.927 17.122)">
    <g id="Group_5112" data-name="Group 5112">
      <path id="Path_6470" data-name="Path 6470" d="M90.542,256.516H72.761a.616.616,0,0,0-.616.616v12.513a.616.616,0,0,0,.616.616H90.542a.616.616,0,0,0,.616-.616V257.132A.616.616,0,0,0,90.542,256.516Zm-.616,12.513H73.377v-11.28H89.926Z" transform="translate(-72.145 -256.516)" fill="#fff"/>
    </g>
  </g>
</svg>
