<svg width="17" height="16" viewBox="0 0 17 16" fill="none" xmlns="http://www.w3.org/2000/svg">
<path d="M7.00515 12.5C7.00515 12.8978 6.84684 13.2794 6.56506 13.5607C6.28327 13.842 5.90108 14 5.50258 14C5.10407 14 4.72188 13.842 4.44009 13.5607C4.15831 13.2794 4 12.8978 4 12.5C4 12.1022 4.15831 11.7206 4.44009 11.4393C4.72188 11.158 5.10407 11 5.50258 11C5.90108 11 6.28327 11.158 6.56506 11.4393C6.84684 11.7206 7.00515 12.1022 7.00515 12.5ZM7.00515 7.5C7.00515 7.89782 6.84684 8.27936 6.56506 8.56066C6.28327 8.84196 5.90108 9 5.50258 9C5.10407 9 4.72188 8.84196 4.44009 8.56066C4.15831 8.27936 4 7.89782 4 7.5C4 7.10218 4.15831 6.72064 4.44009 6.43934C4.72188 6.15804 5.10407 6 5.50258 6C5.90108 6 6.28327 6.15804 6.56506 6.43934C6.84684 6.72064 7.00515 7.10218 7.00515 7.5ZM7.00515 2.5C7.00515 2.89782 6.84684 3.27936 6.56506 3.56066C6.28327 3.84196 5.90108 4 5.50258 4C5.10407 4 4.72188 3.84196 4.44009 3.56066C4.15831 3.27936 4 2.89782 4 2.5C4 2.10218 4.15831 1.72064 4.44009 1.43934C4.72188 1.15804 5.10407 1 5.50258 1C5.90108 1 6.28327 1.15804 6.56506 1.43934C6.84684 1.72064 7.00515 2.10218 7.00515 2.5Z" fill="#B1BCCC"/>
<path d="M12.0052 12.5C12.0052 12.8978 11.8468 13.2794 11.5651 13.5607C11.2833 13.842 10.9011 14 10.5026 14C10.1041 14 9.72188 13.842 9.44009 13.5607C9.15831 13.2794 9 12.8978 9 12.5C9 12.1022 9.15831 11.7206 9.44009 11.4393C9.72188 11.158 10.1041 11 10.5026 11C10.9011 11 11.2833 11.158 11.5651 11.4393C11.8468 11.7206 12.0052 12.1022 12.0052 12.5ZM12.0052 7.5C12.0052 7.89782 11.8468 8.27936 11.5651 8.56066C11.2833 8.84196 10.9011 9 10.5026 9C10.1041 9 9.72188 8.84196 9.44009 8.56066C9.15831 8.27936 9 7.89782 9 7.5C9 7.10218 9.15831 6.72064 9.44009 6.43934C9.72188 6.15804 10.1041 6 10.5026 6C10.9011 6 11.2833 6.15804 11.5651 6.43934C11.8468 6.72064 12.0052 7.10218 12.0052 7.5ZM12.0052 2.5C12.0052 2.89782 11.8468 3.27936 11.5651 3.56066C11.2833 3.84196 10.9011 4 10.5026 4C10.1041 4 9.72188 3.84196 9.44009 3.56066C9.15831 3.27936 9 2.89782 9 2.5C9 2.10218 9.15831 1.72064 9.44009 1.43934C9.72188 1.15804 10.1041 1 10.5026 1C10.9011 1 11.2833 1.15804 11.5651 1.43934C11.8468 1.72064 12.0052 2.10218 12.0052 2.5Z" fill="#B1BCCC"/>
</svg>
