<svg xmlns="http://www.w3.org/2000/svg" width="36.258" height="41.476" viewBox="0 0 36.258 41.476">
  <g id="support" transform="translate(-26.48)">
    <g id="Group_5148" data-name="Group 5148" transform="translate(26.48)">
      <path id="Path_6494" data-name="Path 6494" d="M58.8,14.188a14.188,14.188,0,1,0-28.376,0,4.28,4.28,0,0,0-3.941,4.65v7.409a4.4,4.4,0,0,0,4.729,4.729H33.5a.788.788,0,0,0,.788-.788V14.929a.788.788,0,0,0-.788-.788H32a12.611,12.611,0,1,1,25.223,0h-1.5a.788.788,0,0,0-.788.788V30.165a.788.788,0,0,0,.788.788h1.5C57,36.368,54.4,37.637,49.2,37.866v-.528a1.576,1.576,0,0,0-1.576-1.576H42.67a1.576,1.576,0,0,0-1.576,1.576V39.9a1.576,1.576,0,0,0,1.576,1.576h4.974A1.576,1.576,0,0,0,49.22,39.9v-.457c5-.229,9.317-1.261,9.577-8.536a4.28,4.28,0,0,0,3.941-4.65V18.846A4.273,4.273,0,0,0,58.8,14.188Zm-26.09,1.474V29.377H31.17a2.862,2.862,0,0,1-3.153-3.153V18.815a2.865,2.865,0,0,1,3.153-3.153ZM47.644,38.709v1.2H42.67V37.346h4.974ZM61.161,26.247A2.865,2.865,0,0,1,58.009,29.4h-1.5V15.717h1.537A2.862,2.862,0,0,1,61.2,18.87Z" transform="translate(-26.48)" fill="#fff"/>
    </g>
  </g>
</svg>
