<svg width="32" height="32" viewBox="0 0 32 32" fill="none" xmlns="http://www.w3.org/2000/svg">
<g clip-path="url(#clip0_12441_82384)">
<path d="M24.8175 0H7.18254C3.21573 0 0 3.21573 0 7.18254V24.8175C0 28.7843 3.21573 32 7.18254 32H24.8175C28.7843 32 32 28.7843 32 24.8175V7.18254C32 3.21573 28.7843 0 24.8175 0Z" fill="black"/>
<path d="M21.2501 9.80486C20.3519 8.77234 19.8814 7.43833 19.9189 6.08017L16.5628 6C16.5628 6 16.5628 6.14159 16.5628 6.33253V19.6406C16.6096 23.8508 9.8826 23.7487 10.4148 19.0949C10.7402 17.2445 12.7509 16.1058 14.5376 16.7495V13.3634C10.6478 12.6936 6.96151 15.7551 7.0003 19.6555C7.34029 28.1143 19.6096 28.1154 19.95 19.6555C19.8644 19.3527 19.9123 13.7158 19.9001 13.2403C21.4262 14.1793 23.2018 14.6487 25 14.5886V11.0915C23.3375 11.0915 22.0689 10.6544 21.2501 9.80486Z" fill="white"/>
</g>
<defs>
<clipPath id="clip0_12441_82384">
<rect width="32" height="32" fill="white"/>
</clipPath>
</defs>
</svg>
