<svg xmlns="http://www.w3.org/2000/svg" width="25.008" height="28.453" viewBox="0 0 25.008 28.453">
  <g id="timeline" transform="translate(-31)">
    <path id="Path_6698" data-name="Path 6698" d="M391,53.507a2.5,2.5,0,1,0,3.334-2.347V45.851a2.486,2.486,0,0,0,0-4.694V35.848a2.5,2.5,0,1,0-1.667,0v5.309a2.486,2.486,0,0,0,0,4.694V51.16A2.5,2.5,0,0,0,391,53.507Z" transform="translate(-339.994 -29.277)" fill="#fff"/>
    <path id="Path_6699" data-name="Path 6699" d="M105.171,361H91.834a.833.833,0,0,0-.834.834v6.724a.833.833,0,0,0,.834.834h13.338a.833.833,0,0,0,.834-.834v-6.724A.833.833,0,0,0,105.171,361Zm-10,5a.834.834,0,1,1,.834-.834A.834.834,0,0,1,95.168,366Zm6.669,0H98.5a.834.834,0,1,1,0-1.667h3.334a.834.834,0,1,1,0,1.667Z" transform="translate(-56.666 -340.938)" fill="#fff"/>
    <path id="Path_6700" data-name="Path 6700" d="M31,181.834V188.5a.833.833,0,0,0,.834.834H48.505a.833.833,0,0,0,.834-.834v-6.669a.833.833,0,0,0-.834-.834H31.834A.833.833,0,0,0,31,181.834Zm7.5,2.5h6.669a.834.834,0,1,1,0,1.667H38.5a.834.834,0,1,1,0-1.667Zm-3.334,0a.834.834,0,1,1-.834.834A.834.834,0,0,1,35.168,184.334Z" transform="translate(0 -170.941)" fill="#fff"/>
    <path id="Path_6701" data-name="Path 6701" d="M105.171,8.392A.833.833,0,0,0,106,7.558V.834A.833.833,0,0,0,105.171,0H91.834A.833.833,0,0,0,91,.834V7.558a.833.833,0,0,0,.834.834Zm-6.669-5h3.334a.834.834,0,1,1,0,1.667H98.5a.834.834,0,1,1,0-1.667Zm-3.334,0a.834.834,0,1,1-.834.834A.834.834,0,0,1,95.168,3.39Z" transform="translate(-56.666)" fill="#fff"/>
  </g>
</svg>
