<svg xmlns="http://www.w3.org/2000/svg" width="12.358" height="14.211" viewBox="0 0 12.358 14.211"><defs><style>.a{fill:#1c202e;}</style></defs><path class="a" d="M14.662,19.122H8.842a1.236,1.236,0,0,1-1.228-1.1L6.5,8H17L15.891,18.023A1.236,1.236,0,0,1,14.662,19.122Z" transform="translate(-5.573 -4.911)"/><path class="a" d="M16.74,5.236H5.618A.618.618,0,0,1,5.618,4H16.74a.618.618,0,0,1,0,1.236Z" transform="translate(-5 -3.382)"/><path class="a" d="M15.707,4.236H12V3.618A.618.618,0,0,1,12.618,3h2.472a.618.618,0,0,1,.618.618Z" transform="translate(-7.675 -3)"/></svg>