<svg width="60" height="32" viewBox="0 0 60 32" fill="none" xmlns="http://www.w3.org/2000/svg">
<g clip-path="url(#clip0)">
<path d="M58.4048 28.1899H53.8121V13.6921H57.7881C57.9057 13.6921 58.0219 13.6657 58.1282 13.6148C58.2346 13.5638 58.3284 13.4896 58.403 13.3975C58.4776 13.3053 58.5311 13.1976 58.5596 13.082C58.5881 12.9664 58.5909 12.8458 58.5678 12.7289L56.9775 4.67462C56.9416 4.49197 56.8442 4.32758 56.702 4.20948C56.5599 4.09138 56.3817 4.02685 56.1978 4.0269H53.8141V0.8062C53.8142 0.700353 53.7937 0.59553 53.7537 0.49772C53.7138 0.399911 53.6552 0.31103 53.5814 0.236161C53.5075 0.161291 53.4198 0.101901 53.3232 0.0613794C53.2267 0.0208578 53.1232 -2.13077e-08 53.0188 0H24.3938C24.1829 0 23.9805 0.0848855 23.8314 0.235981C23.6822 0.387077 23.5984 0.592004 23.5984 0.805686V4.02639H21.2133C21.0294 4.02644 20.8513 4.091 20.7091 4.20909C20.5669 4.32717 20.4696 4.4915 20.4335 4.67411L18.8437 12.7294C18.8207 12.8463 18.8235 12.9669 18.852 13.0825C18.8805 13.1981 18.9339 13.3058 19.0085 13.398C19.0831 13.4901 19.177 13.5644 19.2833 13.6153C19.3897 13.6662 19.5059 13.6926 19.6235 13.6926H23.5989V28.1904H18.8437C18.7376 28.1877 18.6321 28.2065 18.5333 28.2457C18.4345 28.285 18.3444 28.3439 18.2684 28.419C18.1924 28.494 18.132 28.5837 18.0908 28.6828C18.0496 28.7819 18.0283 28.8883 18.0283 28.9958C18.0283 29.1033 18.0496 29.2097 18.0908 29.3088C18.132 29.4079 18.1924 29.4976 18.2684 29.5726C18.3444 29.6477 18.4345 29.7066 18.5333 29.7458C18.6321 29.7851 18.7376 29.8039 18.8437 29.8012H58.4048C58.5109 29.8039 58.6165 29.7851 58.7153 29.7458C58.8141 29.7066 58.9041 29.6477 58.9801 29.5726C59.0561 29.4976 59.1165 29.4079 59.1577 29.3088C59.199 29.2097 59.2202 29.1033 59.2202 28.9958C59.2202 28.8883 59.199 28.7819 59.1577 28.6828C59.1165 28.5837 59.0561 28.494 58.9801 28.419C58.9041 28.3439 58.8141 28.285 58.7153 28.2457C58.6165 28.2065 58.5109 28.1877 58.4048 28.1904V28.1899ZM25.1892 1.61086H52.2239V4.02741H25.1892V1.61086ZM21.8653 5.63828H55.5498L56.8221 12.0797H20.593L21.8653 5.63828ZM29.1646 28.1899V18.5247H35.5237V28.1899H29.1646ZM37.116 28.1899V17.7195C37.116 17.6137 37.0954 17.509 37.0554 17.4113C37.0155 17.3135 36.9569 17.2247 36.883 17.15C36.8091 17.0752 36.7215 17.0159 36.625 16.9755C36.5285 16.935 36.425 16.9143 36.3206 16.9143H28.3697C28.1589 16.9143 27.9567 16.9992 27.8077 17.1502C27.6586 17.3012 27.5749 17.506 27.5749 17.7195V28.1899H25.1892V13.6921H52.2239V28.1899H37.116Z" fill="#CED4DA"/>
<path d="M49.0431 16.9141H39.5014C39.2905 16.9141 39.0882 16.999 38.939 17.15C38.7899 17.3011 38.7061 17.5061 38.7061 17.7197V24.9684C38.7061 25.1821 38.7899 25.387 38.939 25.5381C39.0882 25.6892 39.2905 25.7741 39.5014 25.7741H49.0431C49.254 25.7741 49.4564 25.6892 49.6055 25.5381C49.7547 25.387 49.8385 25.1821 49.8385 24.9684V17.7197C49.8385 17.5061 49.7547 17.3011 49.6055 17.15C49.4564 16.999 49.254 16.9141 49.0431 16.9141ZM48.2477 24.1632H40.2963V18.5249H48.2477V24.1632Z" fill="#CED4DA"/>
<path d="M33.9363 22.5215C33.7257 22.5213 33.5237 22.6059 33.3746 22.7564C33.2255 22.907 33.1414 23.1113 33.1409 23.3246V23.3548C33.1382 23.4623 33.1568 23.5692 33.1956 23.6693C33.2343 23.7694 33.2925 23.8606 33.3666 23.9376C33.4407 24.0145 33.5292 24.0757 33.627 24.1175C33.7248 24.1592 33.8299 24.1808 33.936 24.1808C34.0422 24.1808 34.1472 24.1592 34.245 24.1175C34.3428 24.0757 34.4314 24.0145 34.5055 23.9376C34.5796 23.8606 34.6377 23.7694 34.6765 23.6693C34.7152 23.5692 34.7338 23.4623 34.7312 23.3548V23.3246C34.7306 23.1114 34.6466 22.9072 34.4976 22.7566C34.3486 22.606 34.1467 22.5215 33.9363 22.5215Z" fill="#CED4DA"/>
<path d="M15.7967 29.547C15.7962 29.1397 15.6888 28.7399 15.4854 28.3885C15.2821 28.0372 14.9901 27.7469 14.6395 27.5476C14.8789 26.8065 14.8262 26.0003 14.4925 25.2976C14.1588 24.5948 13.5699 24.05 12.8488 23.7768L12.7686 23.7461V23.2697C12.9213 23.3617 13.0956 23.4108 13.2733 23.4118H15.292V21.3669H13.2733C13.0956 21.368 12.9213 21.417 12.7686 21.509V21.3674C12.7683 21.1665 12.7212 20.9684 12.6311 20.7893C12.5411 20.6102 12.4106 20.4552 12.2503 20.3368C12.2185 20.1262 12.1135 19.9339 11.9541 19.7948C11.7948 19.6557 11.5916 19.5789 11.3812 19.5781H8.29503C8.66532 19.2495 8.90393 18.7948 8.96576 18.3001H9.74046C9.94123 18.3001 10.1338 18.2193 10.2758 18.0755C10.4177 17.9317 10.4975 17.7366 10.4975 17.5333C10.4975 17.3299 10.4177 17.1348 10.2758 16.991C10.1338 16.8472 9.94123 16.7664 9.74046 16.7664H8.53526C8.35019 16.5297 8.11568 16.3375 7.84857 16.2036C7.58146 16.0696 7.28838 15.9972 6.99037 15.9916C6.69236 15.9859 6.39682 16.0472 6.12497 16.171C5.85312 16.2948 5.61171 16.4781 5.41807 16.7076C5.22443 16.9372 5.08338 17.2073 5.00502 17.4986C4.92667 17.7899 4.91298 18.0951 4.96491 18.3924C5.01685 18.6897 5.13314 18.9717 5.30542 19.2181C5.4777 19.4644 5.70171 19.6691 5.96135 19.8174C5.43124 20.0833 5.02389 20.5474 4.82529 21.1118H0.9084C0.707623 21.1118 0.515068 21.1926 0.373097 21.3364C0.231126 21.4802 0.151367 21.6753 0.151367 21.8786V24.946C0.151367 25.1494 0.231126 25.3444 0.373097 25.4882C0.515068 25.632 0.707623 25.7128 0.9084 25.7128H1.6937C1.52504 25.879 1.39098 26.0777 1.29944 26.2972C1.2079 26.5167 1.16074 26.7526 1.16074 26.9909V27.5087C0.983191 27.6424 0.843656 27.8212 0.756274 28.027C0.668891 28.2329 0.636765 28.4584 0.663149 28.6809C0.689532 28.9034 0.773489 29.1148 0.906515 29.2939C1.03954 29.4729 1.21691 29.6131 1.42066 29.7004C1.46242 30.2706 1.71234 30.8046 2.12169 31.1984C2.53104 31.5921 3.07047 31.8173 3.63483 31.8301C4.19919 31.8429 4.74801 31.6423 5.1743 31.2674C5.6006 30.8926 5.8738 30.3704 5.94065 29.8026H10.765C10.8287 30.3635 11.0938 30.8811 11.5099 31.2568C11.9259 31.6325 12.4638 31.8401 13.0212 31.8401C13.5786 31.8401 14.1165 31.6325 14.5325 31.2568C14.9486 30.8811 15.2137 30.3635 15.2774 29.8026H15.7967V29.547ZM15.2744 29.2914H13.3783L13.9127 28.75C14.1253 28.5349 14.3048 28.2886 14.4452 28.0195C14.6673 28.1565 14.8568 28.3416 15.0002 28.5615C15.1435 28.7814 15.2371 29.0306 15.2744 29.2914ZM10.7206 28.3712L10.0029 25.2824C9.91236 24.8895 9.70882 24.5326 9.41802 24.2568C9.12722 23.9811 8.76223 23.7989 8.36922 23.7334L8.22639 23.7068V21.3674H11.2545V29.2914H10.5727C10.6886 29.1112 10.7501 28.9007 10.7498 28.6856V28.6242C10.7494 28.539 10.7396 28.4542 10.7206 28.3712ZM13.732 29.8026C13.6807 29.952 13.5846 30.0815 13.4573 30.1732C13.33 30.2648 13.1776 30.3141 13.0214 30.3141C12.8652 30.3141 12.7129 30.2648 12.5856 30.1732C12.4582 30.0815 12.3622 29.952 12.3108 29.8026H13.732ZM14.2827 26.61C14.2827 26.6519 14.2786 26.6928 14.2766 26.7342C13.9787 26.6943 13.7077 26.5389 13.5206 26.3008C13.3335 26.0626 13.2448 25.7602 13.2733 25.4572C13.2714 25.2054 13.3327 24.9571 13.4514 24.7359C13.7119 24.9718 13.9205 25.2606 14.0637 25.5835C14.2069 25.9063 14.2815 26.2561 14.2827 26.61ZM13.0421 24.4348C12.8615 24.7443 12.7672 25.0977 12.7691 25.4572C12.7424 25.8827 12.8751 26.3028 13.1406 26.6336C13.4062 26.9644 13.7852 27.1816 14.2019 27.2419C14.092 27.676 13.8689 28.0723 13.5559 28.3891L12.6646 29.2914H11.7592V21.2775C11.912 21.2034 12.0406 21.0865 12.1297 20.9406C12.2156 21.066 12.2624 21.2147 12.2639 21.3674V24.1009L12.6717 24.2543C12.7997 24.3033 12.9234 24.3629 13.0416 24.4327L13.0421 24.4348ZM14.7873 22.9011H14.2827V21.8786H14.7873V22.9011ZM13.2733 21.8786H13.778V22.9011H13.2733C13.1394 22.9011 13.0111 22.8472 12.9164 22.7514C12.8218 22.6555 12.7686 22.5255 12.7686 22.3899C12.7686 22.2543 12.8218 22.1243 12.9164 22.0284C13.0111 21.9325 13.1394 21.8786 13.2733 21.8786ZM9.9928 17.5333C9.9928 17.601 9.96621 17.6661 9.91889 17.714C9.87157 17.7619 9.80738 17.7889 9.74046 17.7889H7.6248L7.6682 17.7014C7.73071 17.5737 7.82728 17.4662 7.94699 17.3912C8.0667 17.3163 8.20475 17.2767 8.3455 17.2771H9.74046C9.77364 17.2771 9.80649 17.2838 9.83714 17.2966C9.86779 17.3095 9.89563 17.3284 9.91907 17.3522C9.94251 17.376 9.96108 17.4042 9.97374 17.4353C9.98639 17.4664 9.99287 17.4996 9.9928 17.5333ZM6.96467 16.5108C7.30775 16.5118 7.64033 16.6307 7.90793 16.8482C7.60742 16.9591 7.36019 17.1822 7.21701 17.4719L7.06056 17.7889H5.47281C5.53241 17.4317 5.71491 17.1074 5.98798 16.8735C6.26104 16.6395 6.60704 16.5111 6.96467 16.5108ZM5.47281 18.3001H8.45552C8.39405 18.6555 8.2108 18.9776 7.93803 19.2098C7.66525 19.4419 7.32041 19.5691 6.96416 19.5691C6.60791 19.5691 6.26307 19.4419 5.99029 19.2098C5.71752 18.9776 5.53428 18.6555 5.47281 18.3001ZM5.19826 21.8786C5.19892 21.4043 5.38524 20.9496 5.71636 20.6142C6.04748 20.2788 6.49639 20.09 6.96467 20.0894H11.3807C11.4811 20.0894 11.5774 20.1298 11.6483 20.2017C11.7193 20.2736 11.7592 20.3711 11.7592 20.4728C11.7592 20.5745 11.7193 20.672 11.6483 20.7439C11.5774 20.8158 11.4811 20.8562 11.3807 20.8562H6.71232V21.3674H7.7217V24.1403L8.28695 24.2359C8.58163 24.2851 8.85528 24.4217 9.07331 24.6285C9.29133 24.8352 9.44394 25.1028 9.51183 25.3974L10.229 28.4857C10.2396 28.5313 10.245 28.5779 10.2451 28.6247V28.6866C10.2454 28.8345 10.1922 28.9774 10.0956 29.0883C9.99904 29.1991 9.8657 29.2704 9.7208 29.2885C9.57591 29.3066 9.42947 29.2704 9.30915 29.1866C9.18883 29.1028 9.10294 28.9774 9.06771 28.8338L8.41161 26.1704C8.34344 25.8935 8.18576 25.6477 7.96369 25.4721C7.74161 25.2966 7.46793 25.2013 7.18623 25.2016H6.45998C6.12535 25.2016 5.80442 25.0669 5.56781 24.8273C5.33119 24.5876 5.19826 24.2625 5.19826 23.9235V21.8786ZM8.72149 29.2914H7.7217V26.9909C7.72175 26.7527 7.67471 26.5168 7.58335 26.2973C7.49199 26.0778 7.35816 25.8791 7.18976 25.7128C7.35797 25.7135 7.52117 25.7709 7.65359 25.876C7.78602 25.981 7.88012 26.1278 7.92105 26.2931L8.57715 28.9565C8.60637 29.0754 8.6548 29.1885 8.72048 29.2914H8.72149ZM2.17012 21.623H3.1795V22.6455H2.17012V21.623ZM0.9084 25.2016C0.841475 25.2016 0.77729 25.1747 0.729966 25.1267C0.682642 25.0788 0.656056 25.0138 0.656056 24.946V21.8786C0.656056 21.8109 0.682642 21.7458 0.729966 21.6979C0.77729 21.65 0.841475 21.623 0.9084 21.623H1.66543V23.1567H3.68419V21.623H4.7082C4.69844 21.7079 4.69339 21.7932 4.69306 21.8786V23.9235C4.69314 24.1618 4.74034 24.3977 4.83187 24.6172C4.92341 24.8367 5.05743 25.0354 5.22601 25.2016H0.9084ZM3.68419 31.3363C3.25978 31.3358 2.84975 31.1805 2.52909 30.8989C2.20843 30.6172 1.99859 30.2281 1.93797 29.8026H2.44821C2.50612 30.0915 2.66086 30.3513 2.88621 30.5378C3.11156 30.7244 3.39365 30.8263 3.68469 30.8263C3.97574 30.8263 4.25783 30.7244 4.48318 30.5378C4.70852 30.3513 4.86327 30.0915 4.92118 29.8026H5.43041C5.36978 30.2281 5.15995 30.6172 4.83929 30.8989C4.51863 31.1805 4.10859 31.3358 3.68419 31.3363ZM2.97359 29.8026H4.39479C4.3434 29.952 4.24738 30.0815 4.12005 30.1732C3.99272 30.2648 3.84039 30.3141 3.68419 30.3141C3.52799 30.3141 3.37566 30.2648 3.24833 30.1732C3.121 30.0815 3.02498 29.952 2.97359 29.8026ZM6.20763 29.2914H1.91778C1.717 29.2914 1.52445 29.2106 1.38247 29.0668C1.2405 28.923 1.16074 28.7279 1.16074 28.5245C1.16074 28.3212 1.2405 28.1261 1.38247 27.9823C1.52445 27.8385 1.717 27.7577 1.91778 27.7577H5.4506C5.65138 27.7577 5.84393 27.8385 5.9859 27.9823C6.12787 28.1261 6.20763 28.3212 6.20763 28.5245V29.2914ZM5.4506 27.2465H1.91778C1.83301 27.2466 1.74847 27.2553 1.66543 27.2726V26.9909C1.66543 26.6519 1.79836 26.3268 2.03498 26.0872C2.2716 25.8475 2.59253 25.7128 2.92716 25.7128H5.95529C6.28992 25.7128 6.61084 25.8475 6.84746 26.0872C7.08408 26.3268 7.21701 26.6519 7.21701 26.9909V29.2914H6.71232V28.5245C6.71232 28.1856 6.57939 27.8605 6.34277 27.6208C6.10615 27.3811 5.78523 27.2465 5.4506 27.2465ZM13.0209 31.3363C12.5965 31.3358 12.1865 31.1805 11.8658 30.8989C11.5452 30.6172 11.3353 30.2281 11.2747 29.8026H11.785C11.8429 30.0915 11.9976 30.3513 12.223 30.5378C12.4483 30.7244 12.7304 30.8263 13.0214 30.8263C13.3125 30.8263 13.5946 30.7244 13.8199 30.5378C14.0453 30.3513 14.2 30.0915 14.2579 29.8026H14.7682C14.7075 30.2283 14.4975 30.6176 14.1767 30.8992C13.8558 31.1809 13.4455 31.336 13.0209 31.3363Z" fill="#CED4DA" stroke="#CED4DA" stroke-width="0.6"/>
<path d="M2.6748 28.2686H3.17949V28.7798H2.6748V28.2686Z" fill="#CED4DA" stroke="#CED4DA" stroke-width="0.6"/>
<path d="M1.66504 28.2686H2.16973V28.7798H1.66504V28.2686Z" fill="#CED4DA" stroke="#CED4DA" stroke-width="0.6"/>
<path d="M3.68457 28.2686H4.18926V28.7798H3.68457V28.2686Z" fill="#CED4DA" stroke="#CED4DA" stroke-width="0.6"/>
</g>
<defs>
<clipPath id="clip0">
<rect width="59.2" height="32" fill="white"/>
</clipPath>
</defs>
</svg>
