<svg width="31" height="32" viewBox="0 0 31 32" fill="none" xmlns="http://www.w3.org/2000/svg">
<g clip-path="url(#clip0)">
<path d="M13.1432 26.9664C13.0793 25.7273 12.7065 24.5236 12.0584 23.4636C11.4102 22.4037 10.5071 21.5209 9.43049 20.8948L5.93538 17.0315C5.76065 16.8368 5.54755 16.6798 5.30931 16.5704C5.07107 16.4609 4.81277 16.4014 4.55043 16.3954C4.38103 16.3931 4.21206 16.4128 4.0478 16.4541V9.85139C4.0478 9.31738 3.83457 8.80524 3.45501 8.42763C3.07546 8.05003 2.56067 7.83789 2.0239 7.83789C1.48713 7.83789 0.972341 8.05003 0.592786 8.42763C0.213232 8.80524 0 9.31738 0 9.85139V19.3789C0.00049827 20.1492 0.197851 20.9067 0.573512 21.5803L5.05999 29.6141V32.0009H6.07219V29.4858C6.07269 29.3995 6.05066 29.3146 6.00825 29.2393L1.45782 21.0906C1.16585 20.5668 1.01235 19.9778 1.0117 19.3789V9.85139C1.00872 9.71731 1.03269 9.58398 1.0822 9.45924C1.13172 9.3345 1.20578 9.22085 1.30004 9.12498C1.39431 9.0291 1.50687 8.95292 1.63113 8.90091C1.75539 8.8489 1.88884 8.82211 2.02365 8.82211C2.15846 8.82211 2.29191 8.8489 2.41617 8.90091C2.54043 8.95292 2.65299 9.0291 2.74726 9.12498C2.84152 9.22085 2.91558 9.3345 2.9651 9.45924C3.01461 9.58398 3.03858 9.71731 3.0356 9.85139V17.0764C2.72956 17.4301 2.56406 17.883 2.57027 18.3496C2.57647 18.8163 2.75396 19.2646 3.06931 19.6102L7.21476 24.1471L7.96374 23.47L3.81829 18.9331C3.65905 18.7592 3.57332 18.531 3.57895 18.2958C3.58458 18.0607 3.68114 17.8368 3.84853 17.6707C3.93757 17.5838 4.04305 17.5154 4.15885 17.4695C4.27466 17.4235 4.39849 17.4009 4.52316 17.4029C4.64769 17.4059 4.77027 17.4343 4.88339 17.4862C4.9965 17.5381 5.09776 17.6124 5.18094 17.7047L8.73156 21.6311C8.77667 21.6762 8.82769 21.715 8.88325 21.7465C9.87198 22.3101 10.694 23.123 11.2664 24.1033C11.8388 25.0836 12.1415 26.1966 12.1439 27.3303V31.9989H13.1551V26.9664H13.1432Z" fill="#CED4DA"/>
<path d="M28.3348 7.83789C27.798 7.83789 27.2833 8.05003 26.9037 8.42763C26.5241 8.80524 26.3109 9.31738 26.3109 9.85139V16.4556C25.9735 16.3689 25.6186 16.3769 25.2855 16.4786C24.9524 16.5804 24.6542 16.7719 24.4238 17.032L20.9302 20.8943C19.852 21.5191 18.9476 22.4017 18.299 23.4621C17.6503 24.5224 17.2779 25.7271 17.2155 26.9669H17.2031V32.0004H18.2153V27.3303C18.2179 26.1918 18.5229 25.0741 19.0994 24.0906C19.676 23.1071 20.5035 22.2926 21.4983 21.7297C21.5463 21.704 21.5898 21.6707 21.6271 21.6311L25.1758 17.7047C25.259 17.6124 25.3602 17.5381 25.4733 17.4862C25.5865 17.4343 25.709 17.4059 25.8336 17.4029C25.9583 17.4003 26.0823 17.4227 26.1982 17.4687C26.314 17.5147 26.4195 17.5834 26.5082 17.6707C26.6756 17.8368 26.7722 18.0607 26.7778 18.2958C26.7834 18.531 26.6977 18.7592 26.5384 18.9331L22.395 23.47L23.1439 24.1481L27.2894 19.6112C27.605 19.2656 27.7827 18.817 27.7889 18.3501C27.7951 17.8832 27.6294 17.4302 27.3231 17.0764V9.85139C27.3201 9.71731 27.3441 9.58398 27.3936 9.45924C27.4431 9.3345 27.5172 9.22086 27.6115 9.12498C27.7057 9.0291 27.8183 8.95292 27.9425 8.90091C28.0668 8.8489 28.2002 8.82211 28.3351 8.82211C28.4699 8.82211 28.6033 8.8489 28.7276 8.90091C28.8518 8.95292 28.9644 9.0291 29.0587 9.12498C29.1529 9.22086 29.227 9.3345 29.2765 9.45924C29.326 9.58398 29.35 9.71731 29.347 9.85139V19.3256C29.3463 19.9586 29.1751 20.5798 28.8513 21.1246L24.348 29.2403C24.3075 29.3149 24.2867 29.3986 24.2875 29.4834V31.9984H25.2997V29.6136L29.7307 21.6247C30.1422 20.9282 30.3594 20.135 30.3597 19.3271V9.85139C30.3597 9.58689 30.3073 9.32498 30.2056 9.08063C30.1038 8.83628 29.9546 8.61427 29.7666 8.42728C29.5785 8.2403 29.3553 8.09201 29.1096 7.99088C28.864 7.88975 28.6007 7.83776 28.3348 7.83789Z" fill="#CED4DA"/>
<path d="M7.71513 3.63282H10.7998V2.79448C10.7996 2.29318 10.9503 1.8033 11.2325 1.388C11.5147 0.972703 11.9155 0.651028 12.3832 0.464447C12.8509 0.277867 13.364 0.234936 13.8564 0.34119C14.3489 0.447445 14.798 0.698012 15.146 1.06059C15.494 0.698012 15.9431 0.447445 16.4356 0.34119C16.928 0.234936 17.4412 0.277867 17.9088 0.464447C18.3765 0.651028 18.7773 0.972703 19.0595 1.388C19.3417 1.8033 19.4924 2.29318 19.4922 2.79448V3.63282H21.7357C21.7725 3.63282 21.809 3.64004 21.8431 3.65406C21.8771 3.66809 21.908 3.68865 21.9341 3.71457C21.9601 3.74049 21.9808 3.77126 21.9949 3.80512C22.009 3.83899 22.0163 3.87528 22.0163 3.91194V17.3027C22.0163 17.3394 22.009 17.3757 21.9949 17.4095C21.9808 17.4434 21.9601 17.4742 21.9341 17.5001C21.908 17.526 21.8771 17.5466 21.8431 17.5606C21.809 17.5746 21.7725 17.5818 21.7357 17.5818H7.71513C7.64072 17.5818 7.56936 17.5524 7.51675 17.5001C7.46413 17.4477 7.43457 17.3767 7.43457 17.3027V3.91194C7.43457 3.83791 7.46413 3.76691 7.51675 3.71457C7.56936 3.66222 7.64072 3.63282 7.71513 3.63282ZM7.99569 16.6291L9.76034 14.8735C9.81295 14.8212 9.88426 14.7919 9.95862 14.7919C10.033 14.7919 10.1043 14.8212 10.1569 14.8735L11.9215 16.6291V4.19056H7.99569V16.6291ZM8.39224 17.0236H11.525L9.95862 15.4653L8.39224 17.0236ZM13.3234 0.843111C12.8029 0.843633 12.3039 1.04955 11.9359 1.41566C11.5679 1.78178 11.361 2.27819 11.3604 2.79595V3.6343H14.4451V2.79595C14.4449 2.3444 14.5679 1.90126 14.801 1.51379C14.6173 1.30334 14.3903 1.13457 14.1354 1.01888C13.8804 0.903176 13.6035 0.843239 13.3234 0.843111ZM15.146 2.07251C15.0533 2.30254 15.0056 2.54811 15.0057 2.79595V3.6343H15.2863V2.79595C15.2864 2.54811 15.2387 2.30254 15.146 2.07251ZM18.9316 2.79595C18.9317 2.3985 18.8098 2.01049 18.5823 1.68382C18.3547 1.35715 18.0323 1.1074 17.6582 0.967979C17.2841 0.82856 16.8761 0.806118 16.4888 0.903657C16.1015 1.0012 15.7534 1.21406 15.491 1.51379C15.7241 1.90126 15.8471 2.3444 15.8469 2.79595V3.6343H18.9316V2.79595ZM21.4551 17.0236V4.19056H19.4922V5.0289C19.4938 5.06651 19.4877 5.10405 19.4744 5.13927C19.461 5.17448 19.4406 5.20664 19.4144 5.23381C19.3882 5.26098 19.3568 5.2826 19.322 5.29737C19.2872 5.31214 19.2497 5.31975 19.2119 5.31975C19.1741 5.31975 19.1366 5.31214 19.1018 5.29737C19.067 5.2826 19.0356 5.26098 19.0094 5.23381C18.9832 5.20664 18.9628 5.17448 18.9494 5.13927C18.9361 5.10405 18.93 5.06651 18.9316 5.0289V4.19056H15.0057V5.0289C15.0073 5.06651 15.0012 5.10405 14.9879 5.13927C14.9745 5.17448 14.9541 5.20664 14.9279 5.23381C14.9017 5.26098 14.8703 5.2826 14.8355 5.29737C14.8007 5.31214 14.7632 5.31975 14.7254 5.31975C14.6876 5.31975 14.6501 5.31214 14.6153 5.29737C14.5805 5.2826 14.5491 5.26098 14.5229 5.23381C14.4967 5.20664 14.4763 5.17448 14.463 5.13927C14.4496 5.10405 14.4435 5.06651 14.4451 5.0289V4.19056H12.4822V17.0236H21.4551Z" fill="#CED4DA" stroke="#CED4DA"/>
<path d="M9.95855 12.4322C9.9217 12.4322 9.88521 12.425 9.85117 12.411C9.81714 12.397 9.78621 12.3764 9.76015 12.3505C9.7341 12.3246 9.71344 12.2938 9.69934 12.2599C9.68524 12.2261 9.67798 12.1898 9.67798 12.1531V5.56917C9.67639 5.53156 9.68246 5.49401 9.69583 5.4588C9.7092 5.42359 9.7296 5.39143 9.75578 5.36426C9.78197 5.33709 9.81341 5.31547 9.84821 5.3007C9.88301 5.28593 9.92045 5.27832 9.95829 5.27832C9.99613 5.27832 10.0336 5.28593 10.0684 5.3007C10.1032 5.31547 10.1346 5.33709 10.1608 5.36426C10.187 5.39143 10.2074 5.42359 10.2207 5.4588C10.2341 5.49401 10.2402 5.53156 10.2386 5.56917V12.1531C10.2386 12.2271 10.2091 12.298 10.1566 12.3503C10.1041 12.4026 10.0329 12.4321 9.95855 12.4322Z" fill="#CED4DA" stroke="#CED4DA"/>
<path d="M9.9583 14.227C9.88389 14.227 9.81252 14.1976 9.75991 14.1452C9.70729 14.0929 9.67773 14.0219 9.67773 13.9479V13.6688C9.68078 13.5968 9.71163 13.5288 9.76387 13.479C9.8161 13.4292 9.88567 13.4014 9.95804 13.4014C10.0304 13.4014 10.1 13.4292 10.1522 13.479C10.2045 13.5288 10.2353 13.5968 10.2384 13.6688V13.9479C10.2384 14.0218 10.2089 14.0927 10.1564 14.1451C10.1039 14.1974 10.0326 14.2269 9.9583 14.227Z" fill="#CED4DA" stroke="#CED4DA"/>
</g>
<defs>
<clipPath id="clip0">
<rect width="30.359" height="32" fill="white"/>
</clipPath>
</defs>
</svg>
