<svg width="28" height="32" viewBox="0 0 28 32" fill="none" xmlns="http://www.w3.org/2000/svg">
<g clip-path="url(#clip0)">
<path d="M0.690581 5.76925H5.70743V4.40091C5.70687 3.58097 5.95193 2.77967 6.41102 2.10036C6.87011 1.42104 7.52216 0.894871 8.28307 0.589703C9.04399 0.284535 9.87887 0.214369 10.68 0.388255C11.4812 0.562141 12.2119 0.972104 12.7779 1.56527C13.3439 0.972104 14.0746 0.562141 14.8758 0.388255C15.6769 0.214369 16.5118 0.284535 17.2727 0.589703C18.0337 0.894871 18.6857 1.42104 19.1448 2.10036C19.6039 2.77967 19.8489 3.58097 19.8484 4.40091V5.76972H23.4976C23.6185 5.76972 23.7346 5.81779 23.8201 5.90336C23.9057 5.98893 23.9538 6.10498 23.9538 6.22599V28.1252C23.9538 28.2462 23.9057 28.3622 23.8201 28.4478C23.7346 28.5334 23.6185 28.5814 23.4976 28.5814H0.690581C0.630592 28.5814 0.571192 28.5696 0.515782 28.5466C0.460371 28.5236 0.410039 28.4899 0.367664 28.4475C0.325289 28.405 0.291704 28.3546 0.268833 28.2991C0.245962 28.2437 0.234253 28.1842 0.234376 28.1242V6.22506C0.2345 6.10413 0.28262 5.98819 0.368161 5.90273C0.453703 5.81726 0.569669 5.76925 0.690581 5.76925ZM1.14679 27.0251L4.01717 24.1542C4.10273 24.0687 4.21876 24.0206 4.33975 24.0206C4.46074 24.0206 4.57678 24.0687 4.66233 24.1542L7.53272 27.0251V6.6818H1.14679V27.0251ZM1.79194 27.6703H6.88756L4.33975 25.1221L1.79194 27.6703ZM9.81375 1.20747C8.96722 1.20846 8.15566 1.54523 7.55707 2.1439C6.95849 2.74257 6.62177 3.55426 6.62078 4.40091V5.76972H11.6376V4.40091C11.6368 3.66176 11.8368 2.93627 12.2162 2.30196C11.9173 1.95837 11.5481 1.68289 11.1337 1.49409C10.7192 1.30528 10.2691 1.20755 9.81375 1.20747ZM12.7788 3.21779C12.6281 3.594 12.5507 3.9956 12.551 4.40091V5.76972H13.0072V4.40091C13.0073 3.99557 12.9298 3.59397 12.7788 3.21779ZM18.9369 4.40091C18.9372 3.75095 18.7391 3.11639 18.3691 2.58209C17.9991 2.04779 17.4748 1.63921 16.8663 1.41099C16.2578 1.18278 15.5942 1.14581 14.9641 1.30503C14.334 1.46425 13.7676 1.81206 13.3405 2.30196C13.72 2.93627 13.9199 3.66176 13.9191 4.40091V5.76972H18.936L18.9369 4.40091ZM23.0423 27.668V6.6818H19.8493V8.05061C19.8493 8.17163 19.8013 8.28768 19.7157 8.37325C19.6301 8.45881 19.5141 8.50689 19.3931 8.50689C19.2721 8.50689 19.1561 8.45881 19.0705 8.37325C18.985 8.28768 18.9369 8.17163 18.9369 8.05061V6.6818H12.5505V8.05061C12.5505 8.17163 12.5024 8.28768 12.4169 8.37325C12.3313 8.45881 12.2153 8.50689 12.0943 8.50689C11.9733 8.50689 11.8573 8.45881 11.7717 8.37325C11.6862 8.28768 11.6381 8.17163 11.6381 8.05061V6.6818H8.44513V27.668H23.0423Z" fill="#CED4DA" stroke="#CED4DA"/>
<path d="M4.33999 20.1603C4.21924 20.1603 4.10342 20.1124 4.0179 20.0271C3.93239 19.9419 3.88416 19.8262 3.88379 19.7054V8.93869C3.88379 8.81768 3.93185 8.70162 4.0174 8.61606C4.10296 8.53049 4.219 8.48242 4.33999 8.48242C4.46098 8.48242 4.57702 8.53049 4.66258 8.61606C4.74813 8.70162 4.79621 8.81768 4.79621 8.93869V19.7054C4.79583 19.8262 4.74759 19.9419 4.66208 20.0271C4.57656 20.1124 4.46074 20.1603 4.33999 20.1603Z" fill="#CED4DA" stroke="#CED4DA"/>
<path d="M4.33999 23.0925C4.28008 23.0925 4.22076 23.0807 4.16541 23.0577C4.11006 23.0348 4.05977 23.0012 4.0174 22.9588C3.97504 22.9164 3.94144 22.8661 3.91852 22.8108C3.89559 22.7554 3.88379 22.6961 3.88379 22.6362V22.1799C3.88379 22.0589 3.93185 21.9428 4.0174 21.8573C4.10296 21.7717 4.219 21.7236 4.33999 21.7236C4.46098 21.7236 4.57702 21.7717 4.66258 21.8573C4.74813 21.9428 4.79621 22.0589 4.79621 22.1799V22.6362C4.79621 22.7572 4.74813 22.8732 4.66258 22.9588C4.57702 23.0444 4.46098 23.0925 4.33999 23.0925Z" fill="#CED4DA" stroke="#CED4DA"/>
<path d="M22.7395 32.0001C25.588 32.0001 27.8971 29.6907 27.8971 26.8419C27.8971 23.993 25.588 21.6836 22.7395 21.6836C19.8911 21.6836 17.582 23.993 17.582 26.8419C17.582 29.6907 19.8911 32.0001 22.7395 32.0001Z" fill="#CED4DA"/>
<path d="M20.0439 27.5364L21.6428 28.985L25.0486 25.0459" stroke="white" stroke-width="2" stroke-linecap="round"/>
</g>
<defs>
<clipPath id="clip0">
<rect width="27.8974" height="32" fill="white"/>
</clipPath>
</defs>
</svg>
