<svg width="27" height="32" viewBox="0 0 27 32" fill="none" xmlns="http://www.w3.org/2000/svg">
<g clip-path="url(#clip0)">
<path d="M18.1832 19.4121H15.2159V17.6469C16.0945 16.9765 16.8065 16.1131 17.2966 15.1237C17.7867 14.1343 18.0416 13.0455 18.0417 11.9418V10.6728H18.7484C18.8041 10.6728 18.8593 10.6619 18.9107 10.6407C18.9622 10.6194 19.009 10.5883 19.0484 10.549C19.0878 10.5096 19.119 10.463 19.1403 10.4116C19.1616 10.3602 19.1725 10.3052 19.1725 10.2496C19.1725 9.83642 18.7637 9.38461 18.0422 8.97288V7.42854C18.0422 5.52156 17.283 3.69269 15.9316 2.34426C14.5802 0.995824 12.7473 0.238281 10.8362 0.238281C8.92501 0.238281 7.09214 0.995824 5.74075 2.34426C4.38937 3.69269 3.63016 5.52156 3.63016 7.42854V8.97145C2.90865 9.38318 2.49985 9.83499 2.49985 10.2482C2.49979 10.3037 2.51071 10.3588 2.532 10.4102C2.5533 10.4615 2.58453 10.5082 2.62393 10.5475C2.66332 10.5868 2.7101 10.618 2.76158 10.6392C2.81306 10.6605 2.86824 10.6714 2.92396 10.6713H3.63016V11.9404C3.63033 13.0441 3.88543 14.133 4.37567 15.1224C4.8659 16.1118 5.57808 16.9752 6.45691 17.6455V19.4107H3.48864C2.62633 19.4107 1.79934 19.7525 1.1896 20.3609C0.579856 20.9693 0.237305 21.7945 0.237305 22.6549C0.237305 22.6549 0.237305 22.6549 0.237305 22.6583V24.9106C0.240998 25.0203 0.287276 25.1243 0.366363 25.2006C0.445451 25.2769 0.55116 25.3196 0.661175 25.3196C0.77119 25.3196 0.8769 25.2769 0.955987 25.2006C1.03507 25.1243 1.08135 25.0203 1.08504 24.9106V22.6549C1.08631 22.0198 1.33988 21.4112 1.79016 20.9623C2.24045 20.5134 2.85072 20.261 3.4872 20.2604H6.75L8.33885 21.3172C8.34507 21.3215 8.35176 21.3243 8.35798 21.3277C8.36419 21.331 8.37471 21.3377 8.38332 21.342C8.39193 21.3463 8.40723 21.3529 8.41966 21.3577L8.44404 21.3668C8.45802 21.3712 8.47223 21.3748 8.4866 21.3778L8.50859 21.3825C8.529 21.3858 8.54961 21.3875 8.57027 21.3878H8.57458C8.59782 21.3876 8.621 21.3855 8.6439 21.3816C8.6549 21.3816 8.6659 21.3782 8.6769 21.3754L10.8347 20.8372L12.994 21.3735C13.005 21.3763 13.0165 21.3778 13.0279 21.3797C13.0505 21.3836 13.0734 21.3856 13.0963 21.3859H13.103C13.1237 21.3856 13.1443 21.3839 13.1647 21.3806L13.1867 21.3758C13.201 21.3729 13.2153 21.3693 13.2292 21.3649L13.2536 21.3558C13.266 21.351 13.278 21.3458 13.29 21.3401C13.3019 21.3343 13.3072 21.331 13.3153 21.3258C13.3234 21.3205 13.3282 21.3191 13.3344 21.3153L14.9199 20.2585H18.1827C18.8196 20.2591 19.4303 20.5119 19.8806 20.9612C20.331 21.4106 20.5843 22.0199 20.5849 22.6554V28.266H1.08648V26.6024C1.08278 26.4927 1.03651 26.3887 0.957421 26.3124C0.878333 26.2361 0.772624 26.1934 0.662609 26.1934C0.552594 26.1934 0.446884 26.2361 0.367797 26.3124C0.28871 26.3887 0.242435 26.4927 0.238742 26.6024V28.6849C0.238742 28.6849 0.238742 28.6849 0.238742 28.6882C0.238869 28.8004 0.283591 28.908 0.363099 28.9873C0.442607 29.0667 0.550408 29.1113 0.66285 29.1114H21.0095C21.0652 29.1115 21.1204 29.1006 21.1718 29.0793C21.2233 29.0581 21.2701 29.0269 21.3095 28.9876C21.3489 28.9483 21.3801 28.9016 21.4014 28.8503C21.4227 28.7989 21.4336 28.7438 21.4336 28.6882V22.6549C21.4332 21.7949 21.0906 20.9703 20.4811 20.3622C19.8716 19.7541 19.0451 19.4124 18.1832 19.4121ZM4.4779 7.42854C4.4779 5.74565 5.14789 4.13169 6.34047 2.94171C7.53305 1.75173 9.15055 1.08321 10.8371 1.08321C12.5237 1.08321 14.1412 1.75173 15.3338 2.94171C16.5263 4.13169 17.1963 5.74565 17.1963 7.42854V8.56592L17.0672 8.51488C15.956 8.08549 13.9732 7.56976 10.8381 7.56976C7.70293 7.56976 5.72201 8.08358 4.60891 8.51488L4.47981 8.56592V7.42854H4.4779ZM5.11812 9.22765C6.96439 8.63345 8.899 8.35914 10.8381 8.41659C12.7771 8.35915 14.7118 8.63346 16.558 9.22765C16.9979 9.37912 17.4193 9.57966 17.8141 9.82545H3.86015C4.2556 9.5796 4.6776 9.37907 5.11812 9.22765ZM10.4121 20.0691L8.65442 20.5075L7.30369 19.6082V18.2056C8.25614 18.7427 9.31935 19.0548 10.4116 19.1178L10.4121 20.0691ZM14.3682 19.6092L13.0174 20.5075L11.2598 20.0691V19.1178C12.352 19.0548 13.4152 18.7427 14.3677 18.2056V19.6082L14.3682 19.6092ZM10.9217 18.2838C10.8651 18.2723 10.8067 18.2723 10.7501 18.2838C9.07912 18.2595 7.48476 17.5805 6.31125 16.3933C5.13774 15.2061 4.47923 13.606 4.4779 11.9385V10.6694H17.1963V11.9385C17.1947 13.6063 16.5358 15.2065 15.3618 16.3936C14.1878 17.5808 12.593 18.2595 10.9217 18.2833V18.2838Z" fill="#CED4DA" stroke="#CED4DA"/>
<path d="M10.8361 3.05859C10.5286 3.05831 10.2279 3.14905 9.9721 3.31933C9.71627 3.4896 9.51682 3.73177 9.39896 4.01519C9.2811 4.2986 9.25015 4.61053 9.31 4.91151C9.36986 5.21249 9.51784 5.48898 9.73522 5.70602C9.9526 5.92306 10.2296 6.07089 10.5312 6.1308C10.8328 6.19071 11.1454 6.16001 11.4295 6.04258C11.7137 5.92516 11.9565 5.72629 12.1273 5.47113C12.2981 5.21597 12.3892 4.91599 12.3891 4.60914C12.3886 4.19823 12.2249 3.80428 11.9338 3.51363C11.6427 3.22299 11.2479 3.05935 10.8361 3.05859ZM10.8361 5.31429C10.6963 5.31438 10.5597 5.2731 10.4434 5.19568C10.3271 5.11825 10.2365 5.00816 10.1829 4.87932C10.1293 4.75048 10.1153 4.60869 10.1425 4.47187C10.1697 4.33505 10.237 4.20937 10.3358 4.1107C10.4346 4.01204 10.5605 3.94483 10.6976 3.91759C10.8347 3.89034 10.9768 3.90428 11.106 3.95763C11.2351 4.01099 11.3455 4.10137 11.4232 4.21734C11.5009 4.33331 11.5423 4.46966 11.5423 4.60914C11.5421 4.79596 11.4676 4.97504 11.3352 5.10714C11.2028 5.23923 11.0233 5.31356 10.8361 5.31381V5.31429Z" fill="#CED4DA" stroke="#CED4DA"/>
<path d="M21.2771 31.9999C24.1818 31.9999 26.5366 29.6503 26.5366 26.7519C26.5366 23.8535 24.1818 21.5039 21.2771 21.5039C18.3723 21.5039 16.0176 23.8535 16.0176 26.7519C16.0176 29.6503 18.3723 31.9999 21.2771 31.9999Z" fill="#CED4DA"/>
<path d="M18.5283 27.4577L20.1588 28.9315L23.632 24.9238" stroke="white" stroke-width="2" stroke-linecap="round"/>
</g>
<defs>
<clipPath id="clip0">
<rect width="26.5366" height="32" fill="white"/>
</clipPath>
</defs>
</svg>
