<svg width="29" height="32" viewBox="0 0 29 32" fill="none" xmlns="http://www.w3.org/2000/svg">
<g clip-path="url(#clip0)">
<path d="M0.722705 6.09664H5.97469V4.65061C5.9741 3.78413 6.23065 2.93734 6.71125 2.21946C7.19186 1.50158 7.87447 0.945533 8.67105 0.62304C9.46763 0.300547 10.3416 0.226397 11.1804 0.410155C12.0191 0.593913 12.784 1.02715 13.3765 1.65399C13.9691 1.02715 14.734 0.593913 15.5727 0.410155C16.4115 0.226397 17.2855 0.300547 18.082 0.62304C18.8786 0.945533 19.5612 1.50158 20.0418 2.21946C20.5224 2.93734 20.779 3.78413 20.7784 4.65061V6.09714H24.5986C24.7253 6.09714 24.8468 6.14794 24.9363 6.23837C25.0259 6.32879 25.0762 6.45143 25.0762 6.57932V29.7218C25.0762 29.8496 25.0259 29.9723 24.9363 30.0627C24.8468 30.1531 24.7253 30.2039 24.5986 30.2039H0.722705C0.659905 30.2039 0.59772 30.1914 0.539713 30.1671C0.481705 30.1428 0.429014 30.1072 0.384653 30.0624C0.340293 30.0175 0.305133 29.9642 0.28119 29.9056C0.257247 29.847 0.244989 29.7842 0.245118 29.7208V6.57832C0.245248 6.45053 0.295623 6.32801 0.385174 6.23769C0.474725 6.14738 0.596126 6.09664 0.722705 6.09664ZM1.20029 28.5592L4.20521 25.5254C4.29478 25.435 4.41625 25.3842 4.54291 25.3842C4.66957 25.3842 4.79104 25.435 4.88061 25.5254L7.88553 28.5592V7.061H1.20029V28.5592ZM1.87569 29.2411H7.21013L4.54291 26.5482L1.87569 29.2411ZM10.2735 1.27588C9.38726 1.27693 8.53766 1.63282 7.91102 2.26548C7.28438 2.89813 6.93188 3.7559 6.93084 4.65061V6.09714H12.1828V4.65061C12.182 3.8695 12.3913 3.10283 12.7885 2.43251C12.4756 2.06941 12.0891 1.77829 11.6553 1.57877C11.2214 1.37924 10.7502 1.27596 10.2735 1.27588ZM13.3775 3.40033C13.2197 3.7979 13.1387 4.2223 13.139 4.65061V6.09714H13.6166V4.65061C13.6167 4.22227 13.5355 3.79786 13.3775 3.40033ZM19.8242 4.65061C19.8245 3.96376 19.6172 3.29318 19.2298 2.72854C18.8424 2.1639 18.2935 1.73213 17.6565 1.49096C17.0195 1.24979 16.3248 1.21072 15.6652 1.37897C15.0056 1.54723 14.4126 1.91479 13.9656 2.43251C14.3627 3.10283 14.5721 3.8695 14.5712 4.65061V6.09714H19.8232L19.8242 4.65061ZM24.122 29.2386V7.061H20.7794V8.50752C20.7794 8.6354 20.7291 8.75805 20.6395 8.84847C20.5499 8.9389 20.4285 8.9897 20.3018 8.9897C20.1751 8.9897 20.0537 8.9389 19.9641 8.84847C19.8745 8.75805 19.8242 8.6354 19.8242 8.50752V7.061H13.1385V8.50752C13.1385 8.6354 13.0882 8.75805 12.9986 8.84847C12.909 8.9389 12.7876 8.9897 12.6609 8.9897C12.5342 8.9897 12.4128 8.9389 12.3232 8.84847C12.2336 8.75805 12.1833 8.6354 12.1833 8.50752V7.061H8.8407V29.2386H24.122Z" fill="#CED4DA" stroke="#CED4DA"/>
<path d="M4.54301 21.3047C4.4166 21.3047 4.29535 21.2541 4.20583 21.164C4.11631 21.0739 4.06582 20.9516 4.06543 20.824V9.44604C4.06543 9.31816 4.11574 9.19551 4.20531 9.10509C4.29487 9.01466 4.41635 8.96387 4.54301 8.96387C4.66968 8.96387 4.79115 9.01466 4.88072 9.10509C4.97028 9.19551 5.02061 9.31816 5.02061 9.44604V20.824C5.02022 20.9516 4.96972 21.0739 4.8802 21.164C4.79067 21.2541 4.66942 21.3047 4.54301 21.3047Z" fill="#CED4DA" stroke="#CED4DA"/>
<path d="M4.54301 24.4045C4.48029 24.4045 4.41819 24.3921 4.36025 24.3678C4.30231 24.3436 4.24965 24.3081 4.20531 24.2633C4.16096 24.2185 4.12579 24.1654 4.10178 24.1069C4.07778 24.0484 4.06543 23.9857 4.06543 23.9224V23.4402C4.06543 23.3123 4.11574 23.1897 4.20531 23.0992C4.29487 23.0088 4.41635 22.958 4.54301 22.958C4.66968 22.958 4.79115 23.0088 4.88072 23.0992C4.97028 23.1897 5.02061 23.3123 5.02061 23.4402V23.9224C5.02061 24.0502 4.97028 24.1729 4.88072 24.2633C4.79115 24.3537 4.66968 24.4045 4.54301 24.4045Z" fill="#CED4DA" stroke="#CED4DA"/>
<path d="M23.5602 30.3474C25.5933 30.3474 27.2415 28.6834 27.2415 26.6307C27.2415 24.5781 25.5933 22.9141 23.5602 22.9141C21.5271 22.9141 19.8789 24.5781 19.8789 26.6307C19.8789 28.6834 21.5271 30.3474 23.5602 30.3474Z" fill="white"/>
<path d="M23.642 21.4277C22.6065 21.4277 21.5942 21.7378 20.7332 22.3186C19.8722 22.8994 19.2011 23.725 18.8048 24.6909C18.4085 25.6568 18.3048 26.7197 18.5069 27.7451C18.7089 28.7705 19.2075 29.7124 19.9398 30.4517C20.672 31.1909 21.6049 31.6944 22.6206 31.8983C23.6362 32.1023 24.689 31.9976 25.6457 31.5975C26.6024 31.1974 27.4201 30.5199 27.9954 29.6506C28.5708 28.7813 28.8778 27.7593 28.8778 26.7138C28.8778 25.3119 28.3262 23.9673 27.3443 22.976C26.3624 21.9847 25.0307 21.4277 23.642 21.4277V21.4277ZM25.9058 27.7213H23.6857C23.6784 27.7213 23.671 27.7213 23.6636 27.7213C23.6563 27.7213 23.6494 27.7213 23.6415 27.7213C23.5455 27.7213 23.4533 27.6828 23.3854 27.6142C23.3175 27.5456 23.2793 27.4526 23.2793 27.3556V23.6216C23.2775 23.5724 23.2856 23.5234 23.3029 23.4775C23.3203 23.4316 23.3467 23.3897 23.3805 23.3543C23.4143 23.3189 23.4548 23.2907 23.4996 23.2715C23.5444 23.2523 23.5926 23.2424 23.6413 23.2424C23.69 23.2424 23.7382 23.2523 23.783 23.2715C23.8278 23.2907 23.8683 23.3189 23.9021 23.3543C23.9359 23.3897 23.9623 23.4316 23.9797 23.4775C23.9971 23.5234 24.0051 23.5724 24.0033 23.6216V26.9879H25.9048C25.9985 26.9913 26.0872 27.0314 26.1523 27.0995C26.2174 27.1677 26.2537 27.2587 26.2537 27.3533C26.2537 27.448 26.2174 27.539 26.1523 27.6071C26.0872 27.6753 25.9985 27.7153 25.9048 27.7188L25.9058 27.7213Z" fill="#CED4DA"/>
</g>
<defs>
<clipPath id="clip0">
<rect width="28.878" height="32" fill="white"/>
</clipPath>
</defs>
</svg>
