<svg width="45" height="32" viewBox="0 0 45 32" fill="none" xmlns="http://www.w3.org/2000/svg">
<g clip-path="url(#clip0)">
<path d="M41.7992 28.7887H37.0424V13.9829H41.1605C41.2823 13.983 41.4026 13.956 41.5128 13.904C41.6229 13.852 41.7201 13.7762 41.7974 13.6821C41.8746 13.588 41.93 13.4779 41.9595 13.3599C41.9891 13.2418 41.992 13.1187 41.9681 12.9993L40.321 4.77392C40.2837 4.58738 40.1829 4.41951 40.0356 4.2989C39.8884 4.17829 39.7038 4.11239 39.5133 4.11244H37.0445V0.823326C37.0446 0.71523 37.0233 0.60818 36.9819 0.508293C36.9406 0.408406 36.8799 0.317637 36.8034 0.241177C36.7269 0.164718 36.636 0.104066 36.536 0.0626832C36.4361 0.0213009 36.3289 -2.17604e-08 36.2207 0H6.57252C6.35403 0 6.14448 0.0866886 5.98999 0.240994C5.83549 0.395299 5.74869 0.60458 5.74869 0.8228V4.11192H3.27828C3.08786 4.11197 2.90334 4.1779 2.7561 4.2985C2.60886 4.41909 2.508 4.58691 2.47066 4.7734L0.824063 12.9999C0.800159 13.1192 0.803071 13.2423 0.832588 13.3604C0.862105 13.4784 0.917491 13.5885 0.994751 13.6826C1.07201 13.7767 1.16922 13.8525 1.27936 13.9045C1.38951 13.9565 1.50984 13.9835 1.63168 13.9835H5.74922V28.7892H0.824063C0.714166 28.7864 0.604826 28.8057 0.502486 28.8458C0.400145 28.8858 0.306874 28.946 0.228168 29.0226C0.149461 29.0993 0.0869102 29.1909 0.0442022 29.2921C0.00149423 29.3933 -0.0205078 29.5019 -0.0205078 29.6117C-0.0205078 29.7215 0.00149423 29.8302 0.0442022 29.9314C0.0869102 30.0326 0.149461 30.1242 0.228168 30.2008C0.306874 30.2775 0.400145 30.3376 0.502486 30.3777C0.604826 30.4178 0.714166 30.437 0.824063 30.4343H41.7992C41.9091 30.437 42.0185 30.4178 42.1208 30.3777C42.2231 30.3376 42.3164 30.2775 42.3951 30.2008C42.4738 30.1242 42.5364 30.0326 42.5791 29.9314C42.6218 29.8302 42.6438 29.7215 42.6438 29.6117C42.6438 29.5019 42.6218 29.3933 42.5791 29.2921C42.5364 29.1909 42.4738 29.0993 42.3951 29.0226C42.3164 28.946 42.2231 28.8858 42.1208 28.8458C42.0185 28.8057 41.9091 28.7864 41.7992 28.7892V28.7887ZM7.39634 1.64508H35.3974V4.11297H7.39634V1.64508ZM3.95364 5.75805H38.8422L40.16 12.3363H2.63584L3.95364 5.75805ZM11.5139 28.7887V18.9182H18.1003V28.7887H11.5139ZM19.7495 28.7887V18.0959C19.7495 17.9879 19.7282 17.8809 19.6868 17.7811C19.6453 17.6813 19.5847 17.5906 19.5081 17.5143C19.4316 17.4379 19.3408 17.3774 19.2409 17.3361C19.1409 17.2948 19.0338 17.2736 18.9256 17.2736H10.6906C10.4722 17.2736 10.2628 17.3603 10.1084 17.5145C9.95402 17.6687 9.86728 17.8778 9.86728 18.0959V28.7887H7.39634V13.9829H35.3974V28.7887H19.7495Z" fill="#CED4DA"/>
<path d="M32.103 17.2734H22.2203C22.0018 17.2734 21.7923 17.3601 21.6378 17.5144C21.4833 17.6687 21.3965 17.878 21.3965 18.0962V25.4988C21.3965 25.7171 21.4833 25.9264 21.6378 26.0807C21.7923 26.235 22.0018 26.3216 22.2203 26.3216H32.103C32.3215 26.3216 32.5311 26.235 32.6856 26.0807C32.8401 25.9264 32.9269 25.7171 32.9269 25.4988V18.0962C32.9269 17.878 32.8401 17.6687 32.6856 17.5144C32.5311 17.3601 32.3215 17.2734 32.103 17.2734ZM31.2792 24.6766H23.0436V18.9185H31.2792V24.6766Z" fill="#CED4DA"/>
<path d="M16.4559 23C16.2378 22.9999 16.0286 23.0862 15.8742 23.2399C15.7197 23.3937 15.6327 23.6024 15.6321 23.8202V23.851C15.6293 23.9608 15.6486 24.07 15.6887 24.1722C15.7289 24.2744 15.7891 24.3676 15.8658 24.4462C15.9426 24.5248 16.0343 24.5872 16.1356 24.6299C16.2369 24.6726 16.3457 24.6945 16.4557 24.6945C16.5656 24.6945 16.6744 24.6726 16.7757 24.6299C16.877 24.5872 16.9687 24.5248 17.0455 24.4462C17.1222 24.3676 17.1824 24.2744 17.2226 24.1722C17.2627 24.07 17.282 23.9608 17.2792 23.851V23.8202C17.2787 23.6025 17.1917 23.3939 17.0373 23.2401C16.883 23.0863 16.6739 23 16.4559 23Z" fill="#CED4DA"/>
<path d="M38.4404 32.0005C41.6161 32.0005 44.1905 29.4293 44.1905 26.2576C44.1905 23.0858 41.6161 20.5146 38.4404 20.5146C35.2648 20.5146 32.6904 23.0858 32.6904 26.2576C32.6904 29.4293 35.2648 32.0005 38.4404 32.0005Z" fill="#CED4DA"/>
<path d="M35.4355 27.0296L37.2181 28.6424L41.0152 24.2568" stroke="white" stroke-width="2" stroke-linecap="round"/>
</g>
<defs>
<clipPath id="clip0">
<rect width="44.1905" height="32" fill="white"/>
</clipPath>
</defs>
</svg>
