<svg width="336" height="249" viewBox="0 0 336 249" fill="none" xmlns="http://www.w3.org/2000/svg">
<path d="M336 217.631H0V217.797H336V217.631Z" fill="#EBEBEB"/>
<path d="M57.5097 228.327H35.2532V228.493H57.5097V228.327Z" fill="#EBEBEB"/>
<path d="M120.846 230.135H90.9419V230.301H120.846V230.135Z" fill="#EBEBEB"/>
<path d="M105.504 222.159H58.1819V222.325H105.504V222.159Z" fill="#EBEBEB"/>
<path d="M302.333 223.275H293.805V223.441H302.333V223.275Z" fill="#EBEBEB"/>
<path d="M287.818 223.275H263.068V223.441H287.818V223.275Z" fill="#EBEBEB"/>
<path d="M207.198 226.08H186.285V226.246H207.198V226.08Z" fill="#EBEBEB"/>
<path d="M159.265 0H29.5078C28.4972 0.00172324 27.528 0.397796 26.8108 1.1022C26.0937 1.8066 25.6864 2.76244 25.6775 3.76212V184.189C25.6775 185.194 26.0808 186.159 26.799 186.87C27.5171 187.582 28.4913 187.983 29.5078 187.984H159.265C160.282 187.984 161.258 187.585 161.978 186.873C162.698 186.161 163.102 185.196 163.102 184.189V3.79557C163.102 2.78892 162.698 1.8235 161.978 1.1117C161.258 0.399889 160.282 0 159.265 0ZM162.934 184.189C162.93 185.15 162.543 186.072 161.855 186.751C161.168 187.431 160.237 187.815 159.265 187.818H29.5078C28.5359 187.817 27.6043 187.433 26.9176 186.753C26.231 186.072 25.8453 185.15 25.8453 184.189V3.76212C25.8453 2.80067 26.231 1.87849 26.9176 1.19801C27.6043 0.517532 28.5359 0.134352 29.5078 0.13258H159.265C160.237 0.136105 161.168 0.519634 161.855 1.19954C162.543 1.87945 162.93 2.80059 162.934 3.76212V184.189Z" fill="#EBEBEB"/>
<path d="M304.624 0H174.861C173.849 0.00170432 172.88 0.397563 172.161 1.10178C171.443 1.80599 171.034 2.76183 171.024 3.76212V184.189C171.027 185.194 171.433 186.158 172.151 186.869C172.87 187.58 173.844 187.981 174.861 187.984H304.624C305.127 187.984 305.625 187.885 306.09 187.693C306.554 187.502 306.976 187.222 307.331 186.87C307.686 186.518 307.967 186.099 308.159 185.639C308.351 185.179 308.449 184.686 308.448 184.189V3.76212C308.439 2.76359 308.033 1.80876 307.317 1.10454C306.601 0.400332 305.634 0.0034813 304.624 0ZM308.294 184.189C308.29 185.15 307.902 186.072 307.215 186.751C306.528 187.431 305.596 187.815 304.624 187.818H174.861C173.889 187.815 172.958 187.431 172.27 186.751C171.583 186.072 171.195 185.15 171.192 184.189V3.76212C171.195 2.80059 171.583 1.87945 172.27 1.19954C172.958 0.519634 173.889 0.136105 174.861 0.13258H304.624C305.596 0.136105 306.528 0.519634 307.215 1.19954C307.902 1.87945 308.29 2.80059 308.294 3.76212V184.189Z" fill="#EBEBEB"/>
<path d="M45.6216 175.269C45.6201 175.976 45.3709 176.661 44.9164 177.207C44.4619 177.753 43.8302 178.126 43.1288 178.263C42.4274 178.4 41.6997 178.292 41.0697 177.958C40.4396 177.624 39.9461 177.084 39.6731 176.43C39.4002 175.777 39.3647 175.05 39.5727 174.373C39.7807 173.697 40.2194 173.112 40.814 172.72C41.4086 172.327 42.1224 172.15 42.8338 172.22C43.5453 172.289 44.2104 172.601 44.716 173.101C45.0036 173.385 45.2316 173.724 45.3869 174.096C45.5423 174.468 45.6221 174.867 45.6216 175.269Z" fill="#EBEBEB"/>
<path d="M43.8817 178.14H41.4421V217.798H43.8817V178.14Z" fill="#EBEBEB"/>
<path d="M130.522 175.269C130.521 175.976 130.272 176.661 129.817 177.207C129.363 177.753 128.731 178.126 128.029 178.263C127.328 178.4 126.6 178.292 125.97 177.958C125.34 177.624 124.847 177.084 124.574 176.43C124.301 175.777 124.265 175.05 124.473 174.373C124.681 173.697 125.12 173.112 125.715 172.72C126.309 172.327 127.023 172.15 127.734 172.22C128.446 172.289 129.111 172.601 129.617 173.101C129.904 173.385 130.132 173.724 130.288 174.096C130.443 174.468 130.523 174.867 130.522 175.269Z" fill="#EBEBEB"/>
<path d="M128.782 178.14H126.343V217.798H128.782V178.14Z" fill="#EBEBEB"/>
<path d="M126.336 178.147C126.336 178.147 112.157 210.326 84.4906 208.008C56.8242 205.69 43.8816 178.147 43.8816 178.147C44.5536 178.712 66.2322 196.899 87.1718 197.962C105.947 198.913 125.066 179.443 126.269 178.207L126.336 178.147Z" fill="#E0E0E0"/>
<path d="M204.046 178.147C203.656 179.091 190.693 210.273 165.742 207.987C140.792 205.7 128.97 178.998 128.6 178.147C128.6 178.147 148.76 196.892 168.248 197.973C185.969 198.953 204.046 178.147 204.046 178.147Z" fill="#E0E0E0"/>
<path d="M291.843 178.147C291.802 178.24 291.634 178.592 291.339 179.171C288.463 184.674 273.755 210.054 247.712 207.987C218.514 205.68 204.859 178.147 204.859 178.147C204.859 178.147 205.531 178.685 206.754 179.596C212.735 184.01 231.92 197.079 250.548 197.976C270.708 198.94 291.218 178.772 291.843 178.147Z" fill="#E0E0E0"/>
<path d="M207.144 175.27C207.145 175.878 206.964 176.472 206.623 176.978C206.283 177.485 205.798 177.879 205.23 178.113C204.663 178.346 204.038 178.407 203.435 178.289C202.832 178.171 202.278 177.878 201.843 177.448C201.409 177.018 201.113 176.47 200.993 175.874C200.874 175.277 200.936 174.659 201.172 174.098C201.408 173.536 201.807 173.057 202.318 172.72C202.83 172.383 203.431 172.204 204.046 172.205C204.867 172.207 205.654 172.53 206.234 173.105C206.815 173.679 207.142 174.457 207.144 175.27Z" fill="#EBEBEB"/>
<path d="M205.397 178.14H202.958V217.798H205.397V178.14Z" fill="#EBEBEB"/>
<path d="M296.036 175.269C296.034 175.976 295.785 176.661 295.331 177.207C294.876 177.753 294.244 178.126 293.543 178.263C292.842 178.4 292.114 178.292 291.484 177.958C290.854 177.624 290.36 177.084 290.087 176.43C289.814 175.777 289.779 175.05 289.987 174.373C290.195 173.697 290.634 173.112 291.228 172.72C291.823 172.327 292.537 172.15 293.248 172.22C293.96 172.289 294.625 172.601 295.13 173.101C295.418 173.385 295.646 173.724 295.801 174.096C295.957 174.468 296.036 174.867 296.036 175.269Z" fill="#EBEBEB"/>
<path d="M294.296 178.14H291.856V217.798H294.296V178.14Z" fill="#EBEBEB"/>
<path d="M291.843 178.147C291.802 178.24 291.634 178.592 291.339 179.171C286.279 185.632 270.708 203.18 251.019 202.828C230.476 202.463 211.841 184.814 206.751 179.563C212.732 183.977 231.918 197.045 250.546 197.942C270.708 198.94 291.217 178.772 291.843 178.147Z" fill="#E6E6E6"/>
<path d="M204.046 178.147C203.622 178.898 189.934 203.325 166.326 202.835C142.719 202.345 129.031 178.905 128.607 178.147C128.607 178.147 148.767 196.892 168.255 197.973C185.969 198.953 204.046 178.147 204.046 178.147Z" fill="#E6E6E6"/>
<path d="M126.283 178.213C125.053 179.642 105.108 202.589 85.9964 202.848C66.5281 203.107 44.4978 178.812 43.8953 178.147C44.5673 178.712 66.2459 196.899 87.1855 197.962C105.961 198.92 125.079 179.476 126.283 178.213Z" fill="#E6E6E6"/>
<path d="M321.27 56.3022H279.687V128.644H321.27V56.3022Z" fill="#E0E0E0"/>
<path d="M318.078 56.3022H276.495V128.644H318.078V56.3022Z" fill="#F5F5F5"/>
<path d="M313.179 60.6494H281.387V123.805H313.179V60.6494Z" fill="#E6E6E6"/>
<path d="M313.186 61.1414L318.078 56.3022H276.495L281.387 61.1414H313.186Z" fill="#F0F0F0"/>
<path d="M282.63 92.3501H281.387V123.798H282.63V92.3501Z" fill="#E0E0E0"/>
<path d="M318.078 128.644L313.186 123.798H281.387L276.495 128.644H318.078Z" fill="#F0F0F0"/>
<path d="M290.244 67.895C288.375 70.74 290.297 74.2096 292.441 76.2707C294 77.7729 295.855 78.9296 297.528 80.3253C300.58 82.8276 302.948 86.048 304.414 89.6911C305.156 91.4614 305.263 93.4294 304.717 95.268C303.87 97.7475 301.643 99.3896 300.355 101.609C298.821 104.3 297.82 107.255 297.404 110.317C297.102 112.531 297.243 115.077 298.936 116.552" stroke="white" stroke-width="11" stroke-linecap="round" stroke-linejoin="round"/>
<path d="M83.395 71.9038H30.3206V124.404H83.395V71.9038Z" fill="#E0E0E0"/>
<path d="M79.323 71.9038H26.2485V124.404H79.323V71.9038Z" fill="#F5F5F5"/>
<path d="M73.0862 78.0791H32.4976V118.228H73.0862V78.0791Z" fill="#E6E6E6"/>
<path d="M73.0801 78.079L79.3322 71.897H26.2485L32.4914 78.079H73.0801Z" fill="#F0F0F0"/>
<path d="M34.0832 78.0791H32.4976V118.228H34.0832V78.0791Z" fill="#E0E0E0"/>
<path d="M58.726 87.079C58.3494 87.2369 57.9893 87.4306 57.6507 87.6574C55.7957 88.9139 53.9617 90.2366 51.7908 90.9014C49.412 91.6257 46.8784 91.5661 44.5734 92.5763C43.5899 92.9918 42.7082 93.6116 41.9881 94.3938C41.268 95.1759 40.7264 96.1021 40.4 97.1095C38.5186 103.139 43.4846 108.955 49.136 110.617C55.5873 112.518 62.1259 108.063 64.4641 102.142C65.3084 99.7105 65.8588 97.1891 66.1038 94.63C66.359 92.822 67.5892 91.1069 66.8361 89.2721C65.6009 86.2878 61.4681 85.929 58.726 87.079Z" fill="#F0F0F0"/>
<path d="M45.2028 86.8136C46.5942 90.1373 52.6354 89.2597 53.4211 85.9227C54.1737 82.6854 50.7331 80.9838 47.9978 81.8875C46.0113 82.5528 44.3113 84.6711 45.2028 86.8136Z" fill="#F0F0F0"/>
<path d="M79.3322 124.404L73.0801 118.222H32.4914L26.2485 124.404H79.3322Z" fill="#F0F0F0"/>
<path d="M43.8817 129.941H29.0571V138.276H43.8817V129.941Z" fill="#FAFAFA"/>
<path d="M157.376 247.651C229.335 247.651 287.67 244.282 287.67 240.126C287.67 235.971 229.335 232.602 157.376 232.602C85.4163 232.602 27.0815 235.971 27.0815 240.126C27.0815 244.282 85.4163 247.651 157.376 247.651Z" fill="#F5F5F5"/>
<path d="M175.022 245.331C193.984 245.331 209.355 243.212 209.355 240.598C209.355 237.985 193.984 235.866 175.022 235.866C156.061 235.866 140.69 237.985 140.69 240.598C140.69 243.212 156.061 245.331 175.022 245.331Z" fill="#2C7BE5"/>
<path d="M194.363 249.001C200.323 249.001 205.155 247.631 205.155 245.943C205.155 244.254 200.323 242.885 194.363 242.885C188.402 242.885 183.57 244.254 183.57 245.943C183.57 247.631 188.402 249.001 194.363 249.001Z" fill="#2C7BE5"/>
<path d="M212.997 244.753C214.211 244.753 215.194 244.506 215.194 244.201C215.194 243.896 214.211 243.649 212.997 243.649C211.783 243.649 210.8 243.896 210.8 244.201C210.8 244.506 211.783 244.753 212.997 244.753Z" fill="#2C7BE5"/>
<path d="M265.883 162.745H87.1047L94.6511 154.828H258.344L265.883 162.745Z" fill="#F0F0F0"/>
<path d="M269.6 35.4897H90.8208V162.745H269.6V35.4897Z" fill="#E0E0E0"/>
<path d="M265.884 35.4897H87.1047V162.745H265.884V35.4897Z" fill="#F5F5F5"/>
<path d="M258.337 40.8604H94.6443V154.828H258.337V40.8604Z" fill="#E0E0E0"/>
<path d="M249.709 45.9395H101.882V149.75H249.709V45.9395Z" fill="#2C7BE5"/>
<path opacity="0.1" d="M249.709 45.9395H101.882V149.75H249.709V45.9395Z" fill="black"/>
<path d="M265.883 35.4897L258.343 40.8605H94.6511L87.1047 35.4897H265.883Z" fill="#F0F0F0"/>
<path opacity="0.5" d="M149.124 55.8374C149.121 59.0459 148.38 62.2117 146.957 65.095C145.534 67.9782 143.467 70.5032 140.911 72.4785C138.355 74.4539 135.377 75.8277 132.205 76.496C129.032 77.1642 125.748 77.1093 122.6 76.3354C119.452 75.5615 116.524 74.0889 114.037 72.0293C111.55 69.9696 109.569 67.3769 108.245 64.4478C106.922 61.5186 106.29 58.3298 106.397 55.123C106.504 51.9163 107.348 48.7758 108.864 45.9395H146.657C148.288 48.9885 149.135 52.3878 149.123 55.8374H149.124Z" fill="black"/>
<path opacity="0.5" d="M221.278 109.711C223.227 97.9516 215.169 86.8556 203.281 84.9277C191.392 82.9999 180.175 90.9702 178.226 102.73C176.277 114.49 184.335 125.586 196.223 127.514C208.112 129.441 219.329 121.471 221.278 109.711Z" fill="#FAFAFA"/>
<path opacity="0.5" d="M249.708 57.1668V130.512C248.503 130.633 247.293 130.694 246.081 130.694C236.197 130.694 226.717 126.81 219.728 119.896C212.738 112.983 208.812 103.606 208.812 93.8283C208.812 84.0508 212.738 74.6739 219.728 67.7602C226.717 60.8465 236.197 56.9624 246.081 56.9624C247.293 56.9702 248.504 57.0384 249.708 57.1668Z" fill="black"/>
<path d="M271.3 38.1556V153.038C271.301 155.342 270.843 157.624 269.952 159.753C269.061 161.882 267.755 163.816 266.108 165.445C264.461 167.074 262.505 168.366 260.353 169.248C258.201 170.129 255.894 170.582 253.565 170.581H82.8772C78.1741 170.581 73.6636 168.733 70.3379 165.443C67.0122 162.154 65.1436 157.692 65.1433 153.04V38.1574C65.1422 35.8531 65.6 33.5711 66.4908 31.4418C67.3815 29.3125 68.6876 27.3777 70.3344 25.7479C71.9813 24.118 73.9366 22.8252 76.0888 21.9431C78.2409 21.061 80.5476 20.6069 82.8772 20.6069H253.565C258.269 20.6069 262.779 22.4551 266.105 25.7449C269.431 29.0346 271.299 33.4965 271.299 38.1489L271.3 38.1556Z" stroke="#2C7BE5" stroke-width="0.865" stroke-miterlimit="10"/>
<path d="M268.235 28.2973H68.2075C69.831 25.927 72.0172 23.9865 74.5746 22.6457C77.132 21.305 79.9827 20.6048 82.8772 20.6065H253.565C256.46 20.6042 259.311 21.3042 261.868 22.645C264.426 23.9859 266.612 25.9266 268.235 28.2973Z" fill="#2C7BE5" stroke="#2C7BE5" stroke-width="0.865" stroke-miterlimit="10"/>
<path d="M89.5811 24.4557C89.5811 24.7985 89.2986 25.0856 88.9387 25.0856C88.5788 25.0856 88.2964 24.7985 88.2964 24.4557C88.2964 24.1128 88.5788 23.8257 88.9387 23.8257C89.2986 23.8257 89.5811 24.1128 89.5811 24.4557Z" fill="white" stroke="#2C7BE5"/>
<path d="M95.5215 24.4557C95.5215 24.7985 95.2391 25.0856 94.8792 25.0856C94.5193 25.0856 94.2368 24.7985 94.2368 24.4557C94.2368 24.1128 94.5193 23.8257 94.8792 23.8257C95.2391 23.8257 95.5215 24.1128 95.5215 24.4557Z" fill="white" stroke="#2C7BE5"/>
<path d="M101.469 24.4557C101.469 24.7985 101.186 25.0856 100.826 25.0856C100.467 25.0856 100.184 24.7985 100.184 24.4557C100.184 24.1129 100.467 23.8257 100.826 23.8257C101.186 23.8257 101.469 24.1129 101.469 24.4557Z" fill="white" stroke="#2C7BE5"/>
<path d="M235.592 74.2822V6.33008H260.229V74.2822H235.592Z" fill="#E0E0E0" stroke="#2C7BE5"/>
<path d="M257.161 6.06934H231.524V74.5696H257.161V6.06934Z" fill="#FAFAFA" stroke="#2C7BE5" stroke-width="0.865" stroke-miterlimit="10"/>
<path d="M235.733 70.0344V53.0205H252.944V70.0344H235.733Z" fill="#2C7BE5" stroke="#2C7BE5"/>
<path d="M235.733 26.8269V9.81299H252.944V26.8269H235.733Z" fill="#2C7BE5" stroke="#2C7BE5"/>
<path opacity="0.5" d="M235.733 26.8269V9.81299H252.944V26.8269H235.733Z" fill="black" stroke="#2C7BE5"/>
<path d="M235.733 48.4441V31.4302H252.944V48.4441H235.733Z" fill="#2C7BE5" stroke="#2C7BE5"/>
<path opacity="0.2" d="M235.733 48.4441V31.4302H252.944V48.4441H235.733Z" fill="black" stroke="#2C7BE5"/>
<path d="M208.783 176.053H215.315" stroke="#2C7BE5" stroke-width="0.865" stroke-miterlimit="10"/>
<path d="M172.542 176.053H203.636" stroke="#2C7BE5" stroke-width="0.865" stroke-miterlimit="10"/>
<path d="M69.0813 49.1633V43.2275" stroke="#2C7BE5" stroke-width="0.865" stroke-miterlimit="10"/>
<path d="M69.0813 77.4875V56.4224" stroke="#2C7BE5" stroke-width="0.865" stroke-miterlimit="10"/>
<path d="M194.432 160.551V132.548H273.675V160.551H194.432Z" fill="#E0E0E0" stroke="#2C7BE5"/>
<path d="M271.286 132.487H191.284V160.791H271.286V132.487Z" fill="#FAFAFA" stroke="#2C7BE5" stroke-width="0.865" stroke-miterlimit="10"/>
<path d="M217.19 136.01H195.699V157.268H217.19V136.01Z" fill="white" stroke="#2C7BE5" stroke-width="0.865" stroke-miterlimit="10"/>
<path d="M242.262 136.01H220.772V157.268H242.262V136.01Z" fill="white" stroke="#2C7BE5" stroke-width="0.865" stroke-miterlimit="10"/>
<path d="M267.342 136.01H245.851V157.268H267.342V136.01Z" fill="white" stroke="#2C7BE5" stroke-width="0.865" stroke-miterlimit="10"/>
<path d="M209.821 143.207C211.684 145.051 211.684 148.04 209.821 149.884C207.957 151.727 204.935 151.727 203.071 149.884C201.208 148.04 201.208 145.051 203.071 143.207C204.935 141.364 207.957 141.364 209.821 143.207Z" fill="#2C7BE5" stroke="#2C7BE5"/>
<path d="M226.648 151.45V141.828H236.386V151.45H226.648Z" fill="#2C7BE5" stroke="#2C7BE5"/>
<path d="M256.596 142.436L261.105 151.357H252.087L256.596 142.436Z" fill="#2C7BE5" stroke="#2C7BE5"/>
<path d="M80.8277 105.985C80.0284 107.713 79.1879 109.621 78.4557 111.468C77.7234 113.316 76.9801 115.224 76.3253 117.118C75.001 120.858 73.9933 124.7 73.3127 128.605L73.1246 129.828C73.1116 130.038 73.1324 130.249 73.186 130.452C73.3857 131.143 73.6989 131.797 74.1132 132.387C75.1943 133.91 76.4479 135.306 77.8495 136.548C79.3273 137.907 80.8774 139.188 82.4932 140.384C84.1126 141.62 85.8065 142.816 87.4862 143.946L85.9135 146.871C81.9139 145.145 78.1169 142.992 74.5903 140.45C72.7123 139.093 71.0166 137.505 69.5438 135.724C68.6693 134.662 67.9872 133.459 67.5278 132.167C67.2604 131.363 67.1243 130.521 67.1245 129.674V128.632L67.2051 127.801C67.6878 123.463 68.6108 119.185 69.9601 115.03C70.6321 112.983 71.3041 110.942 72.1119 108.954C72.9198 106.967 73.7381 105.019 74.7557 102.972L80.8277 105.985Z" fill="#E58A7B"/>
<path d="M145.152 111.947C144.555 114.386 143.406 116.659 141.792 118.594C140.498 120.153 138.915 121.454 137.129 122.426C133.735 124.367 130.409 126.361 126.968 128.249C120.195 132.104 113.36 135.813 106.495 139.456C99.6288 143.099 92.6611 146.549 85.6626 149.912C78.664 153.276 71.51 156.481 64.3399 159.318C61.2216 160.322 58.1106 158.434 57.398 155.097C57.1547 153.915 57.2225 152.691 57.595 151.542C57.9675 150.393 58.6322 149.359 59.5253 148.537C65.7546 143.459 72.1721 138.839 78.6302 134.259C85.0883 129.679 91.5525 125.272 98.2123 121.024C104.872 116.776 111.464 112.589 118.157 108.556C121.517 106.509 124.877 104.568 128.237 102.574C130.001 101.396 132.027 100.656 134.142 100.416C136.257 100.177 138.399 100.445 140.387 101.198C144.272 102.72 146.342 107.354 145.152 111.947Z" fill="#2C7BE5"/>
<path opacity="0.3" d="M145.152 111.947C144.555 114.386 143.406 116.659 141.792 118.594C140.498 120.153 138.915 121.454 137.129 122.426C133.735 124.367 130.409 126.361 126.968 128.249C120.195 132.104 113.36 135.813 106.495 139.456C99.6288 143.099 92.6611 146.549 85.6626 149.912C78.664 153.276 71.51 156.481 64.3399 159.318C61.2216 160.322 58.1106 158.434 57.398 155.097C57.1547 153.915 57.2225 152.691 57.595 151.542C57.9675 150.393 58.6322 149.359 59.5253 148.537C65.7546 143.459 72.1721 138.839 78.6302 134.259C85.0883 129.679 91.5525 125.272 98.2123 121.024C104.872 116.776 111.464 112.589 118.157 108.556C121.517 106.509 124.877 104.568 128.237 102.574C130.001 101.396 132.027 100.656 134.142 100.416C136.257 100.177 138.399 100.445 140.387 101.198C144.272 102.72 146.342 107.354 145.152 111.947Z" fill="black"/>
<path d="M174.491 106.23C165.205 115.377 154.331 116.314 147.773 101.643C139.897 84.0743 158.377 76.1377 167.328 77.6465C172.159 78.4639 177.441 78.903 182.017 77.2342C185.928 75.8184 189.322 72.8736 191.466 67.3296C189.84 83.3311 182.784 98.0536 174.491 106.23Z" fill="#2C7BE5"/>
<path opacity="0.8" d="M174.491 106.23C165.205 115.377 154.331 116.314 147.773 101.643C139.897 84.0743 158.377 76.1377 167.328 77.6465C172.159 78.4639 177.441 78.903 182.017 77.2342C185.928 75.8184 189.322 72.8736 191.466 67.3296C189.84 83.3311 182.784 98.0536 174.491 106.23Z" fill="white"/>
<path d="M174.491 106.23C173.922 105.948 173.391 105.595 172.912 105.179C170.547 103.092 169.955 99.0569 172.139 96.7775C169.706 95.9066 168.396 93.0349 168.839 90.5225C169.283 88.0102 171.176 85.9096 173.429 84.6464C174.934 83.8023 176.608 83.2768 178.086 82.3731C180.001 81.2081 181.404 79.3743 182.017 77.2347C185.928 75.8189 189.321 72.8741 191.465 67.3301C189.84 83.331 182.784 98.0535 174.491 106.23Z" fill="#2C7BE5"/>
<path d="M166.239 95.1097C166.181 95.2895 166.061 95.4438 165.9 95.5461C165.74 95.6484 165.548 95.6925 165.358 95.6709C165.168 95.6493 164.992 95.5632 164.859 95.4275C164.726 95.2917 164.645 95.1145 164.629 94.9262C164.614 94.7378 164.664 94.5499 164.773 94.3944C164.881 94.2389 165.041 94.1254 165.225 94.0732C165.408 94.0211 165.605 94.0335 165.78 94.1084C165.956 94.1832 166.099 94.3159 166.187 94.4839C166.237 94.5796 166.267 94.6842 166.276 94.7916C166.285 94.899 166.273 95.0071 166.239 95.1097Z" fill="#2C7BE5"/>
<path d="M166.965 90.1434C166.807 90.6462 166.501 91.0913 166.087 91.4223C165.673 91.7532 165.169 91.9551 164.639 92.0024C164.109 92.0497 163.576 91.9402 163.109 91.6878C162.642 91.4354 162.261 91.0515 162.015 90.5847C161.769 90.1179 161.668 89.5893 161.726 89.0659C161.783 88.5425 161.997 88.0478 162.339 87.6445C162.681 87.2413 163.137 86.9476 163.648 86.8008C164.159 86.654 164.703 86.6606 165.21 86.8198C165.887 87.0322 166.452 87.501 166.781 88.1237C167.109 88.7465 167.175 89.4726 166.965 90.1434Z" fill="#2C7BE5"/>
<path opacity="0.2" d="M174.491 106.23C173.922 105.948 173.391 105.595 172.912 105.179C170.547 103.092 169.955 99.0569 172.139 96.7775C169.706 95.9066 168.396 93.0349 168.839 90.5225C169.283 88.0102 171.176 85.9096 173.429 84.6464C174.934 83.8023 176.608 83.2768 178.086 82.3731C180.001 81.2081 181.404 79.3743 182.017 77.2347C185.928 75.8189 189.321 72.8741 191.465 67.3301C189.84 83.331 182.784 98.0535 174.491 106.23Z" fill="black"/>
<path opacity="0.2" d="M166.239 95.1097C166.181 95.2895 166.061 95.4438 165.9 95.5461C165.74 95.6484 165.548 95.6925 165.358 95.6709C165.168 95.6493 164.992 95.5632 164.859 95.4275C164.726 95.2917 164.645 95.1145 164.629 94.9262C164.614 94.7378 164.664 94.5499 164.773 94.3944C164.881 94.2389 165.041 94.1254 165.225 94.0732C165.408 94.0211 165.605 94.0335 165.78 94.1084C165.956 94.1832 166.099 94.3159 166.187 94.4839C166.237 94.5796 166.267 94.6842 166.276 94.7916C166.285 94.899 166.273 95.0071 166.239 95.1097Z" fill="black"/>
<path opacity="0.2" d="M166.965 90.1434C166.807 90.6462 166.501 91.0913 166.087 91.4223C165.673 91.7532 165.169 91.9551 164.639 92.0024C164.109 92.0497 163.576 91.9402 163.109 91.6878C162.642 91.4354 162.261 91.0515 162.015 90.5847C161.769 90.1179 161.668 89.5893 161.726 89.0659C161.783 88.5425 161.997 88.0478 162.339 87.6445C162.681 87.2413 163.137 86.9476 163.648 86.8008C164.159 86.654 164.703 86.6606 165.21 86.8198C165.887 87.0322 166.452 87.501 166.781 88.1237C167.109 88.7465 167.175 89.4726 166.965 90.1434Z" fill="black"/>
<path d="M81.8131 135.601C81.8131 135.601 76.7193 149.674 79.5752 158.202C82.431 166.73 88.1765 179.799 87.8943 183.781C87.6121 187.763 66.525 216.459 64.8047 226.669L71.8001 228.663C71.8001 228.663 93.1959 203.084 98.3039 195.127C103.412 187.171 103.68 180.349 100.246 170.406C100.246 170.406 108.31 179.214 108.868 182.338C109.425 185.462 101.973 215.022 104.836 226.673L114.029 228.667C114.029 228.667 121.501 195.705 123.51 189.163C125.52 182.621 123.51 172.398 120.352 166.143C117.194 159.887 108.612 135.565 108.612 135.565L81.8131 135.601Z" fill="#263238"/>
<path d="M69.9483 230.208L67.366 235.845L62.0503 235.619L64.8121 229.005L69.9483 230.208Z" fill="#FF8B7B"/>
<path d="M112.196 231.072L111.235 235.845H106.088L106.989 229.005L112.196 231.072Z" fill="#FF8B7B"/>
<path d="M112.896 235.846C112.896 235.846 114.059 232.569 114.946 232.974C115.833 233.379 113.554 236.258 113.554 236.258C113.554 236.258 116.121 234.317 116.478 235.135C116.835 235.953 112.896 235.846 112.896 235.846Z" stroke="#2C7BE5" stroke-miterlimit="10"/>
<path d="M69.2832 235.845C69.2832 235.845 69.9552 232.921 70.701 233.266C71.4468 233.612 69.2832 235.845 69.2832 235.845Z" stroke="#2C7BE5" stroke-miterlimit="10"/>
<path d="M69.2832 236.257C69.2832 236.257 73.06 234.476 73.3152 235.42C73.5703 236.364 69.2832 236.257 69.2832 236.257Z" stroke="#2C7BE5" stroke-miterlimit="10"/>
<path d="M61.1514 241.522C61.1514 241.522 60.1498 241.522 60.0964 240.645C60.0429 239.767 61.1514 235.42 61.1514 235.42H68.4899C68.4899 235.42 71.7153 238.165 73.4355 238.471C75.1558 238.777 76.3787 238.83 76.4395 239.655C76.5004 240.479 75.0955 241.522 75.0955 241.522H61.1514Z" fill="#263238"/>
<path d="M105.356 235.42C105.356 235.42 103.884 240.671 104.12 241.258C104.355 241.845 123.453 241.258 123.453 241.258C123.729 241.071 123.953 240.818 124.106 240.523C124.258 240.229 124.334 239.901 124.327 239.57C124.219 238.52 118.386 238.985 116.323 237.875C114.26 236.765 112.19 235.422 112.19 235.422L105.356 235.42Z" fill="#263238"/>
<path d="M74.4305 228.034L62.8921 225.701L62.0522 228.646L72.5356 231.637L74.4305 228.034Z" fill="#2C7BE5"/>
<path d="M115.416 227.869C115.232 227.747 103.858 226.307 103.858 226.307L104.59 229.737L115.416 231.638L115.416 227.869Z" fill="#2C7BE5"/>
<path opacity="0.3" d="M100.25 170.389L93.616 163.868L101.673 175.209L100.25 170.389Z" fill="black"/>
<path d="M106.088 74.8218C106.417 75.9733 106.867 77.0873 107.432 78.1454C107.27 78.3326 107.059 78.4716 106.821 78.5468C106.584 78.622 106.33 78.6304 106.088 78.5711V74.8218Z" fill="#DF5753"/>
<path d="M106.075 72.9541C106.424 72.9541 106.706 73.3859 106.706 73.9114C106.706 74.4368 106.424 74.8686 106.075 74.8686C105.725 74.8686 105.443 74.4429 105.443 73.9114C105.443 73.3798 105.725 72.9541 106.075 72.9541Z" fill="#263238"/>
<path d="M89.6578 80.9307C90.4238 84.7992 91.1899 91.899 88.4417 94.4928C88.4417 94.4928 89.5237 98.4215 96.8032 98.4215C104.807 98.4215 100.62 94.4928 100.62 94.4928C96.2548 93.4559 96.3661 90.252 97.1322 87.2404L89.6578 80.9307Z" fill="#E58A7B"/>
<path d="M87.5279 72.1034C87.9312 78.5713 87.9644 81.3232 91.2642 84.6402C96.2368 89.6387 104.18 87.7376 105.739 81.3165C107.143 75.4933 107.083 67.1311 100.659 64.5585C96.0961 62.6975 90.061 63.6213 88.1778 68.1345C87.6558 69.3904 87.4328 70.7481 87.526 72.1028L87.5279 72.1034Z" fill="#E58A7B"/>
<path d="M86.1298 94.9295C86.0752 94.5479 86.1731 94.1602 86.4026 93.8488C86.6322 93.5373 86.9754 93.3266 87.3594 93.2613C90.3161 92.7827 97.0496 91.8017 100.437 92.2645C102.957 92.6166 103.615 94.0659 103.723 95.2555C103.755 95.6405 103.632 96.0226 103.38 96.3178C103.128 96.6131 102.768 96.7975 102.379 96.8306H102.143L87.5137 96.1659C87.1753 96.1461 86.8539 96.0128 86.6023 95.788C86.3508 95.5633 86.1841 95.2605 86.1298 94.9295Z" fill="#2C7BE5"/>
<path opacity="0.6" d="M86.1298 94.9295C86.0752 94.5479 86.1731 94.1602 86.4026 93.8488C86.6322 93.5373 86.9754 93.3266 87.3594 93.2613C90.3161 92.7827 97.0496 91.8017 100.437 92.2645C102.957 92.6166 103.615 94.0659 103.723 95.2555C103.755 95.6405 103.632 96.0226 103.38 96.3178C103.128 96.6131 102.768 96.7975 102.379 96.8306H102.143L87.5137 96.1659C87.1753 96.1461 86.8539 96.0128 86.6023 95.788C86.3508 95.5633 86.1841 95.2605 86.1298 94.9295Z" fill="black"/>
<path d="M77.0581 95.9669C74.3295 96.6316 71.6821 106.416 71.6821 106.416L82.3468 113.456C82.3468 113.456 85.9288 105.692 84.6721 102.302C83.3951 98.765 80.4851 95.1623 77.0581 95.9669Z" fill="#2C7BE5"/>
<path opacity="0.2" d="M79.1479 102.289L78.4102 110.837L82.3684 113.496C83.4642 111.058 84.2758 108.504 84.7877 105.885L79.1479 102.289Z" fill="black"/>
<path d="M111.78 96.1595C111.78 96.1595 114.925 97.25 108.622 135.569H81.8156C82.2656 124.754 82.2792 118.093 77.0581 95.9643C80.8115 95.2009 84.616 94.7078 88.4415 94.4889C92.495 94.1964 96.5646 94.1964 100.618 94.4889C105.853 94.9633 111.78 96.1595 111.78 96.1595Z" fill="#2C7BE5"/>
<path d="M114.126 96.0068C115.085 96.7651 115.905 97.6802 116.552 98.7125C117.486 100.221 118.519 105.46 118.185 107.56L109.046 114.407C109.046 114.407 102.131 97.4299 103.381 94.0394C104.147 91.9716 106.411 91.9053 108.085 92.477C110.285 93.3078 112.327 94.5003 114.126 96.0044V96.0068Z" fill="#2C7BE5"/>
<path d="M104.959 68.7663C105.074 70.6812 104.646 72.5897 103.723 74.2769C102.225 76.816 101.922 81.775 103.494 84.2508C104.764 86.245 107.217 87.136 108.749 88.9508C110.281 90.7655 111.04 93.2383 109.763 95.4849C108.628 97.4791 106.545 98.6358 105.187 100.457C103.346 102.923 101.579 106.107 97.97 105.775C92.8294 105.337 92.083 100.716 88.4402 101.162C84.7974 101.608 79.2474 102.365 78.4076 96.7882C77.8831 93.3648 80.4906 91.2539 81.1626 88.1468C81.6464 85.9531 80.2957 84.0058 80.1881 81.8382C80.1304 80.7193 80.2979 79.6001 80.6809 78.5456C81.0639 77.4912 81.6548 76.5225 82.4193 75.6958C83.5346 74.4794 84.9191 73.6547 85.6114 72.0863C86.1648 70.8432 86.5656 69.5405 87.0968 68.284C88.2121 65.6251 90.3222 63.6309 93.4541 63.2587C102.143 62.2522 104.496 65.3162 104.959 68.7663Z" fill="#263238"/>
<path d="M101.331 75.7323C101.331 76.9623 101.687 78.1665 102.359 79.2019C103.246 80.5313 104.301 80.0327 104.563 78.6035C104.798 77.347 104.616 75.1272 103.481 74.2563C102.345 73.3854 101.344 74.2435 101.331 75.7323Z" fill="#E58A7B"/>
<path d="M117.371 108.178C117.371 108.178 116.572 125.826 119.818 128.784C123.063 131.742 130.26 127.156 130.26 127.156L131.678 121.053L136.166 121.253C136.166 121.253 137.04 128.791 131.678 132.078C126.316 135.365 121.753 138.871 115.376 133.793C108.125 128.016 109.509 113.891 109.509 113.891L117.371 108.178Z" fill="#E58A7B"/>
<path d="M105.248 71.9037C105.402 71.397 105.687 70.9388 106.075 70.5742" stroke="#263238" stroke-linecap="round" stroke-linejoin="round"/>
<path opacity="0.2" d="M109.536 113.915L106.727 108.178L107.117 115.004C107.986 114.796 108.807 114.426 109.536 113.915Z" fill="black"/>
</svg>
