<svg xmlns="http://www.w3.org/2000/svg" width="379.475" height="293.743" viewBox="0 0 379.475 293.743"><defs><style>.a{fill:#f2f2f2;}</style></defs><path class="a" d="M379.226,134.77,360.012,52.947a9.378,9.378,0,0,0-13.3-6.256L279.923,79.835H99.554L32.761,46.691a9.378,9.378,0,0,0-13.3,6.256L.249,134.77a9.378,9.378,0,0,0,4.957,10.542l64.018,31.8V330.08a9.377,9.377,0,0,0,9.377,9.377H300.857a9.377,9.377,0,0,0,9.377-9.377V177.121l64.036-31.809A9.378,9.378,0,0,0,379.226,134.77ZM227.392,221.307H152.065a9.377,9.377,0,1,1,0-18.754h75.327a9.377,9.377,0,1,1,0,18.754ZM90.361,161.922,104.83,98.589h169.8l14.47,63.333Z" transform="translate(0 -45.714)"/></svg>